G04 #@! TF.GenerationSoftware,KiCad,Pcbnew,7.0.8*
G04 #@! TF.CreationDate,2024-01-06T20:32:25+01:00*
G04 #@! TF.ProjectId,openautolab,6f70656e-6175-4746-9f6c-61622e6b6963,rev?*
G04 #@! TF.SameCoordinates,Original*
G04 #@! TF.FileFunction,Copper,L1,Top*
G04 #@! TF.FilePolarity,Positive*
%FSLAX46Y46*%
G04 Gerber Fmt 4.6, Leading zero omitted, Abs format (unit mm)*
G04 Created by KiCad (PCBNEW 7.0.8) date 2024-01-06 20:32:25*
%MOMM*%
%LPD*%
G01*
G04 APERTURE LIST*
G04 #@! TA.AperFunction,ComponentPad*
%ADD10R,2.600000X2.600000*%
G04 #@! TD*
G04 #@! TA.AperFunction,ComponentPad*
%ADD11C,2.600000*%
G04 #@! TD*
G04 #@! TA.AperFunction,ComponentPad*
%ADD12R,1.700000X1.700000*%
G04 #@! TD*
G04 #@! TA.AperFunction,ComponentPad*
%ADD13O,1.700000X1.700000*%
G04 #@! TD*
G04 #@! TA.AperFunction,ComponentPad*
%ADD14R,1.600000X1.600000*%
G04 #@! TD*
G04 #@! TA.AperFunction,ComponentPad*
%ADD15C,1.600000*%
G04 #@! TD*
G04 #@! TA.AperFunction,ComponentPad*
%ADD16R,1.800000X1.275000*%
G04 #@! TD*
G04 #@! TA.AperFunction,ComponentPad*
%ADD17O,1.800000X1.275000*%
G04 #@! TD*
G04 #@! TA.AperFunction,ComponentPad*
%ADD18R,3.200000X3.200000*%
G04 #@! TD*
G04 #@! TA.AperFunction,ComponentPad*
%ADD19O,3.200000X3.200000*%
G04 #@! TD*
G04 #@! TA.AperFunction,ComponentPad*
%ADD20R,2.200000X2.200000*%
G04 #@! TD*
G04 #@! TA.AperFunction,ComponentPad*
%ADD21O,2.200000X2.200000*%
G04 #@! TD*
G04 #@! TA.AperFunction,SMDPad,CuDef*
%ADD22C,2.000000*%
G04 #@! TD*
G04 #@! TA.AperFunction,ComponentPad*
%ADD23R,2.000000X2.000000*%
G04 #@! TD*
G04 #@! TA.AperFunction,ComponentPad*
%ADD24C,2.000000*%
G04 #@! TD*
G04 #@! TA.AperFunction,ComponentPad*
%ADD25C,3.000000*%
G04 #@! TD*
G04 #@! TA.AperFunction,ComponentPad*
%ADD26O,1.600000X1.600000*%
G04 #@! TD*
G04 #@! TA.AperFunction,ComponentPad*
%ADD27C,3.600000*%
G04 #@! TD*
G04 #@! TA.AperFunction,ViaPad*
%ADD28C,0.800000*%
G04 #@! TD*
G04 #@! TA.AperFunction,ViaPad*
%ADD29C,1.600000*%
G04 #@! TD*
G04 #@! TA.AperFunction,ViaPad*
%ADD30C,2.000000*%
G04 #@! TD*
G04 #@! TA.AperFunction,Conductor*
%ADD31C,0.250000*%
G04 #@! TD*
G04 #@! TA.AperFunction,Conductor*
%ADD32C,1.000000*%
G04 #@! TD*
G04 #@! TA.AperFunction,Conductor*
%ADD33C,2.000000*%
G04 #@! TD*
G04 APERTURE END LIST*
G04 #@! TA.AperFunction,EtchedComponent*
G36*
X158480000Y-52800000D02*
G01*
X156480000Y-52800000D01*
X156480000Y-48800000D01*
X158480000Y-48800000D01*
X158480000Y-52800000D01*
G37*
G04 #@! TD.AperFunction*
D10*
X161285000Y-44760000D03*
D11*
X166365000Y-44760000D03*
D12*
X72250000Y-92715000D03*
D13*
X72250000Y-90175000D03*
X72250000Y-87635000D03*
X72250000Y-85095000D03*
D14*
X154860000Y-60960000D03*
D15*
X149860000Y-60960000D03*
D12*
X172720000Y-50800000D03*
D13*
X172720000Y-48260000D03*
D16*
X151660000Y-68887000D03*
D17*
X151660000Y-70587000D03*
X151660000Y-72287000D03*
X151660000Y-73987000D03*
X151660000Y-75687000D03*
D18*
X145445000Y-71120000D03*
D19*
X130205000Y-71120000D03*
D12*
X152400000Y-53340000D03*
D13*
X149860000Y-53340000D03*
D10*
X59685000Y-44750000D03*
D11*
X64765000Y-44750000D03*
D10*
X85085000Y-44760000D03*
D11*
X90165000Y-44760000D03*
D10*
X46985000Y-44750000D03*
D11*
X52065000Y-44750000D03*
D20*
X142520000Y-54530000D03*
D21*
X142520000Y-64690000D03*
D20*
X123470000Y-54530000D03*
D21*
X123470000Y-64690000D03*
D10*
X97790000Y-44760000D03*
D11*
X102870000Y-44760000D03*
D22*
X157480000Y-52800000D03*
X157480000Y-48800000D03*
D23*
X147320000Y-86360000D03*
D24*
X152320000Y-86360000D03*
D25*
X83820000Y-71120000D03*
X77820000Y-56920000D03*
X89820000Y-56920000D03*
X89820000Y-69120000D03*
X77820000Y-69120000D03*
D12*
X40640000Y-71120000D03*
D13*
X40640000Y-68580000D03*
X40640000Y-66040000D03*
D23*
X133360000Y-83820000D03*
D24*
X140960000Y-83820000D03*
D20*
X117120000Y-54530000D03*
D21*
X117120000Y-64690000D03*
D14*
X54360000Y-72345000D03*
D26*
X54360000Y-69805000D03*
X54360000Y-67265000D03*
X54360000Y-64725000D03*
X54360000Y-62185000D03*
X54360000Y-59645000D03*
X54360000Y-57105000D03*
X54360000Y-54565000D03*
X46740000Y-54565000D03*
X46740000Y-57105000D03*
X46740000Y-59645000D03*
X46740000Y-62185000D03*
X46740000Y-64725000D03*
X46740000Y-67265000D03*
X46740000Y-69805000D03*
X46740000Y-72345000D03*
D24*
X70870000Y-117165600D03*
X77370000Y-117165600D03*
X70870000Y-121665600D03*
X77370000Y-121665600D03*
D20*
X136170000Y-54530000D03*
D21*
X136170000Y-64690000D03*
D25*
X104140000Y-71120000D03*
X98140000Y-56920000D03*
X110140000Y-56920000D03*
X110140000Y-69120000D03*
X98140000Y-69120000D03*
D10*
X135885000Y-44760000D03*
D11*
X140965000Y-44760000D03*
D27*
X172720000Y-66579700D03*
X162560000Y-66579700D03*
D20*
X129820000Y-54530000D03*
D21*
X129820000Y-64690000D03*
D10*
X110485000Y-44760000D03*
D11*
X115565000Y-44760000D03*
D24*
X131830000Y-116870600D03*
X138330000Y-116870600D03*
X131830000Y-121370600D03*
X138330000Y-121370600D03*
D12*
X91415000Y-92700000D03*
D13*
X91415000Y-90160000D03*
X91415000Y-87620000D03*
X91415000Y-85080000D03*
D14*
X69720000Y-72330000D03*
D26*
X69720000Y-69790000D03*
X69720000Y-67250000D03*
X69720000Y-64710000D03*
X69720000Y-62170000D03*
X69720000Y-59630000D03*
X69720000Y-57090000D03*
X69720000Y-54550000D03*
X62100000Y-54550000D03*
X62100000Y-57090000D03*
X62100000Y-59630000D03*
X62100000Y-62170000D03*
X62100000Y-64710000D03*
X62100000Y-67250000D03*
X62100000Y-69790000D03*
X62100000Y-72330000D03*
D10*
X123190000Y-44760000D03*
D11*
X128270000Y-44760000D03*
D10*
X72385000Y-44760000D03*
D11*
X77465000Y-44760000D03*
D14*
X135890000Y-111750000D03*
D26*
X138430000Y-111750000D03*
X140970000Y-111750000D03*
X143510000Y-111750000D03*
X146050000Y-111750000D03*
X148590000Y-111750000D03*
X151130000Y-111750000D03*
X153670000Y-111750000D03*
X156210000Y-111750000D03*
X158750000Y-111750000D03*
X161290000Y-111750000D03*
X163830000Y-111750000D03*
X166370000Y-111750000D03*
X168910000Y-111750000D03*
X171450000Y-111750000D03*
X171450000Y-96510000D03*
X168910000Y-96510000D03*
X166370000Y-96510000D03*
X163830000Y-96510000D03*
X161290000Y-96510000D03*
X158750000Y-96510000D03*
X156210000Y-96510000D03*
X153670000Y-96510000D03*
X151130000Y-96510000D03*
X148590000Y-96510000D03*
X146050000Y-96510000D03*
X143510000Y-96510000D03*
X140970000Y-96510000D03*
X138430000Y-96510000D03*
X135890000Y-96510000D03*
D24*
X101350000Y-117165600D03*
X107850000Y-117165600D03*
X101350000Y-121665600D03*
X107850000Y-121665600D03*
D10*
X148585000Y-44760000D03*
D11*
X153665000Y-44760000D03*
D28*
X139358800Y-108752700D03*
X108197700Y-86847100D03*
X143335100Y-109197400D03*
X110706000Y-87376700D03*
X122354000Y-95824200D03*
X141694300Y-107991700D03*
X151440800Y-103355000D03*
X152686600Y-102752200D03*
X142999800Y-107560600D03*
X69861400Y-78964600D03*
X146334800Y-108099100D03*
D29*
X110175500Y-89456500D03*
X54594700Y-52499100D03*
X79045300Y-85365100D03*
X131580800Y-98124600D03*
X80087100Y-62518300D03*
D30*
X70487500Y-76291800D03*
X84563000Y-56943500D03*
D31*
X141231000Y-110624900D02*
X151701200Y-110624900D01*
X104748900Y-86847100D02*
X108197700Y-86847100D01*
X70845100Y-59630000D02*
X74933100Y-63718000D01*
X69720000Y-59630000D02*
X70845100Y-59630000D01*
X81619800Y-63718000D02*
X104748900Y-86847100D01*
X152544900Y-111468600D02*
X152544900Y-111750000D01*
X74933100Y-63718000D02*
X81619800Y-63718000D01*
X151701200Y-110624900D02*
X152544900Y-111468600D01*
X139358800Y-108752700D02*
X141231000Y-110624900D01*
X153670000Y-111750000D02*
X152544900Y-111750000D01*
X63225100Y-59630000D02*
X67035100Y-63440000D01*
X143335100Y-109197400D02*
X144312400Y-110174700D01*
X144312400Y-110174700D02*
X153790900Y-110174700D01*
X110510500Y-87572200D02*
X110706000Y-87376700D01*
X62100000Y-59630000D02*
X63225100Y-59630000D01*
X82831600Y-65643200D02*
X104760600Y-87572200D01*
X67035100Y-63440000D02*
X71561100Y-63440000D01*
X73764300Y-65643200D02*
X82831600Y-65643200D01*
X71561100Y-63440000D02*
X73764300Y-65643200D01*
X156210000Y-111750000D02*
X155084900Y-111750000D01*
X155084900Y-111468700D02*
X155084900Y-111750000D01*
X104760600Y-87572200D02*
X110510500Y-87572200D01*
X153790900Y-110174700D02*
X155084900Y-111468700D01*
X158750000Y-111750000D02*
X157624900Y-111750000D01*
X157624900Y-111468700D02*
X157624900Y-111750000D01*
X69720000Y-67250000D02*
X83391700Y-67250000D01*
X145096200Y-109724500D02*
X155880700Y-109724500D01*
X142123100Y-108420500D02*
X143792200Y-108420500D01*
X141694300Y-107991700D02*
X142123100Y-108420500D01*
X111965900Y-95824200D02*
X122354000Y-95824200D01*
X143792200Y-108420500D02*
X145096200Y-109724500D01*
X155880700Y-109724500D02*
X157624900Y-111468700D01*
X83391700Y-67250000D02*
X111965900Y-95824200D01*
X62100000Y-67250000D02*
X62100000Y-68375100D01*
X63514800Y-69556800D02*
X62333100Y-68375100D01*
X105080300Y-103355000D02*
X93250100Y-91524800D01*
X63514800Y-71842100D02*
X63514800Y-69556800D01*
X88487200Y-91524800D02*
X75201800Y-78239400D01*
X62333100Y-68375100D02*
X62100000Y-68375100D01*
X93250100Y-91524800D02*
X88487200Y-91524800D01*
X75201800Y-78239400D02*
X69912100Y-78239400D01*
X69912100Y-78239400D02*
X63514800Y-71842100D01*
X151440800Y-103355000D02*
X105080300Y-103355000D01*
X66242600Y-73920900D02*
X66242600Y-69801500D01*
X61534700Y-65835200D02*
X55485100Y-59785600D01*
X89236500Y-88838300D02*
X78015200Y-77617000D01*
X69938700Y-77617000D02*
X66242600Y-73920900D01*
X78015200Y-77617000D02*
X69938700Y-77617000D01*
X62276300Y-65835200D02*
X61534700Y-65835200D01*
X93808400Y-88838300D02*
X89236500Y-88838300D01*
X66242600Y-69801500D02*
X62276300Y-65835200D01*
X101969600Y-96999500D02*
X93808400Y-88838300D01*
X132046800Y-96999500D02*
X101969600Y-96999500D01*
X54360000Y-59645000D02*
X55485100Y-59645000D01*
X152236500Y-102302100D02*
X137349400Y-102302100D01*
X152686600Y-102752200D02*
X152236500Y-102302100D01*
X137349400Y-102302100D02*
X132046800Y-96999500D01*
X55485100Y-59785600D02*
X55485100Y-59645000D01*
X165590500Y-109274300D02*
X146397500Y-109274300D01*
X67068100Y-78964600D02*
X55485100Y-67381600D01*
X54360000Y-67265000D02*
X55485100Y-67265000D01*
X167784900Y-111468700D02*
X165590500Y-109274300D01*
X168910000Y-111750000D02*
X167784900Y-111750000D01*
X146397500Y-109274300D02*
X144683800Y-107560600D01*
X167784900Y-111750000D02*
X167784900Y-111468700D01*
X69861400Y-78964600D02*
X67068100Y-78964600D01*
X144683800Y-107560600D02*
X142999800Y-107560600D01*
X55485100Y-67381600D02*
X55485100Y-67265000D01*
X170324900Y-111468700D02*
X166955300Y-108099100D01*
X170324900Y-111750000D02*
X170324900Y-111468700D01*
X171450000Y-111750000D02*
X170324900Y-111750000D01*
X166955300Y-108099100D02*
X146334800Y-108099100D01*
X162704900Y-96791300D02*
X152660700Y-106835500D01*
X112874000Y-118501500D02*
X78705900Y-118501500D01*
X124540000Y-106835500D02*
X112874000Y-118501500D01*
X163830000Y-96510000D02*
X162704900Y-96510000D01*
X162704900Y-96510000D02*
X162704900Y-96791300D01*
X152660700Y-106835500D02*
X124540000Y-106835500D01*
X78705900Y-118501500D02*
X77370000Y-117165600D01*
X160164900Y-96730900D02*
X160164900Y-96510000D01*
X161290000Y-96510000D02*
X160164900Y-96510000D01*
X101350000Y-117165600D02*
X107850000Y-117165600D01*
X152815700Y-104080100D02*
X160164900Y-96730900D01*
X120935500Y-104080100D02*
X152815700Y-104080100D01*
X107850000Y-117165600D02*
X120935500Y-104080100D01*
X153670000Y-96510000D02*
X152544900Y-96510000D01*
X133326900Y-97642900D02*
X132233400Y-96549400D01*
X152544900Y-96510000D02*
X152544900Y-96791300D01*
X152544900Y-96791300D02*
X151693300Y-97642900D01*
X132233400Y-96549400D02*
X102156200Y-96549400D01*
X91415000Y-87620000D02*
X92590100Y-87620000D01*
X151693300Y-97642900D02*
X133326900Y-97642900D01*
X93226800Y-87620000D02*
X92590100Y-87620000D01*
X102156200Y-96549400D02*
X93226800Y-87620000D01*
D32*
X128270000Y-44760000D02*
X128270000Y-44829900D01*
X136170000Y-54530000D02*
X136170000Y-52729900D01*
D33*
X128270000Y-44829900D02*
X136170000Y-52729900D01*
D32*
X123470000Y-54530000D02*
X123470000Y-52729900D01*
D33*
X123190000Y-44760000D02*
X123190000Y-52449900D01*
D32*
X123190000Y-52449900D02*
X123470000Y-52729900D01*
X138330000Y-121370600D02*
X143510000Y-116190600D01*
X72600600Y-94615700D02*
X72250000Y-94265100D01*
X72600600Y-121665600D02*
X70870000Y-121665600D01*
X155193800Y-66293800D02*
X157480000Y-64007600D01*
X140515000Y-83820000D02*
X140515000Y-83730100D01*
X138430000Y-96510000D02*
X138430000Y-95009900D01*
X143510000Y-116190600D02*
X143510000Y-111750000D01*
X127904900Y-71733600D02*
X127904900Y-71120000D01*
X153260100Y-72287000D02*
X153260100Y-68227500D01*
X140960000Y-83820000D02*
X140515000Y-83820000D01*
X131830000Y-121370600D02*
X138330000Y-121370600D01*
X151660000Y-72287000D02*
X153260100Y-72287000D01*
X151462800Y-72287000D02*
X151660000Y-72287000D01*
X151660000Y-75687000D02*
X150059900Y-75687000D01*
X89864900Y-92700000D02*
X89849900Y-92715000D01*
X72250000Y-92715000D02*
X72250000Y-94265100D01*
X72600600Y-121665600D02*
X72600600Y-94615700D01*
X140515000Y-83730100D02*
X130205000Y-73420100D01*
X91415000Y-92700000D02*
X89864900Y-92700000D01*
X130205000Y-71120000D02*
X127904900Y-71120000D01*
X110182000Y-89456500D02*
X127904900Y-71733600D01*
X149860000Y-60960000D02*
X155193800Y-66293800D01*
X153260100Y-68227500D02*
X155193800Y-66293800D01*
X107850000Y-121665600D02*
X101350000Y-121665600D01*
X151462800Y-72287000D02*
X150059900Y-72287000D01*
X138430000Y-85905000D02*
X138430000Y-95009900D01*
X150059900Y-72287000D02*
X150059900Y-75687000D01*
X130205000Y-71120000D02*
X130205000Y-73420100D01*
X157480000Y-64007600D02*
X157480000Y-52800000D01*
X89849900Y-92715000D02*
X72250000Y-92715000D01*
X131830000Y-121370600D02*
X108145000Y-121370600D01*
X101350000Y-121665600D02*
X77370000Y-121665600D01*
X77370000Y-121665600D02*
X72600600Y-121665600D01*
X108145000Y-121370600D02*
X107850000Y-121665600D01*
X140515000Y-83820000D02*
X138430000Y-85905000D01*
X110175500Y-89456500D02*
X110182000Y-89456500D01*
D33*
X142520000Y-63789900D02*
X142520000Y-62889900D01*
X146584900Y-44760000D02*
X146584900Y-58825000D01*
X148585000Y-44760000D02*
X146584900Y-44760000D01*
X146584900Y-58825000D02*
X142520000Y-62889900D01*
X142520000Y-64690000D02*
X142520000Y-63789900D01*
D32*
X52822700Y-68267700D02*
X52822700Y-53963000D01*
X52822700Y-53963000D02*
X54286600Y-52499100D01*
X54360000Y-69805000D02*
X52822700Y-68267700D01*
X54286600Y-52499100D02*
X54594700Y-52499100D01*
X46740000Y-54565000D02*
X46740000Y-53064900D01*
X51854500Y-47950400D02*
X46740000Y-53064900D01*
X67194500Y-47950400D02*
X51854500Y-47950400D01*
X72385000Y-44760000D02*
X70384900Y-44760000D01*
X70384900Y-44760000D02*
X67194500Y-47950400D01*
X49545600Y-53026400D02*
X53375400Y-49196600D01*
X49545600Y-69539400D02*
X49545600Y-53026400D01*
X76604500Y-42759900D02*
X81084800Y-42759900D01*
X46740000Y-72345000D02*
X49545600Y-69539400D01*
X74785200Y-44579200D02*
X76604500Y-42759900D01*
X81084800Y-42759900D02*
X83084900Y-44760000D01*
X85085000Y-44760000D02*
X83084900Y-44760000D01*
X53375400Y-49196600D02*
X71556400Y-49196600D01*
X71556400Y-49196600D02*
X74785200Y-45967800D01*
X74785200Y-45967800D02*
X74785200Y-44579200D01*
X143510000Y-96510000D02*
X143510000Y-91870100D01*
X131580800Y-98124600D02*
X101358300Y-98124600D01*
X72250000Y-85095000D02*
X73800100Y-85095000D01*
X153260200Y-78719700D02*
X153260200Y-73987000D01*
X147320000Y-86360000D02*
X147320000Y-88060100D01*
X147320000Y-86360000D02*
X147320000Y-84659900D01*
X73800100Y-85095000D02*
X74070200Y-85365100D01*
X143510000Y-91870100D02*
X147320000Y-88060100D01*
X101358300Y-98124600D02*
X93393700Y-90160000D01*
X74070200Y-85365100D02*
X79045300Y-85365100D01*
X93393700Y-90160000D02*
X91415000Y-90160000D01*
X42190100Y-69936400D02*
X57348700Y-85095000D01*
X57348700Y-85095000D02*
X72250000Y-85095000D01*
X40640000Y-68580000D02*
X42190100Y-68580000D01*
X153260200Y-73987000D02*
X151660000Y-73987000D01*
X155152700Y-73987000D02*
X153260200Y-73987000D01*
X147320000Y-84659900D02*
X153260200Y-78719700D01*
X42190100Y-68580000D02*
X42190100Y-69936400D01*
X162560000Y-66579700D02*
X155152700Y-73987000D01*
X83218300Y-62518300D02*
X80087100Y-62518300D01*
X89820000Y-69120000D02*
X83218300Y-62518300D01*
D33*
X156515000Y-41910000D02*
X167640000Y-41910000D01*
X153665000Y-44760000D02*
X156515000Y-41910000D01*
X129820000Y-54530000D02*
X132120100Y-54530000D01*
X132120100Y-54530000D02*
X134420200Y-56830100D01*
X70487500Y-72330000D02*
X70487500Y-76291800D01*
X74610000Y-72330000D02*
X70487500Y-72330000D01*
X77465000Y-56565000D02*
X77820000Y-56920000D01*
X98140000Y-56920000D02*
X98140000Y-52735000D01*
X167640000Y-41910000D02*
X172720000Y-46990000D01*
X70487500Y-72330000D02*
X69720000Y-72330000D01*
X115565000Y-47260200D02*
X115565000Y-44760000D01*
X142520000Y-54530000D02*
X140219900Y-54530000D01*
X97767600Y-52362600D02*
X102870000Y-47260200D01*
X98140000Y-52735000D02*
X97767600Y-52362600D01*
X117120000Y-52229900D02*
X115565000Y-50674900D01*
X102870000Y-47260200D02*
X102870000Y-44760000D01*
X134420200Y-56830100D02*
X137919800Y-56830100D01*
X117120000Y-54530000D02*
X117120000Y-52229900D01*
X77465000Y-44760000D02*
X77465000Y-56565000D01*
X172720000Y-46990000D02*
X172720000Y-48260000D01*
X102870000Y-47260200D02*
X115565000Y-47260200D01*
X115565000Y-50674900D02*
X115565000Y-47260200D01*
X137919800Y-56830100D02*
X140219900Y-54530000D01*
X77820000Y-69120000D02*
X74610000Y-72330000D01*
X97767600Y-52362600D02*
X90165000Y-44760000D01*
D32*
X74648400Y-60518300D02*
X101538300Y-60518300D01*
X71220100Y-57090000D02*
X74648400Y-60518300D01*
X69720000Y-57090000D02*
X71220100Y-57090000D01*
X101538300Y-60518300D02*
X110140000Y-69120000D01*
D33*
X131553500Y-67006400D02*
X128086500Y-67006400D01*
X123470000Y-64690000D02*
X121169900Y-64690000D01*
X113399900Y-56920000D02*
X121169900Y-64690000D01*
X128086500Y-67006400D02*
X125770100Y-64690000D01*
X110140000Y-56920000D02*
X113399900Y-56920000D01*
X46740000Y-64725000D02*
X46740000Y-62185000D01*
X136170000Y-64690000D02*
X133869900Y-64690000D01*
X123470000Y-64690000D02*
X125770100Y-64690000D01*
X133869900Y-64690000D02*
X131553500Y-67006400D01*
X84563000Y-56943500D02*
X89796500Y-56943500D01*
X157480000Y-48565000D02*
X161285000Y-44760000D01*
X89796500Y-56943500D02*
X89820000Y-56920000D01*
X171164365Y-50800000D02*
X172405000Y-50800000D01*
X166365000Y-44760000D02*
X166365000Y-46000635D01*
X166365000Y-46000635D02*
X171164365Y-50800000D01*
D31*
X172405000Y-50800000D02*
X172720000Y-50800000D01*
M02*
