G04 #@! TF.GenerationSoftware,KiCad,Pcbnew,7.0.8*
G04 #@! TF.CreationDate,2024-01-06T20:32:25+01:00*
G04 #@! TF.ProjectId,openautolab,6f70656e-6175-4746-9f6c-61622e6b6963,rev?*
G04 #@! TF.SameCoordinates,Original*
G04 #@! TF.FileFunction,Legend,Top*
G04 #@! TF.FilePolarity,Positive*
%FSLAX46Y46*%
G04 Gerber Fmt 4.6, Leading zero omitted, Abs format (unit mm)*
G04 Created by KiCad (PCBNEW 7.0.8) date 2024-01-06 20:32:25*
%MOMM*%
%LPD*%
G01*
G04 APERTURE LIST*
%ADD10C,0.150000*%
%ADD11C,0.120000*%
%ADD12R,2.600000X2.600000*%
%ADD13C,2.600000*%
%ADD14R,1.700000X1.700000*%
%ADD15O,1.700000X1.700000*%
%ADD16R,1.600000X1.600000*%
%ADD17C,1.600000*%
%ADD18R,1.800000X1.275000*%
%ADD19O,1.800000X1.275000*%
%ADD20R,3.200000X3.200000*%
%ADD21O,3.200000X3.200000*%
%ADD22R,2.200000X2.200000*%
%ADD23O,2.200000X2.200000*%
%ADD24R,2.000000X2.000000*%
%ADD25C,2.000000*%
%ADD26C,3.000000*%
%ADD27O,1.600000X1.600000*%
%ADD28C,3.600000*%
G04 APERTURE END LIST*
D10*
X163015476Y-47714819D02*
X163015476Y-48429104D01*
X163015476Y-48429104D02*
X162967857Y-48571961D01*
X162967857Y-48571961D02*
X162872619Y-48667200D01*
X162872619Y-48667200D02*
X162729762Y-48714819D01*
X162729762Y-48714819D02*
X162634524Y-48714819D01*
X164015476Y-48714819D02*
X163444048Y-48714819D01*
X163729762Y-48714819D02*
X163729762Y-47714819D01*
X163729762Y-47714819D02*
X163634524Y-47857676D01*
X163634524Y-47857676D02*
X163539286Y-47952914D01*
X163539286Y-47952914D02*
X163444048Y-48000533D01*
X164872619Y-47714819D02*
X164682143Y-47714819D01*
X164682143Y-47714819D02*
X164586905Y-47762438D01*
X164586905Y-47762438D02*
X164539286Y-47810057D01*
X164539286Y-47810057D02*
X164444048Y-47952914D01*
X164444048Y-47952914D02*
X164396429Y-48143390D01*
X164396429Y-48143390D02*
X164396429Y-48524342D01*
X164396429Y-48524342D02*
X164444048Y-48619580D01*
X164444048Y-48619580D02*
X164491667Y-48667200D01*
X164491667Y-48667200D02*
X164586905Y-48714819D01*
X164586905Y-48714819D02*
X164777381Y-48714819D01*
X164777381Y-48714819D02*
X164872619Y-48667200D01*
X164872619Y-48667200D02*
X164920238Y-48619580D01*
X164920238Y-48619580D02*
X164967857Y-48524342D01*
X164967857Y-48524342D02*
X164967857Y-48286247D01*
X164967857Y-48286247D02*
X164920238Y-48191009D01*
X164920238Y-48191009D02*
X164872619Y-48143390D01*
X164872619Y-48143390D02*
X164777381Y-48095771D01*
X164777381Y-48095771D02*
X164586905Y-48095771D01*
X164586905Y-48095771D02*
X164491667Y-48143390D01*
X164491667Y-48143390D02*
X164444048Y-48191009D01*
X164444048Y-48191009D02*
X164396429Y-48286247D01*
X71440476Y-94939819D02*
X71440476Y-95654104D01*
X71440476Y-95654104D02*
X71392857Y-95796961D01*
X71392857Y-95796961D02*
X71297619Y-95892200D01*
X71297619Y-95892200D02*
X71154762Y-95939819D01*
X71154762Y-95939819D02*
X71059524Y-95939819D01*
X72440476Y-95939819D02*
X71869048Y-95939819D01*
X72154762Y-95939819D02*
X72154762Y-94939819D01*
X72154762Y-94939819D02*
X72059524Y-95082676D01*
X72059524Y-95082676D02*
X71964286Y-95177914D01*
X71964286Y-95177914D02*
X71869048Y-95225533D01*
X73059524Y-94939819D02*
X73154762Y-94939819D01*
X73154762Y-94939819D02*
X73250000Y-94987438D01*
X73250000Y-94987438D02*
X73297619Y-95035057D01*
X73297619Y-95035057D02*
X73345238Y-95130295D01*
X73345238Y-95130295D02*
X73392857Y-95320771D01*
X73392857Y-95320771D02*
X73392857Y-95558866D01*
X73392857Y-95558866D02*
X73345238Y-95749342D01*
X73345238Y-95749342D02*
X73297619Y-95844580D01*
X73297619Y-95844580D02*
X73250000Y-95892200D01*
X73250000Y-95892200D02*
X73154762Y-95939819D01*
X73154762Y-95939819D02*
X73059524Y-95939819D01*
X73059524Y-95939819D02*
X72964286Y-95892200D01*
X72964286Y-95892200D02*
X72916667Y-95844580D01*
X72916667Y-95844580D02*
X72869048Y-95749342D01*
X72869048Y-95749342D02*
X72821429Y-95558866D01*
X72821429Y-95558866D02*
X72821429Y-95320771D01*
X72821429Y-95320771D02*
X72869048Y-95130295D01*
X72869048Y-95130295D02*
X72916667Y-95035057D01*
X72916667Y-95035057D02*
X72964286Y-94987438D01*
X72964286Y-94987438D02*
X73059524Y-94939819D01*
X152193333Y-66569580D02*
X152145714Y-66617200D01*
X152145714Y-66617200D02*
X152002857Y-66664819D01*
X152002857Y-66664819D02*
X151907619Y-66664819D01*
X151907619Y-66664819D02*
X151764762Y-66617200D01*
X151764762Y-66617200D02*
X151669524Y-66521961D01*
X151669524Y-66521961D02*
X151621905Y-66426723D01*
X151621905Y-66426723D02*
X151574286Y-66236247D01*
X151574286Y-66236247D02*
X151574286Y-66093390D01*
X151574286Y-66093390D02*
X151621905Y-65902914D01*
X151621905Y-65902914D02*
X151669524Y-65807676D01*
X151669524Y-65807676D02*
X151764762Y-65712438D01*
X151764762Y-65712438D02*
X151907619Y-65664819D01*
X151907619Y-65664819D02*
X152002857Y-65664819D01*
X152002857Y-65664819D02*
X152145714Y-65712438D01*
X152145714Y-65712438D02*
X152193333Y-65760057D01*
X152574286Y-65760057D02*
X152621905Y-65712438D01*
X152621905Y-65712438D02*
X152717143Y-65664819D01*
X152717143Y-65664819D02*
X152955238Y-65664819D01*
X152955238Y-65664819D02*
X153050476Y-65712438D01*
X153050476Y-65712438D02*
X153098095Y-65760057D01*
X153098095Y-65760057D02*
X153145714Y-65855295D01*
X153145714Y-65855295D02*
X153145714Y-65950533D01*
X153145714Y-65950533D02*
X153098095Y-66093390D01*
X153098095Y-66093390D02*
X152526667Y-66664819D01*
X152526667Y-66664819D02*
X153145714Y-66664819D01*
X173926667Y-51207200D02*
X174069524Y-51254819D01*
X174069524Y-51254819D02*
X174307619Y-51254819D01*
X174307619Y-51254819D02*
X174402857Y-51207200D01*
X174402857Y-51207200D02*
X174450476Y-51159580D01*
X174450476Y-51159580D02*
X174498095Y-51064342D01*
X174498095Y-51064342D02*
X174498095Y-50969104D01*
X174498095Y-50969104D02*
X174450476Y-50873866D01*
X174450476Y-50873866D02*
X174402857Y-50826247D01*
X174402857Y-50826247D02*
X174307619Y-50778628D01*
X174307619Y-50778628D02*
X174117143Y-50731009D01*
X174117143Y-50731009D02*
X174021905Y-50683390D01*
X174021905Y-50683390D02*
X173974286Y-50635771D01*
X173974286Y-50635771D02*
X173926667Y-50540533D01*
X173926667Y-50540533D02*
X173926667Y-50445295D01*
X173926667Y-50445295D02*
X173974286Y-50350057D01*
X173974286Y-50350057D02*
X174021905Y-50302438D01*
X174021905Y-50302438D02*
X174117143Y-50254819D01*
X174117143Y-50254819D02*
X174355238Y-50254819D01*
X174355238Y-50254819D02*
X174498095Y-50302438D01*
X174831429Y-50254819D02*
X175069524Y-51254819D01*
X175069524Y-51254819D02*
X175260000Y-50540533D01*
X175260000Y-50540533D02*
X175450476Y-51254819D01*
X175450476Y-51254819D02*
X175688572Y-50254819D01*
X176498095Y-50588152D02*
X176498095Y-51254819D01*
X176260000Y-50207200D02*
X176021905Y-50921485D01*
X176021905Y-50921485D02*
X176640952Y-50921485D01*
X155384819Y-73048904D02*
X156194342Y-73048904D01*
X156194342Y-73048904D02*
X156289580Y-73001285D01*
X156289580Y-73001285D02*
X156337200Y-72953666D01*
X156337200Y-72953666D02*
X156384819Y-72858428D01*
X156384819Y-72858428D02*
X156384819Y-72667952D01*
X156384819Y-72667952D02*
X156337200Y-72572714D01*
X156337200Y-72572714D02*
X156289580Y-72525095D01*
X156289580Y-72525095D02*
X156194342Y-72477476D01*
X156194342Y-72477476D02*
X155384819Y-72477476D01*
X155384819Y-72096523D02*
X155384819Y-71477476D01*
X155384819Y-71477476D02*
X155765771Y-71810809D01*
X155765771Y-71810809D02*
X155765771Y-71667952D01*
X155765771Y-71667952D02*
X155813390Y-71572714D01*
X155813390Y-71572714D02*
X155861009Y-71525095D01*
X155861009Y-71525095D02*
X155956247Y-71477476D01*
X155956247Y-71477476D02*
X156194342Y-71477476D01*
X156194342Y-71477476D02*
X156289580Y-71525095D01*
X156289580Y-71525095D02*
X156337200Y-71572714D01*
X156337200Y-71572714D02*
X156384819Y-71667952D01*
X156384819Y-71667952D02*
X156384819Y-71953666D01*
X156384819Y-71953666D02*
X156337200Y-72048904D01*
X156337200Y-72048904D02*
X156289580Y-72096523D01*
X137086905Y-75294819D02*
X137086905Y-74294819D01*
X137086905Y-74294819D02*
X137325000Y-74294819D01*
X137325000Y-74294819D02*
X137467857Y-74342438D01*
X137467857Y-74342438D02*
X137563095Y-74437676D01*
X137563095Y-74437676D02*
X137610714Y-74532914D01*
X137610714Y-74532914D02*
X137658333Y-74723390D01*
X137658333Y-74723390D02*
X137658333Y-74866247D01*
X137658333Y-74866247D02*
X137610714Y-75056723D01*
X137610714Y-75056723D02*
X137563095Y-75151961D01*
X137563095Y-75151961D02*
X137467857Y-75247200D01*
X137467857Y-75247200D02*
X137325000Y-75294819D01*
X137325000Y-75294819D02*
X137086905Y-75294819D01*
X138515476Y-74294819D02*
X138325000Y-74294819D01*
X138325000Y-74294819D02*
X138229762Y-74342438D01*
X138229762Y-74342438D02*
X138182143Y-74390057D01*
X138182143Y-74390057D02*
X138086905Y-74532914D01*
X138086905Y-74532914D02*
X138039286Y-74723390D01*
X138039286Y-74723390D02*
X138039286Y-75104342D01*
X138039286Y-75104342D02*
X138086905Y-75199580D01*
X138086905Y-75199580D02*
X138134524Y-75247200D01*
X138134524Y-75247200D02*
X138229762Y-75294819D01*
X138229762Y-75294819D02*
X138420238Y-75294819D01*
X138420238Y-75294819D02*
X138515476Y-75247200D01*
X138515476Y-75247200D02*
X138563095Y-75199580D01*
X138563095Y-75199580D02*
X138610714Y-75104342D01*
X138610714Y-75104342D02*
X138610714Y-74866247D01*
X138610714Y-74866247D02*
X138563095Y-74771009D01*
X138563095Y-74771009D02*
X138515476Y-74723390D01*
X138515476Y-74723390D02*
X138420238Y-74675771D01*
X138420238Y-74675771D02*
X138229762Y-74675771D01*
X138229762Y-74675771D02*
X138134524Y-74723390D01*
X138134524Y-74723390D02*
X138086905Y-74771009D01*
X138086905Y-74771009D02*
X138039286Y-74866247D01*
X145183095Y-74174819D02*
X145183095Y-73174819D01*
X145754523Y-74174819D02*
X145325952Y-73603390D01*
X145754523Y-73174819D02*
X145183095Y-73746247D01*
X155137200Y-54673332D02*
X155184819Y-54530475D01*
X155184819Y-54530475D02*
X155184819Y-54292380D01*
X155184819Y-54292380D02*
X155137200Y-54197142D01*
X155137200Y-54197142D02*
X155089580Y-54149523D01*
X155089580Y-54149523D02*
X154994342Y-54101904D01*
X154994342Y-54101904D02*
X154899104Y-54101904D01*
X154899104Y-54101904D02*
X154803866Y-54149523D01*
X154803866Y-54149523D02*
X154756247Y-54197142D01*
X154756247Y-54197142D02*
X154708628Y-54292380D01*
X154708628Y-54292380D02*
X154661009Y-54482856D01*
X154661009Y-54482856D02*
X154613390Y-54578094D01*
X154613390Y-54578094D02*
X154565771Y-54625713D01*
X154565771Y-54625713D02*
X154470533Y-54673332D01*
X154470533Y-54673332D02*
X154375295Y-54673332D01*
X154375295Y-54673332D02*
X154280057Y-54625713D01*
X154280057Y-54625713D02*
X154232438Y-54578094D01*
X154232438Y-54578094D02*
X154184819Y-54482856D01*
X154184819Y-54482856D02*
X154184819Y-54244761D01*
X154184819Y-54244761D02*
X154232438Y-54101904D01*
X154184819Y-53768570D02*
X155184819Y-53530475D01*
X155184819Y-53530475D02*
X154470533Y-53339999D01*
X154470533Y-53339999D02*
X155184819Y-53149523D01*
X155184819Y-53149523D02*
X154184819Y-52911428D01*
X154184819Y-52625713D02*
X154184819Y-52006666D01*
X154184819Y-52006666D02*
X154565771Y-52339999D01*
X154565771Y-52339999D02*
X154565771Y-52197142D01*
X154565771Y-52197142D02*
X154613390Y-52101904D01*
X154613390Y-52101904D02*
X154661009Y-52054285D01*
X154661009Y-52054285D02*
X154756247Y-52006666D01*
X154756247Y-52006666D02*
X154994342Y-52006666D01*
X154994342Y-52006666D02*
X155089580Y-52054285D01*
X155089580Y-52054285D02*
X155137200Y-52101904D01*
X155137200Y-52101904D02*
X155184819Y-52197142D01*
X155184819Y-52197142D02*
X155184819Y-52482856D01*
X155184819Y-52482856D02*
X155137200Y-52578094D01*
X155137200Y-52578094D02*
X155089580Y-52625713D01*
X61891666Y-47714819D02*
X61891666Y-48429104D01*
X61891666Y-48429104D02*
X61844047Y-48571961D01*
X61844047Y-48571961D02*
X61748809Y-48667200D01*
X61748809Y-48667200D02*
X61605952Y-48714819D01*
X61605952Y-48714819D02*
X61510714Y-48714819D01*
X62891666Y-48714819D02*
X62320238Y-48714819D01*
X62605952Y-48714819D02*
X62605952Y-47714819D01*
X62605952Y-47714819D02*
X62510714Y-47857676D01*
X62510714Y-47857676D02*
X62415476Y-47952914D01*
X62415476Y-47952914D02*
X62320238Y-48000533D01*
X87291666Y-47714819D02*
X87291666Y-48429104D01*
X87291666Y-48429104D02*
X87244047Y-48571961D01*
X87244047Y-48571961D02*
X87148809Y-48667200D01*
X87148809Y-48667200D02*
X87005952Y-48714819D01*
X87005952Y-48714819D02*
X86910714Y-48714819D01*
X88196428Y-48048152D02*
X88196428Y-48714819D01*
X87958333Y-47667200D02*
X87720238Y-48381485D01*
X87720238Y-48381485D02*
X88339285Y-48381485D01*
X49191666Y-47714819D02*
X49191666Y-48429104D01*
X49191666Y-48429104D02*
X49144047Y-48571961D01*
X49144047Y-48571961D02*
X49048809Y-48667200D01*
X49048809Y-48667200D02*
X48905952Y-48714819D01*
X48905952Y-48714819D02*
X48810714Y-48714819D01*
X49620238Y-47810057D02*
X49667857Y-47762438D01*
X49667857Y-47762438D02*
X49763095Y-47714819D01*
X49763095Y-47714819D02*
X50001190Y-47714819D01*
X50001190Y-47714819D02*
X50096428Y-47762438D01*
X50096428Y-47762438D02*
X50144047Y-47810057D01*
X50144047Y-47810057D02*
X50191666Y-47905295D01*
X50191666Y-47905295D02*
X50191666Y-48000533D01*
X50191666Y-48000533D02*
X50144047Y-48143390D01*
X50144047Y-48143390D02*
X49572619Y-48714819D01*
X49572619Y-48714819D02*
X50191666Y-48714819D01*
X145234819Y-61695594D02*
X144234819Y-61695594D01*
X144234819Y-61695594D02*
X144234819Y-61457499D01*
X144234819Y-61457499D02*
X144282438Y-61314642D01*
X144282438Y-61314642D02*
X144377676Y-61219404D01*
X144377676Y-61219404D02*
X144472914Y-61171785D01*
X144472914Y-61171785D02*
X144663390Y-61124166D01*
X144663390Y-61124166D02*
X144806247Y-61124166D01*
X144806247Y-61124166D02*
X144996723Y-61171785D01*
X144996723Y-61171785D02*
X145091961Y-61219404D01*
X145091961Y-61219404D02*
X145187200Y-61314642D01*
X145187200Y-61314642D02*
X145234819Y-61457499D01*
X145234819Y-61457499D02*
X145234819Y-61695594D01*
X144234819Y-60219404D02*
X144234819Y-60695594D01*
X144234819Y-60695594D02*
X144711009Y-60743213D01*
X144711009Y-60743213D02*
X144663390Y-60695594D01*
X144663390Y-60695594D02*
X144615771Y-60600356D01*
X144615771Y-60600356D02*
X144615771Y-60362261D01*
X144615771Y-60362261D02*
X144663390Y-60267023D01*
X144663390Y-60267023D02*
X144711009Y-60219404D01*
X144711009Y-60219404D02*
X144806247Y-60171785D01*
X144806247Y-60171785D02*
X145044342Y-60171785D01*
X145044342Y-60171785D02*
X145139580Y-60219404D01*
X145139580Y-60219404D02*
X145187200Y-60267023D01*
X145187200Y-60267023D02*
X145234819Y-60362261D01*
X145234819Y-60362261D02*
X145234819Y-60600356D01*
X145234819Y-60600356D02*
X145187200Y-60695594D01*
X145187200Y-60695594D02*
X145139580Y-60743213D01*
X150154819Y-56139404D02*
X149154819Y-56139404D01*
X150154819Y-55567976D02*
X149583390Y-55996547D01*
X149154819Y-55567976D02*
X149726247Y-56139404D01*
X126394819Y-60348094D02*
X125394819Y-60348094D01*
X125394819Y-60348094D02*
X125394819Y-60109999D01*
X125394819Y-60109999D02*
X125442438Y-59967142D01*
X125442438Y-59967142D02*
X125537676Y-59871904D01*
X125537676Y-59871904D02*
X125632914Y-59824285D01*
X125632914Y-59824285D02*
X125823390Y-59776666D01*
X125823390Y-59776666D02*
X125966247Y-59776666D01*
X125966247Y-59776666D02*
X126156723Y-59824285D01*
X126156723Y-59824285D02*
X126251961Y-59871904D01*
X126251961Y-59871904D02*
X126347200Y-59967142D01*
X126347200Y-59967142D02*
X126394819Y-60109999D01*
X126394819Y-60109999D02*
X126394819Y-60348094D01*
X125728152Y-58919523D02*
X126394819Y-58919523D01*
X125347200Y-59157618D02*
X126061485Y-59395713D01*
X126061485Y-59395713D02*
X126061485Y-58776666D01*
X126024819Y-54791904D02*
X125024819Y-54791904D01*
X126024819Y-54220476D02*
X125453390Y-54649047D01*
X125024819Y-54220476D02*
X125596247Y-54791904D01*
X99996666Y-47714819D02*
X99996666Y-48429104D01*
X99996666Y-48429104D02*
X99949047Y-48571961D01*
X99949047Y-48571961D02*
X99853809Y-48667200D01*
X99853809Y-48667200D02*
X99710952Y-48714819D01*
X99710952Y-48714819D02*
X99615714Y-48714819D01*
X100901428Y-47714819D02*
X100710952Y-47714819D01*
X100710952Y-47714819D02*
X100615714Y-47762438D01*
X100615714Y-47762438D02*
X100568095Y-47810057D01*
X100568095Y-47810057D02*
X100472857Y-47952914D01*
X100472857Y-47952914D02*
X100425238Y-48143390D01*
X100425238Y-48143390D02*
X100425238Y-48524342D01*
X100425238Y-48524342D02*
X100472857Y-48619580D01*
X100472857Y-48619580D02*
X100520476Y-48667200D01*
X100520476Y-48667200D02*
X100615714Y-48714819D01*
X100615714Y-48714819D02*
X100806190Y-48714819D01*
X100806190Y-48714819D02*
X100901428Y-48667200D01*
X100901428Y-48667200D02*
X100949047Y-48619580D01*
X100949047Y-48619580D02*
X100996666Y-48524342D01*
X100996666Y-48524342D02*
X100996666Y-48286247D01*
X100996666Y-48286247D02*
X100949047Y-48191009D01*
X100949047Y-48191009D02*
X100901428Y-48143390D01*
X100901428Y-48143390D02*
X100806190Y-48095771D01*
X100806190Y-48095771D02*
X100615714Y-48095771D01*
X100615714Y-48095771D02*
X100520476Y-48143390D01*
X100520476Y-48143390D02*
X100472857Y-48191009D01*
X100472857Y-48191009D02*
X100425238Y-48286247D01*
X149653333Y-80469580D02*
X149605714Y-80517200D01*
X149605714Y-80517200D02*
X149462857Y-80564819D01*
X149462857Y-80564819D02*
X149367619Y-80564819D01*
X149367619Y-80564819D02*
X149224762Y-80517200D01*
X149224762Y-80517200D02*
X149129524Y-80421961D01*
X149129524Y-80421961D02*
X149081905Y-80326723D01*
X149081905Y-80326723D02*
X149034286Y-80136247D01*
X149034286Y-80136247D02*
X149034286Y-79993390D01*
X149034286Y-79993390D02*
X149081905Y-79802914D01*
X149081905Y-79802914D02*
X149129524Y-79707676D01*
X149129524Y-79707676D02*
X149224762Y-79612438D01*
X149224762Y-79612438D02*
X149367619Y-79564819D01*
X149367619Y-79564819D02*
X149462857Y-79564819D01*
X149462857Y-79564819D02*
X149605714Y-79612438D01*
X149605714Y-79612438D02*
X149653333Y-79660057D01*
X150605714Y-80564819D02*
X150034286Y-80564819D01*
X150320000Y-80564819D02*
X150320000Y-79564819D01*
X150320000Y-79564819D02*
X150224762Y-79707676D01*
X150224762Y-79707676D02*
X150129524Y-79802914D01*
X150129524Y-79802914D02*
X150034286Y-79850533D01*
X93474819Y-63758094D02*
X92474819Y-63758094D01*
X93474819Y-63186666D02*
X92903390Y-63615237D01*
X92474819Y-63186666D02*
X93046247Y-63758094D01*
X93474819Y-62234285D02*
X93474819Y-62805713D01*
X93474819Y-62519999D02*
X92474819Y-62519999D01*
X92474819Y-62519999D02*
X92617676Y-62615237D01*
X92617676Y-62615237D02*
X92712914Y-62710475D01*
X92712914Y-62710475D02*
X92760533Y-62805713D01*
X40306666Y-73344819D02*
X40306666Y-74059104D01*
X40306666Y-74059104D02*
X40259047Y-74201961D01*
X40259047Y-74201961D02*
X40163809Y-74297200D01*
X40163809Y-74297200D02*
X40020952Y-74344819D01*
X40020952Y-74344819D02*
X39925714Y-74344819D01*
X40830476Y-74344819D02*
X41020952Y-74344819D01*
X41020952Y-74344819D02*
X41116190Y-74297200D01*
X41116190Y-74297200D02*
X41163809Y-74249580D01*
X41163809Y-74249580D02*
X41259047Y-74106723D01*
X41259047Y-74106723D02*
X41306666Y-73916247D01*
X41306666Y-73916247D02*
X41306666Y-73535295D01*
X41306666Y-73535295D02*
X41259047Y-73440057D01*
X41259047Y-73440057D02*
X41211428Y-73392438D01*
X41211428Y-73392438D02*
X41116190Y-73344819D01*
X41116190Y-73344819D02*
X40925714Y-73344819D01*
X40925714Y-73344819D02*
X40830476Y-73392438D01*
X40830476Y-73392438D02*
X40782857Y-73440057D01*
X40782857Y-73440057D02*
X40735238Y-73535295D01*
X40735238Y-73535295D02*
X40735238Y-73773390D01*
X40735238Y-73773390D02*
X40782857Y-73868628D01*
X40782857Y-73868628D02*
X40830476Y-73916247D01*
X40830476Y-73916247D02*
X40925714Y-73963866D01*
X40925714Y-73963866D02*
X41116190Y-73963866D01*
X41116190Y-73963866D02*
X41211428Y-73916247D01*
X41211428Y-73916247D02*
X41259047Y-73868628D01*
X41259047Y-73868628D02*
X41306666Y-73773390D01*
X136279047Y-76551009D02*
X136421904Y-76598628D01*
X136421904Y-76598628D02*
X136469523Y-76646247D01*
X136469523Y-76646247D02*
X136517142Y-76741485D01*
X136517142Y-76741485D02*
X136517142Y-76884342D01*
X136517142Y-76884342D02*
X136469523Y-76979580D01*
X136469523Y-76979580D02*
X136421904Y-77027200D01*
X136421904Y-77027200D02*
X136326666Y-77074819D01*
X136326666Y-77074819D02*
X135945714Y-77074819D01*
X135945714Y-77074819D02*
X135945714Y-76074819D01*
X135945714Y-76074819D02*
X136279047Y-76074819D01*
X136279047Y-76074819D02*
X136374285Y-76122438D01*
X136374285Y-76122438D02*
X136421904Y-76170057D01*
X136421904Y-76170057D02*
X136469523Y-76265295D01*
X136469523Y-76265295D02*
X136469523Y-76360533D01*
X136469523Y-76360533D02*
X136421904Y-76455771D01*
X136421904Y-76455771D02*
X136374285Y-76503390D01*
X136374285Y-76503390D02*
X136279047Y-76551009D01*
X136279047Y-76551009D02*
X135945714Y-76551009D01*
X136850476Y-76074819D02*
X137517142Y-76074819D01*
X137517142Y-76074819D02*
X136850476Y-77074819D01*
X136850476Y-77074819D02*
X137517142Y-77074819D01*
X138088571Y-76074819D02*
X138183809Y-76074819D01*
X138183809Y-76074819D02*
X138279047Y-76122438D01*
X138279047Y-76122438D02*
X138326666Y-76170057D01*
X138326666Y-76170057D02*
X138374285Y-76265295D01*
X138374285Y-76265295D02*
X138421904Y-76455771D01*
X138421904Y-76455771D02*
X138421904Y-76693866D01*
X138421904Y-76693866D02*
X138374285Y-76884342D01*
X138374285Y-76884342D02*
X138326666Y-76979580D01*
X138326666Y-76979580D02*
X138279047Y-77027200D01*
X138279047Y-77027200D02*
X138183809Y-77074819D01*
X138183809Y-77074819D02*
X138088571Y-77074819D01*
X138088571Y-77074819D02*
X137993333Y-77027200D01*
X137993333Y-77027200D02*
X137945714Y-76979580D01*
X137945714Y-76979580D02*
X137898095Y-76884342D01*
X137898095Y-76884342D02*
X137850476Y-76693866D01*
X137850476Y-76693866D02*
X137850476Y-76455771D01*
X137850476Y-76455771D02*
X137898095Y-76265295D01*
X137898095Y-76265295D02*
X137945714Y-76170057D01*
X137945714Y-76170057D02*
X137993333Y-76122438D01*
X137993333Y-76122438D02*
X138088571Y-76074819D01*
X132969048Y-81353866D02*
X133730953Y-81353866D01*
X133350000Y-81734819D02*
X133350000Y-80972914D01*
X120044819Y-60348094D02*
X119044819Y-60348094D01*
X119044819Y-60348094D02*
X119044819Y-60109999D01*
X119044819Y-60109999D02*
X119092438Y-59967142D01*
X119092438Y-59967142D02*
X119187676Y-59871904D01*
X119187676Y-59871904D02*
X119282914Y-59824285D01*
X119282914Y-59824285D02*
X119473390Y-59776666D01*
X119473390Y-59776666D02*
X119616247Y-59776666D01*
X119616247Y-59776666D02*
X119806723Y-59824285D01*
X119806723Y-59824285D02*
X119901961Y-59871904D01*
X119901961Y-59871904D02*
X119997200Y-59967142D01*
X119997200Y-59967142D02*
X120044819Y-60109999D01*
X120044819Y-60109999D02*
X120044819Y-60348094D01*
X119044819Y-59443332D02*
X119044819Y-58824285D01*
X119044819Y-58824285D02*
X119425771Y-59157618D01*
X119425771Y-59157618D02*
X119425771Y-59014761D01*
X119425771Y-59014761D02*
X119473390Y-58919523D01*
X119473390Y-58919523D02*
X119521009Y-58871904D01*
X119521009Y-58871904D02*
X119616247Y-58824285D01*
X119616247Y-58824285D02*
X119854342Y-58824285D01*
X119854342Y-58824285D02*
X119949580Y-58871904D01*
X119949580Y-58871904D02*
X119997200Y-58919523D01*
X119997200Y-58919523D02*
X120044819Y-59014761D01*
X120044819Y-59014761D02*
X120044819Y-59300475D01*
X120044819Y-59300475D02*
X119997200Y-59395713D01*
X119997200Y-59395713D02*
X119949580Y-59443332D01*
X119674819Y-54791904D02*
X118674819Y-54791904D01*
X119674819Y-54220476D02*
X119103390Y-54649047D01*
X118674819Y-54220476D02*
X119246247Y-54791904D01*
X49788095Y-74129819D02*
X49788095Y-74939342D01*
X49788095Y-74939342D02*
X49835714Y-75034580D01*
X49835714Y-75034580D02*
X49883333Y-75082200D01*
X49883333Y-75082200D02*
X49978571Y-75129819D01*
X49978571Y-75129819D02*
X50169047Y-75129819D01*
X50169047Y-75129819D02*
X50264285Y-75082200D01*
X50264285Y-75082200D02*
X50311904Y-75034580D01*
X50311904Y-75034580D02*
X50359523Y-74939342D01*
X50359523Y-74939342D02*
X50359523Y-74129819D01*
X50788095Y-74225057D02*
X50835714Y-74177438D01*
X50835714Y-74177438D02*
X50930952Y-74129819D01*
X50930952Y-74129819D02*
X51169047Y-74129819D01*
X51169047Y-74129819D02*
X51264285Y-74177438D01*
X51264285Y-74177438D02*
X51311904Y-74225057D01*
X51311904Y-74225057D02*
X51359523Y-74320295D01*
X51359523Y-74320295D02*
X51359523Y-74415533D01*
X51359523Y-74415533D02*
X51311904Y-74558390D01*
X51311904Y-74558390D02*
X50740476Y-75129819D01*
X50740476Y-75129819D02*
X51359523Y-75129819D01*
X72786667Y-115572800D02*
X72929524Y-115620419D01*
X72929524Y-115620419D02*
X73167619Y-115620419D01*
X73167619Y-115620419D02*
X73262857Y-115572800D01*
X73262857Y-115572800D02*
X73310476Y-115525180D01*
X73310476Y-115525180D02*
X73358095Y-115429942D01*
X73358095Y-115429942D02*
X73358095Y-115334704D01*
X73358095Y-115334704D02*
X73310476Y-115239466D01*
X73310476Y-115239466D02*
X73262857Y-115191847D01*
X73262857Y-115191847D02*
X73167619Y-115144228D01*
X73167619Y-115144228D02*
X72977143Y-115096609D01*
X72977143Y-115096609D02*
X72881905Y-115048990D01*
X72881905Y-115048990D02*
X72834286Y-115001371D01*
X72834286Y-115001371D02*
X72786667Y-114906133D01*
X72786667Y-114906133D02*
X72786667Y-114810895D01*
X72786667Y-114810895D02*
X72834286Y-114715657D01*
X72834286Y-114715657D02*
X72881905Y-114668038D01*
X72881905Y-114668038D02*
X72977143Y-114620419D01*
X72977143Y-114620419D02*
X73215238Y-114620419D01*
X73215238Y-114620419D02*
X73358095Y-114668038D01*
X73691429Y-114620419D02*
X73929524Y-115620419D01*
X73929524Y-115620419D02*
X74120000Y-114906133D01*
X74120000Y-114906133D02*
X74310476Y-115620419D01*
X74310476Y-115620419D02*
X74548572Y-114620419D01*
X75120000Y-114620419D02*
X75215238Y-114620419D01*
X75215238Y-114620419D02*
X75310476Y-114668038D01*
X75310476Y-114668038D02*
X75358095Y-114715657D01*
X75358095Y-114715657D02*
X75405714Y-114810895D01*
X75405714Y-114810895D02*
X75453333Y-115001371D01*
X75453333Y-115001371D02*
X75453333Y-115239466D01*
X75453333Y-115239466D02*
X75405714Y-115429942D01*
X75405714Y-115429942D02*
X75358095Y-115525180D01*
X75358095Y-115525180D02*
X75310476Y-115572800D01*
X75310476Y-115572800D02*
X75215238Y-115620419D01*
X75215238Y-115620419D02*
X75120000Y-115620419D01*
X75120000Y-115620419D02*
X75024762Y-115572800D01*
X75024762Y-115572800D02*
X74977143Y-115525180D01*
X74977143Y-115525180D02*
X74929524Y-115429942D01*
X74929524Y-115429942D02*
X74881905Y-115239466D01*
X74881905Y-115239466D02*
X74881905Y-115001371D01*
X74881905Y-115001371D02*
X74929524Y-114810895D01*
X74929524Y-114810895D02*
X74977143Y-114715657D01*
X74977143Y-114715657D02*
X75024762Y-114668038D01*
X75024762Y-114668038D02*
X75120000Y-114620419D01*
X139094819Y-60348094D02*
X138094819Y-60348094D01*
X138094819Y-60348094D02*
X138094819Y-60109999D01*
X138094819Y-60109999D02*
X138142438Y-59967142D01*
X138142438Y-59967142D02*
X138237676Y-59871904D01*
X138237676Y-59871904D02*
X138332914Y-59824285D01*
X138332914Y-59824285D02*
X138523390Y-59776666D01*
X138523390Y-59776666D02*
X138666247Y-59776666D01*
X138666247Y-59776666D02*
X138856723Y-59824285D01*
X138856723Y-59824285D02*
X138951961Y-59871904D01*
X138951961Y-59871904D02*
X139047200Y-59967142D01*
X139047200Y-59967142D02*
X139094819Y-60109999D01*
X139094819Y-60109999D02*
X139094819Y-60348094D01*
X138190057Y-59395713D02*
X138142438Y-59348094D01*
X138142438Y-59348094D02*
X138094819Y-59252856D01*
X138094819Y-59252856D02*
X138094819Y-59014761D01*
X138094819Y-59014761D02*
X138142438Y-58919523D01*
X138142438Y-58919523D02*
X138190057Y-58871904D01*
X138190057Y-58871904D02*
X138285295Y-58824285D01*
X138285295Y-58824285D02*
X138380533Y-58824285D01*
X138380533Y-58824285D02*
X138523390Y-58871904D01*
X138523390Y-58871904D02*
X139094819Y-59443332D01*
X139094819Y-59443332D02*
X139094819Y-58824285D01*
X138724819Y-54791904D02*
X137724819Y-54791904D01*
X138724819Y-54220476D02*
X138153390Y-54649047D01*
X137724819Y-54220476D02*
X138296247Y-54791904D01*
X113794819Y-63758094D02*
X112794819Y-63758094D01*
X113794819Y-63186666D02*
X113223390Y-63615237D01*
X112794819Y-63186666D02*
X113366247Y-63758094D01*
X112890057Y-62805713D02*
X112842438Y-62758094D01*
X112842438Y-62758094D02*
X112794819Y-62662856D01*
X112794819Y-62662856D02*
X112794819Y-62424761D01*
X112794819Y-62424761D02*
X112842438Y-62329523D01*
X112842438Y-62329523D02*
X112890057Y-62281904D01*
X112890057Y-62281904D02*
X112985295Y-62234285D01*
X112985295Y-62234285D02*
X113080533Y-62234285D01*
X113080533Y-62234285D02*
X113223390Y-62281904D01*
X113223390Y-62281904D02*
X113794819Y-62853332D01*
X113794819Y-62853332D02*
X113794819Y-62234285D01*
X137615476Y-47714819D02*
X137615476Y-48429104D01*
X137615476Y-48429104D02*
X137567857Y-48571961D01*
X137567857Y-48571961D02*
X137472619Y-48667200D01*
X137472619Y-48667200D02*
X137329762Y-48714819D01*
X137329762Y-48714819D02*
X137234524Y-48714819D01*
X138615476Y-48714819D02*
X138044048Y-48714819D01*
X138329762Y-48714819D02*
X138329762Y-47714819D01*
X138329762Y-47714819D02*
X138234524Y-47857676D01*
X138234524Y-47857676D02*
X138139286Y-47952914D01*
X138139286Y-47952914D02*
X138044048Y-48000533D01*
X139186905Y-48143390D02*
X139091667Y-48095771D01*
X139091667Y-48095771D02*
X139044048Y-48048152D01*
X139044048Y-48048152D02*
X138996429Y-47952914D01*
X138996429Y-47952914D02*
X138996429Y-47905295D01*
X138996429Y-47905295D02*
X139044048Y-47810057D01*
X139044048Y-47810057D02*
X139091667Y-47762438D01*
X139091667Y-47762438D02*
X139186905Y-47714819D01*
X139186905Y-47714819D02*
X139377381Y-47714819D01*
X139377381Y-47714819D02*
X139472619Y-47762438D01*
X139472619Y-47762438D02*
X139520238Y-47810057D01*
X139520238Y-47810057D02*
X139567857Y-47905295D01*
X139567857Y-47905295D02*
X139567857Y-47952914D01*
X139567857Y-47952914D02*
X139520238Y-48048152D01*
X139520238Y-48048152D02*
X139472619Y-48095771D01*
X139472619Y-48095771D02*
X139377381Y-48143390D01*
X139377381Y-48143390D02*
X139186905Y-48143390D01*
X139186905Y-48143390D02*
X139091667Y-48191009D01*
X139091667Y-48191009D02*
X139044048Y-48238628D01*
X139044048Y-48238628D02*
X138996429Y-48333866D01*
X138996429Y-48333866D02*
X138996429Y-48524342D01*
X138996429Y-48524342D02*
X139044048Y-48619580D01*
X139044048Y-48619580D02*
X139091667Y-48667200D01*
X139091667Y-48667200D02*
X139186905Y-48714819D01*
X139186905Y-48714819D02*
X139377381Y-48714819D01*
X139377381Y-48714819D02*
X139472619Y-48667200D01*
X139472619Y-48667200D02*
X139520238Y-48619580D01*
X139520238Y-48619580D02*
X139567857Y-48524342D01*
X139567857Y-48524342D02*
X139567857Y-48333866D01*
X139567857Y-48333866D02*
X139520238Y-48238628D01*
X139520238Y-48238628D02*
X139472619Y-48191009D01*
X139472619Y-48191009D02*
X139377381Y-48143390D01*
X176329819Y-66746366D02*
X176329819Y-67222556D01*
X176329819Y-67222556D02*
X175329819Y-67222556D01*
X176329819Y-65889223D02*
X176329819Y-66460651D01*
X176329819Y-66174937D02*
X175329819Y-66174937D01*
X175329819Y-66174937D02*
X175472676Y-66270175D01*
X175472676Y-66270175D02*
X175567914Y-66365413D01*
X175567914Y-66365413D02*
X175615533Y-66460651D01*
X132744819Y-60348094D02*
X131744819Y-60348094D01*
X131744819Y-60348094D02*
X131744819Y-60109999D01*
X131744819Y-60109999D02*
X131792438Y-59967142D01*
X131792438Y-59967142D02*
X131887676Y-59871904D01*
X131887676Y-59871904D02*
X131982914Y-59824285D01*
X131982914Y-59824285D02*
X132173390Y-59776666D01*
X132173390Y-59776666D02*
X132316247Y-59776666D01*
X132316247Y-59776666D02*
X132506723Y-59824285D01*
X132506723Y-59824285D02*
X132601961Y-59871904D01*
X132601961Y-59871904D02*
X132697200Y-59967142D01*
X132697200Y-59967142D02*
X132744819Y-60109999D01*
X132744819Y-60109999D02*
X132744819Y-60348094D01*
X132744819Y-58824285D02*
X132744819Y-59395713D01*
X132744819Y-59109999D02*
X131744819Y-59109999D01*
X131744819Y-59109999D02*
X131887676Y-59205237D01*
X131887676Y-59205237D02*
X131982914Y-59300475D01*
X131982914Y-59300475D02*
X132030533Y-59395713D01*
X132374819Y-54791904D02*
X131374819Y-54791904D01*
X132374819Y-54220476D02*
X131803390Y-54649047D01*
X131374819Y-54220476D02*
X131946247Y-54791904D01*
X112691666Y-47714819D02*
X112691666Y-48429104D01*
X112691666Y-48429104D02*
X112644047Y-48571961D01*
X112644047Y-48571961D02*
X112548809Y-48667200D01*
X112548809Y-48667200D02*
X112405952Y-48714819D01*
X112405952Y-48714819D02*
X112310714Y-48714819D01*
X113072619Y-47714819D02*
X113739285Y-47714819D01*
X113739285Y-47714819D02*
X113310714Y-48714819D01*
X133746667Y-115277800D02*
X133889524Y-115325419D01*
X133889524Y-115325419D02*
X134127619Y-115325419D01*
X134127619Y-115325419D02*
X134222857Y-115277800D01*
X134222857Y-115277800D02*
X134270476Y-115230180D01*
X134270476Y-115230180D02*
X134318095Y-115134942D01*
X134318095Y-115134942D02*
X134318095Y-115039704D01*
X134318095Y-115039704D02*
X134270476Y-114944466D01*
X134270476Y-114944466D02*
X134222857Y-114896847D01*
X134222857Y-114896847D02*
X134127619Y-114849228D01*
X134127619Y-114849228D02*
X133937143Y-114801609D01*
X133937143Y-114801609D02*
X133841905Y-114753990D01*
X133841905Y-114753990D02*
X133794286Y-114706371D01*
X133794286Y-114706371D02*
X133746667Y-114611133D01*
X133746667Y-114611133D02*
X133746667Y-114515895D01*
X133746667Y-114515895D02*
X133794286Y-114420657D01*
X133794286Y-114420657D02*
X133841905Y-114373038D01*
X133841905Y-114373038D02*
X133937143Y-114325419D01*
X133937143Y-114325419D02*
X134175238Y-114325419D01*
X134175238Y-114325419D02*
X134318095Y-114373038D01*
X134651429Y-114325419D02*
X134889524Y-115325419D01*
X134889524Y-115325419D02*
X135080000Y-114611133D01*
X135080000Y-114611133D02*
X135270476Y-115325419D01*
X135270476Y-115325419D02*
X135508572Y-114325419D01*
X135841905Y-114420657D02*
X135889524Y-114373038D01*
X135889524Y-114373038D02*
X135984762Y-114325419D01*
X135984762Y-114325419D02*
X136222857Y-114325419D01*
X136222857Y-114325419D02*
X136318095Y-114373038D01*
X136318095Y-114373038D02*
X136365714Y-114420657D01*
X136365714Y-114420657D02*
X136413333Y-114515895D01*
X136413333Y-114515895D02*
X136413333Y-114611133D01*
X136413333Y-114611133D02*
X136365714Y-114753990D01*
X136365714Y-114753990D02*
X135794286Y-115325419D01*
X135794286Y-115325419D02*
X136413333Y-115325419D01*
X90605476Y-94924819D02*
X90605476Y-95639104D01*
X90605476Y-95639104D02*
X90557857Y-95781961D01*
X90557857Y-95781961D02*
X90462619Y-95877200D01*
X90462619Y-95877200D02*
X90319762Y-95924819D01*
X90319762Y-95924819D02*
X90224524Y-95924819D01*
X91605476Y-95924819D02*
X91034048Y-95924819D01*
X91319762Y-95924819D02*
X91319762Y-94924819D01*
X91319762Y-94924819D02*
X91224524Y-95067676D01*
X91224524Y-95067676D02*
X91129286Y-95162914D01*
X91129286Y-95162914D02*
X91034048Y-95210533D01*
X92557857Y-95924819D02*
X91986429Y-95924819D01*
X92272143Y-95924819D02*
X92272143Y-94924819D01*
X92272143Y-94924819D02*
X92176905Y-95067676D01*
X92176905Y-95067676D02*
X92081667Y-95162914D01*
X92081667Y-95162914D02*
X91986429Y-95210533D01*
X65148095Y-74339819D02*
X65148095Y-75149342D01*
X65148095Y-75149342D02*
X65195714Y-75244580D01*
X65195714Y-75244580D02*
X65243333Y-75292200D01*
X65243333Y-75292200D02*
X65338571Y-75339819D01*
X65338571Y-75339819D02*
X65529047Y-75339819D01*
X65529047Y-75339819D02*
X65624285Y-75292200D01*
X65624285Y-75292200D02*
X65671904Y-75244580D01*
X65671904Y-75244580D02*
X65719523Y-75149342D01*
X65719523Y-75149342D02*
X65719523Y-74339819D01*
X66719523Y-75339819D02*
X66148095Y-75339819D01*
X66433809Y-75339819D02*
X66433809Y-74339819D01*
X66433809Y-74339819D02*
X66338571Y-74482676D01*
X66338571Y-74482676D02*
X66243333Y-74577914D01*
X66243333Y-74577914D02*
X66148095Y-74625533D01*
X125396666Y-47714819D02*
X125396666Y-48429104D01*
X125396666Y-48429104D02*
X125349047Y-48571961D01*
X125349047Y-48571961D02*
X125253809Y-48667200D01*
X125253809Y-48667200D02*
X125110952Y-48714819D01*
X125110952Y-48714819D02*
X125015714Y-48714819D01*
X126015714Y-48143390D02*
X125920476Y-48095771D01*
X125920476Y-48095771D02*
X125872857Y-48048152D01*
X125872857Y-48048152D02*
X125825238Y-47952914D01*
X125825238Y-47952914D02*
X125825238Y-47905295D01*
X125825238Y-47905295D02*
X125872857Y-47810057D01*
X125872857Y-47810057D02*
X125920476Y-47762438D01*
X125920476Y-47762438D02*
X126015714Y-47714819D01*
X126015714Y-47714819D02*
X126206190Y-47714819D01*
X126206190Y-47714819D02*
X126301428Y-47762438D01*
X126301428Y-47762438D02*
X126349047Y-47810057D01*
X126349047Y-47810057D02*
X126396666Y-47905295D01*
X126396666Y-47905295D02*
X126396666Y-47952914D01*
X126396666Y-47952914D02*
X126349047Y-48048152D01*
X126349047Y-48048152D02*
X126301428Y-48095771D01*
X126301428Y-48095771D02*
X126206190Y-48143390D01*
X126206190Y-48143390D02*
X126015714Y-48143390D01*
X126015714Y-48143390D02*
X125920476Y-48191009D01*
X125920476Y-48191009D02*
X125872857Y-48238628D01*
X125872857Y-48238628D02*
X125825238Y-48333866D01*
X125825238Y-48333866D02*
X125825238Y-48524342D01*
X125825238Y-48524342D02*
X125872857Y-48619580D01*
X125872857Y-48619580D02*
X125920476Y-48667200D01*
X125920476Y-48667200D02*
X126015714Y-48714819D01*
X126015714Y-48714819D02*
X126206190Y-48714819D01*
X126206190Y-48714819D02*
X126301428Y-48667200D01*
X126301428Y-48667200D02*
X126349047Y-48619580D01*
X126349047Y-48619580D02*
X126396666Y-48524342D01*
X126396666Y-48524342D02*
X126396666Y-48333866D01*
X126396666Y-48333866D02*
X126349047Y-48238628D01*
X126349047Y-48238628D02*
X126301428Y-48191009D01*
X126301428Y-48191009D02*
X126206190Y-48143390D01*
X74591666Y-47714819D02*
X74591666Y-48429104D01*
X74591666Y-48429104D02*
X74544047Y-48571961D01*
X74544047Y-48571961D02*
X74448809Y-48667200D01*
X74448809Y-48667200D02*
X74305952Y-48714819D01*
X74305952Y-48714819D02*
X74210714Y-48714819D01*
X74972619Y-47714819D02*
X75591666Y-47714819D01*
X75591666Y-47714819D02*
X75258333Y-48095771D01*
X75258333Y-48095771D02*
X75401190Y-48095771D01*
X75401190Y-48095771D02*
X75496428Y-48143390D01*
X75496428Y-48143390D02*
X75544047Y-48191009D01*
X75544047Y-48191009D02*
X75591666Y-48286247D01*
X75591666Y-48286247D02*
X75591666Y-48524342D01*
X75591666Y-48524342D02*
X75544047Y-48619580D01*
X75544047Y-48619580D02*
X75496428Y-48667200D01*
X75496428Y-48667200D02*
X75401190Y-48714819D01*
X75401190Y-48714819D02*
X75115476Y-48714819D01*
X75115476Y-48714819D02*
X75020238Y-48667200D01*
X75020238Y-48667200D02*
X74972619Y-48619580D01*
X130979104Y-104844285D02*
X130979104Y-104368095D01*
X131264819Y-104939523D02*
X130264819Y-104606190D01*
X130264819Y-104606190D02*
X131264819Y-104272857D01*
X131264819Y-103415714D02*
X131264819Y-103987142D01*
X131264819Y-103701428D02*
X130264819Y-103701428D01*
X130264819Y-103701428D02*
X130407676Y-103796666D01*
X130407676Y-103796666D02*
X130502914Y-103891904D01*
X130502914Y-103891904D02*
X130550533Y-103987142D01*
X170904819Y-105391904D02*
X171714342Y-105391904D01*
X171714342Y-105391904D02*
X171809580Y-105344285D01*
X171809580Y-105344285D02*
X171857200Y-105296666D01*
X171857200Y-105296666D02*
X171904819Y-105201428D01*
X171904819Y-105201428D02*
X171904819Y-105010952D01*
X171904819Y-105010952D02*
X171857200Y-104915714D01*
X171857200Y-104915714D02*
X171809580Y-104868095D01*
X171809580Y-104868095D02*
X171714342Y-104820476D01*
X171714342Y-104820476D02*
X170904819Y-104820476D01*
X171857200Y-104391904D02*
X171904819Y-104249047D01*
X171904819Y-104249047D02*
X171904819Y-104010952D01*
X171904819Y-104010952D02*
X171857200Y-103915714D01*
X171857200Y-103915714D02*
X171809580Y-103868095D01*
X171809580Y-103868095D02*
X171714342Y-103820476D01*
X171714342Y-103820476D02*
X171619104Y-103820476D01*
X171619104Y-103820476D02*
X171523866Y-103868095D01*
X171523866Y-103868095D02*
X171476247Y-103915714D01*
X171476247Y-103915714D02*
X171428628Y-104010952D01*
X171428628Y-104010952D02*
X171381009Y-104201428D01*
X171381009Y-104201428D02*
X171333390Y-104296666D01*
X171333390Y-104296666D02*
X171285771Y-104344285D01*
X171285771Y-104344285D02*
X171190533Y-104391904D01*
X171190533Y-104391904D02*
X171095295Y-104391904D01*
X171095295Y-104391904D02*
X171000057Y-104344285D01*
X171000057Y-104344285D02*
X170952438Y-104296666D01*
X170952438Y-104296666D02*
X170904819Y-104201428D01*
X170904819Y-104201428D02*
X170904819Y-103963333D01*
X170904819Y-103963333D02*
X170952438Y-103820476D01*
X171381009Y-103058571D02*
X171428628Y-102915714D01*
X171428628Y-102915714D02*
X171476247Y-102868095D01*
X171476247Y-102868095D02*
X171571485Y-102820476D01*
X171571485Y-102820476D02*
X171714342Y-102820476D01*
X171714342Y-102820476D02*
X171809580Y-102868095D01*
X171809580Y-102868095D02*
X171857200Y-102915714D01*
X171857200Y-102915714D02*
X171904819Y-103010952D01*
X171904819Y-103010952D02*
X171904819Y-103391904D01*
X171904819Y-103391904D02*
X170904819Y-103391904D01*
X170904819Y-103391904D02*
X170904819Y-103058571D01*
X170904819Y-103058571D02*
X170952438Y-102963333D01*
X170952438Y-102963333D02*
X171000057Y-102915714D01*
X171000057Y-102915714D02*
X171095295Y-102868095D01*
X171095295Y-102868095D02*
X171190533Y-102868095D01*
X171190533Y-102868095D02*
X171285771Y-102915714D01*
X171285771Y-102915714D02*
X171333390Y-102963333D01*
X171333390Y-102963333D02*
X171381009Y-103058571D01*
X171381009Y-103058571D02*
X171381009Y-103391904D01*
X103266667Y-115572800D02*
X103409524Y-115620419D01*
X103409524Y-115620419D02*
X103647619Y-115620419D01*
X103647619Y-115620419D02*
X103742857Y-115572800D01*
X103742857Y-115572800D02*
X103790476Y-115525180D01*
X103790476Y-115525180D02*
X103838095Y-115429942D01*
X103838095Y-115429942D02*
X103838095Y-115334704D01*
X103838095Y-115334704D02*
X103790476Y-115239466D01*
X103790476Y-115239466D02*
X103742857Y-115191847D01*
X103742857Y-115191847D02*
X103647619Y-115144228D01*
X103647619Y-115144228D02*
X103457143Y-115096609D01*
X103457143Y-115096609D02*
X103361905Y-115048990D01*
X103361905Y-115048990D02*
X103314286Y-115001371D01*
X103314286Y-115001371D02*
X103266667Y-114906133D01*
X103266667Y-114906133D02*
X103266667Y-114810895D01*
X103266667Y-114810895D02*
X103314286Y-114715657D01*
X103314286Y-114715657D02*
X103361905Y-114668038D01*
X103361905Y-114668038D02*
X103457143Y-114620419D01*
X103457143Y-114620419D02*
X103695238Y-114620419D01*
X103695238Y-114620419D02*
X103838095Y-114668038D01*
X104171429Y-114620419D02*
X104409524Y-115620419D01*
X104409524Y-115620419D02*
X104600000Y-114906133D01*
X104600000Y-114906133D02*
X104790476Y-115620419D01*
X104790476Y-115620419D02*
X105028572Y-114620419D01*
X105933333Y-115620419D02*
X105361905Y-115620419D01*
X105647619Y-115620419D02*
X105647619Y-114620419D01*
X105647619Y-114620419D02*
X105552381Y-114763276D01*
X105552381Y-114763276D02*
X105457143Y-114858514D01*
X105457143Y-114858514D02*
X105361905Y-114906133D01*
X150315476Y-47714819D02*
X150315476Y-48429104D01*
X150315476Y-48429104D02*
X150267857Y-48571961D01*
X150267857Y-48571961D02*
X150172619Y-48667200D01*
X150172619Y-48667200D02*
X150029762Y-48714819D01*
X150029762Y-48714819D02*
X149934524Y-48714819D01*
X151315476Y-48714819D02*
X150744048Y-48714819D01*
X151029762Y-48714819D02*
X151029762Y-47714819D01*
X151029762Y-47714819D02*
X150934524Y-47857676D01*
X150934524Y-47857676D02*
X150839286Y-47952914D01*
X150839286Y-47952914D02*
X150744048Y-48000533D01*
X151648810Y-47714819D02*
X152315476Y-47714819D01*
X152315476Y-47714819D02*
X151886905Y-48714819D01*
D11*
X158445000Y-49620000D02*
X158445000Y-50360000D01*
X158445000Y-50360000D02*
X158945000Y-50360000D01*
X158685000Y-38800000D02*
X158685000Y-50120000D01*
X158685000Y-38800000D02*
X168965000Y-38800000D01*
X158685000Y-40860000D02*
X168965000Y-40860000D01*
X158685000Y-47060000D02*
X168965000Y-47060000D01*
X158685000Y-49560000D02*
X168965000Y-49560000D01*
X158685000Y-50120000D02*
X168965000Y-50120000D01*
X159737000Y-46041000D02*
X159631000Y-46148000D01*
X160003000Y-46307000D02*
X159897000Y-46414000D01*
X162673000Y-43106000D02*
X162566000Y-43213000D01*
X162939000Y-43372000D02*
X162832000Y-43479000D01*
X165107000Y-45752000D02*
X164712000Y-46148000D01*
X165358000Y-46034000D02*
X164978000Y-46414000D01*
X167753000Y-43106000D02*
X167373000Y-43486000D01*
X168019000Y-43372000D02*
X167624000Y-43768000D01*
X168965000Y-38800000D02*
X168965000Y-50120000D01*
X163465000Y-44760000D02*
G75*
G03*
X163465000Y-44760000I-2180000J0D01*
G01*
X168545000Y-44760000D02*
G75*
G03*
X168545000Y-44760000I-2180000J0D01*
G01*
X73580000Y-91445000D02*
X73580000Y-83765000D01*
X73580000Y-91445000D02*
X70920000Y-91445000D01*
X73580000Y-83765000D02*
X70920000Y-83765000D01*
X72250000Y-94045000D02*
X70920000Y-94045000D01*
X70920000Y-94045000D02*
X70920000Y-92715000D01*
X70920000Y-91445000D02*
X70920000Y-83765000D01*
X156769698Y-63275000D02*
X155969698Y-63275000D01*
X156369698Y-63675000D02*
X156369698Y-62875000D01*
X152360000Y-65040000D02*
X152360000Y-56880000D01*
X152320000Y-65040000D02*
X152320000Y-56880000D01*
X152280000Y-65040000D02*
X152280000Y-56880000D01*
X152240000Y-65039000D02*
X152240000Y-56881000D01*
X152200000Y-65037000D02*
X152200000Y-56883000D01*
X152160000Y-65036000D02*
X152160000Y-56884000D01*
X152120000Y-65034000D02*
X152120000Y-56886000D01*
X152080000Y-65031000D02*
X152080000Y-56889000D01*
X152040000Y-65028000D02*
X152040000Y-56892000D01*
X152000000Y-65025000D02*
X152000000Y-56895000D01*
X151960000Y-65021000D02*
X151960000Y-56899000D01*
X151920000Y-65017000D02*
X151920000Y-56903000D01*
X151880000Y-65012000D02*
X151880000Y-56908000D01*
X151840000Y-65008000D02*
X151840000Y-56912000D01*
X151800000Y-65002000D02*
X151800000Y-56918000D01*
X151760000Y-64997000D02*
X151760000Y-56923000D01*
X151720000Y-64990000D02*
X151720000Y-56930000D01*
X151680000Y-64984000D02*
X151680000Y-56936000D01*
X151639000Y-64977000D02*
X151639000Y-56943000D01*
X151599000Y-64970000D02*
X151599000Y-56950000D01*
X151559000Y-64962000D02*
X151559000Y-56958000D01*
X151519000Y-64954000D02*
X151519000Y-56966000D01*
X151479000Y-64945000D02*
X151479000Y-56975000D01*
X151439000Y-64936000D02*
X151439000Y-56984000D01*
X151399000Y-64927000D02*
X151399000Y-56993000D01*
X151359000Y-64917000D02*
X151359000Y-57003000D01*
X151319000Y-64907000D02*
X151319000Y-57013000D01*
X151279000Y-64896000D02*
X151279000Y-57024000D01*
X151239000Y-64885000D02*
X151239000Y-57035000D01*
X151199000Y-64874000D02*
X151199000Y-57046000D01*
X151159000Y-64862000D02*
X151159000Y-57058000D01*
X151119000Y-64849000D02*
X151119000Y-57071000D01*
X151079000Y-64837000D02*
X151079000Y-57083000D01*
X151039000Y-64823000D02*
X151039000Y-57097000D01*
X150999000Y-64810000D02*
X150999000Y-57110000D01*
X150959000Y-64795000D02*
X150959000Y-57125000D01*
X150919000Y-64781000D02*
X150919000Y-57139000D01*
X150879000Y-64765000D02*
X150879000Y-62000000D01*
X150879000Y-59920000D02*
X150879000Y-57155000D01*
X150839000Y-64750000D02*
X150839000Y-62000000D01*
X150839000Y-59920000D02*
X150839000Y-57170000D01*
X150799000Y-64734000D02*
X150799000Y-62000000D01*
X150799000Y-59920000D02*
X150799000Y-57186000D01*
X150759000Y-64717000D02*
X150759000Y-62000000D01*
X150759000Y-59920000D02*
X150759000Y-57203000D01*
X150719000Y-64700000D02*
X150719000Y-62000000D01*
X150719000Y-59920000D02*
X150719000Y-57220000D01*
X150679000Y-64682000D02*
X150679000Y-62000000D01*
X150679000Y-59920000D02*
X150679000Y-57238000D01*
X150639000Y-64664000D02*
X150639000Y-62000000D01*
X150639000Y-59920000D02*
X150639000Y-57256000D01*
X150599000Y-64646000D02*
X150599000Y-62000000D01*
X150599000Y-59920000D02*
X150599000Y-57274000D01*
X150559000Y-64626000D02*
X150559000Y-62000000D01*
X150559000Y-59920000D02*
X150559000Y-57294000D01*
X150519000Y-64607000D02*
X150519000Y-62000000D01*
X150519000Y-59920000D02*
X150519000Y-57313000D01*
X150479000Y-64587000D02*
X150479000Y-62000000D01*
X150479000Y-59920000D02*
X150479000Y-57333000D01*
X150439000Y-64566000D02*
X150439000Y-62000000D01*
X150439000Y-59920000D02*
X150439000Y-57354000D01*
X150399000Y-64544000D02*
X150399000Y-62000000D01*
X150399000Y-59920000D02*
X150399000Y-57376000D01*
X150359000Y-64522000D02*
X150359000Y-62000000D01*
X150359000Y-59920000D02*
X150359000Y-57398000D01*
X150319000Y-64500000D02*
X150319000Y-62000000D01*
X150319000Y-59920000D02*
X150319000Y-57420000D01*
X150279000Y-64477000D02*
X150279000Y-62000000D01*
X150279000Y-59920000D02*
X150279000Y-57443000D01*
X150239000Y-64453000D02*
X150239000Y-62000000D01*
X150239000Y-59920000D02*
X150239000Y-57467000D01*
X150199000Y-64429000D02*
X150199000Y-62000000D01*
X150199000Y-59920000D02*
X150199000Y-57491000D01*
X150159000Y-64404000D02*
X150159000Y-62000000D01*
X150159000Y-59920000D02*
X150159000Y-57516000D01*
X150119000Y-64378000D02*
X150119000Y-62000000D01*
X150119000Y-59920000D02*
X150119000Y-57542000D01*
X150079000Y-64352000D02*
X150079000Y-62000000D01*
X150079000Y-59920000D02*
X150079000Y-57568000D01*
X150039000Y-64325000D02*
X150039000Y-62000000D01*
X150039000Y-59920000D02*
X150039000Y-57595000D01*
X149999000Y-64298000D02*
X149999000Y-62000000D01*
X149999000Y-59920000D02*
X149999000Y-57622000D01*
X149959000Y-64269000D02*
X149959000Y-62000000D01*
X149959000Y-59920000D02*
X149959000Y-57651000D01*
X149919000Y-64240000D02*
X149919000Y-62000000D01*
X149919000Y-59920000D02*
X149919000Y-57680000D01*
X149879000Y-64210000D02*
X149879000Y-62000000D01*
X149879000Y-59920000D02*
X149879000Y-57710000D01*
X149839000Y-64180000D02*
X149839000Y-62000000D01*
X149839000Y-59920000D02*
X149839000Y-57740000D01*
X149799000Y-64149000D02*
X149799000Y-62000000D01*
X149799000Y-59920000D02*
X149799000Y-57771000D01*
X149759000Y-64116000D02*
X149759000Y-62000000D01*
X149759000Y-59920000D02*
X149759000Y-57804000D01*
X149719000Y-64084000D02*
X149719000Y-62000000D01*
X149719000Y-59920000D02*
X149719000Y-57836000D01*
X149679000Y-64050000D02*
X149679000Y-62000000D01*
X149679000Y-59920000D02*
X149679000Y-57870000D01*
X149639000Y-64015000D02*
X149639000Y-62000000D01*
X149639000Y-59920000D02*
X149639000Y-57905000D01*
X149599000Y-63979000D02*
X149599000Y-62000000D01*
X149599000Y-59920000D02*
X149599000Y-57941000D01*
X149559000Y-63943000D02*
X149559000Y-62000000D01*
X149559000Y-59920000D02*
X149559000Y-57977000D01*
X149519000Y-63905000D02*
X149519000Y-62000000D01*
X149519000Y-59920000D02*
X149519000Y-58015000D01*
X149479000Y-63867000D02*
X149479000Y-62000000D01*
X149479000Y-59920000D02*
X149479000Y-58053000D01*
X149439000Y-63827000D02*
X149439000Y-62000000D01*
X149439000Y-59920000D02*
X149439000Y-58093000D01*
X149399000Y-63786000D02*
X149399000Y-62000000D01*
X149399000Y-59920000D02*
X149399000Y-58134000D01*
X149359000Y-63744000D02*
X149359000Y-62000000D01*
X149359000Y-59920000D02*
X149359000Y-58176000D01*
X149319000Y-63701000D02*
X149319000Y-62000000D01*
X149319000Y-59920000D02*
X149319000Y-58219000D01*
X149279000Y-63657000D02*
X149279000Y-62000000D01*
X149279000Y-59920000D02*
X149279000Y-58263000D01*
X149239000Y-63611000D02*
X149239000Y-62000000D01*
X149239000Y-59920000D02*
X149239000Y-58309000D01*
X149199000Y-63564000D02*
X149199000Y-62000000D01*
X149199000Y-59920000D02*
X149199000Y-58356000D01*
X149159000Y-63516000D02*
X149159000Y-62000000D01*
X149159000Y-59920000D02*
X149159000Y-58404000D01*
X149119000Y-63465000D02*
X149119000Y-62000000D01*
X149119000Y-59920000D02*
X149119000Y-58455000D01*
X149079000Y-63414000D02*
X149079000Y-62000000D01*
X149079000Y-59920000D02*
X149079000Y-58506000D01*
X149039000Y-63360000D02*
X149039000Y-62000000D01*
X149039000Y-59920000D02*
X149039000Y-58560000D01*
X148999000Y-63305000D02*
X148999000Y-62000000D01*
X148999000Y-59920000D02*
X148999000Y-58615000D01*
X148959000Y-63247000D02*
X148959000Y-62000000D01*
X148959000Y-59920000D02*
X148959000Y-58673000D01*
X148919000Y-63188000D02*
X148919000Y-62000000D01*
X148919000Y-59920000D02*
X148919000Y-58732000D01*
X148879000Y-63126000D02*
X148879000Y-62000000D01*
X148879000Y-59920000D02*
X148879000Y-58794000D01*
X148839000Y-63062000D02*
X148839000Y-62000000D01*
X148839000Y-59920000D02*
X148839000Y-58858000D01*
X148799000Y-62994000D02*
X148799000Y-58926000D01*
X148759000Y-62924000D02*
X148759000Y-58996000D01*
X148719000Y-62850000D02*
X148719000Y-59070000D01*
X148679000Y-62773000D02*
X148679000Y-59147000D01*
X148639000Y-62691000D02*
X148639000Y-59229000D01*
X148599000Y-62605000D02*
X148599000Y-59315000D01*
X148559000Y-62512000D02*
X148559000Y-59408000D01*
X148519000Y-62413000D02*
X148519000Y-59507000D01*
X148479000Y-62306000D02*
X148479000Y-59614000D01*
X148439000Y-62189000D02*
X148439000Y-59731000D01*
X148399000Y-62058000D02*
X148399000Y-59862000D01*
X148359000Y-61908000D02*
X148359000Y-60012000D01*
X148319000Y-61728000D02*
X148319000Y-60192000D01*
X148279000Y-61493000D02*
X148279000Y-60427000D01*
X156480000Y-60960000D02*
G75*
G03*
X156480000Y-60960000I-4120000J0D01*
G01*
X174050000Y-52130000D02*
X172720000Y-52130000D01*
X174050000Y-50800000D02*
X174050000Y-52130000D01*
X174050000Y-49530000D02*
X174050000Y-46930000D01*
X174050000Y-49530000D02*
X171390000Y-49530000D01*
X174050000Y-46930000D02*
X171390000Y-46930000D01*
X171390000Y-49530000D02*
X171390000Y-46930000D01*
X154930000Y-67166000D02*
X150289000Y-67166000D01*
X154930000Y-67166000D02*
X154930000Y-77407000D01*
X153420000Y-67166000D02*
X153420000Y-77407000D01*
X150289000Y-67166000D02*
X150289000Y-77407000D01*
X154930000Y-70437000D02*
X153420000Y-70437000D01*
X154930000Y-74137000D02*
X153420000Y-74137000D01*
X154930000Y-77407000D02*
X150289000Y-77407000D01*
X143605000Y-71120000D02*
X142695000Y-71120000D01*
X142695000Y-73840000D02*
X142695000Y-68400000D01*
X142695000Y-68400000D02*
X132955000Y-68400000D01*
X141270000Y-73840000D02*
X141270000Y-68400000D01*
X141150000Y-73840000D02*
X141150000Y-68400000D01*
X141030000Y-73840000D02*
X141030000Y-68400000D01*
X132955000Y-73840000D02*
X142695000Y-73840000D01*
X132955000Y-68400000D02*
X132955000Y-73840000D01*
X132045000Y-71120000D02*
X132955000Y-71120000D01*
X153730000Y-52010000D02*
X153730000Y-53340000D01*
X152400000Y-52010000D02*
X153730000Y-52010000D01*
X151130000Y-52010000D02*
X148530000Y-52010000D01*
X151130000Y-52010000D02*
X151130000Y-54670000D01*
X148530000Y-52010000D02*
X148530000Y-54670000D01*
X151130000Y-54670000D02*
X148530000Y-54670000D01*
X56845000Y-49610000D02*
X56845000Y-50350000D01*
X56845000Y-50350000D02*
X57345000Y-50350000D01*
X57085000Y-38790000D02*
X57085000Y-50110000D01*
X57085000Y-38790000D02*
X67365000Y-38790000D01*
X57085000Y-40850000D02*
X67365000Y-40850000D01*
X57085000Y-47050000D02*
X67365000Y-47050000D01*
X57085000Y-49550000D02*
X67365000Y-49550000D01*
X57085000Y-50110000D02*
X67365000Y-50110000D01*
X58137000Y-46031000D02*
X58031000Y-46138000D01*
X58403000Y-46297000D02*
X58297000Y-46404000D01*
X61073000Y-43096000D02*
X60966000Y-43203000D01*
X61339000Y-43362000D02*
X61232000Y-43469000D01*
X63507000Y-45742000D02*
X63112000Y-46138000D01*
X63758000Y-46024000D02*
X63378000Y-46404000D01*
X66153000Y-43096000D02*
X65773000Y-43476000D01*
X66419000Y-43362000D02*
X66024000Y-43758000D01*
X67365000Y-38790000D02*
X67365000Y-50110000D01*
X61865000Y-44750000D02*
G75*
G03*
X61865000Y-44750000I-2180000J0D01*
G01*
X66945000Y-44750000D02*
G75*
G03*
X66945000Y-44750000I-2180000J0D01*
G01*
X82245000Y-49620000D02*
X82245000Y-50360000D01*
X82245000Y-50360000D02*
X82745000Y-50360000D01*
X82485000Y-38800000D02*
X82485000Y-50120000D01*
X82485000Y-38800000D02*
X92765000Y-38800000D01*
X82485000Y-40860000D02*
X92765000Y-40860000D01*
X82485000Y-47060000D02*
X92765000Y-47060000D01*
X82485000Y-49560000D02*
X92765000Y-49560000D01*
X82485000Y-50120000D02*
X92765000Y-50120000D01*
X83537000Y-46041000D02*
X83431000Y-46148000D01*
X83803000Y-46307000D02*
X83697000Y-46414000D01*
X86473000Y-43106000D02*
X86366000Y-43213000D01*
X86739000Y-43372000D02*
X86632000Y-43479000D01*
X88907000Y-45752000D02*
X88512000Y-46148000D01*
X89158000Y-46034000D02*
X88778000Y-46414000D01*
X91553000Y-43106000D02*
X91173000Y-43486000D01*
X91819000Y-43372000D02*
X91424000Y-43768000D01*
X92765000Y-38800000D02*
X92765000Y-50120000D01*
X87265000Y-44760000D02*
G75*
G03*
X87265000Y-44760000I-2180000J0D01*
G01*
X92345000Y-44760000D02*
G75*
G03*
X92345000Y-44760000I-2180000J0D01*
G01*
X44145000Y-49610000D02*
X44145000Y-50350000D01*
X44145000Y-50350000D02*
X44645000Y-50350000D01*
X44385000Y-38790000D02*
X44385000Y-50110000D01*
X44385000Y-38790000D02*
X54665000Y-38790000D01*
X44385000Y-40850000D02*
X54665000Y-40850000D01*
X44385000Y-47050000D02*
X54665000Y-47050000D01*
X44385000Y-49550000D02*
X54665000Y-49550000D01*
X44385000Y-50110000D02*
X54665000Y-50110000D01*
X45437000Y-46031000D02*
X45331000Y-46138000D01*
X45703000Y-46297000D02*
X45597000Y-46404000D01*
X48373000Y-43096000D02*
X48266000Y-43203000D01*
X48639000Y-43362000D02*
X48532000Y-43469000D01*
X50807000Y-45742000D02*
X50412000Y-46138000D01*
X51058000Y-46024000D02*
X50678000Y-46404000D01*
X53453000Y-43096000D02*
X53073000Y-43476000D01*
X53719000Y-43362000D02*
X53324000Y-43758000D01*
X54665000Y-38790000D02*
X54665000Y-50110000D01*
X49165000Y-44750000D02*
G75*
G03*
X49165000Y-44750000I-2180000J0D01*
G01*
X54245000Y-44750000D02*
G75*
G03*
X54245000Y-44750000I-2180000J0D01*
G01*
X142520000Y-55870000D02*
X142520000Y-56890000D01*
X143990000Y-56890000D02*
X141050000Y-56890000D01*
X141050000Y-56890000D02*
X141050000Y-62330000D01*
X143990000Y-57670000D02*
X141050000Y-57670000D01*
X143990000Y-57790000D02*
X141050000Y-57790000D01*
X143990000Y-57910000D02*
X141050000Y-57910000D01*
X143990000Y-62330000D02*
X143990000Y-56890000D01*
X141050000Y-62330000D02*
X143990000Y-62330000D01*
X142520000Y-63350000D02*
X142520000Y-62330000D01*
X123470000Y-55870000D02*
X123470000Y-56890000D01*
X124940000Y-56890000D02*
X122000000Y-56890000D01*
X122000000Y-56890000D02*
X122000000Y-62330000D01*
X124940000Y-57670000D02*
X122000000Y-57670000D01*
X124940000Y-57790000D02*
X122000000Y-57790000D01*
X124940000Y-57910000D02*
X122000000Y-57910000D01*
X124940000Y-62330000D02*
X124940000Y-56890000D01*
X122000000Y-62330000D02*
X124940000Y-62330000D01*
X123470000Y-63350000D02*
X123470000Y-62330000D01*
X94950000Y-49620000D02*
X94950000Y-50360000D01*
X94950000Y-50360000D02*
X95450000Y-50360000D01*
X95190000Y-38800000D02*
X95190000Y-50120000D01*
X95190000Y-38800000D02*
X105470000Y-38800000D01*
X95190000Y-40860000D02*
X105470000Y-40860000D01*
X95190000Y-47060000D02*
X105470000Y-47060000D01*
X95190000Y-49560000D02*
X105470000Y-49560000D01*
X95190000Y-50120000D02*
X105470000Y-50120000D01*
X96242000Y-46041000D02*
X96136000Y-46148000D01*
X96508000Y-46307000D02*
X96402000Y-46414000D01*
X99178000Y-43106000D02*
X99071000Y-43213000D01*
X99444000Y-43372000D02*
X99337000Y-43479000D01*
X101612000Y-45752000D02*
X101217000Y-46148000D01*
X101863000Y-46034000D02*
X101483000Y-46414000D01*
X104258000Y-43106000D02*
X103878000Y-43486000D01*
X104524000Y-43372000D02*
X104129000Y-43768000D01*
X105470000Y-38800000D02*
X105470000Y-50120000D01*
X99970000Y-44760000D02*
G75*
G03*
X99970000Y-44760000I-2180000J0D01*
G01*
X105050000Y-44760000D02*
G75*
G03*
X105050000Y-44760000I-2180000J0D01*
G01*
X144340354Y-83485000D02*
X145340354Y-83485000D01*
X144840354Y-82985000D02*
X144840354Y-83985000D01*
X149820000Y-81280000D02*
X149820000Y-91440000D01*
X149860000Y-81280000D02*
X149860000Y-91440000D01*
X149900000Y-81280000D02*
X149900000Y-91440000D01*
X149940000Y-81281000D02*
X149940000Y-91439000D01*
X149980000Y-81282000D02*
X149980000Y-91438000D01*
X150020000Y-81283000D02*
X150020000Y-91437000D01*
X150060000Y-81285000D02*
X150060000Y-91435000D01*
X150100000Y-81287000D02*
X150100000Y-91433000D01*
X150140000Y-81290000D02*
X150140000Y-91430000D01*
X150180000Y-81292000D02*
X150180000Y-91428000D01*
X150220000Y-81295000D02*
X150220000Y-91425000D01*
X150260000Y-81298000D02*
X150260000Y-91422000D01*
X150300000Y-81302000D02*
X150300000Y-91418000D01*
X150340000Y-81306000D02*
X150340000Y-91414000D01*
X150380000Y-81310000D02*
X150380000Y-91410000D01*
X150420000Y-81315000D02*
X150420000Y-91405000D01*
X150460000Y-81320000D02*
X150460000Y-91400000D01*
X150500000Y-81325000D02*
X150500000Y-91395000D01*
X150541000Y-81330000D02*
X150541000Y-91390000D01*
X150581000Y-81336000D02*
X150581000Y-91384000D01*
X150621000Y-81342000D02*
X150621000Y-91378000D01*
X150661000Y-81349000D02*
X150661000Y-91371000D01*
X150701000Y-81356000D02*
X150701000Y-91364000D01*
X150741000Y-81363000D02*
X150741000Y-91357000D01*
X150781000Y-81370000D02*
X150781000Y-91350000D01*
X150821000Y-81378000D02*
X150821000Y-91342000D01*
X150861000Y-81386000D02*
X150861000Y-91334000D01*
X150901000Y-81395000D02*
X150901000Y-91325000D01*
X150941000Y-81404000D02*
X150941000Y-91316000D01*
X150981000Y-81413000D02*
X150981000Y-91307000D01*
X151021000Y-81422000D02*
X151021000Y-91298000D01*
X151061000Y-81432000D02*
X151061000Y-91288000D01*
X151101000Y-81442000D02*
X151101000Y-85119000D01*
X151101000Y-87601000D02*
X151101000Y-91278000D01*
X151141000Y-81453000D02*
X151141000Y-85119000D01*
X151141000Y-87601000D02*
X151141000Y-91267000D01*
X151181000Y-81463000D02*
X151181000Y-85119000D01*
X151181000Y-87601000D02*
X151181000Y-91257000D01*
X151221000Y-81475000D02*
X151221000Y-85119000D01*
X151221000Y-87601000D02*
X151221000Y-91245000D01*
X151261000Y-81486000D02*
X151261000Y-85119000D01*
X151261000Y-87601000D02*
X151261000Y-91234000D01*
X151301000Y-81498000D02*
X151301000Y-85119000D01*
X151301000Y-87601000D02*
X151301000Y-91222000D01*
X151341000Y-81510000D02*
X151341000Y-85119000D01*
X151341000Y-87601000D02*
X151341000Y-91210000D01*
X151381000Y-81523000D02*
X151381000Y-85119000D01*
X151381000Y-87601000D02*
X151381000Y-91197000D01*
X151421000Y-81536000D02*
X151421000Y-85119000D01*
X151421000Y-87601000D02*
X151421000Y-91184000D01*
X151461000Y-81549000D02*
X151461000Y-85119000D01*
X151461000Y-87601000D02*
X151461000Y-91171000D01*
X151501000Y-81563000D02*
X151501000Y-85119000D01*
X151501000Y-87601000D02*
X151501000Y-91157000D01*
X151541000Y-81577000D02*
X151541000Y-85119000D01*
X151541000Y-87601000D02*
X151541000Y-91143000D01*
X151581000Y-81592000D02*
X151581000Y-85119000D01*
X151581000Y-87601000D02*
X151581000Y-91128000D01*
X151621000Y-81606000D02*
X151621000Y-85119000D01*
X151621000Y-87601000D02*
X151621000Y-91114000D01*
X151661000Y-81622000D02*
X151661000Y-85119000D01*
X151661000Y-87601000D02*
X151661000Y-91098000D01*
X151701000Y-81637000D02*
X151701000Y-85119000D01*
X151701000Y-87601000D02*
X151701000Y-91083000D01*
X151741000Y-81653000D02*
X151741000Y-85119000D01*
X151741000Y-87601000D02*
X151741000Y-91067000D01*
X151781000Y-81670000D02*
X151781000Y-85119000D01*
X151781000Y-87601000D02*
X151781000Y-91050000D01*
X151821000Y-81686000D02*
X151821000Y-85119000D01*
X151821000Y-87601000D02*
X151821000Y-91034000D01*
X151861000Y-81703000D02*
X151861000Y-85119000D01*
X151861000Y-87601000D02*
X151861000Y-91017000D01*
X151901000Y-81721000D02*
X151901000Y-85119000D01*
X151901000Y-87601000D02*
X151901000Y-90999000D01*
X151941000Y-81739000D02*
X151941000Y-85119000D01*
X151941000Y-87601000D02*
X151941000Y-90981000D01*
X151981000Y-81757000D02*
X151981000Y-85119000D01*
X151981000Y-87601000D02*
X151981000Y-90963000D01*
X152021000Y-81776000D02*
X152021000Y-85119000D01*
X152021000Y-87601000D02*
X152021000Y-90944000D01*
X152061000Y-81796000D02*
X152061000Y-85119000D01*
X152061000Y-87601000D02*
X152061000Y-90924000D01*
X152101000Y-81815000D02*
X152101000Y-85119000D01*
X152101000Y-87601000D02*
X152101000Y-90905000D01*
X152141000Y-81835000D02*
X152141000Y-85119000D01*
X152141000Y-87601000D02*
X152141000Y-90885000D01*
X152181000Y-81856000D02*
X152181000Y-85119000D01*
X152181000Y-87601000D02*
X152181000Y-90864000D01*
X152221000Y-81877000D02*
X152221000Y-85119000D01*
X152221000Y-87601000D02*
X152221000Y-90843000D01*
X152261000Y-81898000D02*
X152261000Y-85119000D01*
X152261000Y-87601000D02*
X152261000Y-90822000D01*
X152301000Y-81920000D02*
X152301000Y-85119000D01*
X152301000Y-87601000D02*
X152301000Y-90800000D01*
X152341000Y-81943000D02*
X152341000Y-85119000D01*
X152341000Y-87601000D02*
X152341000Y-90777000D01*
X152381000Y-81965000D02*
X152381000Y-85119000D01*
X152381000Y-87601000D02*
X152381000Y-90755000D01*
X152421000Y-81989000D02*
X152421000Y-85119000D01*
X152421000Y-87601000D02*
X152421000Y-90731000D01*
X152461000Y-82013000D02*
X152461000Y-85119000D01*
X152461000Y-87601000D02*
X152461000Y-90707000D01*
X152501000Y-82037000D02*
X152501000Y-85119000D01*
X152501000Y-87601000D02*
X152501000Y-90683000D01*
X152541000Y-82062000D02*
X152541000Y-85119000D01*
X152541000Y-87601000D02*
X152541000Y-90658000D01*
X152581000Y-82087000D02*
X152581000Y-85119000D01*
X152581000Y-87601000D02*
X152581000Y-90633000D01*
X152621000Y-82113000D02*
X152621000Y-85119000D01*
X152621000Y-87601000D02*
X152621000Y-90607000D01*
X152661000Y-82139000D02*
X152661000Y-85119000D01*
X152661000Y-87601000D02*
X152661000Y-90581000D01*
X152701000Y-82166000D02*
X152701000Y-85119000D01*
X152701000Y-87601000D02*
X152701000Y-90554000D01*
X152741000Y-82194000D02*
X152741000Y-85119000D01*
X152741000Y-87601000D02*
X152741000Y-90526000D01*
X152781000Y-82222000D02*
X152781000Y-85119000D01*
X152781000Y-87601000D02*
X152781000Y-90498000D01*
X152821000Y-82250000D02*
X152821000Y-85119000D01*
X152821000Y-87601000D02*
X152821000Y-90470000D01*
X152861000Y-82280000D02*
X152861000Y-85119000D01*
X152861000Y-87601000D02*
X152861000Y-90440000D01*
X152901000Y-82310000D02*
X152901000Y-85119000D01*
X152901000Y-87601000D02*
X152901000Y-90410000D01*
X152941000Y-82340000D02*
X152941000Y-85119000D01*
X152941000Y-87601000D02*
X152941000Y-90380000D01*
X152981000Y-82371000D02*
X152981000Y-85119000D01*
X152981000Y-87601000D02*
X152981000Y-90349000D01*
X153021000Y-82403000D02*
X153021000Y-85119000D01*
X153021000Y-87601000D02*
X153021000Y-90317000D01*
X153061000Y-82435000D02*
X153061000Y-85119000D01*
X153061000Y-87601000D02*
X153061000Y-90285000D01*
X153101000Y-82468000D02*
X153101000Y-85119000D01*
X153101000Y-87601000D02*
X153101000Y-90252000D01*
X153141000Y-82502000D02*
X153141000Y-85119000D01*
X153141000Y-87601000D02*
X153141000Y-90218000D01*
X153181000Y-82536000D02*
X153181000Y-85119000D01*
X153181000Y-87601000D02*
X153181000Y-90184000D01*
X153221000Y-82571000D02*
X153221000Y-85119000D01*
X153221000Y-87601000D02*
X153221000Y-90149000D01*
X153261000Y-82607000D02*
X153261000Y-85119000D01*
X153261000Y-87601000D02*
X153261000Y-90113000D01*
X153301000Y-82644000D02*
X153301000Y-85119000D01*
X153301000Y-87601000D02*
X153301000Y-90076000D01*
X153341000Y-82681000D02*
X153341000Y-85119000D01*
X153341000Y-87601000D02*
X153341000Y-90039000D01*
X153381000Y-82720000D02*
X153381000Y-85119000D01*
X153381000Y-87601000D02*
X153381000Y-90000000D01*
X153421000Y-82759000D02*
X153421000Y-85119000D01*
X153421000Y-87601000D02*
X153421000Y-89961000D01*
X153461000Y-82799000D02*
X153461000Y-85119000D01*
X153461000Y-87601000D02*
X153461000Y-89921000D01*
X153501000Y-82840000D02*
X153501000Y-85119000D01*
X153501000Y-87601000D02*
X153501000Y-89880000D01*
X153541000Y-82882000D02*
X153541000Y-85119000D01*
X153541000Y-87601000D02*
X153541000Y-89838000D01*
X153581000Y-82924000D02*
X153581000Y-89796000D01*
X153621000Y-82968000D02*
X153621000Y-89752000D01*
X153661000Y-83013000D02*
X153661000Y-89707000D01*
X153701000Y-83059000D02*
X153701000Y-89661000D01*
X153741000Y-83106000D02*
X153741000Y-89614000D01*
X153781000Y-83154000D02*
X153781000Y-89566000D01*
X153821000Y-83204000D02*
X153821000Y-89516000D01*
X153861000Y-83254000D02*
X153861000Y-89466000D01*
X153901000Y-83306000D02*
X153901000Y-89414000D01*
X153941000Y-83360000D02*
X153941000Y-89360000D01*
X153981000Y-83415000D02*
X153981000Y-89305000D01*
X154021000Y-83471000D02*
X154021000Y-89249000D01*
X154061000Y-83530000D02*
X154061000Y-89190000D01*
X154101000Y-83590000D02*
X154101000Y-89130000D01*
X154141000Y-83651000D02*
X154141000Y-89069000D01*
X154181000Y-83715000D02*
X154181000Y-89005000D01*
X154221000Y-83781000D02*
X154221000Y-88939000D01*
X154261000Y-83850000D02*
X154261000Y-88870000D01*
X154301000Y-83921000D02*
X154301000Y-88799000D01*
X154341000Y-83995000D02*
X154341000Y-88725000D01*
X154381000Y-84071000D02*
X154381000Y-88649000D01*
X154421000Y-84151000D02*
X154421000Y-88569000D01*
X154461000Y-84235000D02*
X154461000Y-88485000D01*
X154501000Y-84323000D02*
X154501000Y-88397000D01*
X154541000Y-84416000D02*
X154541000Y-88304000D01*
X154581000Y-84514000D02*
X154581000Y-88206000D01*
X154621000Y-84618000D02*
X154621000Y-88102000D01*
X154661000Y-84730000D02*
X154661000Y-87990000D01*
X154701000Y-84850000D02*
X154701000Y-87870000D01*
X154741000Y-84982000D02*
X154741000Y-87738000D01*
X154781000Y-85130000D02*
X154781000Y-87590000D01*
X154821000Y-85298000D02*
X154821000Y-87422000D01*
X154861000Y-85498000D02*
X154861000Y-87222000D01*
X154901000Y-85761000D02*
X154901000Y-86959000D01*
X154940000Y-86360000D02*
G75*
G03*
X154940000Y-86360000I-5120000J0D01*
G01*
X76120000Y-72620000D02*
X82620000Y-72620000D01*
X76120000Y-72620000D02*
X76120000Y-53420000D01*
X85020000Y-72620000D02*
X91520000Y-72620000D01*
X83820000Y-68520000D02*
X83820000Y-69420000D01*
X83820000Y-68520000D02*
X87520000Y-68520000D01*
X82320000Y-67620000D02*
X82320000Y-62620000D01*
X85320000Y-67620000D02*
X82320000Y-67620000D01*
X89820000Y-67420000D02*
X89820000Y-65120000D01*
X77820000Y-65120000D02*
X77820000Y-67420000D01*
X77820000Y-65120000D02*
X82320000Y-65120000D01*
X85320000Y-65120000D02*
X89820000Y-65120000D01*
X82320000Y-62620000D02*
X85320000Y-62620000D01*
X85320000Y-62620000D02*
X82320000Y-67620000D01*
X85320000Y-62620000D02*
X85320000Y-67620000D01*
X83820000Y-61620000D02*
X87520000Y-61620000D01*
X83820000Y-61620000D02*
X83820000Y-60120000D01*
X87520000Y-61620000D02*
X87520000Y-68520000D01*
X83820000Y-60120000D02*
X81120000Y-55620000D01*
X79520000Y-56920000D02*
X81820000Y-56920000D01*
X88120000Y-56920000D02*
X85820000Y-56920000D01*
X76120000Y-53420000D02*
X91520000Y-53420000D01*
X91520000Y-53420000D02*
X91520000Y-72620000D01*
X41970000Y-69850000D02*
X41970000Y-64710000D01*
X41970000Y-69850000D02*
X39310000Y-69850000D01*
X41970000Y-64710000D02*
X39310000Y-64710000D01*
X40640000Y-72450000D02*
X39310000Y-72450000D01*
X39310000Y-72450000D02*
X39310000Y-71120000D01*
X39310000Y-69850000D02*
X39310000Y-64710000D01*
X143260000Y-83820000D02*
G75*
G03*
X143260000Y-83820000I-6100000J0D01*
G01*
X117120000Y-55870000D02*
X117120000Y-56890000D01*
X118590000Y-56890000D02*
X115650000Y-56890000D01*
X115650000Y-56890000D02*
X115650000Y-62330000D01*
X118590000Y-57670000D02*
X115650000Y-57670000D01*
X118590000Y-57790000D02*
X115650000Y-57790000D01*
X118590000Y-57910000D02*
X115650000Y-57910000D01*
X118590000Y-62330000D02*
X118590000Y-56890000D01*
X115650000Y-62330000D02*
X118590000Y-62330000D01*
X117120000Y-63350000D02*
X117120000Y-62330000D01*
X53200000Y-73675000D02*
X53200000Y-53235000D01*
X53200000Y-53235000D02*
X47900000Y-53235000D01*
X51550000Y-73675000D02*
X53200000Y-73675000D01*
X47900000Y-73675000D02*
X49550000Y-73675000D01*
X47900000Y-53235000D02*
X47900000Y-73675000D01*
X51550000Y-73675000D02*
G75*
G03*
X49550000Y-73675000I-1000000J0D01*
G01*
X70620000Y-118665600D02*
X70620000Y-120165600D01*
X71870000Y-122665600D02*
X76370000Y-122665600D01*
X76370000Y-116165600D02*
X71870000Y-116165600D01*
X77620000Y-120165600D02*
X77620000Y-118665600D01*
X136170000Y-55870000D02*
X136170000Y-56890000D01*
X137640000Y-56890000D02*
X134700000Y-56890000D01*
X134700000Y-56890000D02*
X134700000Y-62330000D01*
X137640000Y-57670000D02*
X134700000Y-57670000D01*
X137640000Y-57790000D02*
X134700000Y-57790000D01*
X137640000Y-57910000D02*
X134700000Y-57910000D01*
X137640000Y-62330000D02*
X137640000Y-56890000D01*
X134700000Y-62330000D02*
X137640000Y-62330000D01*
X136170000Y-63350000D02*
X136170000Y-62330000D01*
X96440000Y-72620000D02*
X102940000Y-72620000D01*
X96440000Y-72620000D02*
X96440000Y-53420000D01*
X105340000Y-72620000D02*
X111840000Y-72620000D01*
X104140000Y-68520000D02*
X104140000Y-69420000D01*
X104140000Y-68520000D02*
X107840000Y-68520000D01*
X102640000Y-67620000D02*
X102640000Y-62620000D01*
X105640000Y-67620000D02*
X102640000Y-67620000D01*
X110140000Y-67420000D02*
X110140000Y-65120000D01*
X98140000Y-65120000D02*
X98140000Y-67420000D01*
X98140000Y-65120000D02*
X102640000Y-65120000D01*
X105640000Y-65120000D02*
X110140000Y-65120000D01*
X102640000Y-62620000D02*
X105640000Y-62620000D01*
X105640000Y-62620000D02*
X102640000Y-67620000D01*
X105640000Y-62620000D02*
X105640000Y-67620000D01*
X104140000Y-61620000D02*
X107840000Y-61620000D01*
X104140000Y-61620000D02*
X104140000Y-60120000D01*
X107840000Y-61620000D02*
X107840000Y-68520000D01*
X104140000Y-60120000D02*
X101440000Y-55620000D01*
X99840000Y-56920000D02*
X102140000Y-56920000D01*
X108440000Y-56920000D02*
X106140000Y-56920000D01*
X96440000Y-53420000D02*
X111840000Y-53420000D01*
X111840000Y-53420000D02*
X111840000Y-72620000D01*
X133045000Y-49620000D02*
X133045000Y-50360000D01*
X133045000Y-50360000D02*
X133545000Y-50360000D01*
X133285000Y-38800000D02*
X133285000Y-50120000D01*
X133285000Y-38800000D02*
X143565000Y-38800000D01*
X133285000Y-40860000D02*
X143565000Y-40860000D01*
X133285000Y-47060000D02*
X143565000Y-47060000D01*
X133285000Y-49560000D02*
X143565000Y-49560000D01*
X133285000Y-50120000D02*
X143565000Y-50120000D01*
X134337000Y-46041000D02*
X134231000Y-46148000D01*
X134603000Y-46307000D02*
X134497000Y-46414000D01*
X137273000Y-43106000D02*
X137166000Y-43213000D01*
X137539000Y-43372000D02*
X137432000Y-43479000D01*
X139707000Y-45752000D02*
X139312000Y-46148000D01*
X139958000Y-46034000D02*
X139578000Y-46414000D01*
X142353000Y-43106000D02*
X141973000Y-43486000D01*
X142619000Y-43372000D02*
X142224000Y-43768000D01*
X143565000Y-38800000D02*
X143565000Y-50120000D01*
X138065000Y-44760000D02*
G75*
G03*
X138065000Y-44760000I-2180000J0D01*
G01*
X143145000Y-44760000D02*
G75*
G03*
X143145000Y-44760000I-2180000J0D01*
G01*
X174745000Y-53124700D02*
X160535000Y-53124700D01*
X174745000Y-53124700D02*
X174745000Y-65854700D01*
X160535000Y-53124700D02*
X160535000Y-65854700D01*
X174745000Y-67304700D02*
X174745000Y-80034700D01*
X160535000Y-67304700D02*
X160535000Y-80034700D01*
X174745000Y-80034700D02*
X160535000Y-80034700D01*
X129820000Y-55870000D02*
X129820000Y-56890000D01*
X131290000Y-56890000D02*
X128350000Y-56890000D01*
X128350000Y-56890000D02*
X128350000Y-62330000D01*
X131290000Y-57670000D02*
X128350000Y-57670000D01*
X131290000Y-57790000D02*
X128350000Y-57790000D01*
X131290000Y-57910000D02*
X128350000Y-57910000D01*
X131290000Y-62330000D02*
X131290000Y-56890000D01*
X128350000Y-62330000D02*
X131290000Y-62330000D01*
X129820000Y-63350000D02*
X129820000Y-62330000D01*
X107645000Y-49620000D02*
X107645000Y-50360000D01*
X107645000Y-50360000D02*
X108145000Y-50360000D01*
X107885000Y-38800000D02*
X107885000Y-50120000D01*
X107885000Y-38800000D02*
X118165000Y-38800000D01*
X107885000Y-40860000D02*
X118165000Y-40860000D01*
X107885000Y-47060000D02*
X118165000Y-47060000D01*
X107885000Y-49560000D02*
X118165000Y-49560000D01*
X107885000Y-50120000D02*
X118165000Y-50120000D01*
X108937000Y-46041000D02*
X108831000Y-46148000D01*
X109203000Y-46307000D02*
X109097000Y-46414000D01*
X111873000Y-43106000D02*
X111766000Y-43213000D01*
X112139000Y-43372000D02*
X112032000Y-43479000D01*
X114307000Y-45752000D02*
X113912000Y-46148000D01*
X114558000Y-46034000D02*
X114178000Y-46414000D01*
X116953000Y-43106000D02*
X116573000Y-43486000D01*
X117219000Y-43372000D02*
X116824000Y-43768000D01*
X118165000Y-38800000D02*
X118165000Y-50120000D01*
X112665000Y-44760000D02*
G75*
G03*
X112665000Y-44760000I-2180000J0D01*
G01*
X117745000Y-44760000D02*
G75*
G03*
X117745000Y-44760000I-2180000J0D01*
G01*
X131580000Y-118370600D02*
X131580000Y-119870600D01*
X132830000Y-122370600D02*
X137330000Y-122370600D01*
X137330000Y-115870600D02*
X132830000Y-115870600D01*
X138580000Y-119870600D02*
X138580000Y-118370600D01*
X92745000Y-91430000D02*
X92745000Y-83750000D01*
X92745000Y-91430000D02*
X90085000Y-91430000D01*
X92745000Y-83750000D02*
X90085000Y-83750000D01*
X91415000Y-94030000D02*
X90085000Y-94030000D01*
X90085000Y-94030000D02*
X90085000Y-92700000D01*
X90085000Y-91430000D02*
X90085000Y-83750000D01*
X68560000Y-73660000D02*
X68560000Y-53220000D01*
X68560000Y-53220000D02*
X63260000Y-53220000D01*
X66910000Y-73660000D02*
X68560000Y-73660000D01*
X63260000Y-73660000D02*
X64910000Y-73660000D01*
X63260000Y-53220000D02*
X63260000Y-73660000D01*
X66910000Y-73660000D02*
G75*
G03*
X64910000Y-73660000I-1000000J0D01*
G01*
X120350000Y-49620000D02*
X120350000Y-50360000D01*
X120350000Y-50360000D02*
X120850000Y-50360000D01*
X120590000Y-38800000D02*
X120590000Y-50120000D01*
X120590000Y-38800000D02*
X130870000Y-38800000D01*
X120590000Y-40860000D02*
X130870000Y-40860000D01*
X120590000Y-47060000D02*
X130870000Y-47060000D01*
X120590000Y-49560000D02*
X130870000Y-49560000D01*
X120590000Y-50120000D02*
X130870000Y-50120000D01*
X121642000Y-46041000D02*
X121536000Y-46148000D01*
X121908000Y-46307000D02*
X121802000Y-46414000D01*
X124578000Y-43106000D02*
X124471000Y-43213000D01*
X124844000Y-43372000D02*
X124737000Y-43479000D01*
X127012000Y-45752000D02*
X126617000Y-46148000D01*
X127263000Y-46034000D02*
X126883000Y-46414000D01*
X129658000Y-43106000D02*
X129278000Y-43486000D01*
X129924000Y-43372000D02*
X129529000Y-43768000D01*
X130870000Y-38800000D02*
X130870000Y-50120000D01*
X125370000Y-44760000D02*
G75*
G03*
X125370000Y-44760000I-2180000J0D01*
G01*
X130450000Y-44760000D02*
G75*
G03*
X130450000Y-44760000I-2180000J0D01*
G01*
X69545000Y-49620000D02*
X69545000Y-50360000D01*
X69545000Y-50360000D02*
X70045000Y-50360000D01*
X69785000Y-38800000D02*
X69785000Y-50120000D01*
X69785000Y-38800000D02*
X80065000Y-38800000D01*
X69785000Y-40860000D02*
X80065000Y-40860000D01*
X69785000Y-47060000D02*
X80065000Y-47060000D01*
X69785000Y-49560000D02*
X80065000Y-49560000D01*
X69785000Y-50120000D02*
X80065000Y-50120000D01*
X70837000Y-46041000D02*
X70731000Y-46148000D01*
X71103000Y-46307000D02*
X70997000Y-46414000D01*
X73773000Y-43106000D02*
X73666000Y-43213000D01*
X74039000Y-43372000D02*
X73932000Y-43479000D01*
X76207000Y-45752000D02*
X75812000Y-46148000D01*
X76458000Y-46034000D02*
X76078000Y-46414000D01*
X78853000Y-43106000D02*
X78473000Y-43486000D01*
X79119000Y-43372000D02*
X78724000Y-43768000D01*
X80065000Y-38800000D02*
X80065000Y-50120000D01*
X74565000Y-44760000D02*
G75*
G03*
X74565000Y-44760000I-2180000J0D01*
G01*
X79645000Y-44760000D02*
G75*
G03*
X79645000Y-44760000I-2180000J0D01*
G01*
X131950000Y-113150000D02*
X134620000Y-113150000D01*
X137160000Y-113150000D02*
X175390000Y-113150000D01*
X175390000Y-113150000D02*
X175390000Y-108070000D01*
X134620000Y-110480000D02*
X134620000Y-113150000D01*
X137160000Y-110480000D02*
X137160000Y-113150000D01*
X137160000Y-110480000D02*
X134620000Y-110480000D01*
X137160000Y-110480000D02*
X172720000Y-110480000D01*
X172720000Y-110480000D02*
X172720000Y-113150000D01*
X167510000Y-108070000D02*
X167510000Y-100190000D01*
X177930000Y-108070000D02*
X167510000Y-108070000D01*
X167510000Y-100190000D02*
X177930000Y-100190000D01*
X177930000Y-100190000D02*
X177930000Y-108070000D01*
X134620000Y-97780000D02*
X172720000Y-97780000D01*
X134620000Y-97780000D02*
X134620000Y-95110000D01*
X172720000Y-97780000D02*
X172720000Y-95110000D01*
X131950000Y-95110000D02*
X131950000Y-113150000D01*
X175390000Y-95110000D02*
X175390000Y-100190000D01*
X175390000Y-95110000D02*
X131950000Y-95110000D01*
X101100000Y-118665600D02*
X101100000Y-120165600D01*
X102350000Y-122665600D02*
X106850000Y-122665600D01*
X106850000Y-116165600D02*
X102350000Y-116165600D01*
X108100000Y-120165600D02*
X108100000Y-118665600D01*
X145745000Y-49620000D02*
X145745000Y-50360000D01*
X145745000Y-50360000D02*
X146245000Y-50360000D01*
X145985000Y-38800000D02*
X145985000Y-50120000D01*
X145985000Y-38800000D02*
X156265000Y-38800000D01*
X145985000Y-40860000D02*
X156265000Y-40860000D01*
X145985000Y-47060000D02*
X156265000Y-47060000D01*
X145985000Y-49560000D02*
X156265000Y-49560000D01*
X145985000Y-50120000D02*
X156265000Y-50120000D01*
X147037000Y-46041000D02*
X146931000Y-46148000D01*
X147303000Y-46307000D02*
X147197000Y-46414000D01*
X149973000Y-43106000D02*
X149866000Y-43213000D01*
X150239000Y-43372000D02*
X150132000Y-43479000D01*
X152407000Y-45752000D02*
X152012000Y-46148000D01*
X152658000Y-46034000D02*
X152278000Y-46414000D01*
X155053000Y-43106000D02*
X154673000Y-43486000D01*
X155319000Y-43372000D02*
X154924000Y-43768000D01*
X156265000Y-38800000D02*
X156265000Y-50120000D01*
X150765000Y-44760000D02*
G75*
G03*
X150765000Y-44760000I-2180000J0D01*
G01*
X155845000Y-44760000D02*
G75*
G03*
X155845000Y-44760000I-2180000J0D01*
G01*
%LPC*%
D12*
X161285000Y-44760000D03*
D13*
X166365000Y-44760000D03*
D14*
X72250000Y-92715000D03*
D15*
X72250000Y-90175000D03*
X72250000Y-87635000D03*
X72250000Y-85095000D03*
D16*
X154860000Y-60960000D03*
D17*
X149860000Y-60960000D03*
D14*
X172720000Y-50800000D03*
D15*
X172720000Y-48260000D03*
D18*
X151660000Y-68887000D03*
D19*
X151660000Y-70587000D03*
X151660000Y-72287000D03*
X151660000Y-73987000D03*
X151660000Y-75687000D03*
D20*
X145445000Y-71120000D03*
D21*
X130205000Y-71120000D03*
D14*
X152400000Y-53340000D03*
D15*
X149860000Y-53340000D03*
D12*
X59685000Y-44750000D03*
D13*
X64765000Y-44750000D03*
D12*
X85085000Y-44760000D03*
D13*
X90165000Y-44760000D03*
D12*
X46985000Y-44750000D03*
D13*
X52065000Y-44750000D03*
D22*
X142520000Y-54530000D03*
D23*
X142520000Y-64690000D03*
D22*
X123470000Y-54530000D03*
D23*
X123470000Y-64690000D03*
D12*
X97790000Y-44760000D03*
D13*
X102870000Y-44760000D03*
D24*
X147320000Y-86360000D03*
D25*
X152320000Y-86360000D03*
D26*
X83820000Y-71120000D03*
X77820000Y-56920000D03*
X89820000Y-56920000D03*
X89820000Y-69120000D03*
X77820000Y-69120000D03*
D14*
X40640000Y-71120000D03*
D15*
X40640000Y-68580000D03*
X40640000Y-66040000D03*
D24*
X133360000Y-83820000D03*
D25*
X140960000Y-83820000D03*
D22*
X117120000Y-54530000D03*
D23*
X117120000Y-64690000D03*
D16*
X54360000Y-72345000D03*
D27*
X54360000Y-69805000D03*
X54360000Y-67265000D03*
X54360000Y-64725000D03*
X54360000Y-62185000D03*
X54360000Y-59645000D03*
X54360000Y-57105000D03*
X54360000Y-54565000D03*
X46740000Y-54565000D03*
X46740000Y-57105000D03*
X46740000Y-59645000D03*
X46740000Y-62185000D03*
X46740000Y-64725000D03*
X46740000Y-67265000D03*
X46740000Y-69805000D03*
X46740000Y-72345000D03*
D25*
X70870000Y-117165600D03*
X77370000Y-117165600D03*
X70870000Y-121665600D03*
X77370000Y-121665600D03*
D22*
X136170000Y-54530000D03*
D23*
X136170000Y-64690000D03*
D26*
X104140000Y-71120000D03*
X98140000Y-56920000D03*
X110140000Y-56920000D03*
X110140000Y-69120000D03*
X98140000Y-69120000D03*
D12*
X135885000Y-44760000D03*
D13*
X140965000Y-44760000D03*
D28*
X172720000Y-66579700D03*
X162560000Y-66579700D03*
D22*
X129820000Y-54530000D03*
D23*
X129820000Y-64690000D03*
D12*
X110485000Y-44760000D03*
D13*
X115565000Y-44760000D03*
D25*
X131830000Y-116870600D03*
X138330000Y-116870600D03*
X131830000Y-121370600D03*
X138330000Y-121370600D03*
D14*
X91415000Y-92700000D03*
D15*
X91415000Y-90160000D03*
X91415000Y-87620000D03*
X91415000Y-85080000D03*
D16*
X69720000Y-72330000D03*
D27*
X69720000Y-69790000D03*
X69720000Y-67250000D03*
X69720000Y-64710000D03*
X69720000Y-62170000D03*
X69720000Y-59630000D03*
X69720000Y-57090000D03*
X69720000Y-54550000D03*
X62100000Y-54550000D03*
X62100000Y-57090000D03*
X62100000Y-59630000D03*
X62100000Y-62170000D03*
X62100000Y-64710000D03*
X62100000Y-67250000D03*
X62100000Y-69790000D03*
X62100000Y-72330000D03*
D12*
X123190000Y-44760000D03*
D13*
X128270000Y-44760000D03*
D12*
X72385000Y-44760000D03*
D13*
X77465000Y-44760000D03*
D16*
X135890000Y-111750000D03*
D27*
X138430000Y-111750000D03*
X140970000Y-111750000D03*
X143510000Y-111750000D03*
X146050000Y-111750000D03*
X148590000Y-111750000D03*
X151130000Y-111750000D03*
X153670000Y-111750000D03*
X156210000Y-111750000D03*
X158750000Y-111750000D03*
X161290000Y-111750000D03*
X163830000Y-111750000D03*
X166370000Y-111750000D03*
X168910000Y-111750000D03*
X171450000Y-111750000D03*
X171450000Y-96510000D03*
X168910000Y-96510000D03*
X166370000Y-96510000D03*
X163830000Y-96510000D03*
X161290000Y-96510000D03*
X158750000Y-96510000D03*
X156210000Y-96510000D03*
X153670000Y-96510000D03*
X151130000Y-96510000D03*
X148590000Y-96510000D03*
X146050000Y-96510000D03*
X143510000Y-96510000D03*
X140970000Y-96510000D03*
X138430000Y-96510000D03*
X135890000Y-96510000D03*
D25*
X101350000Y-117165600D03*
X107850000Y-117165600D03*
X101350000Y-121665600D03*
X107850000Y-121665600D03*
D12*
X148585000Y-44760000D03*
D13*
X153665000Y-44760000D03*
%LPD*%
M02*
