G04 #@! TF.GenerationSoftware,KiCad,Pcbnew,7.0.8*
G04 #@! TF.CreationDate,2023-10-01T08:10:13+02:00*
G04 #@! TF.ProjectId,openautolab,6f70656e-6175-4746-9f6c-61622e6b6963,rev?*
G04 #@! TF.SameCoordinates,Original*
G04 #@! TF.FileFunction,Copper,L2,Bot*
G04 #@! TF.FilePolarity,Positive*
%FSLAX46Y46*%
G04 Gerber Fmt 4.6, Leading zero omitted, Abs format (unit mm)*
G04 Created by KiCad (PCBNEW 7.0.8) date 2023-10-01 08:10:13*
%MOMM*%
%LPD*%
G01*
G04 APERTURE LIST*
G04 #@! TA.AperFunction,ComponentPad*
%ADD10R,2.600000X2.600000*%
G04 #@! TD*
G04 #@! TA.AperFunction,ComponentPad*
%ADD11C,2.600000*%
G04 #@! TD*
G04 #@! TA.AperFunction,ComponentPad*
%ADD12R,1.700000X1.700000*%
G04 #@! TD*
G04 #@! TA.AperFunction,ComponentPad*
%ADD13O,1.700000X1.700000*%
G04 #@! TD*
G04 #@! TA.AperFunction,ComponentPad*
%ADD14R,1.600000X1.600000*%
G04 #@! TD*
G04 #@! TA.AperFunction,ComponentPad*
%ADD15C,1.600000*%
G04 #@! TD*
G04 #@! TA.AperFunction,ComponentPad*
%ADD16R,1.800000X1.275000*%
G04 #@! TD*
G04 #@! TA.AperFunction,ComponentPad*
%ADD17O,1.800000X1.275000*%
G04 #@! TD*
G04 #@! TA.AperFunction,ComponentPad*
%ADD18R,3.200000X3.200000*%
G04 #@! TD*
G04 #@! TA.AperFunction,ComponentPad*
%ADD19O,3.200000X3.200000*%
G04 #@! TD*
G04 #@! TA.AperFunction,ComponentPad*
%ADD20R,2.200000X2.200000*%
G04 #@! TD*
G04 #@! TA.AperFunction,ComponentPad*
%ADD21O,2.200000X2.200000*%
G04 #@! TD*
G04 #@! TA.AperFunction,ComponentPad*
%ADD22R,2.000000X2.000000*%
G04 #@! TD*
G04 #@! TA.AperFunction,ComponentPad*
%ADD23C,2.000000*%
G04 #@! TD*
G04 #@! TA.AperFunction,ComponentPad*
%ADD24C,3.000000*%
G04 #@! TD*
G04 #@! TA.AperFunction,ComponentPad*
%ADD25O,1.600000X1.600000*%
G04 #@! TD*
G04 #@! TA.AperFunction,ComponentPad*
%ADD26C,3.600000*%
G04 #@! TD*
G04 #@! TA.AperFunction,ViaPad*
%ADD27C,0.800000*%
G04 #@! TD*
G04 #@! TA.AperFunction,ViaPad*
%ADD28C,1.600000*%
G04 #@! TD*
G04 #@! TA.AperFunction,ViaPad*
%ADD29C,2.000000*%
G04 #@! TD*
G04 #@! TA.AperFunction,Conductor*
%ADD30C,0.250000*%
G04 #@! TD*
G04 #@! TA.AperFunction,Conductor*
%ADD31C,1.000000*%
G04 #@! TD*
G04 #@! TA.AperFunction,Conductor*
%ADD32C,2.000000*%
G04 #@! TD*
G04 #@! TA.AperFunction,Conductor*
%ADD33C,1.274800*%
G04 #@! TD*
G04 APERTURE END LIST*
D10*
X161285000Y-44760000D03*
D11*
X166365000Y-44760000D03*
D12*
X72250000Y-92715000D03*
D13*
X72250000Y-90175000D03*
X72250000Y-87635000D03*
X72250000Y-85095000D03*
D14*
X154860000Y-60960000D03*
D15*
X149860000Y-60960000D03*
D12*
X157480000Y-55880000D03*
D13*
X157480000Y-53340000D03*
D16*
X151660000Y-68887000D03*
D17*
X151660000Y-70587000D03*
X151660000Y-72287000D03*
X151660000Y-73987000D03*
X151660000Y-75687000D03*
D18*
X145445000Y-71120000D03*
D19*
X130205000Y-71120000D03*
D12*
X152400000Y-53340000D03*
D13*
X149860000Y-53340000D03*
D10*
X59685000Y-44750000D03*
D11*
X64765000Y-44750000D03*
D10*
X85085000Y-44760000D03*
D11*
X90165000Y-44760000D03*
D10*
X46985000Y-44750000D03*
D11*
X52065000Y-44750000D03*
D20*
X142520000Y-54530000D03*
D21*
X142520000Y-64690000D03*
D20*
X123470000Y-54530000D03*
D21*
X123470000Y-64690000D03*
D10*
X97790000Y-44760000D03*
D11*
X102870000Y-44760000D03*
D22*
X147320000Y-86360000D03*
D23*
X152320000Y-86360000D03*
D24*
X83820000Y-71120000D03*
X77820000Y-56920000D03*
X89820000Y-56920000D03*
X89820000Y-69120000D03*
X77820000Y-69120000D03*
D12*
X40640000Y-71120000D03*
D13*
X40640000Y-68580000D03*
X40640000Y-66040000D03*
D22*
X133360000Y-83820000D03*
D23*
X140960000Y-83820000D03*
D20*
X117120000Y-54530000D03*
D21*
X117120000Y-64690000D03*
D14*
X54360000Y-72345000D03*
D25*
X54360000Y-69805000D03*
X54360000Y-67265000D03*
X54360000Y-64725000D03*
X54360000Y-62185000D03*
X54360000Y-59645000D03*
X54360000Y-57105000D03*
X54360000Y-54565000D03*
X46740000Y-54565000D03*
X46740000Y-57105000D03*
X46740000Y-59645000D03*
X46740000Y-62185000D03*
X46740000Y-64725000D03*
X46740000Y-67265000D03*
X46740000Y-69805000D03*
X46740000Y-72345000D03*
D23*
X70870000Y-117165600D03*
X77370000Y-117165600D03*
X70870000Y-121665600D03*
X77370000Y-121665600D03*
D20*
X136170000Y-54530000D03*
D21*
X136170000Y-64690000D03*
D24*
X104140000Y-71120000D03*
X98140000Y-56920000D03*
X110140000Y-56920000D03*
X110140000Y-69120000D03*
X98140000Y-69120000D03*
D10*
X135885000Y-44760000D03*
D11*
X140965000Y-44760000D03*
D26*
X172720000Y-66579700D03*
X162560000Y-66579700D03*
D20*
X129820000Y-54530000D03*
D21*
X129820000Y-64690000D03*
D10*
X110485000Y-44760000D03*
D11*
X115565000Y-44760000D03*
D23*
X131830000Y-116870600D03*
X138330000Y-116870600D03*
X131830000Y-121370600D03*
X138330000Y-121370600D03*
D12*
X91415000Y-92700000D03*
D13*
X91415000Y-90160000D03*
X91415000Y-87620000D03*
X91415000Y-85080000D03*
D14*
X69720000Y-72330000D03*
D25*
X69720000Y-69790000D03*
X69720000Y-67250000D03*
X69720000Y-64710000D03*
X69720000Y-62170000D03*
X69720000Y-59630000D03*
X69720000Y-57090000D03*
X69720000Y-54550000D03*
X62100000Y-54550000D03*
X62100000Y-57090000D03*
X62100000Y-59630000D03*
X62100000Y-62170000D03*
X62100000Y-64710000D03*
X62100000Y-67250000D03*
X62100000Y-69790000D03*
X62100000Y-72330000D03*
D10*
X123190000Y-44760000D03*
D11*
X128270000Y-44760000D03*
D10*
X72385000Y-44760000D03*
D11*
X77465000Y-44760000D03*
D14*
X135890000Y-111750000D03*
D25*
X138430000Y-111750000D03*
X140970000Y-111750000D03*
X143510000Y-111750000D03*
X146050000Y-111750000D03*
X148590000Y-111750000D03*
X151130000Y-111750000D03*
X153670000Y-111750000D03*
X156210000Y-111750000D03*
X158750000Y-111750000D03*
X161290000Y-111750000D03*
X163830000Y-111750000D03*
X166370000Y-111750000D03*
X168910000Y-111750000D03*
X171450000Y-111750000D03*
X171450000Y-96510000D03*
X168910000Y-96510000D03*
X166370000Y-96510000D03*
X163830000Y-96510000D03*
X161290000Y-96510000D03*
X158750000Y-96510000D03*
X156210000Y-96510000D03*
X153670000Y-96510000D03*
X151130000Y-96510000D03*
X148590000Y-96510000D03*
X146050000Y-96510000D03*
X143510000Y-96510000D03*
X140970000Y-96510000D03*
X138430000Y-96510000D03*
X135890000Y-96510000D03*
D23*
X101350000Y-117165600D03*
X107850000Y-117165600D03*
X101350000Y-121665600D03*
X107850000Y-121665600D03*
D10*
X148585000Y-44760000D03*
D11*
X153665000Y-44760000D03*
D27*
X139358800Y-108752700D03*
X108197700Y-86847100D03*
X143335100Y-109197400D03*
X110706000Y-87376700D03*
X122354000Y-95824200D03*
X141694300Y-107991700D03*
X151440800Y-103355000D03*
X152686600Y-102752200D03*
X142999800Y-107560600D03*
X69861400Y-78964600D03*
X146334800Y-108099100D03*
D28*
X110175500Y-89456500D03*
X54594700Y-52499100D03*
X79045300Y-85365100D03*
X131580800Y-98124600D03*
X80087100Y-62518300D03*
D29*
X70487500Y-76291800D03*
X84563000Y-56943500D03*
D30*
X92762100Y-106972000D02*
X73425100Y-87635000D01*
X72250000Y-87635000D02*
X73425100Y-87635000D01*
X113032100Y-106972000D02*
X92762100Y-106972000D01*
X146050000Y-111750000D02*
X146050000Y-112875100D01*
X146050000Y-112875100D02*
X140723800Y-118201300D01*
X124261400Y-118201300D02*
X113032100Y-106972000D01*
X140723800Y-118201300D02*
X124261400Y-118201300D01*
X140915400Y-118659700D02*
X124083100Y-118659700D01*
X124083100Y-118659700D02*
X115772800Y-110349400D01*
X75328500Y-90175000D02*
X72250000Y-90175000D01*
X147464900Y-111750000D02*
X147464900Y-112110200D01*
X115772800Y-110349400D02*
X95502900Y-110349400D01*
X147464900Y-112110200D02*
X140915400Y-118659700D01*
X95502900Y-110349400D02*
X75328500Y-90175000D01*
X148590000Y-111750000D02*
X147464900Y-111750000D01*
X115567300Y-110799600D02*
X123877500Y-119109800D01*
X44310100Y-68535000D02*
X47648400Y-68535000D01*
X47648400Y-68535000D02*
X70653200Y-91539800D01*
X70653200Y-91539800D02*
X74474900Y-91539800D01*
X123877500Y-119109800D02*
X142926500Y-119109800D01*
X41815100Y-66040000D02*
X44310100Y-68535000D01*
X40640000Y-66040000D02*
X41815100Y-66040000D01*
X150004900Y-112031400D02*
X150004900Y-111750000D01*
X151130000Y-111750000D02*
X150004900Y-111750000D01*
X142926500Y-119109800D02*
X150004900Y-112031400D01*
X74474900Y-91539800D02*
X93734700Y-110799600D01*
X93734700Y-110799600D02*
X115567300Y-110799600D01*
X108197700Y-86847100D02*
X109452400Y-88101800D01*
X109452400Y-88101800D02*
X110412000Y-88101800D01*
X131062900Y-108752700D02*
X139358800Y-108752700D01*
X110412000Y-88101800D02*
X131062900Y-108752700D01*
X143335100Y-109197400D02*
X141376800Y-109197400D01*
X140192800Y-108013400D02*
X131342700Y-108013400D01*
X131342700Y-108013400D02*
X110706000Y-87376700D01*
X141376800Y-109197400D02*
X140192800Y-108013400D01*
X122354000Y-95824200D02*
X132451400Y-105921600D01*
X139624200Y-105921600D02*
X141694300Y-107991700D01*
X132451400Y-105921600D02*
X139624200Y-105921600D01*
X160164900Y-111468600D02*
X152051300Y-103355000D01*
X161290000Y-111750000D02*
X160164900Y-111750000D01*
X160164900Y-111750000D02*
X160164900Y-111468600D01*
X152051300Y-103355000D02*
X151440800Y-103355000D01*
X163830000Y-111750000D02*
X162704900Y-111750000D01*
X162704900Y-111468700D02*
X153988400Y-102752200D01*
X162704900Y-111750000D02*
X162704900Y-111468700D01*
X153988400Y-102752200D02*
X152686600Y-102752200D01*
X63093200Y-74966600D02*
X56590300Y-68463700D01*
X45411400Y-62752300D02*
X45411400Y-61632400D01*
X56590300Y-67882600D02*
X54847500Y-66139800D01*
X46273700Y-60770100D02*
X46740000Y-60770100D01*
X45411400Y-61632400D02*
X46273700Y-60770100D01*
X46258900Y-63599800D02*
X45411400Y-62752300D01*
X117598500Y-74966600D02*
X63093200Y-74966600D01*
X56590300Y-68463700D02*
X56590300Y-67882600D01*
X54847500Y-66139800D02*
X50772300Y-66139800D01*
X166370000Y-111750000D02*
X166370000Y-110624900D01*
X50772300Y-66139800D02*
X48232300Y-63599800D01*
X166370000Y-110624900D02*
X160020000Y-104274900D01*
X134524700Y-91892800D02*
X117598500Y-74966600D01*
X160020000Y-104274900D02*
X160020000Y-96176600D01*
X155736200Y-91892800D02*
X134524700Y-91892800D01*
X160020000Y-96176600D02*
X155736200Y-91892800D01*
X46740000Y-59645000D02*
X46740000Y-60770100D01*
X48232300Y-63599800D02*
X46258900Y-63599800D01*
X107438200Y-86289500D02*
X90276500Y-86289500D01*
X107619600Y-86108100D02*
X107438200Y-86289500D01*
X142999800Y-107560600D02*
X135127300Y-99688100D01*
X90276500Y-86289500D02*
X82951600Y-78964600D01*
X82951600Y-78964600D02*
X69861400Y-78964600D01*
X129432200Y-99688100D02*
X115852200Y-86108100D01*
X135127300Y-99688100D02*
X129432200Y-99688100D01*
X115852200Y-86108100D02*
X107619600Y-86108100D01*
X47865100Y-67265000D02*
X47865100Y-67978400D01*
X116630100Y-109933400D02*
X144500500Y-109933400D01*
X93278700Y-102054400D02*
X108751100Y-102054400D01*
X74415800Y-83191500D02*
X93278700Y-102054400D01*
X46740000Y-67265000D02*
X47865100Y-67265000D01*
X47865100Y-67978400D02*
X63078200Y-83191500D01*
X144500500Y-109933400D02*
X146334800Y-108099100D01*
X63078200Y-83191500D02*
X74415800Y-83191500D01*
X108751100Y-102054400D02*
X116630100Y-109933400D01*
X133360000Y-83820000D02*
X134685100Y-83820000D01*
X171450000Y-96510000D02*
X170324900Y-96510000D01*
X170324900Y-96510000D02*
X170324900Y-96228700D01*
X163321100Y-89224900D02*
X140090000Y-89224900D01*
X140090000Y-89224900D02*
X134685100Y-83820000D01*
X170324900Y-96228700D02*
X163321100Y-89224900D01*
X77370000Y-117165600D02*
X70870000Y-117165600D01*
X144780000Y-112079600D02*
X139989000Y-116870600D01*
X151741400Y-102629900D02*
X151140500Y-102629900D01*
X131830000Y-116870600D02*
X138330000Y-116870600D01*
X158750000Y-96510000D02*
X157624900Y-96510000D01*
X157624900Y-96746400D02*
X151741400Y-102629900D01*
X139989000Y-116870600D02*
X138330000Y-116870600D01*
X150715700Y-104817700D02*
X144780000Y-110753400D01*
X157624900Y-96510000D02*
X157624900Y-96746400D01*
X151140500Y-102629900D02*
X150715700Y-103054700D01*
X150715700Y-103054700D02*
X150715700Y-104817700D01*
X144780000Y-110753400D02*
X144780000Y-112079600D01*
X123369500Y-85080000D02*
X91415000Y-85080000D01*
X150004900Y-96228600D02*
X149161200Y-95384900D01*
X133674400Y-95384900D02*
X123369500Y-85080000D01*
X150004900Y-96510000D02*
X150004900Y-96228600D01*
X151130000Y-96510000D02*
X150004900Y-96510000D01*
X149161200Y-95384900D02*
X133674400Y-95384900D01*
D31*
X136170000Y-56330100D02*
X129820000Y-62680100D01*
X119389800Y-73320100D02*
X86020100Y-73320100D01*
X129820000Y-64690000D02*
X128019900Y-64690000D01*
X129820000Y-62680100D02*
X129820000Y-64690000D01*
X86020100Y-73320100D02*
X83820000Y-71120000D01*
X128019900Y-64690000D02*
X119389800Y-73320100D01*
X136170000Y-54530000D02*
X136170000Y-56330100D01*
X117120000Y-64690000D02*
X110570000Y-64690000D01*
X117120000Y-62680100D02*
X123470000Y-56330100D01*
X110570000Y-64690000D02*
X104140000Y-71120000D01*
X123470000Y-54530000D02*
X123470000Y-56330100D01*
X117120000Y-64690000D02*
X117120000Y-62680100D01*
X143417700Y-81362300D02*
X140960000Y-83820000D01*
X147322300Y-81362300D02*
X143417700Y-81362300D01*
X96208600Y-89456500D02*
X110175500Y-89456500D01*
X151660000Y-75687000D02*
X151660000Y-77024600D01*
X91415000Y-92700000D02*
X92965100Y-92700000D01*
X63785100Y-92715000D02*
X72250000Y-92715000D01*
X92965100Y-92700000D02*
X96208600Y-89456500D01*
X152320000Y-86360000D02*
X147322300Y-81362300D01*
X147322300Y-81362300D02*
X151660000Y-77024600D01*
X40640000Y-71120000D02*
X42190100Y-71120000D01*
X42190100Y-71120000D02*
X63785100Y-92715000D01*
D32*
X152400000Y-48575000D02*
X148585000Y-44760000D01*
X152400000Y-53340000D02*
X152400000Y-48575000D01*
D31*
X172720000Y-66579700D02*
X168712700Y-70587000D01*
X148278100Y-70587000D02*
X147745100Y-71120000D01*
X168712700Y-70587000D02*
X151660000Y-70587000D01*
X145445000Y-71120000D02*
X147745100Y-71120000D01*
X151660000Y-70587000D02*
X148278100Y-70587000D01*
X59685000Y-46750100D02*
X54594700Y-51840400D01*
X54594700Y-51840400D02*
X54594700Y-52499100D01*
X59685000Y-44750000D02*
X59685000Y-46750100D01*
X46985000Y-44750000D02*
X46985000Y-46750100D01*
X54360000Y-57105000D02*
X52666200Y-55411200D01*
X52666200Y-52431300D02*
X46985000Y-46750100D01*
X52666200Y-55411200D02*
X52666200Y-52431300D01*
X85267100Y-59488300D02*
X80662400Y-64093000D01*
X86263100Y-57647700D02*
X85267200Y-58643600D01*
X86263100Y-57359500D02*
X86263100Y-57647700D01*
X76917100Y-64093000D02*
X71220100Y-69790000D01*
X97790000Y-44760000D02*
X97790000Y-46760100D01*
X85267100Y-58643600D02*
X85267100Y-59488300D01*
X97790000Y-46760100D02*
X96862500Y-46760100D01*
X96862500Y-46760100D02*
X86263100Y-57359500D01*
X69720000Y-69790000D02*
X71220100Y-69790000D01*
X85267200Y-58643600D02*
X85267100Y-58643600D01*
X80662400Y-64093000D02*
X76917100Y-64093000D01*
X85070000Y-85365100D02*
X79045300Y-85365100D01*
X89864900Y-90160000D02*
X85070000Y-85365100D01*
X141895400Y-98124600D02*
X131580800Y-98124600D01*
X143510000Y-96510000D02*
X141895400Y-98124600D01*
X91415000Y-90160000D02*
X89864900Y-90160000D01*
X110485000Y-44760000D02*
X110485000Y-46760100D01*
X77551800Y-73830200D02*
X82467600Y-68914400D01*
X65100300Y-73830200D02*
X77551800Y-73830200D01*
X63600100Y-72330000D02*
X65100300Y-73830200D01*
X87197900Y-71325600D02*
X99115200Y-71325600D01*
X112349700Y-58091100D02*
X112349700Y-48624800D01*
X82467600Y-68914400D02*
X84786700Y-68914400D01*
X62100000Y-72330000D02*
X63600100Y-72330000D01*
X99115200Y-71325600D02*
X112349700Y-58091100D01*
X112349700Y-48624800D02*
X110485000Y-46760100D01*
X84786700Y-68914400D02*
X87197900Y-71325600D01*
D32*
X149860000Y-53340000D02*
X141280000Y-44760000D01*
X141280000Y-44760000D02*
X140965000Y-44760000D01*
D31*
X70618500Y-53049700D02*
X80087100Y-62518300D01*
X65100400Y-53049700D02*
X70618500Y-53049700D01*
X63600100Y-54550000D02*
X65100400Y-53049700D01*
X62100000Y-54550000D02*
X63600100Y-54550000D01*
D32*
X98140000Y-63658400D02*
X95409200Y-66389200D01*
X95409200Y-66389200D02*
X98140000Y-69120000D01*
X62264800Y-42249800D02*
X64765000Y-44750000D01*
X121720200Y-52229900D02*
X119420100Y-54530000D01*
X79965200Y-42259800D02*
X77465000Y-44760000D01*
X153665000Y-44760000D02*
X154860000Y-45955000D01*
X80550800Y-66389200D02*
X95409200Y-66389200D01*
X154860000Y-65549200D02*
X151660000Y-68749200D01*
X127519900Y-54530000D02*
X125219800Y-52229900D01*
X154860000Y-60960000D02*
X154860000Y-58340000D01*
X74964800Y-42259800D02*
X67255200Y-42259800D01*
X154860000Y-45955000D02*
X154860000Y-60960000D01*
X152400000Y-55880000D02*
X143870000Y-55880000D01*
X77820000Y-69120000D02*
X80550800Y-66389200D01*
X54360000Y-72345000D02*
X56360100Y-72345000D01*
X87664800Y-42259800D02*
X79965200Y-42259800D01*
X77465000Y-44760000D02*
X74964800Y-42259800D01*
D33*
X151660000Y-68749200D02*
X151660000Y-68887000D01*
D32*
X60306900Y-76291800D02*
X56360100Y-72345000D01*
X129820000Y-54530000D02*
X127519900Y-54530000D01*
X125219800Y-52229900D02*
X121720200Y-52229900D01*
X70487500Y-76291800D02*
X60306900Y-76291800D01*
X154860000Y-60960000D02*
X154860000Y-65549200D01*
X98140000Y-56920000D02*
X98140000Y-63658400D01*
X143870000Y-55880000D02*
X142520000Y-54530000D01*
X67255200Y-42259800D02*
X64765000Y-44750000D01*
X117120000Y-54530000D02*
X119420100Y-54530000D01*
X52065000Y-44750000D02*
X54565200Y-42249800D01*
X54565200Y-42249800D02*
X62264800Y-42249800D01*
X90165000Y-44760000D02*
X87664800Y-42259800D01*
X154860000Y-58340000D02*
X152400000Y-55880000D01*
X68720000Y-62170000D02*
X69259900Y-62709900D01*
X54360000Y-64725000D02*
X51280100Y-64725000D01*
X46740000Y-62185000D02*
X48740100Y-62185000D01*
X60037300Y-53783200D02*
X62493200Y-51327300D01*
X138385100Y-49529600D02*
X138385100Y-44760000D01*
X60037300Y-62185000D02*
X60037300Y-53783200D01*
X161285000Y-44760000D02*
X158784900Y-44760000D01*
X54820200Y-62724900D02*
X54360000Y-62724900D01*
X136170000Y-64690000D02*
X136170000Y-62389900D01*
X54360000Y-64725000D02*
X54360000Y-62724900D01*
X78946800Y-51327300D02*
X84563000Y-56943500D01*
X138385100Y-44760000D02*
X138385100Y-43744300D01*
X62100000Y-64710000D02*
X62100000Y-62185000D01*
X138385100Y-43744300D02*
X139869500Y-42259900D01*
X156284800Y-42259900D02*
X158784900Y-44760000D01*
X69259900Y-62709900D02*
X69720000Y-62709900D01*
X55360100Y-62185000D02*
X56360100Y-62185000D01*
X62100000Y-62170000D02*
X67719900Y-62170000D01*
X68720000Y-62170000D02*
X67719900Y-62170000D01*
X62493200Y-51327300D02*
X78946800Y-51327300D01*
X60037300Y-62185000D02*
X56360100Y-62185000D01*
X51280100Y-64725000D02*
X48740100Y-62185000D01*
X136170000Y-62389900D02*
X138534100Y-60025800D01*
X138534100Y-60025800D02*
X138534100Y-49678600D01*
X135885000Y-44760000D02*
X138385100Y-44760000D01*
X55360100Y-62185000D02*
X54820200Y-62724900D01*
X138534100Y-49678600D02*
X138385100Y-49529600D01*
X69720000Y-64710000D02*
X69720000Y-62709900D01*
X62100000Y-62185000D02*
X62100000Y-62170000D01*
X62100000Y-62185000D02*
X60037300Y-62185000D01*
X89820000Y-56920000D02*
X92520800Y-54219200D01*
X69720000Y-62170000D02*
X68720000Y-62170000D01*
X139869500Y-42259900D02*
X156284800Y-42259900D01*
X107439200Y-54219200D02*
X110140000Y-56920000D01*
X92520800Y-54219200D02*
X107439200Y-54219200D01*
X54360000Y-62185000D02*
X55360100Y-62185000D01*
M02*
