G04 #@! TF.GenerationSoftware,KiCad,Pcbnew,7.0.8*
G04 #@! TF.CreationDate,2023-10-01T08:10:13+02:00*
G04 #@! TF.ProjectId,openautolab,6f70656e-6175-4746-9f6c-61622e6b6963,rev?*
G04 #@! TF.SameCoordinates,Original*
G04 #@! TF.FileFunction,Soldermask,Top*
G04 #@! TF.FilePolarity,Negative*
%FSLAX46Y46*%
G04 Gerber Fmt 4.6, Leading zero omitted, Abs format (unit mm)*
G04 Created by KiCad (PCBNEW 7.0.8) date 2023-10-01 08:10:13*
%MOMM*%
%LPD*%
G01*
G04 APERTURE LIST*
%ADD10R,2.600000X2.600000*%
%ADD11C,2.600000*%
%ADD12R,1.700000X1.700000*%
%ADD13O,1.700000X1.700000*%
%ADD14R,1.600000X1.600000*%
%ADD15C,1.600000*%
%ADD16R,1.800000X1.275000*%
%ADD17O,1.800000X1.275000*%
%ADD18R,3.200000X3.200000*%
%ADD19O,3.200000X3.200000*%
%ADD20R,2.200000X2.200000*%
%ADD21O,2.200000X2.200000*%
%ADD22R,2.000000X2.000000*%
%ADD23C,2.000000*%
%ADD24C,3.000000*%
%ADD25O,1.600000X1.600000*%
%ADD26C,3.600000*%
G04 APERTURE END LIST*
D10*
X161285000Y-44760000D03*
D11*
X166365000Y-44760000D03*
D12*
X72250000Y-92715000D03*
D13*
X72250000Y-90175000D03*
X72250000Y-87635000D03*
X72250000Y-85095000D03*
D14*
X154860000Y-60960000D03*
D15*
X149860000Y-60960000D03*
D12*
X157480000Y-55880000D03*
D13*
X157480000Y-53340000D03*
D16*
X151660000Y-68887000D03*
D17*
X151660000Y-70587000D03*
X151660000Y-72287000D03*
X151660000Y-73987000D03*
X151660000Y-75687000D03*
D18*
X145445000Y-71120000D03*
D19*
X130205000Y-71120000D03*
D12*
X152400000Y-53340000D03*
D13*
X149860000Y-53340000D03*
D10*
X59685000Y-44750000D03*
D11*
X64765000Y-44750000D03*
D10*
X85085000Y-44760000D03*
D11*
X90165000Y-44760000D03*
D10*
X46985000Y-44750000D03*
D11*
X52065000Y-44750000D03*
D20*
X142520000Y-54530000D03*
D21*
X142520000Y-64690000D03*
D20*
X123470000Y-54530000D03*
D21*
X123470000Y-64690000D03*
D10*
X97790000Y-44760000D03*
D11*
X102870000Y-44760000D03*
D22*
X147320000Y-86360000D03*
D23*
X152320000Y-86360000D03*
D24*
X83820000Y-71120000D03*
X77820000Y-56920000D03*
X89820000Y-56920000D03*
X89820000Y-69120000D03*
X77820000Y-69120000D03*
D12*
X40640000Y-71120000D03*
D13*
X40640000Y-68580000D03*
X40640000Y-66040000D03*
D22*
X133360000Y-83820000D03*
D23*
X140960000Y-83820000D03*
D20*
X117120000Y-54530000D03*
D21*
X117120000Y-64690000D03*
D14*
X54360000Y-72345000D03*
D25*
X54360000Y-69805000D03*
X54360000Y-67265000D03*
X54360000Y-64725000D03*
X54360000Y-62185000D03*
X54360000Y-59645000D03*
X54360000Y-57105000D03*
X54360000Y-54565000D03*
X46740000Y-54565000D03*
X46740000Y-57105000D03*
X46740000Y-59645000D03*
X46740000Y-62185000D03*
X46740000Y-64725000D03*
X46740000Y-67265000D03*
X46740000Y-69805000D03*
X46740000Y-72345000D03*
D23*
X70870000Y-117165600D03*
X77370000Y-117165600D03*
X70870000Y-121665600D03*
X77370000Y-121665600D03*
D20*
X136170000Y-54530000D03*
D21*
X136170000Y-64690000D03*
D24*
X104140000Y-71120000D03*
X98140000Y-56920000D03*
X110140000Y-56920000D03*
X110140000Y-69120000D03*
X98140000Y-69120000D03*
D10*
X135885000Y-44760000D03*
D11*
X140965000Y-44760000D03*
D26*
X172720000Y-66579700D03*
X162560000Y-66579700D03*
D20*
X129820000Y-54530000D03*
D21*
X129820000Y-64690000D03*
D10*
X110485000Y-44760000D03*
D11*
X115565000Y-44760000D03*
D23*
X131830000Y-116870600D03*
X138330000Y-116870600D03*
X131830000Y-121370600D03*
X138330000Y-121370600D03*
D12*
X91415000Y-92700000D03*
D13*
X91415000Y-90160000D03*
X91415000Y-87620000D03*
X91415000Y-85080000D03*
D14*
X69720000Y-72330000D03*
D25*
X69720000Y-69790000D03*
X69720000Y-67250000D03*
X69720000Y-64710000D03*
X69720000Y-62170000D03*
X69720000Y-59630000D03*
X69720000Y-57090000D03*
X69720000Y-54550000D03*
X62100000Y-54550000D03*
X62100000Y-57090000D03*
X62100000Y-59630000D03*
X62100000Y-62170000D03*
X62100000Y-64710000D03*
X62100000Y-67250000D03*
X62100000Y-69790000D03*
X62100000Y-72330000D03*
D10*
X123190000Y-44760000D03*
D11*
X128270000Y-44760000D03*
D10*
X72385000Y-44760000D03*
D11*
X77465000Y-44760000D03*
D14*
X135890000Y-111750000D03*
D25*
X138430000Y-111750000D03*
X140970000Y-111750000D03*
X143510000Y-111750000D03*
X146050000Y-111750000D03*
X148590000Y-111750000D03*
X151130000Y-111750000D03*
X153670000Y-111750000D03*
X156210000Y-111750000D03*
X158750000Y-111750000D03*
X161290000Y-111750000D03*
X163830000Y-111750000D03*
X166370000Y-111750000D03*
X168910000Y-111750000D03*
X171450000Y-111750000D03*
X171450000Y-96510000D03*
X168910000Y-96510000D03*
X166370000Y-96510000D03*
X163830000Y-96510000D03*
X161290000Y-96510000D03*
X158750000Y-96510000D03*
X156210000Y-96510000D03*
X153670000Y-96510000D03*
X151130000Y-96510000D03*
X148590000Y-96510000D03*
X146050000Y-96510000D03*
X143510000Y-96510000D03*
X140970000Y-96510000D03*
X138430000Y-96510000D03*
X135890000Y-96510000D03*
D23*
X101350000Y-117165600D03*
X107850000Y-117165600D03*
X101350000Y-121665600D03*
X107850000Y-121665600D03*
D10*
X148585000Y-44760000D03*
D11*
X153665000Y-44760000D03*
M02*
