M48
; DRILL file {KiCad 7.0.8} date 2024 January 06, Saturday 20:34:33
; FORMAT={-:-/ absolute / metric / decimal}
; #@! TF.CreationDate,2024-01-06T20:34:33+01:00
; #@! TF.GenerationSoftware,Kicad,Pcbnew,7.0.8
; #@! TF.FileFunction,Plated,1,2,PTH
FMAT,2
METRIC
; #@! TA.AperFunction,Plated,PTH,ViaDrill
T1C0.400
; #@! TA.AperFunction,Plated,PTH,ViaDrill
T2C0.800
; #@! TA.AperFunction,Plated,PTH,ComponentDrill
T3C0.800
; #@! TA.AperFunction,Plated,PTH,ViaDrill
T4C1.000
; #@! TA.AperFunction,Plated,PTH,ComponentDrill
T5C1.000
; #@! TA.AperFunction,Plated,PTH,ComponentDrill
T6C1.100
; #@! TA.AperFunction,Plated,PTH,ComponentDrill
T7C1.300
; #@! TA.AperFunction,Plated,PTH,ComponentDrill
T8C1.600
; #@! TA.AperFunction,Plated,PTH,ComponentDrill
T9C1.800
%
G90
G05
T1
X69.861Y-78.965
X108.198Y-86.847
X110.706Y-87.377
X122.354Y-95.824
X139.359Y-108.753
X141.694Y-107.992
X143.0Y-107.561
X143.335Y-109.197
X146.335Y-108.099
X151.441Y-103.355
X152.687Y-102.752
T2
X54.595Y-52.499
X79.045Y-85.365
X80.087Y-62.518
X110.175Y-89.456
X131.581Y-98.125
T3
X46.74Y-54.565
X46.74Y-57.105
X46.74Y-59.645
X46.74Y-62.185
X46.74Y-64.725
X46.74Y-67.265
X46.74Y-69.805
X46.74Y-72.345
X54.36Y-54.565
X54.36Y-57.105
X54.36Y-59.645
X54.36Y-62.185
X54.36Y-64.725
X54.36Y-67.265
X54.36Y-69.805
X54.36Y-72.345
X62.1Y-54.55
X62.1Y-57.09
X62.1Y-59.63
X62.1Y-62.17
X62.1Y-64.71
X62.1Y-67.25
X62.1Y-69.79
X62.1Y-72.33
X69.72Y-54.55
X69.72Y-57.09
X69.72Y-59.63
X69.72Y-62.17
X69.72Y-64.71
X69.72Y-67.25
X69.72Y-69.79
X69.72Y-72.33
X149.86Y-60.96
X154.86Y-60.96
T4
X70.487Y-76.292
X84.563Y-56.944
T5
X40.64Y-66.04
X40.64Y-68.58
X40.64Y-71.12
X72.25Y-85.095
X72.25Y-87.635
X72.25Y-90.175
X72.25Y-92.715
X91.415Y-85.08
X91.415Y-87.62
X91.415Y-90.16
X91.415Y-92.7
X133.36Y-83.82
X135.89Y-96.51
X135.89Y-111.75
X138.43Y-96.51
X138.43Y-111.75
X140.96Y-83.82
X140.97Y-96.51
X140.97Y-111.75
X143.51Y-96.51
X143.51Y-111.75
X146.05Y-96.51
X146.05Y-111.75
X147.32Y-86.36
X148.59Y-96.51
X148.59Y-111.75
X149.86Y-53.34
X151.13Y-96.51
X151.13Y-111.75
X152.32Y-86.36
X152.4Y-53.34
X153.67Y-96.51
X153.67Y-111.75
X156.21Y-96.51
X156.21Y-111.75
X158.75Y-96.51
X158.75Y-111.75
X161.29Y-96.51
X161.29Y-111.75
X163.83Y-96.51
X163.83Y-111.75
X166.37Y-96.51
X166.37Y-111.75
X168.91Y-96.51
X168.91Y-111.75
X171.45Y-96.51
X171.45Y-111.75
X172.72Y-48.26
X172.72Y-50.8
T6
X70.87Y-117.166
X70.87Y-121.666
X77.37Y-117.166
X77.37Y-121.666
X101.35Y-117.166
X101.35Y-121.666
X107.85Y-117.166
X107.85Y-121.666
X117.12Y-54.53
X117.12Y-64.69
X123.47Y-54.53
X123.47Y-64.69
X129.82Y-54.53
X129.82Y-64.69
X131.83Y-116.871
X131.83Y-121.371
X136.17Y-54.53
X136.17Y-64.69
X138.33Y-116.871
X138.33Y-121.371
X142.52Y-54.53
X142.52Y-64.69
X151.66Y-68.887
X151.66Y-70.587
X151.66Y-72.287
X151.66Y-73.987
X151.66Y-75.687
T7
X46.985Y-44.75
X52.065Y-44.75
X59.685Y-44.75
X64.765Y-44.75
X72.385Y-44.76
X77.465Y-44.76
X77.82Y-56.92
X77.82Y-69.12
X83.82Y-71.12
X85.085Y-44.76
X89.82Y-56.92
X89.82Y-69.12
X90.165Y-44.76
X97.79Y-44.76
X98.14Y-56.92
X98.14Y-69.12
X102.87Y-44.76
X104.14Y-71.12
X110.14Y-56.92
X110.14Y-69.12
X110.485Y-44.76
X115.565Y-44.76
X123.19Y-44.76
X128.27Y-44.76
X135.885Y-44.76
X140.965Y-44.76
X148.585Y-44.76
X153.665Y-44.76
X161.285Y-44.76
X166.365Y-44.76
T8
X130.205Y-71.12
X145.445Y-71.12
T9
X162.56Y-66.58
X172.72Y-66.58
T0
M30
