solid OpenSCAD_Model
  facet normal 1 -0 0
    outer loop
      vertex 60.8923 0 35.04
      vertex 60.8923 8 0
      vertex 60.8923 8 35.04
    endloop
  endfacet
  facet normal 1 0 0
    outer loop
      vertex 60.8923 8 0
      vertex 60.8923 0 35.04
      vertex 60.8923 0 0
    endloop
  endfacet
  facet normal -0 0 1
    outer loop
      vertex 0 8 35.04
      vertex 60.8923 0 35.04
      vertex 60.8923 8 35.04
    endloop
  endfacet
  facet normal 0 0 1
    outer loop
      vertex 60.8923 0 35.04
      vertex 0 8 35.04
      vertex 0 0 35.04
    endloop
  endfacet
  facet normal 0 0 -1
    outer loop
      vertex 57.1423 0 0
      vertex 60.8923 8 0
      vertex 60.8923 0 0
    endloop
  endfacet
  facet normal -0 0 -1
    outer loop
      vertex 60.8923 8 0
      vertex 57.1423 0 0
      vertex 57.1423 8 0
    endloop
  endfacet
  facet normal 0 0 -1
    outer loop
      vertex 0 0 0
      vertex 3.75 8 0
      vertex 3.75 0 0
    endloop
  endfacet
  facet normal -0 0 -1
    outer loop
      vertex 3.75 8 0
      vertex 0 0 0
      vertex 0 8 0
    endloop
  endfacet
  facet normal 0 0 -1
    outer loop
      vertex 12.25 0 0
      vertex 48.6423 8 0
      vertex 48.6423 0 0
    endloop
  endfacet
  facet normal -0 0 -1
    outer loop
      vertex 48.6423 8 0
      vertex 12.25 0 0
      vertex 12.25 8 0
    endloop
  endfacet
  facet normal -1 0 0
    outer loop
      vertex 0 0 0
      vertex 0 8 35.04
      vertex 0 8 0
    endloop
  endfacet
  facet normal -1 -0 0
    outer loop
      vertex 0 8 35.04
      vertex 0 0 0
      vertex 0 0 35.04
    endloop
  endfacet
  facet normal 0 1 0
    outer loop
      vertex 51.209 8 11.9024
      vertex 60.8923 8 35.04
      vertex 51.6734 8 12.0715
    endloop
  endfacet
  facet normal 0 1 0
    outer loop
      vertex 0 8 35.04
      vertex 8.738 8 12.1854
      vertex 8.24712 8 12.2428
    endloop
  endfacet
  facet normal 0 1 0
    outer loop
      vertex 50.7673 8 11.6806
      vertex 60.8923 8 35.04
      vertex 51.209 8 11.9024
    endloop
  endfacet
  facet normal 0 1 0
    outer loop
      vertex 0 8 35.04
      vertex 9.21891 8 12.0715
      vertex 8.738 8 12.1854
    endloop
  endfacet
  facet normal 0 1 0
    outer loop
      vertex 50.3544 8 11.409
      vertex 60.8923 8 35.04
      vertex 50.7673 8 11.6806
    endloop
  endfacet
  facet normal 0 1 0
    outer loop
      vertex 0 8 35.04
      vertex 9.68334 8 11.9024
      vertex 9.21891 8 12.0715
    endloop
  endfacet
  facet normal 0 1 0
    outer loop
      vertex 60.8923 8 35.04
      vertex 50.3544 8 11.409
      vertex 0 8 35.04
    endloop
  endfacet
  facet normal 0 1 0
    outer loop
      vertex 0 8 35.04
      vertex 10.125 8 11.6806
      vertex 9.68334 8 11.9024
    endloop
  endfacet
  facet normal 0 1 -0
    outer loop
      vertex 10.5379 8 11.409
      vertex 0 8 35.04
      vertex 50.3544 8 11.409
    endloop
  endfacet
  facet normal 0 1 0
    outer loop
      vertex 0 8 35.04
      vertex 10.5379 8 11.409
      vertex 10.125 8 11.6806
    endloop
  endfacet
  facet normal 0 1 -0
    outer loop
      vertex 49.9758 8 11.0913
      vertex 10.5379 8 11.409
      vertex 50.3544 8 11.409
    endloop
  endfacet
  facet normal 0 1 0
    outer loop
      vertex 49.9758 8 11.0913
      vertex 10.9165 8 11.0913
      vertex 10.5379 8 11.409
    endloop
  endfacet
  facet normal 0 1 -0
    outer loop
      vertex 49.6366 8 10.7318
      vertex 10.9165 8 11.0913
      vertex 49.9758 8 11.0913
    endloop
  endfacet
  facet normal 0 1 0
    outer loop
      vertex 49.6366 8 10.7318
      vertex 11.2557 8 10.7318
      vertex 10.9165 8 11.0913
    endloop
  endfacet
  facet normal 0 1 -0
    outer loop
      vertex 49.3415 8 10.3354
      vertex 11.2557 8 10.7318
      vertex 49.6366 8 10.7318
    endloop
  endfacet
  facet normal 0 1 0
    outer loop
      vertex 49.3415 8 10.3354
      vertex 11.5508 8 10.3354
      vertex 11.2557 8 10.7318
    endloop
  endfacet
  facet normal 0 1 -0
    outer loop
      vertex 49.0944 8 9.9074
      vertex 11.5508 8 10.3354
      vertex 49.3415 8 10.3354
    endloop
  endfacet
  facet normal 0 1 0
    outer loop
      vertex 49.0944 8 9.9074
      vertex 11.7979 8 9.9074
      vertex 11.5508 8 10.3354
    endloop
  endfacet
  facet normal 0 1 -0
    outer loop
      vertex 48.8986 8 9.45358
      vertex 11.7979 8 9.9074
      vertex 49.0944 8 9.9074
    endloop
  endfacet
  facet normal 0 1 0
    outer loop
      vertex 48.8986 8 9.45358
      vertex 11.9937 8 9.45358
      vertex 11.7979 8 9.9074
    endloop
  endfacet
  facet normal 0 1 -0
    outer loop
      vertex 48.7569 8 8.98012
      vertex 11.9937 8 9.45358
      vertex 48.8986 8 9.45358
    endloop
  endfacet
  facet normal 0 1 0
    outer loop
      vertex 48.7569 8 8.98012
      vertex 12.1354 8 8.98012
      vertex 11.9937 8 9.45358
    endloop
  endfacet
  facet normal 0 1 -0
    outer loop
      vertex 48.671 8 8.49339
      vertex 12.1354 8 8.98012
      vertex 48.7569 8 8.98012
    endloop
  endfacet
  facet normal 0 1 0
    outer loop
      vertex 48.671 8 8.49339
      vertex 12.2213 8 8.49339
      vertex 12.1354 8 8.98012
    endloop
  endfacet
  facet normal 0 1 -0
    outer loop
      vertex 48.6423 8 8
      vertex 12.2213 8 8.49339
      vertex 48.671 8 8.49339
    endloop
  endfacet
  facet normal 0 1 0
    outer loop
      vertex 48.6423 8 8
      vertex 12.25 8 8
      vertex 12.2213 8 8.49339
    endloop
  endfacet
  facet normal 0 1 -0
    outer loop
      vertex 48.6423 8 0
      vertex 12.25 8 8
      vertex 48.6423 8 8
    endloop
  endfacet
  facet normal 0 1 0
    outer loop
      vertex 12.25 8 8
      vertex 48.6423 8 0
      vertex 12.25 8 0
    endloop
  endfacet
  facet normal 0 1 0
    outer loop
      vertex 52.6452 8 12.2428
      vertex 60.8923 8 35.04
      vertex 53.1394 8 12.2428
    endloop
  endfacet
  facet normal 0 1 0
    outer loop
      vertex 60.8923 8 35.04
      vertex 53.6303 8 12.1854
      vertex 53.1394 8 12.2428
    endloop
  endfacet
  facet normal 0 1 0
    outer loop
      vertex 60.8923 8 35.04
      vertex 54.1112 8 12.0715
      vertex 53.6303 8 12.1854
    endloop
  endfacet
  facet normal 0 1 0
    outer loop
      vertex 60.8923 8 35.04
      vertex 54.5756 8 11.9024
      vertex 54.1112 8 12.0715
    endloop
  endfacet
  facet normal 0 1 0
    outer loop
      vertex 60.8923 8 35.04
      vertex 55.0173 8 11.6806
      vertex 54.5756 8 11.9024
    endloop
  endfacet
  facet normal 0 1 0
    outer loop
      vertex 60.8923 8 35.04
      vertex 55.4302 8 11.409
      vertex 55.0173 8 11.6806
    endloop
  endfacet
  facet normal 0 1 0
    outer loop
      vertex 60.8923 8 35.04
      vertex 55.8088 8 11.0913
      vertex 55.4302 8 11.409
    endloop
  endfacet
  facet normal 0 1 0
    outer loop
      vertex 60.8923 8 35.04
      vertex 56.148 8 10.7318
      vertex 55.8088 8 11.0913
    endloop
  endfacet
  facet normal 0 1 0
    outer loop
      vertex 60.8923 8 35.04
      vertex 56.4431 8 10.3354
      vertex 56.148 8 10.7318
    endloop
  endfacet
  facet normal 0 1 0
    outer loop
      vertex 60.8923 8 35.04
      vertex 56.6902 8 9.9074
      vertex 56.4431 8 10.3354
    endloop
  endfacet
  facet normal 0 1 0
    outer loop
      vertex 60.8923 8 35.04
      vertex 56.886 8 9.45358
      vertex 56.6902 8 9.9074
    endloop
  endfacet
  facet normal 0 1 0
    outer loop
      vertex 60.8923 8 35.04
      vertex 57.0277 8 8.98012
      vertex 56.886 8 9.45358
    endloop
  endfacet
  facet normal 0 1 -0
    outer loop
      vertex 60.8923 8 0
      vertex 57.0277 8 8.98012
      vertex 60.8923 8 35.04
    endloop
  endfacet
  facet normal 0 1 0
    outer loop
      vertex 57.0277 8 8.98012
      vertex 60.8923 8 0
      vertex 57.1136 8 8.49339
    endloop
  endfacet
  facet normal 0 1 0
    outer loop
      vertex 57.1136 8 8.49339
      vertex 60.8923 8 0
      vertex 57.1423 8 8
    endloop
  endfacet
  facet normal 0 1 0
    outer loop
      vertex 57.1423 8 8
      vertex 60.8923 8 0
      vertex 57.1423 8 0
    endloop
  endfacet
  facet normal 0 1 0
    outer loop
      vertex 52.1543 8 12.1854
      vertex 60.8923 8 35.04
      vertex 52.6452 8 12.2428
    endloop
  endfacet
  facet normal 0 1 0
    outer loop
      vertex 51.6734 8 12.0715
      vertex 60.8923 8 35.04
      vertex 52.1543 8 12.1854
    endloop
  endfacet
  facet normal 0 1 -0
    outer loop
      vertex 7.75288 8 12.2428
      vertex 0 8 35.04
      vertex 8.24712 8 12.2428
    endloop
  endfacet
  facet normal 0 1 -0
    outer loop
      vertex 7.26199 8 12.1854
      vertex 0 8 35.04
      vertex 7.75288 8 12.2428
    endloop
  endfacet
  facet normal 0 1 -0
    outer loop
      vertex 6.78109 8 12.0715
      vertex 0 8 35.04
      vertex 7.26199 8 12.1854
    endloop
  endfacet
  facet normal 0 1 -0
    outer loop
      vertex 6.31666 8 11.9024
      vertex 0 8 35.04
      vertex 6.78109 8 12.0715
    endloop
  endfacet
  facet normal 0 1 -0
    outer loop
      vertex 5.875 8 11.6806
      vertex 0 8 35.04
      vertex 6.31666 8 11.9024
    endloop
  endfacet
  facet normal 0 1 -0
    outer loop
      vertex 5.46208 8 11.409
      vertex 0 8 35.04
      vertex 5.875 8 11.6806
    endloop
  endfacet
  facet normal 0 1 -0
    outer loop
      vertex 5.08347 8 11.0913
      vertex 0 8 35.04
      vertex 5.46208 8 11.409
    endloop
  endfacet
  facet normal 0 1 -0
    outer loop
      vertex 4.74431 8 10.7318
      vertex 0 8 35.04
      vertex 5.08347 8 11.0913
    endloop
  endfacet
  facet normal 0 1 -0
    outer loop
      vertex 4.44918 8 10.3354
      vertex 0 8 35.04
      vertex 4.74431 8 10.7318
    endloop
  endfacet
  facet normal 0 1 -0
    outer loop
      vertex 4.20206 8 9.9074
      vertex 0 8 35.04
      vertex 4.44918 8 10.3354
    endloop
  endfacet
  facet normal 0 1 -0
    outer loop
      vertex 4.00631 8 9.45358
      vertex 0 8 35.04
      vertex 4.20206 8 9.9074
    endloop
  endfacet
  facet normal 0 1 -0
    outer loop
      vertex 3.86456 8 8.98012
      vertex 0 8 35.04
      vertex 4.00631 8 9.45358
    endloop
  endfacet
  facet normal 0 1 0
    outer loop
      vertex 0 8 0
      vertex 3.86456 8 8.98012
      vertex 3.77874 8 8.49339
    endloop
  endfacet
  facet normal 0 1 0
    outer loop
      vertex 0 8 0
      vertex 3.77874 8 8.49339
      vertex 3.75 8 8
    endloop
  endfacet
  facet normal 0 1 0
    outer loop
      vertex 0 8 0
      vertex 3.75 8 8
      vertex 3.75 8 0
    endloop
  endfacet
  facet normal 0 1 0
    outer loop
      vertex 3.86456 8 8.98012
      vertex 0 8 0
      vertex 0 8 35.04
    endloop
  endfacet
  facet normal 0 -1 0
    outer loop
      vertex 9.68334 0 11.9024
      vertex 0 0 35.04
      vertex 9.21891 0 12.0715
    endloop
  endfacet
  facet normal 0 -1 0
    outer loop
      vertex 60.8923 0 35.04
      vertex 52.1543 0 12.1854
      vertex 52.6452 0 12.2428
    endloop
  endfacet
  facet normal 0 -1 0
    outer loop
      vertex 10.125 0 11.6806
      vertex 0 0 35.04
      vertex 9.68334 0 11.9024
    endloop
  endfacet
  facet normal 0 -1 0
    outer loop
      vertex 60.8923 0 35.04
      vertex 51.6734 0 12.0715
      vertex 52.1543 0 12.1854
    endloop
  endfacet
  facet normal 0 -1 0
    outer loop
      vertex 10.5379 0 11.409
      vertex 0 0 35.04
      vertex 10.125 0 11.6806
    endloop
  endfacet
  facet normal 0 -1 0
    outer loop
      vertex 60.8923 0 35.04
      vertex 51.209 0 11.9024
      vertex 51.6734 0 12.0715
    endloop
  endfacet
  facet normal 0 -1 0
    outer loop
      vertex 0 0 35.04
      vertex 10.5379 0 11.409
      vertex 60.8923 0 35.04
    endloop
  endfacet
  facet normal 0 -1 0
    outer loop
      vertex 60.8923 0 35.04
      vertex 50.7673 0 11.6806
      vertex 51.209 0 11.9024
    endloop
  endfacet
  facet normal 0 -1 0
    outer loop
      vertex 50.3544 0 11.409
      vertex 60.8923 0 35.04
      vertex 10.5379 0 11.409
    endloop
  endfacet
  facet normal 0 -1 0
    outer loop
      vertex 60.8923 0 35.04
      vertex 50.3544 0 11.409
      vertex 50.7673 0 11.6806
    endloop
  endfacet
  facet normal 0 -1 0
    outer loop
      vertex 10.9165 0 11.0913
      vertex 50.3544 0 11.409
      vertex 10.5379 0 11.409
    endloop
  endfacet
  facet normal 0 -1 0
    outer loop
      vertex 10.9165 0 11.0913
      vertex 49.9758 0 11.0913
      vertex 50.3544 0 11.409
    endloop
  endfacet
  facet normal 0 -1 0
    outer loop
      vertex 11.2557 0 10.7318
      vertex 49.9758 0 11.0913
      vertex 10.9165 0 11.0913
    endloop
  endfacet
  facet normal 0 -1 0
    outer loop
      vertex 11.2557 0 10.7318
      vertex 49.6366 0 10.7318
      vertex 49.9758 0 11.0913
    endloop
  endfacet
  facet normal 0 -1 0
    outer loop
      vertex 11.5508 0 10.3354
      vertex 49.6366 0 10.7318
      vertex 11.2557 0 10.7318
    endloop
  endfacet
  facet normal 0 -1 0
    outer loop
      vertex 11.5508 0 10.3354
      vertex 49.3415 0 10.3354
      vertex 49.6366 0 10.7318
    endloop
  endfacet
  facet normal 0 -1 0
    outer loop
      vertex 11.7979 0 9.9074
      vertex 49.3415 0 10.3354
      vertex 11.5508 0 10.3354
    endloop
  endfacet
  facet normal 0 -1 0
    outer loop
      vertex 11.7979 0 9.9074
      vertex 49.0944 0 9.9074
      vertex 49.3415 0 10.3354
    endloop
  endfacet
  facet normal 0 -1 0
    outer loop
      vertex 11.9937 0 9.45358
      vertex 49.0944 0 9.9074
      vertex 11.7979 0 9.9074
    endloop
  endfacet
  facet normal 0 -1 0
    outer loop
      vertex 11.9937 0 9.45358
      vertex 48.8986 0 9.45358
      vertex 49.0944 0 9.9074
    endloop
  endfacet
  facet normal 0 -1 0
    outer loop
      vertex 12.1354 0 8.98012
      vertex 48.8986 0 9.45358
      vertex 11.9937 0 9.45358
    endloop
  endfacet
  facet normal 0 -1 0
    outer loop
      vertex 12.1354 0 8.98012
      vertex 48.7569 0 8.98012
      vertex 48.8986 0 9.45358
    endloop
  endfacet
  facet normal 0 -1 0
    outer loop
      vertex 12.2213 0 8.49339
      vertex 48.7569 0 8.98012
      vertex 12.1354 0 8.98012
    endloop
  endfacet
  facet normal 0 -1 0
    outer loop
      vertex 12.2213 0 8.49339
      vertex 48.671 0 8.49339
      vertex 48.7569 0 8.98012
    endloop
  endfacet
  facet normal 0 -1 0
    outer loop
      vertex 12.25 0 8
      vertex 48.671 0 8.49339
      vertex 12.2213 0 8.49339
    endloop
  endfacet
  facet normal 0 -1 0
    outer loop
      vertex 12.25 0 8
      vertex 48.6423 0 8
      vertex 48.671 0 8.49339
    endloop
  endfacet
  facet normal 0 -1 0
    outer loop
      vertex 12.25 0 0
      vertex 48.6423 0 8
      vertex 12.25 0 8
    endloop
  endfacet
  facet normal 0 -1 -0
    outer loop
      vertex 48.6423 0 8
      vertex 12.25 0 0
      vertex 48.6423 0 0
    endloop
  endfacet
  facet normal 0 -1 0
    outer loop
      vertex 8.24712 0 12.2428
      vertex 0 0 35.04
      vertex 7.75288 0 12.2428
    endloop
  endfacet
  facet normal 0 -1 0
    outer loop
      vertex 0 0 35.04
      vertex 7.26199 0 12.1854
      vertex 7.75288 0 12.2428
    endloop
  endfacet
  facet normal 0 -1 0
    outer loop
      vertex 0 0 35.04
      vertex 6.78109 0 12.0715
      vertex 7.26199 0 12.1854
    endloop
  endfacet
  facet normal 0 -1 0
    outer loop
      vertex 0 0 35.04
      vertex 6.31666 0 11.9024
      vertex 6.78109 0 12.0715
    endloop
  endfacet
  facet normal 0 -1 0
    outer loop
      vertex 0 0 35.04
      vertex 5.875 0 11.6806
      vertex 6.31666 0 11.9024
    endloop
  endfacet
  facet normal 0 -1 0
    outer loop
      vertex 0 0 35.04
      vertex 5.46208 0 11.409
      vertex 5.875 0 11.6806
    endloop
  endfacet
  facet normal 0 -1 0
    outer loop
      vertex 0 0 35.04
      vertex 5.08347 0 11.0913
      vertex 5.46208 0 11.409
    endloop
  endfacet
  facet normal 0 -1 0
    outer loop
      vertex 0 0 35.04
      vertex 4.74431 0 10.7318
      vertex 5.08347 0 11.0913
    endloop
  endfacet
  facet normal 0 -1 0
    outer loop
      vertex 0 0 35.04
      vertex 4.44918 0 10.3354
      vertex 4.74431 0 10.7318
    endloop
  endfacet
  facet normal 0 -1 0
    outer loop
      vertex 0 0 35.04
      vertex 4.20206 0 9.9074
      vertex 4.44918 0 10.3354
    endloop
  endfacet
  facet normal 0 -1 0
    outer loop
      vertex 0 0 35.04
      vertex 4.00631 0 9.45358
      vertex 4.20206 0 9.9074
    endloop
  endfacet
  facet normal 0 -1 0
    outer loop
      vertex 0 0 35.04
      vertex 3.86456 0 8.98012
      vertex 4.00631 0 9.45358
    endloop
  endfacet
  facet normal 0 -1 0
    outer loop
      vertex 0 0 0
      vertex 3.86456 0 8.98012
      vertex 0 0 35.04
    endloop
  endfacet
  facet normal 0 -1 0
    outer loop
      vertex 3.86456 0 8.98012
      vertex 0 0 0
      vertex 3.77874 0 8.49339
    endloop
  endfacet
  facet normal 0 -1 0
    outer loop
      vertex 3.77874 0 8.49339
      vertex 0 0 0
      vertex 3.75 0 8
    endloop
  endfacet
  facet normal 0 -1 -0
    outer loop
      vertex 3.75 0 8
      vertex 0 0 0
      vertex 3.75 0 0
    endloop
  endfacet
  facet normal 0 -1 0
    outer loop
      vertex 8.738 0 12.1854
      vertex 0 0 35.04
      vertex 8.24712 0 12.2428
    endloop
  endfacet
  facet normal 0 -1 0
    outer loop
      vertex 9.21891 0 12.0715
      vertex 0 0 35.04
      vertex 8.738 0 12.1854
    endloop
  endfacet
  facet normal 0 -1 0
    outer loop
      vertex 53.1394 0 12.2428
      vertex 60.8923 0 35.04
      vertex 52.6452 0 12.2428
    endloop
  endfacet
  facet normal 0 -1 0
    outer loop
      vertex 53.6303 0 12.1854
      vertex 60.8923 0 35.04
      vertex 53.1394 0 12.2428
    endloop
  endfacet
  facet normal 0 -1 0
    outer loop
      vertex 54.1112 0 12.0715
      vertex 60.8923 0 35.04
      vertex 53.6303 0 12.1854
    endloop
  endfacet
  facet normal 0 -1 0
    outer loop
      vertex 54.5756 0 11.9024
      vertex 60.8923 0 35.04
      vertex 54.1112 0 12.0715
    endloop
  endfacet
  facet normal 0 -1 0
    outer loop
      vertex 55.0173 0 11.6806
      vertex 60.8923 0 35.04
      vertex 54.5756 0 11.9024
    endloop
  endfacet
  facet normal 0 -1 0
    outer loop
      vertex 55.4302 0 11.409
      vertex 60.8923 0 35.04
      vertex 55.0173 0 11.6806
    endloop
  endfacet
  facet normal 0 -1 0
    outer loop
      vertex 55.8088 0 11.0913
      vertex 60.8923 0 35.04
      vertex 55.4302 0 11.409
    endloop
  endfacet
  facet normal 0 -1 0
    outer loop
      vertex 56.148 0 10.7318
      vertex 60.8923 0 35.04
      vertex 55.8088 0 11.0913
    endloop
  endfacet
  facet normal 0 -1 0
    outer loop
      vertex 56.4431 0 10.3354
      vertex 60.8923 0 35.04
      vertex 56.148 0 10.7318
    endloop
  endfacet
  facet normal 0 -1 0
    outer loop
      vertex 56.6902 0 9.9074
      vertex 60.8923 0 35.04
      vertex 56.4431 0 10.3354
    endloop
  endfacet
  facet normal 0 -1 0
    outer loop
      vertex 56.886 0 9.45358
      vertex 60.8923 0 35.04
      vertex 56.6902 0 9.9074
    endloop
  endfacet
  facet normal 0 -1 0
    outer loop
      vertex 57.0277 0 8.98012
      vertex 60.8923 0 35.04
      vertex 56.886 0 9.45358
    endloop
  endfacet
  facet normal 0 -1 0
    outer loop
      vertex 60.8923 0 0
      vertex 57.0277 0 8.98012
      vertex 57.1136 0 8.49339
    endloop
  endfacet
  facet normal 0 -1 0
    outer loop
      vertex 60.8923 0 0
      vertex 57.1136 0 8.49339
      vertex 57.1423 0 8
    endloop
  endfacet
  facet normal 0 -1 0
    outer loop
      vertex 60.8923 0 0
      vertex 57.1423 0 8
      vertex 57.1423 0 0
    endloop
  endfacet
  facet normal 0 -1 0
    outer loop
      vertex 57.0277 0 8.98012
      vertex 60.8923 0 0
      vertex 60.8923 0 35.04
    endloop
  endfacet
  facet normal 0.998308 0 -0.0581515
    outer loop
      vertex 3.77874 0 8.49339
      vertex 3.75 8 8
      vertex 3.77874 8 8.49339
    endloop
  endfacet
  facet normal 0.998308 0 -0.0581515
    outer loop
      vertex 3.75 8 8
      vertex 3.77874 0 8.49339
      vertex 3.75 0 8
    endloop
  endfacet
  facet normal 0.866013 0 -0.500021
    outer loop
      vertex 4.44918 0 10.3354
      vertex 4.20206 8 9.9074
      vertex 4.44918 8 10.3354
    endloop
  endfacet
  facet normal 0.866013 0 -0.500021
    outer loop
      vertex 4.20206 8 9.9074
      vertex 4.44918 0 10.3354
      vertex 4.20206 0 9.9074
    endloop
  endfacet
  facet normal -0.642808 0 -0.766028
    outer loop
      vertex 10.5379 0 11.409
      vertex 10.9165 8 11.0913
      vertex 10.9165 0 11.0913
    endloop
  endfacet
  facet normal -0.642808 0 -0.766028
    outer loop
      vertex 10.9165 8 11.0913
      vertex 10.5379 0 11.409
      vertex 10.5379 8 11.409
    endloop
  endfacet
  facet normal -0.34213 0 -0.939653
    outer loop
      vertex 9.21891 0 12.0715
      vertex 9.68334 8 11.9024
      vertex 9.68334 0 11.9024
    endloop
  endfacet
  facet normal -0.34213 0 -0.939653
    outer loop
      vertex 9.68334 8 11.9024
      vertex 9.21891 0 12.0715
      vertex 9.21891 8 12.0715
    endloop
  endfacet
  facet normal 0.918223 0 -0.396065
    outer loop
      vertex 4.20206 0 9.9074
      vertex 4.00631 8 9.45358
      vertex 4.20206 8 9.9074
    endloop
  endfacet
  facet normal 0.918223 0 -0.396065
    outer loop
      vertex 4.00631 8 9.45358
      vertex 4.20206 0 9.9074
      vertex 4.00631 0 9.45358
    endloop
  endfacet
  facet normal 0.984809 0 -0.173641
    outer loop
      vertex 3.86456 0 8.98012
      vertex 3.77874 8 8.49339
      vertex 3.86456 8 8.98012
    endloop
  endfacet
  facet normal 0.984809 0 -0.173641
    outer loop
      vertex 3.77874 8 8.49339
      vertex 3.86456 0 8.98012
      vertex 3.77874 0 8.49339
    endloop
  endfacet
  facet normal -1 0 0
    outer loop
      vertex 12.25 0 0
      vertex 12.25 8 8
      vertex 12.25 8 0
    endloop
  endfacet
  facet normal -1 -0 0
    outer loop
      vertex 12.25 8 8
      vertex 12.25 0 0
      vertex 12.25 0 8
    endloop
  endfacet
  facet normal -0.998312 0 -0.0580708
    outer loop
      vertex 12.25 0 8
      vertex 12.2213 8 8.49339
      vertex 12.25 8 8
    endloop
  endfacet
  facet normal -0.998312 -0 -0.0580708
    outer loop
      vertex 12.2213 8 8.49339
      vertex 12.25 0 8
      vertex 12.2213 0 8.49339
    endloop
  endfacet
  facet normal 0.642798 0 -0.766036
    outer loop
      vertex 5.08347 0 11.0913
      vertex 5.46208 8 11.409
      vertex 5.46208 0 11.409
    endloop
  endfacet
  facet normal 0.642798 0 -0.766036
    outer loop
      vertex 5.46208 8 11.409
      vertex 5.08347 0 11.0913
      vertex 5.08347 8 11.0913
    endloop
  endfacet
  facet normal 1 -0 0
    outer loop
      vertex 3.75 0 8
      vertex 3.75 8 0
      vertex 3.75 8 8
    endloop
  endfacet
  facet normal 1 0 0
    outer loop
      vertex 3.75 8 0
      vertex 3.75 0 8
      vertex 3.75 0 0
    endloop
  endfacet
  facet normal 0.802103 0 -0.597186
    outer loop
      vertex 4.74431 0 10.7318
      vertex 4.44918 8 10.3354
      vertex 4.74431 8 10.7318
    endloop
  endfacet
  facet normal 0.802103 0 -0.597186
    outer loop
      vertex 4.44918 8 10.3354
      vertex 4.74431 0 10.7318
      vertex 4.44918 0 10.3354
    endloop
  endfacet
  facet normal 0.727385 0 -0.68623
    outer loop
      vertex 5.08347 0 11.0913
      vertex 4.74431 8 10.7318
      vertex 5.08347 8 11.0913
    endloop
  endfacet
  facet normal 0.727385 0 -0.68623
    outer loop
      vertex 4.74431 8 10.7318
      vertex 5.08347 0 11.0913
      vertex 4.74431 0 10.7318
    endloop
  endfacet
  facet normal -0.448783 0 -0.893641
    outer loop
      vertex 9.68334 0 11.9024
      vertex 10.125 8 11.6806
      vertex 10.125 0 11.6806
    endloop
  endfacet
  facet normal -0.448783 0 -0.893641
    outer loop
      vertex 10.125 8 11.6806
      vertex 9.68334 0 11.9024
      vertex 9.68334 8 11.9024
    endloop
  endfacet
  facet normal 0.957987 0 -0.286813
    outer loop
      vertex 4.00631 0 9.45358
      vertex 3.86456 8 8.98012
      vertex 4.00631 8 9.45358
    endloop
  endfacet
  facet normal 0.957987 0 -0.286813
    outer loop
      vertex 3.86456 8 8.98012
      vertex 4.00631 0 9.45358
      vertex 3.86456 0 8.98012
    endloop
  endfacet
  facet normal -0.984781 0 -0.173798
    outer loop
      vertex 12.2213 0 8.49339
      vertex 12.1354 8 8.98012
      vertex 12.2213 8 8.49339
    endloop
  endfacet
  facet normal -0.984781 -0 -0.173798
    outer loop
      vertex 12.1354 8 8.98012
      vertex 12.2213 0 8.49339
      vertex 12.1354 0 8.98012
    endloop
  endfacet
  facet normal -0.802132 0 -0.597147
    outer loop
      vertex 11.5508 0 10.3354
      vertex 11.2557 8 10.7318
      vertex 11.5508 8 10.3354
    endloop
  endfacet
  facet normal -0.802132 -0 -0.597147
    outer loop
      vertex 11.2557 8 10.7318
      vertex 11.5508 0 10.3354
      vertex 11.2557 0 10.7318
    endloop
  endfacet
  facet normal -0.958014 0 -0.28672
    outer loop
      vertex 12.1354 0 8.98012
      vertex 11.9937 8 9.45358
      vertex 12.1354 8 8.98012
    endloop
  endfacet
  facet normal -0.958014 -0 -0.28672
    outer loop
      vertex 11.9937 8 9.45358
      vertex 12.1354 0 8.98012
      vertex 11.9937 0 9.45358
    endloop
  endfacet
  facet normal 0.549535 0 -0.835471
    outer loop
      vertex 5.46208 0 11.409
      vertex 5.875 8 11.6806
      vertex 5.875 0 11.6806
    endloop
  endfacet
  facet normal 0.549535 0 -0.835471
    outer loop
      vertex 5.875 8 11.6806
      vertex 5.46208 0 11.409
      vertex 5.46208 8 11.409
    endloop
  endfacet
  facet normal -0.918186 0 -0.39615
    outer loop
      vertex 11.9937 0 9.45358
      vertex 11.7979 8 9.9074
      vertex 11.9937 8 9.45358
    endloop
  endfacet
  facet normal -0.918186 -0 -0.39615
    outer loop
      vertex 11.7979 8 9.9074
      vertex 11.9937 0 9.45358
      vertex 11.7979 0 9.9074
    endloop
  endfacet
  facet normal -0.549553 0 -0.835459
    outer loop
      vertex 10.125 0 11.6806
      vertex 10.5379 8 11.409
      vertex 10.5379 0 11.409
    endloop
  endfacet
  facet normal -0.549553 0 -0.835459
    outer loop
      vertex 10.5379 8 11.409
      vertex 10.125 0 11.6806
      vertex 10.125 8 11.6806
    endloop
  endfacet
  facet normal -0.727344 0 -0.686273
    outer loop
      vertex 11.2557 0 10.7318
      vertex 10.9165 8 11.0913
      vertex 11.2557 8 10.7318
    endloop
  endfacet
  facet normal -0.727344 -0 -0.686273
    outer loop
      vertex 10.9165 8 11.0913
      vertex 11.2557 0 10.7318
      vertex 10.9165 0 11.0913
    endloop
  endfacet
  facet normal 0.448783 0 -0.893641
    outer loop
      vertex 5.875 0 11.6806
      vertex 6.31666 8 11.9024
      vertex 6.31666 0 11.9024
    endloop
  endfacet
  facet normal 0.448783 0 -0.893641
    outer loop
      vertex 6.31666 8 11.9024
      vertex 5.875 0 11.6806
      vertex 5.875 8 11.6806
    endloop
  endfacet
  facet normal -0.866031 0 -0.499991
    outer loop
      vertex 11.7979 0 9.9074
      vertex 11.5508 8 10.3354
      vertex 11.7979 8 9.9074
    endloop
  endfacet
  facet normal -0.866031 -0 -0.499991
    outer loop
      vertex 11.5508 8 10.3354
      vertex 11.7979 0 9.9074
      vertex 11.5508 0 10.3354
    endloop
  endfacet
  facet normal -0.230467 0 -0.97308
    outer loop
      vertex 8.738 0 12.1854
      vertex 9.21891 8 12.0715
      vertex 9.21891 0 12.0715
    endloop
  endfacet
  facet normal -0.230467 0 -0.97308
    outer loop
      vertex 9.21891 8 12.0715
      vertex 8.738 0 12.1854
      vertex 8.738 8 12.1854
    endloop
  endfacet
  facet normal 0.34213 0 -0.939653
    outer loop
      vertex 6.31666 0 11.9024
      vertex 6.78109 8 12.0715
      vertex 6.78109 0 12.0715
    endloop
  endfacet
  facet normal 0.34213 0 -0.939653
    outer loop
      vertex 6.78109 8 12.0715
      vertex 6.31666 0 11.9024
      vertex 6.31666 8 11.9024
    endloop
  endfacet
  facet normal -0.116142 0 -0.993233
    outer loop
      vertex 8.24712 0 12.2428
      vertex 8.738 8 12.1854
      vertex 8.738 0 12.1854
    endloop
  endfacet
  facet normal -0.116142 0 -0.993233
    outer loop
      vertex 8.738 8 12.1854
      vertex 8.24712 0 12.2428
      vertex 8.24712 8 12.2428
    endloop
  endfacet
  facet normal 0.116139 0 -0.993233
    outer loop
      vertex 7.26199 0 12.1854
      vertex 7.75288 8 12.2428
      vertex 7.75288 0 12.2428
    endloop
  endfacet
  facet normal 0.116139 0 -0.993233
    outer loop
      vertex 7.75288 8 12.2428
      vertex 7.26199 0 12.1854
      vertex 7.26199 8 12.1854
    endloop
  endfacet
  facet normal 0.230471 0 -0.973079
    outer loop
      vertex 6.78109 0 12.0715
      vertex 7.26199 8 12.1854
      vertex 7.26199 0 12.1854
    endloop
  endfacet
  facet normal 0.230471 0 -0.973079
    outer loop
      vertex 7.26199 8 12.1854
      vertex 6.78109 0 12.0715
      vertex 6.78109 8 12.0715
    endloop
  endfacet
  facet normal 0 0 -1
    outer loop
      vertex 7.75288 0 12.2428
      vertex 8.24712 8 12.2428
      vertex 8.24712 0 12.2428
    endloop
  endfacet
  facet normal -0 0 -1
    outer loop
      vertex 8.24712 8 12.2428
      vertex 7.75288 0 12.2428
      vertex 7.75288 8 12.2428
    endloop
  endfacet
  facet normal -0.802132 0 -0.597147
    outer loop
      vertex 56.4431 0 10.3354
      vertex 56.148 8 10.7318
      vertex 56.4431 8 10.3354
    endloop
  endfacet
  facet normal -0.802132 -0 -0.597147
    outer loop
      vertex 56.148 8 10.7318
      vertex 56.4431 0 10.3354
      vertex 56.148 0 10.7318
    endloop
  endfacet
  facet normal -0.642808 0 -0.766028
    outer loop
      vertex 55.4302 0 11.409
      vertex 55.8088 8 11.0913
      vertex 55.8088 0 11.0913
    endloop
  endfacet
  facet normal -0.642808 0 -0.766028
    outer loop
      vertex 55.8088 8 11.0913
      vertex 55.4302 0 11.409
      vertex 55.4302 8 11.409
    endloop
  endfacet
  facet normal -0.998312 0 -0.0580708
    outer loop
      vertex 57.1423 0 8
      vertex 57.1136 8 8.49339
      vertex 57.1423 8 8
    endloop
  endfacet
  facet normal -0.998312 -0 -0.0580708
    outer loop
      vertex 57.1136 8 8.49339
      vertex 57.1423 0 8
      vertex 57.1136 0 8.49339
    endloop
  endfacet
  facet normal 0.866031 0 -0.499991
    outer loop
      vertex 49.3415 0 10.3354
      vertex 49.0944 8 9.9074
      vertex 49.3415 8 10.3354
    endloop
  endfacet
  facet normal 0.866031 0 -0.499991
    outer loop
      vertex 49.0944 8 9.9074
      vertex 49.3415 0 10.3354
      vertex 49.0944 0 9.9074
    endloop
  endfacet
  facet normal 0.342149 0 -0.939646
    outer loop
      vertex 51.209 0 11.9024
      vertex 51.6734 8 12.0715
      vertex 51.6734 0 12.0715
    endloop
  endfacet
  facet normal 0.342149 0 -0.939646
    outer loop
      vertex 51.6734 8 12.0715
      vertex 51.209 0 11.9024
      vertex 51.209 8 11.9024
    endloop
  endfacet
  facet normal -0.342149 0 -0.939646
    outer loop
      vertex 54.1112 0 12.0715
      vertex 54.5756 8 11.9024
      vertex 54.5756 0 11.9024
    endloop
  endfacet
  facet normal -0.342149 0 -0.939646
    outer loop
      vertex 54.5756 8 11.9024
      vertex 54.1112 0 12.0715
      vertex 54.1112 8 12.0715
    endloop
  endfacet
  facet normal -0.918186 0 -0.39615
    outer loop
      vertex 56.886 0 9.45358
      vertex 56.6902 8 9.9074
      vertex 56.886 8 9.45358
    endloop
  endfacet
  facet normal -0.918186 -0 -0.39615
    outer loop
      vertex 56.6902 8 9.9074
      vertex 56.886 0 9.45358
      vertex 56.6902 0 9.9074
    endloop
  endfacet
  facet normal -0.116137 0 -0.993233
    outer loop
      vertex 53.1394 0 12.2428
      vertex 53.6303 8 12.1854
      vertex 53.6303 0 12.1854
    endloop
  endfacet
  facet normal -0.116137 0 -0.993233
    outer loop
      vertex 53.6303 8 12.1854
      vertex 53.1394 0 12.2428
      vertex 53.1394 8 12.2428
    endloop
  endfacet
  facet normal 0.642808 0 -0.766028
    outer loop
      vertex 49.9758 0 11.0913
      vertex 50.3544 8 11.409
      vertex 50.3544 0 11.409
    endloop
  endfacet
  facet normal 0.642808 0 -0.766028
    outer loop
      vertex 50.3544 8 11.409
      vertex 49.9758 0 11.0913
      vertex 49.9758 8 11.0913
    endloop
  endfacet
  facet normal 0.984781 0 -0.173798
    outer loop
      vertex 48.7569 0 8.98012
      vertex 48.671 8 8.49339
      vertex 48.7569 8 8.98012
    endloop
  endfacet
  facet normal 0.984781 0 -0.173798
    outer loop
      vertex 48.671 8 8.49339
      vertex 48.7569 0 8.98012
      vertex 48.671 0 8.49339
    endloop
  endfacet
  facet normal -0.727344 0 -0.686273
    outer loop
      vertex 56.148 0 10.7318
      vertex 55.8088 8 11.0913
      vertex 56.148 8 10.7318
    endloop
  endfacet
  facet normal -0.727344 -0 -0.686273
    outer loop
      vertex 55.8088 8 11.0913
      vertex 56.148 0 10.7318
      vertex 55.8088 0 11.0913
    endloop
  endfacet
  facet normal 0.448751 0 -0.893657
    outer loop
      vertex 50.7673 0 11.6806
      vertex 51.209 8 11.9024
      vertex 51.209 0 11.9024
    endloop
  endfacet
  facet normal 0.448751 0 -0.893657
    outer loop
      vertex 51.209 8 11.9024
      vertex 50.7673 0 11.6806
      vertex 50.7673 8 11.6806
    endloop
  endfacet
  facet normal -0.958014 0 -0.28672
    outer loop
      vertex 57.0277 0 8.98012
      vertex 56.886 8 9.45358
      vertex 57.0277 8 8.98012
    endloop
  endfacet
  facet normal -0.958014 -0 -0.28672
    outer loop
      vertex 56.886 8 9.45358
      vertex 57.0277 0 8.98012
      vertex 56.886 0 9.45358
    endloop
  endfacet
  facet normal -0.866031 0 -0.499991
    outer loop
      vertex 56.6902 0 9.9074
      vertex 56.4431 8 10.3354
      vertex 56.6902 8 9.9074
    endloop
  endfacet
  facet normal -0.866031 -0 -0.499991
    outer loop
      vertex 56.4431 8 10.3354
      vertex 56.6902 0 9.9074
      vertex 56.4431 0 10.3354
    endloop
  endfacet
  facet normal 0.802132 0 -0.597147
    outer loop
      vertex 49.6366 0 10.7318
      vertex 49.3415 8 10.3354
      vertex 49.6366 8 10.7318
    endloop
  endfacet
  facet normal 0.802132 0 -0.597147
    outer loop
      vertex 49.3415 8 10.3354
      vertex 49.6366 0 10.7318
      vertex 49.3415 0 10.3354
    endloop
  endfacet
  facet normal 0.549553 0 -0.835459
    outer loop
      vertex 50.3544 0 11.409
      vertex 50.7673 8 11.6806
      vertex 50.7673 0 11.6806
    endloop
  endfacet
  facet normal 0.549553 0 -0.835459
    outer loop
      vertex 50.7673 8 11.6806
      vertex 50.3544 0 11.409
      vertex 50.3544 8 11.409
    endloop
  endfacet
  facet normal 0.727344 0 -0.686273
    outer loop
      vertex 49.9758 0 11.0913
      vertex 49.6366 8 10.7318
      vertex 49.9758 8 11.0913
    endloop
  endfacet
  facet normal 0.727344 0 -0.686273
    outer loop
      vertex 49.6366 8 10.7318
      vertex 49.9758 0 11.0913
      vertex 49.6366 0 10.7318
    endloop
  endfacet
  facet normal 0 0 -1
    outer loop
      vertex 52.6452 0 12.2428
      vertex 53.1394 8 12.2428
      vertex 53.1394 0 12.2428
    endloop
  endfacet
  facet normal -0 0 -1
    outer loop
      vertex 53.1394 8 12.2428
      vertex 52.6452 0 12.2428
      vertex 52.6452 8 12.2428
    endloop
  endfacet
  facet normal 1 -0 0
    outer loop
      vertex 48.6423 0 8
      vertex 48.6423 8 0
      vertex 48.6423 8 8
    endloop
  endfacet
  facet normal 1 0 0
    outer loop
      vertex 48.6423 8 0
      vertex 48.6423 0 8
      vertex 48.6423 0 0
    endloop
  endfacet
  facet normal -0.984781 0 -0.173798
    outer loop
      vertex 57.1136 0 8.49339
      vertex 57.0277 8 8.98012
      vertex 57.1136 8 8.49339
    endloop
  endfacet
  facet normal -0.984781 -0 -0.173798
    outer loop
      vertex 57.0277 8 8.98012
      vertex 57.1136 0 8.49339
      vertex 57.0277 0 8.98012
    endloop
  endfacet
  facet normal 0.998312 0 -0.0580708
    outer loop
      vertex 48.671 0 8.49339
      vertex 48.6423 8 8
      vertex 48.671 8 8.49339
    endloop
  endfacet
  facet normal 0.998312 0 -0.0580708
    outer loop
      vertex 48.6423 8 8
      vertex 48.671 0 8.49339
      vertex 48.6423 0 8
    endloop
  endfacet
  facet normal -1 0 0
    outer loop
      vertex 57.1423 0 0
      vertex 57.1423 8 8
      vertex 57.1423 8 0
    endloop
  endfacet
  facet normal -1 -0 0
    outer loop
      vertex 57.1423 8 8
      vertex 57.1423 0 0
      vertex 57.1423 0 8
    endloop
  endfacet
  facet normal -0.230471 0 -0.973079
    outer loop
      vertex 53.6303 0 12.1854
      vertex 54.1112 8 12.0715
      vertex 54.1112 0 12.0715
    endloop
  endfacet
  facet normal -0.230471 0 -0.973079
    outer loop
      vertex 54.1112 8 12.0715
      vertex 53.6303 0 12.1854
      vertex 53.6303 8 12.1854
    endloop
  endfacet
  facet normal -0.448751 0 -0.893657
    outer loop
      vertex 54.5756 0 11.9024
      vertex 55.0173 8 11.6806
      vertex 55.0173 0 11.6806
    endloop
  endfacet
  facet normal -0.448751 0 -0.893657
    outer loop
      vertex 55.0173 8 11.6806
      vertex 54.5756 0 11.9024
      vertex 54.5756 8 11.9024
    endloop
  endfacet
  facet normal 0.230471 0 -0.973079
    outer loop
      vertex 51.6734 0 12.0715
      vertex 52.1543 8 12.1854
      vertex 52.1543 0 12.1854
    endloop
  endfacet
  facet normal 0.230471 0 -0.973079
    outer loop
      vertex 52.1543 8 12.1854
      vertex 51.6734 0 12.0715
      vertex 51.6734 8 12.0715
    endloop
  endfacet
  facet normal 0.918186 0 -0.39615
    outer loop
      vertex 49.0944 0 9.9074
      vertex 48.8986 8 9.45358
      vertex 49.0944 8 9.9074
    endloop
  endfacet
  facet normal 0.918186 0 -0.39615
    outer loop
      vertex 48.8986 8 9.45358
      vertex 49.0944 0 9.9074
      vertex 48.8986 0 9.45358
    endloop
  endfacet
  facet normal 0.958014 0 -0.28672
    outer loop
      vertex 48.8986 0 9.45358
      vertex 48.7569 8 8.98012
      vertex 48.8986 8 9.45358
    endloop
  endfacet
  facet normal 0.958014 0 -0.28672
    outer loop
      vertex 48.7569 8 8.98012
      vertex 48.8986 0 9.45358
      vertex 48.7569 0 8.98012
    endloop
  endfacet
  facet normal 0.116137 0 -0.993233
    outer loop
      vertex 52.1543 0 12.1854
      vertex 52.6452 8 12.2428
      vertex 52.6452 0 12.2428
    endloop
  endfacet
  facet normal 0.116137 0 -0.993233
    outer loop
      vertex 52.6452 8 12.2428
      vertex 52.1543 0 12.1854
      vertex 52.1543 8 12.1854
    endloop
  endfacet
  facet normal -0.549553 0 -0.835459
    outer loop
      vertex 55.0173 0 11.6806
      vertex 55.4302 8 11.409
      vertex 55.4302 0 11.409
    endloop
  endfacet
  facet normal -0.549553 0 -0.835459
    outer loop
      vertex 55.4302 8 11.409
      vertex 55.0173 0 11.6806
      vertex 55.0173 8 11.6806
    endloop
  endfacet
endsolid OpenSCAD_Model
