solid OpenSCAD_Model
  facet normal 0 -1 0
    outer loop
      vertex -3.48 -6.02754 0
      vertex 3.48 -6.02754 1.5
      vertex -3.48 -6.02754 1.5
    endloop
  endfacet
  facet normal 0 -1 -0
    outer loop
      vertex 3.48 -6.02754 1.5
      vertex -3.48 -6.02754 0
      vertex 3.48 -6.02754 0
    endloop
  endfacet
  facet normal 0.866026 -0.5 0
    outer loop
      vertex 3.48 -6.02754 1.5
      vertex 6.96 0 0
      vertex 6.96 0 1.5
    endloop
  endfacet
  facet normal 0.866026 -0.5 0
    outer loop
      vertex 6.96 0 0
      vertex 3.48 -6.02754 1.5
      vertex 3.48 -6.02754 0
    endloop
  endfacet
  facet normal 0 1 -0
    outer loop
      vertex 3.48 6.02754 0
      vertex -3.48 6.02754 1.5
      vertex 3.48 6.02754 1.5
    endloop
  endfacet
  facet normal 0 1 0
    outer loop
      vertex -3.48 6.02754 1.5
      vertex 3.48 6.02754 0
      vertex -3.48 6.02754 0
    endloop
  endfacet
  facet normal 0.866026 0.5 0
    outer loop
      vertex 6.96 0 1.5
      vertex 3.48 6.02754 0
      vertex 3.48 6.02754 1.5
    endloop
  endfacet
  facet normal 0.866026 0.5 0
    outer loop
      vertex 3.48 6.02754 0
      vertex 6.96 0 1.5
      vertex 6.96 0 0
    endloop
  endfacet
  facet normal -0.866026 0.5 0
    outer loop
      vertex -6.96 0 0
      vertex -3.48 6.02754 1.5
      vertex -3.48 6.02754 0
    endloop
  endfacet
  facet normal -0.866026 0.5 0
    outer loop
      vertex -3.48 6.02754 1.5
      vertex -6.96 0 0
      vertex -6.96 0 1.5
    endloop
  endfacet
  facet normal -0.866026 -0.5 0
    outer loop
      vertex -3.48 -6.02754 0
      vertex -6.96 0 1.5
      vertex -6.96 0 0
    endloop
  endfacet
  facet normal -0.866026 -0.5 0
    outer loop
      vertex -6.96 0 1.5
      vertex -3.48 -6.02754 0
      vertex -3.48 -6.02754 1.5
    endloop
  endfacet
  facet normal 0 0 1
    outer loop
      vertex 6.96 0 1.5
      vertex 3.96968 0.491552 1.5
      vertex 4 0 1.5
    endloop
  endfacet
  facet normal 0 0 1
    outer loop
      vertex 6.96 0 1.5
      vertex 3.87919 0.975655 1.5
      vertex 3.96968 0.491552 1.5
    endloop
  endfacet
  facet normal 0 0 1
    outer loop
      vertex 6.96 0 1.5
      vertex 3.72989 1.44497 1.5
      vertex 3.87919 0.975655 1.5
    endloop
  endfacet
  facet normal 0 0 1
    outer loop
      vertex 6.96 0 1.5
      vertex 3.52405 1.89237 1.5
      vertex 3.72989 1.44497 1.5
    endloop
  endfacet
  facet normal 0 0 1
    outer loop
      vertex 3.48 6.02754 1.5
      vertex 3.52405 1.89237 1.5
      vertex 6.96 0 1.5
    endloop
  endfacet
  facet normal 0 0 1
    outer loop
      vertex 3.48 6.02754 1.5
      vertex 3.26479 2.3111 1.5
      vertex 3.52405 1.89237 1.5
    endloop
  endfacet
  facet normal 0 0 1
    outer loop
      vertex 3.48 6.02754 1.5
      vertex 2.95604 2.69478 1.5
      vertex 3.26479 2.3111 1.5
    endloop
  endfacet
  facet normal 0 0 1
    outer loop
      vertex 3.48 6.02754 1.5
      vertex 2.60247 3.03762 1.5
      vertex 2.95604 2.69478 1.5
    endloop
  endfacet
  facet normal 0 0 1
    outer loop
      vertex 3.48 6.02754 1.5
      vertex 2.20946 3.33441 1.5
      vertex 2.60247 3.03762 1.5
    endloop
  endfacet
  facet normal 0 0 1
    outer loop
      vertex 3.48 6.02754 1.5
      vertex 1.78295 3.58065 1.5
      vertex 2.20946 3.33441 1.5
    endloop
  endfacet
  facet normal 0 0 1
    outer loop
      vertex 3.48 6.02754 1.5
      vertex 1.32942 3.77262 1.5
      vertex 1.78295 3.58065 1.5
    endloop
  endfacet
  facet normal 0 0 1
    outer loop
      vertex 3.48 6.02754 1.5
      vertex 0.855732 3.90739 1.5
      vertex 1.32942 3.77262 1.5
    endloop
  endfacet
  facet normal 0 0 1
    outer loop
      vertex 3.48 6.02754 1.5
      vertex 0.369073 3.98294 1.5
      vertex 0.855732 3.90739 1.5
    endloop
  endfacet
  facet normal 0 0 1
    outer loop
      vertex 3.48 6.02754 1.5
      vertex -0.123179 3.9981 1.5
      vertex 0.369073 3.98294 1.5
    endloop
  endfacet
  facet normal -0 0 1
    outer loop
      vertex -3.48 6.02754 1.5
      vertex -0.123179 3.9981 1.5
      vertex 3.48 6.02754 1.5
    endloop
  endfacet
  facet normal 0 0 1
    outer loop
      vertex -0.123179 3.9981 1.5
      vertex -3.48 6.02754 1.5
      vertex -0.613566 3.95266 1.5
    endloop
  endfacet
  facet normal 0 0 1
    outer loop
      vertex -0.613566 3.95266 1.5
      vertex -3.48 6.02754 1.5
      vertex -1.09465 3.8473 1.5
    endloop
  endfacet
  facet normal 0 0 1
    outer loop
      vertex -1.09465 3.8473 1.5
      vertex -3.48 6.02754 1.5
      vertex -1.55914 3.68362 1.5
    endloop
  endfacet
  facet normal 0 0 1
    outer loop
      vertex -3.48 6.02754 1.5
      vertex -2 3.4641 1.5
      vertex -1.55914 3.68362 1.5
    endloop
  endfacet
  facet normal 0 0 1
    outer loop
      vertex -3.48 6.02754 1.5
      vertex -2.41054 3.19207 1.5
      vertex -2 3.4641 1.5
    endloop
  endfacet
  facet normal 0 0 1
    outer loop
      vertex -3.48 6.02754 1.5
      vertex -2.78454 2.87165 1.5
      vertex -2.41054 3.19207 1.5
    endloop
  endfacet
  facet normal 0 0 1
    outer loop
      vertex -3.48 6.02754 1.5
      vertex -3.11632 2.5077 1.5
      vertex -2.78454 2.87165 1.5
    endloop
  endfacet
  facet normal 0 0 1
    outer loop
      vertex -3.48 6.02754 1.5
      vertex -3.40087 2.10573 1.5
      vertex -3.11632 2.5077 1.5
    endloop
  endfacet
  facet normal 0 0 1
    outer loop
      vertex -6.96 0 1.5
      vertex -3.40087 2.10573 1.5
      vertex -3.48 6.02754 1.5
    endloop
  endfacet
  facet normal 0 0 1
    outer loop
      vertex -3.40087 2.10573 1.5
      vertex -6.96 0 1.5
      vertex -3.63386 1.67184 1.5
    endloop
  endfacet
  facet normal 0 0 1
    outer loop
      vertex -3.63386 1.67184 1.5
      vertex -6.96 0 1.5
      vertex -3.81177 1.21261 1.5
    endloop
  endfacet
  facet normal 0 0 1
    outer loop
      vertex -3.81177 1.21261 1.5
      vertex -6.96 0 1.5
      vertex -3.93189 0.734998 1.5
    endloop
  endfacet
  facet normal 0 0 1
    outer loop
      vertex -3.99241 0.246243 1.5
      vertex -6.96 0 1.5
      vertex -3.99241 -0.246243 1.5
    endloop
  endfacet
  facet normal 0 0 1
    outer loop
      vertex -3.93189 0.734998 1.5
      vertex -6.96 0 1.5
      vertex -3.99241 0.246243 1.5
    endloop
  endfacet
  facet normal 0 0 1
    outer loop
      vertex 3.96968 -0.491552 1.5
      vertex 6.96 0 1.5
      vertex 4 0 1.5
    endloop
  endfacet
  facet normal 0 0 1
    outer loop
      vertex 3.87919 -0.975655 1.5
      vertex 6.96 0 1.5
      vertex 3.96968 -0.491552 1.5
    endloop
  endfacet
  facet normal 0 0 1
    outer loop
      vertex 3.72989 -1.44497 1.5
      vertex 6.96 0 1.5
      vertex 3.87919 -0.975655 1.5
    endloop
  endfacet
  facet normal 0 0 1
    outer loop
      vertex 3.52405 -1.89237 1.5
      vertex 6.96 0 1.5
      vertex 3.72989 -1.44497 1.5
    endloop
  endfacet
  facet normal -0 0 1
    outer loop
      vertex 3.52405 -1.89237 1.5
      vertex 3.48 -6.02754 1.5
      vertex 6.96 0 1.5
    endloop
  endfacet
  facet normal -0 0 1
    outer loop
      vertex 3.26479 -2.3111 1.5
      vertex 3.48 -6.02754 1.5
      vertex 3.52405 -1.89237 1.5
    endloop
  endfacet
  facet normal -0 0 1
    outer loop
      vertex 2.95604 -2.69478 1.5
      vertex 3.48 -6.02754 1.5
      vertex 3.26479 -2.3111 1.5
    endloop
  endfacet
  facet normal -0 0 1
    outer loop
      vertex 2.60247 -3.03762 1.5
      vertex 3.48 -6.02754 1.5
      vertex 2.95604 -2.69478 1.5
    endloop
  endfacet
  facet normal -0 0 1
    outer loop
      vertex 2.20946 -3.33441 1.5
      vertex 3.48 -6.02754 1.5
      vertex 2.60247 -3.03762 1.5
    endloop
  endfacet
  facet normal -0 0 1
    outer loop
      vertex 1.78295 -3.58065 1.5
      vertex 3.48 -6.02754 1.5
      vertex 2.20946 -3.33441 1.5
    endloop
  endfacet
  facet normal -0 0 1
    outer loop
      vertex 1.32942 -3.77262 1.5
      vertex 3.48 -6.02754 1.5
      vertex 1.78295 -3.58065 1.5
    endloop
  endfacet
  facet normal -0 0 1
    outer loop
      vertex 0.855732 -3.90739 1.5
      vertex 3.48 -6.02754 1.5
      vertex 1.32942 -3.77262 1.5
    endloop
  endfacet
  facet normal -0 0 1
    outer loop
      vertex 0.369073 -3.98294 1.5
      vertex 3.48 -6.02754 1.5
      vertex 0.855732 -3.90739 1.5
    endloop
  endfacet
  facet normal -0 0 1
    outer loop
      vertex -0.123179 -3.9981 1.5
      vertex 3.48 -6.02754 1.5
      vertex 0.369073 -3.98294 1.5
    endloop
  endfacet
  facet normal 0 0 1
    outer loop
      vertex -3.48 -6.02754 1.5
      vertex -0.123179 -3.9981 1.5
      vertex -0.613566 -3.95266 1.5
    endloop
  endfacet
  facet normal 0 0 1
    outer loop
      vertex -3.48 -6.02754 1.5
      vertex -0.613566 -3.95266 1.5
      vertex -1.09465 -3.8473 1.5
    endloop
  endfacet
  facet normal 0 0 1
    outer loop
      vertex -3.48 -6.02754 1.5
      vertex -1.09465 -3.8473 1.5
      vertex -1.55914 -3.68362 1.5
    endloop
  endfacet
  facet normal 0 0 1
    outer loop
      vertex -0.123179 -3.9981 1.5
      vertex -3.48 -6.02754 1.5
      vertex 3.48 -6.02754 1.5
    endloop
  endfacet
  facet normal 0 0 1
    outer loop
      vertex -2 -3.4641 1.5
      vertex -3.48 -6.02754 1.5
      vertex -1.55914 -3.68362 1.5
    endloop
  endfacet
  facet normal 0 0 1
    outer loop
      vertex -2.41054 -3.19207 1.5
      vertex -3.48 -6.02754 1.5
      vertex -2 -3.4641 1.5
    endloop
  endfacet
  facet normal 0 0 1
    outer loop
      vertex -2.78454 -2.87165 1.5
      vertex -3.48 -6.02754 1.5
      vertex -2.41054 -3.19207 1.5
    endloop
  endfacet
  facet normal 0 0 1
    outer loop
      vertex -3.11632 -2.5077 1.5
      vertex -3.48 -6.02754 1.5
      vertex -2.78454 -2.87165 1.5
    endloop
  endfacet
  facet normal 0 0 1
    outer loop
      vertex -3.40087 -2.10573 1.5
      vertex -3.48 -6.02754 1.5
      vertex -3.11632 -2.5077 1.5
    endloop
  endfacet
  facet normal 0 0 1
    outer loop
      vertex -6.96 0 1.5
      vertex -3.40087 -2.10573 1.5
      vertex -3.63386 -1.67184 1.5
    endloop
  endfacet
  facet normal 0 0 1
    outer loop
      vertex -6.96 0 1.5
      vertex -3.63386 -1.67184 1.5
      vertex -3.81177 -1.21261 1.5
    endloop
  endfacet
  facet normal 0 0 1
    outer loop
      vertex -6.96 0 1.5
      vertex -3.81177 -1.21261 1.5
      vertex -3.93189 -0.734998 1.5
    endloop
  endfacet
  facet normal 0 0 1
    outer loop
      vertex -6.96 0 1.5
      vertex -3.93189 -0.734998 1.5
      vertex -3.99241 -0.246243 1.5
    endloop
  endfacet
  facet normal 0 0 1
    outer loop
      vertex -3.40087 -2.10573 1.5
      vertex -6.96 0 1.5
      vertex -3.48 -6.02754 1.5
    endloop
  endfacet
  facet normal 0 0 -1
    outer loop
      vertex 2.39929 0 0
      vertex 6.96 0 0
      vertex 3.48 -6.02754 0
    endloop
  endfacet
  facet normal 0 0 -1
    outer loop
      vertex 6.96 0 0
      vertex 2.39929 0 0
      vertex 3.48 6.02754 0
    endloop
  endfacet
  facet normal 0 0 -1
    outer loop
      vertex 3.48 -6.02754 0
      vertex 1.20143 -2.07475 0
      vertex 2.39929 0 0
    endloop
  endfacet
  facet normal 0 0 -1
    outer loop
      vertex 3.48 -6.02754 0
      vertex 1.19964 -2.07784 0
      vertex 1.20143 -2.07475 0
    endloop
  endfacet
  facet normal 0 0 -1
    outer loop
      vertex 3.48 -6.02754 0
      vertex -1.19964 -2.07784 0
      vertex 1.19964 -2.07784 0
    endloop
  endfacet
  facet normal -0 0 -1
    outer loop
      vertex -1.20143 -2.07475 0
      vertex -3.48 -6.02754 0
      vertex -2.39929 0 0
    endloop
  endfacet
  facet normal -0 0 -1
    outer loop
      vertex -1.19964 -2.07784 0
      vertex -3.48 -6.02754 0
      vertex -1.20143 -2.07475 0
    endloop
  endfacet
  facet normal 0 0 -1
    outer loop
      vertex -3.48 -6.02754 0
      vertex -1.19964 -2.07784 0
      vertex 3.48 -6.02754 0
    endloop
  endfacet
  facet normal 0 0 -1
    outer loop
      vertex 1.20143 2.07475 0
      vertex 3.48 6.02754 0
      vertex 2.39929 0 0
    endloop
  endfacet
  facet normal 0 0 -1
    outer loop
      vertex 1.19964 2.07784 0
      vertex 3.48 6.02754 0
      vertex 1.20143 2.07475 0
    endloop
  endfacet
  facet normal 0 0 -1
    outer loop
      vertex -1.19964 2.07784 0
      vertex 3.48 6.02754 0
      vertex 1.19964 2.07784 0
    endloop
  endfacet
  facet normal 0 0 -1
    outer loop
      vertex -1.19964 2.07784 0
      vertex -3.48 6.02754 0
      vertex 3.48 6.02754 0
    endloop
  endfacet
  facet normal 0 0 -1
    outer loop
      vertex -1.20143 2.07475 0
      vertex -3.48 6.02754 0
      vertex -1.19964 2.07784 0
    endloop
  endfacet
  facet normal 0 0 -1
    outer loop
      vertex -2.39929 0 0
      vertex -3.48 6.02754 0
      vertex -1.20143 2.07475 0
    endloop
  endfacet
  facet normal 0 0 -1
    outer loop
      vertex -6.96 0 0
      vertex -2.39929 0 0
      vertex -3.48 -6.02754 0
    endloop
  endfacet
  facet normal 0 0 -1
    outer loop
      vertex -2.39929 0 0
      vertex -6.96 0 0
      vertex -3.48 6.02754 0
    endloop
  endfacet
  facet normal 0.982975 0.183741 0
    outer loop
      vertex 3.96968 0.491552 13.5
      vertex 3.87919 0.975655 1.5
      vertex 3.87919 0.975655 13.5
    endloop
  endfacet
  facet normal 0.982975 0.183741 0
    outer loop
      vertex 3.87919 0.975655 1.5
      vertex 3.96968 0.491552 13.5
      vertex 3.96968 0.491552 1.5
    endloop
  endfacet
  facet normal 0.998103 0.0615652 0
    outer loop
      vertex 4 0 13.5
      vertex 3.96968 0.491552 1.5
      vertex 3.96968 0.491552 13.5
    endloop
  endfacet
  facet normal 0.998103 0.0615652 0
    outer loop
      vertex 3.96968 0.491552 1.5
      vertex 4 0 13.5
      vertex 4 0 1.5
    endloop
  endfacet
  facet normal 0.952942 0.303153 0
    outer loop
      vertex 3.87919 0.975655 13.5
      vertex 3.72989 1.44497 1.5
      vertex 3.72989 1.44497 13.5
    endloop
  endfacet
  facet normal 0.952942 0.303153 0
    outer loop
      vertex 3.72989 1.44497 1.5
      vertex 3.87919 0.975655 13.5
      vertex 3.87919 0.975655 1.5
    endloop
  endfacet
  facet normal 0.850223 -0.526422 0
    outer loop
      vertex 3.26479 -2.3111 13.5
      vertex 3.52405 -1.89237 1.5
      vertex 3.52405 -1.89237 13.5
    endloop
  endfacet
  facet normal 0.850223 -0.526422 0
    outer loop
      vertex 3.52405 -1.89237 1.5
      vertex 3.26479 -2.3111 13.5
      vertex 3.26479 -2.3111 1.5
    endloop
  endfacet
  facet normal 0.389798 0.9209 -0
    outer loop
      vertex 1.78295 3.58065 1.5
      vertex 1.32942 3.77262 13.5
      vertex 1.78295 3.58065 13.5
    endloop
  endfacet
  facet normal 0.389798 0.9209 0
    outer loop
      vertex 1.32942 3.77262 13.5
      vertex 1.78295 3.58065 1.5
      vertex 1.32942 3.77262 1.5
    endloop
  endfacet
  facet normal 0.982975 -0.183741 0
    outer loop
      vertex 3.87919 -0.975655 13.5
      vertex 3.96968 -0.491552 1.5
      vertex 3.96968 -0.491552 13.5
    endloop
  endfacet
  facet normal 0.982975 -0.183741 0
    outer loop
      vertex 3.96968 -0.491552 1.5
      vertex 3.87919 -0.975655 13.5
      vertex 3.87919 -0.975655 1.5
    endloop
  endfacet
  facet normal 0.998103 -0.0615652 0
    outer loop
      vertex 3.96968 -0.491552 13.5
      vertex 4 0 1.5
      vertex 4 0 13.5
    endloop
  endfacet
  facet normal 0.998103 -0.0615652 0
    outer loop
      vertex 4 0 1.5
      vertex 3.96968 -0.491552 13.5
      vertex 3.96968 -0.491552 1.5
    endloop
  endfacet
  facet normal 0.908463 0.417966 0
    outer loop
      vertex 3.72989 1.44497 13.5
      vertex 3.52405 1.89237 1.5
      vertex 3.52405 1.89237 13.5
    endloop
  endfacet
  facet normal 0.908463 0.417966 0
    outer loop
      vertex 3.52405 1.89237 1.5
      vertex 3.72989 1.44497 13.5
      vertex 3.72989 1.44497 1.5
    endloop
  endfacet
  facet normal -0.213935 0.976848 0
    outer loop
      vertex -0.613566 3.95266 1.5
      vertex -1.09465 3.8473 13.5
      vertex -0.613566 3.95266 13.5
    endloop
  endfacet
  facet normal -0.213935 0.976848 0
    outer loop
      vertex -1.09465 3.8473 13.5
      vertex -0.613566 3.95266 1.5
      vertex -1.09465 3.8473 1.5
    endloop
  endfacet
  facet normal -0.0922663 -0.995734 0
    outer loop
      vertex -0.613566 -3.95266 1.5
      vertex -0.123179 -3.9981 13.5
      vertex -0.613566 -3.95266 13.5
    endloop
  endfacet
  facet normal -0.0922663 -0.995734 -0
    outer loop
      vertex -0.123179 -3.9981 13.5
      vertex -0.613566 -3.95266 1.5
      vertex -0.123179 -3.9981 1.5
    endloop
  endfacet
  facet normal 0.908463 -0.417966 0
    outer loop
      vertex 3.52405 -1.89237 13.5
      vertex 3.72989 -1.44497 1.5
      vertex 3.72989 -1.44497 13.5
    endloop
  endfacet
  facet normal 0.908463 -0.417966 0
    outer loop
      vertex 3.72989 -1.44497 1.5
      vertex 3.52405 -1.89237 13.5
      vertex 3.52405 -1.89237 1.5
    endloop
  endfacet
  facet normal -0.739013 0.673691 0
    outer loop
      vertex -3.11632 2.5077 1.5
      vertex -2.78454 2.87165 13.5
      vertex -2.78454 2.87165 1.5
    endloop
  endfacet
  facet normal -0.739013 0.673691 0
    outer loop
      vertex -2.78454 2.87165 13.5
      vertex -3.11632 2.5077 1.5
      vertex -3.11632 2.5077 13.5
    endloop
  endfacet
  facet normal -0.816196 0.577776 0
    outer loop
      vertex -3.40087 2.10573 1.5
      vertex -3.11632 2.5077 13.5
      vertex -3.11632 2.5077 1.5
    endloop
  endfacet
  facet normal -0.816196 0.577776 0
    outer loop
      vertex -3.11632 2.5077 13.5
      vertex -3.40087 2.10573 1.5
      vertex -3.40087 2.10573 13.5
    endloop
  endfacet
  facet normal -0.55236 -0.833606 0
    outer loop
      vertex -2.41054 -3.19207 1.5
      vertex -2 -3.4641 13.5
      vertex -2.41054 -3.19207 13.5
    endloop
  endfacet
  facet normal -0.55236 -0.833606 -0
    outer loop
      vertex -2 -3.4641 13.5
      vertex -2.41054 -3.19207 1.5
      vertex -2 -3.4641 1.5
    endloop
  endfacet
  facet normal 0.602638 0.798015 -0
    outer loop
      vertex 2.60247 3.03762 1.5
      vertex 2.20946 3.33441 13.5
      vertex 2.60247 3.03762 13.5
    endloop
  endfacet
  facet normal 0.602638 0.798015 0
    outer loop
      vertex 2.20946 3.33441 13.5
      vertex 2.60247 3.03762 1.5
      vertex 2.20946 3.33441 1.5
    endloop
  endfacet
  facet normal 0.273652 -0.961829 0
    outer loop
      vertex 0.855732 -3.90739 1.5
      vertex 1.32942 -3.77262 13.5
      vertex 0.855732 -3.90739 13.5
    endloop
  endfacet
  facet normal 0.273652 -0.961829 0
    outer loop
      vertex 1.32942 -3.77262 13.5
      vertex 0.855732 -3.90739 1.5
      vertex 1.32942 -3.77262 1.5
    endloop
  endfacet
  facet normal 0.273652 0.961829 -0
    outer loop
      vertex 1.32942 3.77262 1.5
      vertex 0.855732 3.90739 13.5
      vertex 1.32942 3.77262 13.5
    endloop
  endfacet
  facet normal 0.273652 0.961829 0
    outer loop
      vertex 0.855732 3.90739 13.5
      vertex 1.32942 3.77262 1.5
      vertex 0.855732 3.90739 1.5
    endloop
  endfacet
  facet normal -0.445735 0.895165 0
    outer loop
      vertex -1.55914 3.68362 1.5
      vertex -2 3.4641 13.5
      vertex -1.55914 3.68362 13.5
    endloop
  endfacet
  facet normal -0.445735 0.895165 0
    outer loop
      vertex -2 3.4641 13.5
      vertex -1.55914 3.68362 1.5
      vertex -2 3.4641 1.5
    endloop
  endfacet
  facet normal 0.850223 0.526422 0
    outer loop
      vertex 3.52405 1.89237 13.5
      vertex 3.26479 2.3111 1.5
      vertex 3.26479 2.3111 13.5
    endloop
  endfacet
  facet normal 0.850223 0.526422 0
    outer loop
      vertex 3.26479 2.3111 1.5
      vertex 3.52405 1.89237 13.5
      vertex 3.52405 1.89237 1.5
    endloop
  endfacet
  facet normal 0.153405 -0.988163 0
    outer loop
      vertex 0.369073 -3.98294 1.5
      vertex 0.855732 -3.90739 13.5
      vertex 0.369073 -3.98294 13.5
    endloop
  endfacet
  facet normal 0.153405 -0.988163 0
    outer loop
      vertex 0.855732 -3.90739 13.5
      vertex 0.369073 -3.98294 1.5
      vertex 0.855732 -3.90739 1.5
    endloop
  endfacet
  facet normal -0.213935 -0.976848 0
    outer loop
      vertex -1.09465 -3.8473 1.5
      vertex -0.613566 -3.95266 13.5
      vertex -1.09465 -3.8473 13.5
    endloop
  endfacet
  facet normal -0.213935 -0.976848 -0
    outer loop
      vertex -0.613566 -3.95266 13.5
      vertex -1.09465 -3.8473 1.5
      vertex -0.613566 -3.95266 1.5
    endloop
  endfacet
  facet normal 0.696129 0.717916 -0
    outer loop
      vertex 2.95604 2.69478 1.5
      vertex 2.60247 3.03762 13.5
      vertex 2.95604 2.69478 13.5
    endloop
  endfacet
  facet normal 0.696129 0.717916 0
    outer loop
      vertex 2.60247 3.03762 13.5
      vertex 2.95604 2.69478 1.5
      vertex 2.60247 3.03762 1.5
    endloop
  endfacet
  facet normal 0.602638 -0.798015 0
    outer loop
      vertex 2.20946 -3.33441 1.5
      vertex 2.60247 -3.03762 13.5
      vertex 2.20946 -3.33441 13.5
    endloop
  endfacet
  facet normal 0.602638 -0.798015 0
    outer loop
      vertex 2.60247 -3.03762 13.5
      vertex 2.20946 -3.33441 1.5
      vertex 2.60247 -3.03762 1.5
    endloop
  endfacet
  facet normal 0.779077 0.626929 0
    outer loop
      vertex 3.26479 2.3111 13.5
      vertex 2.95604 2.69478 1.5
      vertex 2.95604 2.69478 13.5
    endloop
  endfacet
  facet normal 0.779077 0.626929 0
    outer loop
      vertex 2.95604 2.69478 1.5
      vertex 3.26479 2.3111 13.5
      vertex 3.26479 2.3111 1.5
    endloop
  endfacet
  facet normal -0.969799 -0.243906 0
    outer loop
      vertex -3.81177 -1.21261 1.5
      vertex -3.93189 -0.734998 13.5
      vertex -3.93189 -0.734998 1.5
    endloop
  endfacet
  facet normal -0.969799 -0.243906 0
    outer loop
      vertex -3.93189 -0.734998 13.5
      vertex -3.81177 -1.21261 1.5
      vertex -3.81177 -1.21261 13.5
    endloop
  endfacet
  facet normal 0.779077 -0.626929 0
    outer loop
      vertex 2.95604 -2.69478 13.5
      vertex 3.26479 -2.3111 1.5
      vertex 3.26479 -2.3111 13.5
    endloop
  endfacet
  facet normal 0.779077 -0.626929 0
    outer loop
      vertex 3.26479 -2.3111 1.5
      vertex 2.95604 -2.69478 13.5
      vertex 2.95604 -2.69478 1.5
    endloop
  endfacet
  facet normal -0.650614 0.759409 0
    outer loop
      vertex -2.41054 3.19207 1.5
      vertex -2.78454 2.87165 13.5
      vertex -2.41054 3.19207 13.5
    endloop
  endfacet
  facet normal -0.650614 0.759409 0
    outer loop
      vertex -2.78454 2.87165 13.5
      vertex -2.41054 3.19207 1.5
      vertex -2.78454 2.87165 1.5
    endloop
  endfacet
  facet normal -0.881016 0.473087 0
    outer loop
      vertex -3.63386 1.67184 1.5
      vertex -3.40087 2.10573 13.5
      vertex -3.40087 2.10573 1.5
    endloop
  endfacet
  facet normal -0.881016 0.473087 0
    outer loop
      vertex -3.40087 2.10573 13.5
      vertex -3.63386 1.67184 1.5
      vertex -3.63386 1.67184 13.5
    endloop
  endfacet
  facet normal 0.499991 0.86603 -0
    outer loop
      vertex 2.20946 3.33441 1.5
      vertex 1.78295 3.58065 13.5
      vertex 2.20946 3.33441 13.5
    endloop
  endfacet
  facet normal 0.499991 0.86603 0
    outer loop
      vertex 1.78295 3.58065 13.5
      vertex 2.20946 3.33441 1.5
      vertex 1.78295 3.58065 1.5
    endloop
  endfacet
  facet normal -0.332355 0.943154 0
    outer loop
      vertex -1.09465 3.8473 1.5
      vertex -1.55914 3.68362 13.5
      vertex -1.09465 3.8473 13.5
    endloop
  endfacet
  facet normal -0.332355 0.943154 0
    outer loop
      vertex -1.55914 3.68362 13.5
      vertex -1.09465 3.8473 1.5
      vertex -1.55914 3.68362 1.5
    endloop
  endfacet
  facet normal -0.650614 -0.759409 0
    outer loop
      vertex -2.78454 -2.87165 1.5
      vertex -2.41054 -3.19207 13.5
      vertex -2.78454 -2.87165 13.5
    endloop
  endfacet
  facet normal -0.650614 -0.759409 -0
    outer loop
      vertex -2.41054 -3.19207 13.5
      vertex -2.78454 -2.87165 1.5
      vertex -2.41054 -3.19207 1.5
    endloop
  endfacet
  facet normal 0.389798 -0.9209 0
    outer loop
      vertex 1.32942 -3.77262 1.5
      vertex 1.78295 -3.58065 13.5
      vertex 1.32942 -3.77262 13.5
    endloop
  endfacet
  facet normal 0.389798 -0.9209 0
    outer loop
      vertex 1.78295 -3.58065 13.5
      vertex 1.32942 -3.77262 1.5
      vertex 1.78295 -3.58065 1.5
    endloop
  endfacet
  facet normal -0.445735 -0.895165 0
    outer loop
      vertex -2 -3.4641 1.5
      vertex -1.55914 -3.68362 13.5
      vertex -2 -3.4641 13.5
    endloop
  endfacet
  facet normal -0.445735 -0.895165 -0
    outer loop
      vertex -1.55914 -3.68362 13.5
      vertex -2 -3.4641 1.5
      vertex -1.55914 -3.68362 1.5
    endloop
  endfacet
  facet normal 0.0307826 0.999526 -0
    outer loop
      vertex 0.369073 3.98294 1.5
      vertex -0.123179 3.9981 13.5
      vertex 0.369073 3.98294 13.5
    endloop
  endfacet
  facet normal 0.0307826 0.999526 0
    outer loop
      vertex -0.123179 3.9981 13.5
      vertex 0.369073 3.98294 1.5
      vertex -0.123179 3.9981 1.5
    endloop
  endfacet
  facet normal -0.992421 -0.122886 0
    outer loop
      vertex -3.93189 -0.734998 1.5
      vertex -3.99241 -0.246243 13.5
      vertex -3.99241 -0.246243 1.5
    endloop
  endfacet
  facet normal -0.992421 -0.122886 0
    outer loop
      vertex -3.99241 -0.246243 13.5
      vertex -3.93189 -0.734998 1.5
      vertex -3.93189 -0.734998 13.5
    endloop
  endfacet
  facet normal 0.952942 -0.303153 0
    outer loop
      vertex 3.72989 -1.44497 13.5
      vertex 3.87919 -0.975655 1.5
      vertex 3.87919 -0.975655 13.5
    endloop
  endfacet
  facet normal 0.952942 -0.303153 0
    outer loop
      vertex 3.87919 -0.975655 1.5
      vertex 3.72989 -1.44497 13.5
      vertex 3.72989 -1.44497 1.5
    endloop
  endfacet
  facet normal 0 0 1
    outer loop
      vertex 2 0 13.5
      vertex 4 0 13.5
      vertex 3.96968 0.491552 13.5
    endloop
  endfacet
  facet normal 0 0 1
    outer loop
      vertex 1.94188 0.478631 13.5
      vertex 3.96968 0.491552 13.5
      vertex 3.87919 0.975655 13.5
    endloop
  endfacet
  facet normal 0 0 1
    outer loop
      vertex 4 0 13.5
      vertex 2 0 13.5
      vertex 3.96968 -0.491552 13.5
    endloop
  endfacet
  facet normal 0 0 1
    outer loop
      vertex 1.94188 0.478631 13.5
      vertex 3.87919 0.975655 13.5
      vertex 3.72989 1.44497 13.5
    endloop
  endfacet
  facet normal -0 0 1
    outer loop
      vertex 1.94188 -0.478631 13.5
      vertex 3.96968 -0.491552 13.5
      vertex 2 0 13.5
    endloop
  endfacet
  facet normal 0 0 1
    outer loop
      vertex 1.77091 0.929446 13.5
      vertex 3.72989 1.44497 13.5
      vertex 3.52405 1.89237 13.5
    endloop
  endfacet
  facet normal 0 0 1
    outer loop
      vertex 3.96968 -0.491552 13.5
      vertex 1.94188 -0.478631 13.5
      vertex 3.87919 -0.975655 13.5
    endloop
  endfacet
  facet normal 0 0 1
    outer loop
      vertex 1.77091 0.929446 13.5
      vertex 3.52405 1.89237 13.5
      vertex 3.26479 2.3111 13.5
    endloop
  endfacet
  facet normal 0 0 1
    outer loop
      vertex 3.87919 -0.975655 13.5
      vertex 1.94188 -0.478631 13.5
      vertex 3.72989 -1.44497 13.5
    endloop
  endfacet
  facet normal 0 0 1
    outer loop
      vertex 1.49702 1.32625 13.5
      vertex 3.26479 2.3111 13.5
      vertex 2.95604 2.69478 13.5
    endloop
  endfacet
  facet normal -0 0 1
    outer loop
      vertex 1.77091 -0.929446 13.5
      vertex 3.72989 -1.44497 13.5
      vertex 1.94188 -0.478631 13.5
    endloop
  endfacet
  facet normal 0 0 1
    outer loop
      vertex 1.49702 1.32625 13.5
      vertex 2.95604 2.69478 13.5
      vertex 2.60247 3.03762 13.5
    endloop
  endfacet
  facet normal 0 0 1
    outer loop
      vertex 3.72989 -1.44497 13.5
      vertex 1.77091 -0.929446 13.5
      vertex 3.52405 -1.89237 13.5
    endloop
  endfacet
  facet normal 0 0 1
    outer loop
      vertex 1.13613 1.64597 13.5
      vertex 2.60247 3.03762 13.5
      vertex 2.20946 3.33441 13.5
    endloop
  endfacet
  facet normal 0 0 1
    outer loop
      vertex 3.52405 -1.89237 13.5
      vertex 1.77091 -0.929446 13.5
      vertex 3.26479 -2.3111 13.5
    endloop
  endfacet
  facet normal -0 0 1
    outer loop
      vertex 1.49702 -1.32625 13.5
      vertex 3.26479 -2.3111 13.5
      vertex 1.77091 -0.929446 13.5
    endloop
  endfacet
  facet normal 0 0 1
    outer loop
      vertex 3.96968 0.491552 13.5
      vertex 1.94188 0.478631 13.5
      vertex 2 0 13.5
    endloop
  endfacet
  facet normal 0 0 1
    outer loop
      vertex 1.13613 1.64597 13.5
      vertex 2.20946 3.33441 13.5
      vertex 1.78295 3.58065 13.5
    endloop
  endfacet
  facet normal 0 0 1
    outer loop
      vertex 3.72989 1.44497 13.5
      vertex 1.77091 0.929446 13.5
      vertex 1.94188 0.478631 13.5
    endloop
  endfacet
  facet normal 0 0 1
    outer loop
      vertex 3.26479 2.3111 13.5
      vertex 1.49702 1.32625 13.5
      vertex 1.77091 0.929446 13.5
    endloop
  endfacet
  facet normal 0 0 1
    outer loop
      vertex 0.709209 1.87003 13.5
      vertex 1.78295 3.58065 13.5
      vertex 1.32942 3.77262 13.5
    endloop
  endfacet
  facet normal 0 0 1
    outer loop
      vertex 2.60247 3.03762 13.5
      vertex 1.13613 1.64597 13.5
      vertex 1.49702 1.32625 13.5
    endloop
  endfacet
  facet normal 0 0 1
    outer loop
      vertex 0.709209 1.87003 13.5
      vertex 1.32942 3.77262 13.5
      vertex 0.855732 3.90739 13.5
    endloop
  endfacet
  facet normal 0 0 1
    outer loop
      vertex 1.78295 3.58065 13.5
      vertex 0.709209 1.87003 13.5
      vertex 1.13613 1.64597 13.5
    endloop
  endfacet
  facet normal 0 0 1
    outer loop
      vertex 0.241073 1.98542 13.5
      vertex 0.855732 3.90739 13.5
      vertex 0.369073 3.98294 13.5
    endloop
  endfacet
  facet normal 0 0 1
    outer loop
      vertex 0.855732 3.90739 13.5
      vertex 0.241073 1.98542 13.5
      vertex 0.709209 1.87003 13.5
    endloop
  endfacet
  facet normal 0 0 1
    outer loop
      vertex -0.123179 3.9981 13.5
      vertex 0.241073 1.98542 13.5
      vertex 0.369073 3.98294 13.5
    endloop
  endfacet
  facet normal 0 0 1
    outer loop
      vertex -0.123179 3.9981 13.5
      vertex -0.241073 1.98542 13.5
      vertex 0.241073 1.98542 13.5
    endloop
  endfacet
  facet normal -0 0 1
    outer loop
      vertex -0.613566 3.95266 13.5
      vertex -0.241073 1.98542 13.5
      vertex -0.123179 3.9981 13.5
    endloop
  endfacet
  facet normal -0 0 1
    outer loop
      vertex -1.09465 3.8473 13.5
      vertex -0.241073 1.98542 13.5
      vertex -0.613566 3.95266 13.5
    endloop
  endfacet
  facet normal 0 0 1
    outer loop
      vertex -0.241073 1.98542 13.5
      vertex -1.09465 3.8473 13.5
      vertex -0.709209 1.87003 13.5
    endloop
  endfacet
  facet normal -0 0 1
    outer loop
      vertex -1.55914 3.68362 13.5
      vertex -0.709209 1.87003 13.5
      vertex -1.09465 3.8473 13.5
    endloop
  endfacet
  facet normal -0 0 1
    outer loop
      vertex -2 3.4641 13.5
      vertex -0.709209 1.87003 13.5
      vertex -1.55914 3.68362 13.5
    endloop
  endfacet
  facet normal 0 0 1
    outer loop
      vertex -0.709209 1.87003 13.5
      vertex -2 3.4641 13.5
      vertex -1.13613 1.64597 13.5
    endloop
  endfacet
  facet normal -0 0 1
    outer loop
      vertex -2.41054 3.19207 13.5
      vertex -1.13613 1.64597 13.5
      vertex -2 3.4641 13.5
    endloop
  endfacet
  facet normal -0 0 1
    outer loop
      vertex -2.78454 2.87165 13.5
      vertex -1.13613 1.64597 13.5
      vertex -2.41054 3.19207 13.5
    endloop
  endfacet
  facet normal 0 0 1
    outer loop
      vertex -1.13613 1.64597 13.5
      vertex -2.78454 2.87165 13.5
      vertex -1.49702 1.32625 13.5
    endloop
  endfacet
  facet normal -0 0 1
    outer loop
      vertex -3.11632 2.5077 13.5
      vertex -1.49702 1.32625 13.5
      vertex -2.78454 2.87165 13.5
    endloop
  endfacet
  facet normal -0 0 1
    outer loop
      vertex -3.40087 2.10573 13.5
      vertex -1.49702 1.32625 13.5
      vertex -3.11632 2.5077 13.5
    endloop
  endfacet
  facet normal 0 0 1
    outer loop
      vertex -1.49702 1.32625 13.5
      vertex -3.40087 2.10573 13.5
      vertex -1.77091 0.929446 13.5
    endloop
  endfacet
  facet normal 0 0 1
    outer loop
      vertex -2 0 13.5
      vertex -2.41054 -3.19207 13.5
      vertex -2 -3.4641 13.5
    endloop
  endfacet
  facet normal -0 0 1
    outer loop
      vertex -3.63386 1.67184 13.5
      vertex -1.77091 0.929446 13.5
      vertex -3.40087 2.10573 13.5
    endloop
  endfacet
  facet normal 0 0 1
    outer loop
      vertex -2 0 13.5
      vertex -2.78454 -2.87165 13.5
      vertex -2.41054 -3.19207 13.5
    endloop
  endfacet
  facet normal -0 0 1
    outer loop
      vertex -3.81177 1.21261 13.5
      vertex -1.77091 0.929446 13.5
      vertex -3.63386 1.67184 13.5
    endloop
  endfacet
  facet normal 0 0 1
    outer loop
      vertex -2 0 13.5
      vertex -3.11632 -2.5077 13.5
      vertex -2.78454 -2.87165 13.5
    endloop
  endfacet
  facet normal 0 0 1
    outer loop
      vertex -1.77091 0.929446 13.5
      vertex -3.81177 1.21261 13.5
      vertex -1.94188 0.478631 13.5
    endloop
  endfacet
  facet normal 0 0 1
    outer loop
      vertex -2 0 13.5
      vertex -3.40087 -2.10573 13.5
      vertex -3.11632 -2.5077 13.5
    endloop
  endfacet
  facet normal -0 0 1
    outer loop
      vertex -3.93189 0.734998 13.5
      vertex -1.94188 0.478631 13.5
      vertex -3.81177 1.21261 13.5
    endloop
  endfacet
  facet normal 0 0 1
    outer loop
      vertex -2 0 13.5
      vertex -3.63386 -1.67184 13.5
      vertex -3.40087 -2.10573 13.5
    endloop
  endfacet
  facet normal 0 0 1
    outer loop
      vertex -1.94188 0.478631 13.5
      vertex -3.93189 0.734998 13.5
      vertex -2 0 13.5
    endloop
  endfacet
  facet normal 0 0 1
    outer loop
      vertex -2 0 13.5
      vertex -3.81177 -1.21261 13.5
      vertex -3.63386 -1.67184 13.5
    endloop
  endfacet
  facet normal -0 0 1
    outer loop
      vertex -3.99241 0.246243 13.5
      vertex -2 0 13.5
      vertex -3.93189 0.734998 13.5
    endloop
  endfacet
  facet normal 0 0 1
    outer loop
      vertex -2 0 13.5
      vertex -3.93189 -0.734998 13.5
      vertex -3.81177 -1.21261 13.5
    endloop
  endfacet
  facet normal 0 0 1
    outer loop
      vertex -3.99241 -0.246243 13.5
      vertex -2 0 13.5
      vertex -3.99241 0.246243 13.5
    endloop
  endfacet
  facet normal 0 0 1
    outer loop
      vertex -2 0 13.5
      vertex -3.99241 -0.246243 13.5
      vertex -3.93189 -0.734998 13.5
    endloop
  endfacet
  facet normal 0 0 1
    outer loop
      vertex 3.26479 -2.3111 13.5
      vertex 1.49702 -1.32625 13.5
      vertex 2.95604 -2.69478 13.5
    endloop
  endfacet
  facet normal 0 0 1
    outer loop
      vertex 2.95604 -2.69478 13.5
      vertex 1.49702 -1.32625 13.5
      vertex 2.60247 -3.03762 13.5
    endloop
  endfacet
  facet normal -0 0 1
    outer loop
      vertex 1.13613 -1.64597 13.5
      vertex 2.60247 -3.03762 13.5
      vertex 1.49702 -1.32625 13.5
    endloop
  endfacet
  facet normal 0 0 1
    outer loop
      vertex 2.60247 -3.03762 13.5
      vertex 1.13613 -1.64597 13.5
      vertex 2.20946 -3.33441 13.5
    endloop
  endfacet
  facet normal 0 0 1
    outer loop
      vertex 2.20946 -3.33441 13.5
      vertex 1.13613 -1.64597 13.5
      vertex 1.78295 -3.58065 13.5
    endloop
  endfacet
  facet normal -0 0 1
    outer loop
      vertex 0.709209 -1.87003 13.5
      vertex 1.78295 -3.58065 13.5
      vertex 1.13613 -1.64597 13.5
    endloop
  endfacet
  facet normal 0 0 1
    outer loop
      vertex 1.78295 -3.58065 13.5
      vertex 0.709209 -1.87003 13.5
      vertex 1.32942 -3.77262 13.5
    endloop
  endfacet
  facet normal 0 0 1
    outer loop
      vertex 1.32942 -3.77262 13.5
      vertex 0.709209 -1.87003 13.5
      vertex 0.855732 -3.90739 13.5
    endloop
  endfacet
  facet normal -0 0 1
    outer loop
      vertex 0.241073 -1.98542 13.5
      vertex 0.855732 -3.90739 13.5
      vertex 0.709209 -1.87003 13.5
    endloop
  endfacet
  facet normal 0 0 1
    outer loop
      vertex 0.855732 -3.90739 13.5
      vertex 0.241073 -1.98542 13.5
      vertex 0.369073 -3.98294 13.5
    endloop
  endfacet
  facet normal 0 0 1
    outer loop
      vertex 0.241073 -1.98542 13.5
      vertex -0.123179 -3.9981 13.5
      vertex 0.369073 -3.98294 13.5
    endloop
  endfacet
  facet normal -0 0 1
    outer loop
      vertex -0.241073 -1.98542 13.5
      vertex -0.123179 -3.9981 13.5
      vertex 0.241073 -1.98542 13.5
    endloop
  endfacet
  facet normal 0 0 1
    outer loop
      vertex -0.241073 -1.98542 13.5
      vertex -0.613566 -3.95266 13.5
      vertex -0.123179 -3.9981 13.5
    endloop
  endfacet
  facet normal 0 0 1
    outer loop
      vertex -1.09465 -3.8473 13.5
      vertex -0.241073 -1.98542 13.5
      vertex -0.709209 -1.87003 13.5
    endloop
  endfacet
  facet normal 0 0 1
    outer loop
      vertex -0.241073 -1.98542 13.5
      vertex -1.09465 -3.8473 13.5
      vertex -0.613566 -3.95266 13.5
    endloop
  endfacet
  facet normal 0 0 1
    outer loop
      vertex -2 -3.4641 13.5
      vertex -0.709209 -1.87003 13.5
      vertex -1.13613 -1.64597 13.5
    endloop
  endfacet
  facet normal 0 0 1
    outer loop
      vertex -2 -3.4641 13.5
      vertex -1.13613 -1.64597 13.5
      vertex -1.49702 -1.32625 13.5
    endloop
  endfacet
  facet normal 0 0 1
    outer loop
      vertex -0.709209 -1.87003 13.5
      vertex -1.55914 -3.68362 13.5
      vertex -1.09465 -3.8473 13.5
    endloop
  endfacet
  facet normal 0 0 1
    outer loop
      vertex -2 -3.4641 13.5
      vertex -1.49702 -1.32625 13.5
      vertex -1.77091 -0.929446 13.5
    endloop
  endfacet
  facet normal 0 0 1
    outer loop
      vertex -2 -3.4641 13.5
      vertex -1.77091 -0.929446 13.5
      vertex -1.94188 -0.478631 13.5
    endloop
  endfacet
  facet normal 0 0 1
    outer loop
      vertex -2 -3.4641 13.5
      vertex -1.94188 -0.478631 13.5
      vertex -2 0 13.5
    endloop
  endfacet
  facet normal 0 0 1
    outer loop
      vertex -0.709209 -1.87003 13.5
      vertex -2 -3.4641 13.5
      vertex -1.55914 -3.68362 13.5
    endloop
  endfacet
  facet normal -0.881016 -0.473087 0
    outer loop
      vertex -3.40087 -2.10573 1.5
      vertex -3.63386 -1.67184 13.5
      vertex -3.63386 -1.67184 1.5
    endloop
  endfacet
  facet normal -0.881016 -0.473087 0
    outer loop
      vertex -3.63386 -1.67184 13.5
      vertex -3.40087 -2.10573 1.5
      vertex -3.40087 -2.10573 13.5
    endloop
  endfacet
  facet normal -0.969799 0.243906 0
    outer loop
      vertex -3.93189 0.734998 1.5
      vertex -3.81177 1.21261 13.5
      vertex -3.81177 1.21261 1.5
    endloop
  endfacet
  facet normal -0.969799 0.243906 0
    outer loop
      vertex -3.81177 1.21261 13.5
      vertex -3.93189 0.734998 1.5
      vertex -3.93189 0.734998 13.5
    endloop
  endfacet
  facet normal 0.696129 -0.717916 0
    outer loop
      vertex 2.60247 -3.03762 1.5
      vertex 2.95604 -2.69478 13.5
      vertex 2.60247 -3.03762 13.5
    endloop
  endfacet
  facet normal 0.696129 -0.717916 0
    outer loop
      vertex 2.95604 -2.69478 13.5
      vertex 2.60247 -3.03762 1.5
      vertex 2.95604 -2.69478 1.5
    endloop
  endfacet
  facet normal -0.739013 -0.673691 0
    outer loop
      vertex -2.78454 -2.87165 1.5
      vertex -3.11632 -2.5077 13.5
      vertex -3.11632 -2.5077 1.5
    endloop
  endfacet
  facet normal -0.739013 -0.673691 0
    outer loop
      vertex -3.11632 -2.5077 13.5
      vertex -2.78454 -2.87165 1.5
      vertex -2.78454 -2.87165 13.5
    endloop
  endfacet
  facet normal 0.153405 0.988163 -0
    outer loop
      vertex 0.855732 3.90739 1.5
      vertex 0.369073 3.98294 13.5
      vertex 0.855732 3.90739 13.5
    endloop
  endfacet
  facet normal 0.153405 0.988163 0
    outer loop
      vertex 0.369073 3.98294 13.5
      vertex 0.855732 3.90739 1.5
      vertex 0.369073 3.98294 1.5
    endloop
  endfacet
  facet normal -0.93247 -0.361248 0
    outer loop
      vertex -3.63386 -1.67184 1.5
      vertex -3.81177 -1.21261 13.5
      vertex -3.81177 -1.21261 1.5
    endloop
  endfacet
  facet normal -0.93247 -0.361248 0
    outer loop
      vertex -3.81177 -1.21261 13.5
      vertex -3.63386 -1.67184 1.5
      vertex -3.63386 -1.67184 13.5
    endloop
  endfacet
  facet normal -0.816196 -0.577776 0
    outer loop
      vertex -3.11632 -2.5077 1.5
      vertex -3.40087 -2.10573 13.5
      vertex -3.40087 -2.10573 1.5
    endloop
  endfacet
  facet normal -0.816196 -0.577776 0
    outer loop
      vertex -3.40087 -2.10573 13.5
      vertex -3.11632 -2.5077 1.5
      vertex -3.11632 -2.5077 13.5
    endloop
  endfacet
  facet normal -0.332355 -0.943154 0
    outer loop
      vertex -1.55914 -3.68362 1.5
      vertex -1.09465 -3.8473 13.5
      vertex -1.55914 -3.68362 13.5
    endloop
  endfacet
  facet normal -0.332355 -0.943154 -0
    outer loop
      vertex -1.09465 -3.8473 13.5
      vertex -1.55914 -3.68362 1.5
      vertex -1.09465 -3.8473 1.5
    endloop
  endfacet
  facet normal 0.0307826 -0.999526 0
    outer loop
      vertex -0.123179 -3.9981 1.5
      vertex 0.369073 -3.98294 13.5
      vertex -0.123179 -3.9981 13.5
    endloop
  endfacet
  facet normal 0.0307826 -0.999526 0
    outer loop
      vertex 0.369073 -3.98294 13.5
      vertex -0.123179 -3.9981 1.5
      vertex 0.369073 -3.98294 1.5
    endloop
  endfacet
  facet normal -0.55236 0.833606 0
    outer loop
      vertex -2 3.4641 1.5
      vertex -2.41054 3.19207 13.5
      vertex -2 3.4641 13.5
    endloop
  endfacet
  facet normal -0.55236 0.833606 0
    outer loop
      vertex -2.41054 3.19207 13.5
      vertex -2 3.4641 1.5
      vertex -2.41054 3.19207 1.5
    endloop
  endfacet
  facet normal -0.992421 0.122886 0
    outer loop
      vertex -3.99241 0.246243 1.5
      vertex -3.93189 0.734998 13.5
      vertex -3.93189 0.734998 1.5
    endloop
  endfacet
  facet normal -0.992421 0.122886 0
    outer loop
      vertex -3.93189 0.734998 13.5
      vertex -3.99241 0.246243 1.5
      vertex -3.99241 0.246243 13.5
    endloop
  endfacet
  facet normal -0.0922663 0.995734 0
    outer loop
      vertex -0.123179 3.9981 1.5
      vertex -0.613566 3.95266 13.5
      vertex -0.123179 3.9981 13.5
    endloop
  endfacet
  facet normal -0.0922663 0.995734 0
    outer loop
      vertex -0.613566 3.95266 13.5
      vertex -0.123179 3.9981 1.5
      vertex -0.613566 3.95266 1.5
    endloop
  endfacet
  facet normal 0.499991 -0.86603 0
    outer loop
      vertex 1.78295 -3.58065 1.5
      vertex 2.20946 -3.33441 13.5
      vertex 1.78295 -3.58065 13.5
    endloop
  endfacet
  facet normal 0.499991 -0.86603 0
    outer loop
      vertex 2.20946 -3.33441 13.5
      vertex 1.78295 -3.58065 1.5
      vertex 2.20946 -3.33441 1.5
    endloop
  endfacet
  facet normal -1 0 0
    outer loop
      vertex -3.99241 -0.246243 1.5
      vertex -3.99241 0.246243 13.5
      vertex -3.99241 0.246243 1.5
    endloop
  endfacet
  facet normal -1 -0 0
    outer loop
      vertex -3.99241 0.246243 13.5
      vertex -3.99241 -0.246243 1.5
      vertex -3.99241 -0.246243 13.5
    endloop
  endfacet
  facet normal -0.93247 0.361248 0
    outer loop
      vertex -3.81177 1.21261 1.5
      vertex -3.63386 1.67184 13.5
      vertex -3.63386 1.67184 1.5
    endloop
  endfacet
  facet normal -0.93247 0.361248 0
    outer loop
      vertex -3.63386 1.67184 13.5
      vertex -3.81177 1.21261 1.5
      vertex -3.81177 1.21261 13.5
    endloop
  endfacet
  facet normal 0.935017 -0.354602 0
    outer loop
      vertex -1.94188 0.478631 2.53491
      vertex -1.77091 0.929446 13.5
      vertex -1.94188 0.478631 13.5
    endloop
  endfacet
  facet normal 0.935017 -0.354602 0
    outer loop
      vertex -1.77091 0.929446 13.5
      vertex -1.94188 0.478631 2.53491
      vertex -1.77091 0.929446 1.28462
    endloop
  endfacet
  facet normal 0 1 -0
    outer loop
      vertex 0.241073 -1.98542 1.49412
      vertex -0.241073 -1.98542 13.5
      vertex 0.241073 -1.98542 13.5
    endloop
  endfacet
  facet normal 0 1 0
    outer loop
      vertex -0.241073 -1.98542 13.5
      vertex 0.241073 -1.98542 1.49412
      vertex -0.241073 -1.98542 1.49412
    endloop
  endfacet
  facet normal -0.935017 -0.354602 0
    outer loop
      vertex 1.94188 0.478631 2.53491
      vertex 1.77091 0.929446 13.5
      vertex 1.77091 0.929446 1.28462
    endloop
  endfacet
  facet normal -0.935017 -0.354602 0
    outer loop
      vertex 1.77091 0.929446 13.5
      vertex 1.94188 0.478631 2.53491
      vertex 1.94188 0.478631 13.5
    endloop
  endfacet
  facet normal -0.239325 0.970939 0
    outer loop
      vertex 0.709209 -1.87003 3.35941
      vertex 0.241073 -1.98542 13.5
      vertex 0.709209 -1.87003 13.5
    endloop
  endfacet
  facet normal -0.239325 0.970939 0
    outer loop
      vertex 0.241073 -1.98542 13.5
      vertex 0.709209 -1.87003 3.35941
      vertex 0.241073 -1.98542 1.49412
    endloop
  endfacet
  facet normal 0.239325 -0.970939 0
    outer loop
      vertex -0.709209 1.87003 3.35941
      vertex -0.241073 1.98542 13.5
      vertex -0.709209 1.87003 13.5
    endloop
  endfacet
  facet normal 0.239325 -0.970939 0
    outer loop
      vertex -0.241073 1.98542 13.5
      vertex -0.709209 1.87003 3.35941
      vertex -0.241073 1.98542 1.49412
    endloop
  endfacet
  facet normal 0.239325 0.970939 0
    outer loop
      vertex -0.241073 -1.98542 13.5
      vertex -0.709209 -1.87003 3.35941
      vertex -0.709209 -1.87003 13.5
    endloop
  endfacet
  facet normal 0.239325 0.970939 0
    outer loop
      vertex -0.709209 -1.87003 3.35941
      vertex -0.241073 -1.98542 13.5
      vertex -0.241073 -1.98542 1.49412
    endloop
  endfacet
  facet normal -0.992708 0.120544 0
    outer loop
      vertex 1.94188 -0.478631 13.5
      vertex 2 0 5.59
      vertex 1.94188 -0.478631 2.53491
    endloop
  endfacet
  facet normal -0.992708 0.120544 0
    outer loop
      vertex 2 0 5.59
      vertex 1.94188 -0.478631 13.5
      vertex 2 0 13.5
    endloop
  endfacet
  facet normal -0.992708 -0.120544 0
    outer loop
      vertex 2 0 5.59
      vertex 1.94188 0.478631 13.5
      vertex 1.94188 0.478631 2.53491
    endloop
  endfacet
  facet normal -0.992708 -0.120544 0
    outer loop
      vertex 1.94188 0.478631 13.5
      vertex 2 0 5.59
      vertex 2 0 13.5
    endloop
  endfacet
  facet normal 0.992708 -0.120544 0
    outer loop
      vertex -2 0 5.59
      vertex -1.94188 0.478631 13.5
      vertex -2 0 13.5
    endloop
  endfacet
  facet normal 0.992708 -0.120544 0
    outer loop
      vertex -1.94188 0.478631 13.5
      vertex -2 0 5.59
      vertex -1.94188 0.478631 2.53491
    endloop
  endfacet
  facet normal 0.663122 0.748511 -0
    outer loop
      vertex -1.13613 -1.64597 4.37999
      vertex -1.49702 -1.32625 13.5
      vertex -1.13613 -1.64597 13.5
    endloop
  endfacet
  facet normal 0.663125 0.748509 1.94801e-07
    outer loop
      vertex -1.48565 -1.33632 1.98956
      vertex -1.49702 -1.32625 13.5
      vertex -1.13613 -1.64597 4.37999
    endloop
  endfacet
  facet normal 0.663014 0.748607 0
    outer loop
      vertex -1.49702 -1.32625 13.5
      vertex -1.48565 -1.33632 1.98956
      vertex -1.49702 -1.32625 1.91179
    endloop
  endfacet
  facet normal 0.992708 0.120544 0
    outer loop
      vertex -1.94188 -0.478631 13.5
      vertex -2 0 5.59
      vertex -2 0 13.5
    endloop
  endfacet
  facet normal 0.992708 0.120544 0
    outer loop
      vertex -2 0 5.59
      vertex -1.94188 -0.478631 13.5
      vertex -1.94188 -0.478631 2.53491
    endloop
  endfacet
  facet normal -0.663122 -0.748511 0
    outer loop
      vertex 1.13613 1.64597 4.37999
      vertex 1.49702 1.32625 13.5
      vertex 1.13613 1.64597 13.5
    endloop
  endfacet
  facet normal -0.663125 -0.748509 1.94801e-07
    outer loop
      vertex 1.48565 1.33632 1.98956
      vertex 1.49702 1.32625 13.5
      vertex 1.13613 1.64597 4.37999
    endloop
  endfacet
  facet normal -0.663014 -0.748607 -0
    outer loop
      vertex 1.49702 1.32625 13.5
      vertex 1.48565 1.33632 1.98956
      vertex 1.49702 1.32625 1.91179
    endloop
  endfacet
  facet normal -0.822988 -0.568059 -0
    outer loop
      vertex 1.77091 0.929446 13.5
      vertex 1.49702 1.32625 1.91179
      vertex 1.77091 0.929446 1.28462
    endloop
  endfacet
  facet normal -0.822988 -0.568059 0
    outer loop
      vertex 1.49702 1.32625 1.91179
      vertex 1.77091 0.929446 13.5
      vertex 1.49702 1.32625 13.5
    endloop
  endfacet
  facet normal -0.46477 0.885431 1.5513e-06
    outer loop
      vertex 0.972113 -1.73205 5.59
      vertex 1.13613 -1.64597 13.5
      vertex 1.01212 -1.71105 5.59
    endloop
  endfacet
  facet normal -0.464693 0.885472 0
    outer loop
      vertex 1.01212 -1.71105 5.59
      vertex 1.13613 -1.64597 13.5
      vertex 1.13613 -1.64597 4.37999
    endloop
  endfacet
  facet normal -0.464714 0.885461 7.58671e-08
    outer loop
      vertex 1.13613 -1.64597 13.5
      vertex 0.972113 -1.73205 5.59
      vertex 0.709209 -1.87003 13.5
    endloop
  endfacet
  facet normal -0.464716 0.88546 0
    outer loop
      vertex 0.709209 -1.87003 13.5
      vertex 0.972113 -1.73205 5.59
      vertex 0.709209 -1.87003 3.35941
    endloop
  endfacet
  facet normal 0.464714 0.885461 7.58671e-08
    outer loop
      vertex -0.709209 -1.87003 13.5
      vertex -0.972113 -1.73205 5.59
      vertex -1.13613 -1.64597 13.5
    endloop
  endfacet
  facet normal 0.464716 0.88546 0
    outer loop
      vertex -0.972113 -1.73205 5.59
      vertex -0.709209 -1.87003 13.5
      vertex -0.709209 -1.87003 3.35941
    endloop
  endfacet
  facet normal 0.46477 0.885431 1.5513e-06
    outer loop
      vertex -1.01212 -1.71105 5.59
      vertex -1.13613 -1.64597 13.5
      vertex -0.972113 -1.73205 5.59
    endloop
  endfacet
  facet normal 0.464693 0.885472 0
    outer loop
      vertex -1.13613 -1.64597 13.5
      vertex -1.01212 -1.71105 5.59
      vertex -1.13613 -1.64597 4.37999
    endloop
  endfacet
  facet normal -0.464714 -0.885461 7.58671e-08
    outer loop
      vertex 0.709209 1.87003 13.5
      vertex 0.972113 1.73205 5.59
      vertex 1.13613 1.64597 13.5
    endloop
  endfacet
  facet normal -0.464716 -0.88546 0
    outer loop
      vertex 0.972113 1.73205 5.59
      vertex 0.709209 1.87003 13.5
      vertex 0.709209 1.87003 3.35941
    endloop
  endfacet
  facet normal -0.46477 -0.885431 1.5513e-06
    outer loop
      vertex 1.01212 1.71105 5.59
      vertex 1.13613 1.64597 13.5
      vertex 0.972113 1.73205 5.59
    endloop
  endfacet
  facet normal -0.464693 -0.885472 -0
    outer loop
      vertex 1.13613 1.64597 13.5
      vertex 1.01212 1.71105 5.59
      vertex 1.13613 1.64597 4.37999
    endloop
  endfacet
  facet normal -0.239325 -0.970939 0
    outer loop
      vertex 0.241073 1.98542 13.5
      vertex 0.709209 1.87003 3.35941
      vertex 0.709209 1.87003 13.5
    endloop
  endfacet
  facet normal -0.239325 -0.970939 0
    outer loop
      vertex 0.709209 1.87003 3.35941
      vertex 0.241073 1.98542 13.5
      vertex 0.241073 1.98542 1.49412
    endloop
  endfacet
  facet normal -0.822988 0.568059 0
    outer loop
      vertex 1.49702 -1.32625 1.91179
      vertex 1.77091 -0.929446 13.5
      vertex 1.77091 -0.929446 1.28462
    endloop
  endfacet
  facet normal -0.822988 0.568059 0
    outer loop
      vertex 1.77091 -0.929446 13.5
      vertex 1.49702 -1.32625 1.91179
      vertex 1.49702 -1.32625 13.5
    endloop
  endfacet
  facet normal 0.822988 -0.568059 0
    outer loop
      vertex -1.77091 0.929446 13.5
      vertex -1.49702 1.32625 1.91179
      vertex -1.49702 1.32625 13.5
    endloop
  endfacet
  facet normal 0.822988 -0.568059 0
    outer loop
      vertex -1.49702 1.32625 1.91179
      vertex -1.77091 0.929446 13.5
      vertex -1.77091 0.929446 1.28462
    endloop
  endfacet
  facet normal 0.935017 0.354602 0
    outer loop
      vertex -1.77091 -0.929446 13.5
      vertex -1.94188 -0.478631 2.53491
      vertex -1.94188 -0.478631 13.5
    endloop
  endfacet
  facet normal 0.935017 0.354602 0
    outer loop
      vertex -1.94188 -0.478631 2.53491
      vertex -1.77091 -0.929446 13.5
      vertex -1.77091 -0.929446 1.28462
    endloop
  endfacet
  facet normal 0.822988 0.568059 -0
    outer loop
      vertex -1.49702 -1.32625 1.91179
      vertex -1.77091 -0.929446 13.5
      vertex -1.49702 -1.32625 13.5
    endloop
  endfacet
  facet normal 0.822988 0.568059 0
    outer loop
      vertex -1.77091 -0.929446 13.5
      vertex -1.49702 -1.32625 1.91179
      vertex -1.77091 -0.929446 1.28462
    endloop
  endfacet
  facet normal 0.663122 -0.748511 0
    outer loop
      vertex -1.49702 1.32625 13.5
      vertex -1.13613 1.64597 4.37999
      vertex -1.13613 1.64597 13.5
    endloop
  endfacet
  facet normal 0.663125 -0.748509 1.94801e-07
    outer loop
      vertex -1.49702 1.32625 13.5
      vertex -1.48565 1.33632 1.98956
      vertex -1.13613 1.64597 4.37999
    endloop
  endfacet
  facet normal 0.663014 -0.748607 0
    outer loop
      vertex -1.48565 1.33632 1.98956
      vertex -1.49702 1.32625 13.5
      vertex -1.49702 1.32625 1.91179
    endloop
  endfacet
  facet normal -0.663122 0.748511 0
    outer loop
      vertex 1.49702 -1.32625 13.5
      vertex 1.13613 -1.64597 4.37999
      vertex 1.13613 -1.64597 13.5
    endloop
  endfacet
  facet normal -0.663125 0.748509 1.94801e-07
    outer loop
      vertex 1.49702 -1.32625 13.5
      vertex 1.48565 -1.33632 1.98956
      vertex 1.13613 -1.64597 4.37999
    endloop
  endfacet
  facet normal -0.663014 0.748607 0
    outer loop
      vertex 1.48565 -1.33632 1.98956
      vertex 1.49702 -1.32625 13.5
      vertex 1.49702 -1.32625 1.91179
    endloop
  endfacet
  facet normal 0.46477 -0.885431 1.5513e-06
    outer loop
      vertex -0.972113 1.73205 5.59
      vertex -1.13613 1.64597 13.5
      vertex -1.01212 1.71105 5.59
    endloop
  endfacet
  facet normal 0.464693 -0.885472 0
    outer loop
      vertex -1.01212 1.71105 5.59
      vertex -1.13613 1.64597 13.5
      vertex -1.13613 1.64597 4.37999
    endloop
  endfacet
  facet normal 0.464714 -0.885461 7.58671e-08
    outer loop
      vertex -1.13613 1.64597 13.5
      vertex -0.972113 1.73205 5.59
      vertex -0.709209 1.87003 13.5
    endloop
  endfacet
  facet normal 0.464716 -0.88546 0
    outer loop
      vertex -0.709209 1.87003 13.5
      vertex -0.972113 1.73205 5.59
      vertex -0.709209 1.87003 3.35941
    endloop
  endfacet
  facet normal -0.935017 0.354602 0
    outer loop
      vertex 1.77091 -0.929446 13.5
      vertex 1.94188 -0.478631 2.53491
      vertex 1.77091 -0.929446 1.28462
    endloop
  endfacet
  facet normal -0.935017 0.354602 0
    outer loop
      vertex 1.94188 -0.478631 2.53491
      vertex 1.77091 -0.929446 13.5
      vertex 1.94188 -0.478631 13.5
    endloop
  endfacet
  facet normal 0 -1 0
    outer loop
      vertex -0.241073 1.98542 1.49412
      vertex 0.241073 1.98542 13.5
      vertex -0.241073 1.98542 13.5
    endloop
  endfacet
  facet normal 0 -1 -0
    outer loop
      vertex 0.241073 1.98542 13.5
      vertex -0.241073 1.98542 1.49412
      vertex 0.241073 1.98542 1.49412
    endloop
  endfacet
  facet normal -0.864363 -0.499063 -0.0617493
    outer loop
      vertex 1.20143 2.07475 0
      vertex 1.49702 1.32625 1.91179
      vertex 1.48565 1.33632 1.98956
    endloop
  endfacet
  facet normal -0.864375 -0.499043 -0.0617397
    outer loop
      vertex 1.20143 2.07475 0
      vertex 1.77091 0.929446 1.28462
      vertex 1.49702 1.32625 1.91179
    endloop
  endfacet
  facet normal -0.864373 -0.499047 -0.0617439
    outer loop
      vertex 2.39929 0 0
      vertex 1.77091 0.929446 1.28462
      vertex 1.20143 2.07475 0
    endloop
  endfacet
  facet normal -0.864372 -0.499048 -0.0617429
    outer loop
      vertex 2.39929 0 0
      vertex 1.94188 0.478631 2.53491
      vertex 1.77091 0.929446 1.28462
    endloop
  endfacet
  facet normal -0.864369 -0.499053 -0.0617413
    outer loop
      vertex 1.94188 0.478631 2.53491
      vertex 2.39929 0 0
      vertex 2 0 5.59
    endloop
  endfacet
  facet normal 0.864369 0.499053 -0.0617413
    outer loop
      vertex -1.94188 -0.478631 2.53491
      vertex -2.39929 0 0
      vertex -2 0 5.59
    endloop
  endfacet
  facet normal 0.864372 0.499048 -0.0617429
    outer loop
      vertex -1.77091 -0.929446 1.28462
      vertex -2.39929 0 0
      vertex -1.94188 -0.478631 2.53491
    endloop
  endfacet
  facet normal 0.864373 0.499047 -0.0617439
    outer loop
      vertex -1.77091 -0.929446 1.28462
      vertex -1.20143 -2.07475 0
      vertex -2.39929 0 0
    endloop
  endfacet
  facet normal 0.864375 0.499043 -0.0617397
    outer loop
      vertex -1.49702 -1.32625 1.91179
      vertex -1.20143 -2.07475 0
      vertex -1.77091 -0.929446 1.28462
    endloop
  endfacet
  facet normal 0.864363 0.499063 -0.0617493
    outer loop
      vertex -1.20143 -2.07475 0
      vertex -1.49702 -1.32625 1.91179
      vertex -1.48565 -1.33632 1.98956
    endloop
  endfacet
  facet normal 0 -0.998092 -0.0617401
    outer loop
      vertex -1 1.73205 5.59
      vertex -0.709209 1.87003 3.35941
      vertex -0.972113 1.73205 5.59
    endloop
  endfacet
  facet normal 0 -0.998092 -0.0617378
    outer loop
      vertex -0.241073 1.98542 1.49412
      vertex -1.19964 2.07784 0
      vertex 0.241073 1.98542 1.49412
    endloop
  endfacet
  facet normal 6.58251e-06 -0.998092 -0.061742
    outer loop
      vertex -0.709209 1.87003 3.35941
      vertex -1.19964 2.07784 0
      vertex -0.241073 1.98542 1.49412
    endloop
  endfacet
  facet normal -3.62257e-06 -0.998092 -0.0617405
    outer loop
      vertex -1.19964 2.07784 0
      vertex -0.709209 1.87003 3.35941
      vertex -1 1.73205 5.59
    endloop
  endfacet
  facet normal 0 -0.998092 -0.0617401
    outer loop
      vertex 0.709209 1.87003 3.35941
      vertex 1 1.73205 5.59
      vertex 0.972113 1.73205 5.59
    endloop
  endfacet
  facet normal 3.62257e-06 -0.998092 -0.0617405
    outer loop
      vertex 0.709209 1.87003 3.35941
      vertex 1.19964 2.07784 0
      vertex 1 1.73205 5.59
    endloop
  endfacet
  facet normal -6.58251e-06 -0.998092 -0.061742
    outer loop
      vertex 0.241073 1.98542 1.49412
      vertex 1.19964 2.07784 0
      vertex 0.709209 1.87003 3.35941
    endloop
  endfacet
  facet normal -0 -0.998092 -0.0617378
    outer loop
      vertex 1.19964 2.07784 0
      vertex 0.241073 1.98542 1.49412
      vertex -1.19964 2.07784 0
    endloop
  endfacet
  facet normal 0.864366 -0.499059 -0.0617409
    outer loop
      vertex -1.13613 1.64597 4.37999
      vertex -1.19964 2.07784 0
      vertex -1 1.73205 5.59
    endloop
  endfacet
  facet normal 0.86445 -0.498911 -0.0617609
    outer loop
      vertex -1.13613 1.64597 4.37999
      vertex -1 1.73205 5.59
      vertex -1.01212 1.71105 5.59
    endloop
  endfacet
  facet normal 0.864372 -0.499048 -0.0617399
    outer loop
      vertex -1.48565 1.33632 1.98956
      vertex -1.19964 2.07784 0
      vertex -1.13613 1.64597 4.37999
    endloop
  endfacet
  facet normal 0.863617 -0.500283 -0.0623086
    outer loop
      vertex -1.19964 2.07784 0
      vertex -1.48565 1.33632 1.98956
      vertex -1.20143 2.07475 0
    endloop
  endfacet
  facet normal -0.864369 0.499053 -0.0617413
    outer loop
      vertex 2.39929 0 0
      vertex 1.94188 -0.478631 2.53491
      vertex 2 0 5.59
    endloop
  endfacet
  facet normal -0.864372 0.499048 -0.0617429
    outer loop
      vertex 2.39929 0 0
      vertex 1.77091 -0.929446 1.28462
      vertex 1.94188 -0.478631 2.53491
    endloop
  endfacet
  facet normal -0.864363 0.499063 -0.0617493
    outer loop
      vertex 1.49702 -1.32625 1.91179
      vertex 1.20143 -2.07475 0
      vertex 1.48565 -1.33632 1.98956
    endloop
  endfacet
  facet normal -0.864375 0.499043 -0.0617397
    outer loop
      vertex 1.77091 -0.929446 1.28462
      vertex 1.20143 -2.07475 0
      vertex 1.49702 -1.32625 1.91179
    endloop
  endfacet
  facet normal -0.864373 0.499047 -0.0617439
    outer loop
      vertex 1.20143 -2.07475 0
      vertex 1.77091 -0.929446 1.28462
      vertex 2.39929 0 0
    endloop
  endfacet
  facet normal 0.864363 -0.499063 -0.0617493
    outer loop
      vertex -1.49702 1.32625 1.91179
      vertex -1.20143 2.07475 0
      vertex -1.48565 1.33632 1.98956
    endloop
  endfacet
  facet normal 0.864375 -0.499043 -0.0617397
    outer loop
      vertex -1.77091 0.929446 1.28462
      vertex -1.20143 2.07475 0
      vertex -1.49702 1.32625 1.91179
    endloop
  endfacet
  facet normal 0.864373 -0.499047 -0.0617439
    outer loop
      vertex -1.77091 0.929446 1.28462
      vertex -2.39929 0 0
      vertex -1.20143 2.07475 0
    endloop
  endfacet
  facet normal 0.864372 -0.499048 -0.0617429
    outer loop
      vertex -1.94188 0.478631 2.53491
      vertex -2.39929 0 0
      vertex -1.77091 0.929446 1.28462
    endloop
  endfacet
  facet normal 0.864369 -0.499053 -0.0617413
    outer loop
      vertex -2.39929 0 0
      vertex -1.94188 0.478631 2.53491
      vertex -2 0 5.59
    endloop
  endfacet
  facet normal -0.863617 -0.500283 -0.0623086
    outer loop
      vertex 1.48565 1.33632 1.98956
      vertex 1.19964 2.07784 0
      vertex 1.20143 2.07475 0
    endloop
  endfacet
  facet normal -0.864366 -0.499059 -0.0617409
    outer loop
      vertex 1.19964 2.07784 0
      vertex 1.13613 1.64597 4.37999
      vertex 1 1.73205 5.59
    endloop
  endfacet
  facet normal -0.86445 -0.498911 -0.0617609
    outer loop
      vertex 1 1.73205 5.59
      vertex 1.13613 1.64597 4.37999
      vertex 1.01212 1.71105 5.59
    endloop
  endfacet
  facet normal -0.864372 -0.499048 -0.0617399
    outer loop
      vertex 1.19964 2.07784 0
      vertex 1.48565 1.33632 1.98956
      vertex 1.13613 1.64597 4.37999
    endloop
  endfacet
  facet normal 0 -0 -1
    outer loop
      vertex -1 1.73205 5.59
      vertex -0.972113 1.73205 5.59
      vertex -1.01212 1.71105 5.59
    endloop
  endfacet
  facet normal 0 0 -1
    outer loop
      vertex 1.01212 -1.71105 5.59
      vertex 1 -1.73205 5.59
      vertex 0.972113 -1.73205 5.59
    endloop
  endfacet
  facet normal 0 0 -1
    outer loop
      vertex -0.972113 -1.73205 5.59
      vertex -1 -1.73205 5.59
      vertex -1.01212 -1.71105 5.59
    endloop
  endfacet
  facet normal -0 -0 -1
    outer loop
      vertex 1 1.73205 5.59
      vertex 1.01212 1.71105 5.59
      vertex 0.972113 1.73205 5.59
    endloop
  endfacet
  facet normal 0.86445 0.498911 -0.0617609
    outer loop
      vertex -1 -1.73205 5.59
      vertex -1.13613 -1.64597 4.37999
      vertex -1.01212 -1.71105 5.59
    endloop
  endfacet
  facet normal 0.864372 0.499048 -0.0617399
    outer loop
      vertex -1.19964 -2.07784 0
      vertex -1.48565 -1.33632 1.98956
      vertex -1.13613 -1.64597 4.37999
    endloop
  endfacet
  facet normal 0.864366 0.499059 -0.0617409
    outer loop
      vertex -1.19964 -2.07784 0
      vertex -1.13613 -1.64597 4.37999
      vertex -1 -1.73205 5.59
    endloop
  endfacet
  facet normal 0.863617 0.500283 -0.0623086
    outer loop
      vertex -1.48565 -1.33632 1.98956
      vertex -1.19964 -2.07784 0
      vertex -1.20143 -2.07475 0
    endloop
  endfacet
  facet normal 0 0.998092 -0.0617401
    outer loop
      vertex 1 -1.73205 5.59
      vertex 0.709209 -1.87003 3.35941
      vertex 0.972113 -1.73205 5.59
    endloop
  endfacet
  facet normal 0 0.998092 -0.0617378
    outer loop
      vertex 0.241073 -1.98542 1.49412
      vertex 1.19964 -2.07784 0
      vertex -0.241073 -1.98542 1.49412
    endloop
  endfacet
  facet normal -6.58251e-06 0.998092 -0.061742
    outer loop
      vertex 0.709209 -1.87003 3.35941
      vertex 1.19964 -2.07784 0
      vertex 0.241073 -1.98542 1.49412
    endloop
  endfacet
  facet normal 3.62257e-06 0.998092 -0.0617405
    outer loop
      vertex 1.19964 -2.07784 0
      vertex 0.709209 -1.87003 3.35941
      vertex 1 -1.73205 5.59
    endloop
  endfacet
  facet normal 0 0.998092 -0.0617401
    outer loop
      vertex -0.709209 -1.87003 3.35941
      vertex -1 -1.73205 5.59
      vertex -0.972113 -1.73205 5.59
    endloop
  endfacet
  facet normal -3.62257e-06 0.998092 -0.0617405
    outer loop
      vertex -0.709209 -1.87003 3.35941
      vertex -1.19964 -2.07784 0
      vertex -1 -1.73205 5.59
    endloop
  endfacet
  facet normal 6.58251e-06 0.998092 -0.061742
    outer loop
      vertex -0.241073 -1.98542 1.49412
      vertex -1.19964 -2.07784 0
      vertex -0.709209 -1.87003 3.35941
    endloop
  endfacet
  facet normal 0 0.998092 -0.0617378
    outer loop
      vertex -1.19964 -2.07784 0
      vertex -0.241073 -1.98542 1.49412
      vertex 1.19964 -2.07784 0
    endloop
  endfacet
  facet normal -0.86445 0.498911 -0.0617609
    outer loop
      vertex 1.13613 -1.64597 4.37999
      vertex 1 -1.73205 5.59
      vertex 1.01212 -1.71105 5.59
    endloop
  endfacet
  facet normal -0.863617 0.500283 -0.0623086
    outer loop
      vertex 1.19964 -2.07784 0
      vertex 1.48565 -1.33632 1.98956
      vertex 1.20143 -2.07475 0
    endloop
  endfacet
  facet normal -0.864372 0.499048 -0.0617399
    outer loop
      vertex 1.48565 -1.33632 1.98956
      vertex 1.19964 -2.07784 0
      vertex 1.13613 -1.64597 4.37999
    endloop
  endfacet
  facet normal -0.864366 0.499059 -0.0617409
    outer loop
      vertex 1.13613 -1.64597 4.37999
      vertex 1.19964 -2.07784 0
      vertex 1 -1.73205 5.59
    endloop
  endfacet
endsolid OpenSCAD_Model
