solid OpenSCAD_Model
  facet normal 1 -0 0
    outer loop
      vertex 29 0 3
      vertex 29 18 0
      vertex 29 18 3
    endloop
  endfacet
  facet normal 1 0 0
    outer loop
      vertex 29 18 0
      vertex 29 0 3
      vertex 29 0 0
    endloop
  endfacet
  facet normal 0 0 1
    outer loop
      vertex 29 18 3
      vertex 24.5 9 3
      vertex 29 0 3
    endloop
  endfacet
  facet normal 0 0 1
    outer loop
      vertex 29 18 3
      vertex 24.4727 9.49504 3
      vertex 24.5 9 3
    endloop
  endfacet
  facet normal 0 0 1
    outer loop
      vertex 29 18 3
      vertex 24.3911 9.98406 3
      vertex 24.4727 9.49504 3
    endloop
  endfacet
  facet normal 0 0 1
    outer loop
      vertex 29 18 3
      vertex 24.2562 10.4611 3
      vertex 24.3911 9.98406 3
    endloop
  endfacet
  facet normal 0 0 1
    outer loop
      vertex 29 18 3
      vertex 24.0696 10.9205 3
      vertex 24.2562 10.4611 3
    endloop
  endfacet
  facet normal 0 0 1
    outer loop
      vertex 29 18 3
      vertex 23.8336 11.3565 3
      vertex 24.0696 10.9205 3
    endloop
  endfacet
  facet normal 0 0 1
    outer loop
      vertex 29 18 3
      vertex 23.5511 11.764 3
      vertex 23.8336 11.3565 3
    endloop
  endfacet
  facet normal 0 0 1
    outer loop
      vertex 29 18 3
      vertex 23.2255 12.1378 3
      vertex 23.5511 11.764 3
    endloop
  endfacet
  facet normal 0 0 1
    outer loop
      vertex 29 18 3
      vertex 22.8608 12.4736 3
      vertex 23.2255 12.1378 3
    endloop
  endfacet
  facet normal 0 0 1
    outer loop
      vertex 29 18 3
      vertex 22.4613 12.7672 3
      vertex 22.8608 12.4736 3
    endloop
  endfacet
  facet normal 0 0 1
    outer loop
      vertex 29 18 3
      vertex 22.0319 13.0151 3
      vertex 22.4613 12.7672 3
    endloop
  endfacet
  facet normal 0 0 1
    outer loop
      vertex 29 18 3
      vertex 21.5779 13.2143 3
      vertex 22.0319 13.0151 3
    endloop
  endfacet
  facet normal 0 0 1
    outer loop
      vertex 29 18 3
      vertex 21.1047 13.3623 3
      vertex 21.5779 13.2143 3
    endloop
  endfacet
  facet normal 0 0 1
    outer loop
      vertex 29 18 3
      vertex 20.6181 13.4573 3
      vertex 21.1047 13.3623 3
    endloop
  endfacet
  facet normal 0 0 1
    outer loop
      vertex 29 18 3
      vertex 20.124 13.4983 3
      vertex 20.6181 13.4573 3
    endloop
  endfacet
  facet normal 0 0 1
    outer loop
      vertex 29 18 3
      vertex 19.6284 13.4846 3
      vertex 20.124 13.4983 3
    endloop
  endfacet
  facet normal 0 0 1
    outer loop
      vertex 29 18 3
      vertex 19.1373 13.4165 3
      vertex 19.6284 13.4846 3
    endloop
  endfacet
  facet normal -0 0 1
    outer loop
      vertex 3 18 3
      vertex 19.1373 13.4165 3
      vertex 29 18 3
    endloop
  endfacet
  facet normal 0 0 1
    outer loop
      vertex 19.1373 13.4165 3
      vertex 3 18 3
      vertex 18.6567 13.2948 3
    endloop
  endfacet
  facet normal 0 0 1
    outer loop
      vertex 15.5068 9.24789 3
      vertex 3 18 3
      vertex 15.5068 8.7521 3
    endloop
  endfacet
  facet normal 0 0 1
    outer loop
      vertex 15.5614 9.74067 3
      vertex 3 18 3
      vertex 15.5068 9.24789 3
    endloop
  endfacet
  facet normal 0 0 1
    outer loop
      vertex 15.6698 10.2245 3
      vertex 3 18 3
      vertex 15.5614 9.74067 3
    endloop
  endfacet
  facet normal 0 0 1
    outer loop
      vertex 15.8308 10.6934 3
      vertex 3 18 3
      vertex 15.6698 10.2245 3
    endloop
  endfacet
  facet normal 0 0 1
    outer loop
      vertex 16.0424 11.1418 3
      vertex 3 18 3
      vertex 15.8308 10.6934 3
    endloop
  endfacet
  facet normal 0 0 1
    outer loop
      vertex 16.302 11.5641 3
      vertex 3 18 3
      vertex 16.0424 11.1418 3
    endloop
  endfacet
  facet normal 0 0 1
    outer loop
      vertex 16.6065 11.9554 3
      vertex 3 18 3
      vertex 16.302 11.5641 3
    endloop
  endfacet
  facet normal 0 0 1
    outer loop
      vertex 16.9522 12.3108 3
      vertex 3 18 3
      vertex 16.6065 11.9554 3
    endloop
  endfacet
  facet normal 0 0 1
    outer loop
      vertex 17.3349 12.6259 3
      vertex 3 18 3
      vertex 16.9522 12.3108 3
    endloop
  endfacet
  facet normal 0 0 1
    outer loop
      vertex 17.75 12.8971 3
      vertex 3 18 3
      vertex 17.3349 12.6259 3
    endloop
  endfacet
  facet normal 0 0 1
    outer loop
      vertex 18.1924 13.121 3
      vertex 3 18 3
      vertex 17.75 12.8971 3
    endloop
  endfacet
  facet normal 0 0 1
    outer loop
      vertex 18.6567 13.2948 3
      vertex 3 18 3
      vertex 18.1924 13.121 3
    endloop
  endfacet
  facet normal -0 0 1
    outer loop
      vertex 24.4727 8.50496 3
      vertex 29 0 3
      vertex 24.5 9 3
    endloop
  endfacet
  facet normal -0 0 1
    outer loop
      vertex 24.3911 8.01593 3
      vertex 29 0 3
      vertex 24.4727 8.50496 3
    endloop
  endfacet
  facet normal -0 0 1
    outer loop
      vertex 24.2562 7.53885 3
      vertex 29 0 3
      vertex 24.3911 8.01593 3
    endloop
  endfacet
  facet normal -0 0 1
    outer loop
      vertex 24.0696 7.07951 3
      vertex 29 0 3
      vertex 24.2562 7.53885 3
    endloop
  endfacet
  facet normal -0 0 1
    outer loop
      vertex 23.8336 6.64347 3
      vertex 29 0 3
      vertex 24.0696 7.07951 3
    endloop
  endfacet
  facet normal -0 0 1
    outer loop
      vertex 23.5511 6.23604 3
      vertex 29 0 3
      vertex 23.8336 6.64347 3
    endloop
  endfacet
  facet normal -0 0 1
    outer loop
      vertex 23.2255 5.86216 3
      vertex 29 0 3
      vertex 23.5511 6.23604 3
    endloop
  endfacet
  facet normal -0 0 1
    outer loop
      vertex 22.8608 5.52637 3
      vertex 29 0 3
      vertex 23.2255 5.86216 3
    endloop
  endfacet
  facet normal -0 0 1
    outer loop
      vertex 22.4613 5.23275 3
      vertex 29 0 3
      vertex 22.8608 5.52637 3
    endloop
  endfacet
  facet normal -0 0 1
    outer loop
      vertex 22.0319 4.98486 3
      vertex 29 0 3
      vertex 22.4613 5.23275 3
    endloop
  endfacet
  facet normal -0 0 1
    outer loop
      vertex 21.5779 4.7857 3
      vertex 29 0 3
      vertex 22.0319 4.98486 3
    endloop
  endfacet
  facet normal -0 0 1
    outer loop
      vertex 21.1047 4.6377 3
      vertex 29 0 3
      vertex 21.5779 4.7857 3
    endloop
  endfacet
  facet normal -0 0 1
    outer loop
      vertex 20.6181 4.54265 3
      vertex 29 0 3
      vertex 21.1047 4.6377 3
    endloop
  endfacet
  facet normal -0 0 1
    outer loop
      vertex 20.124 4.50171 3
      vertex 29 0 3
      vertex 20.6181 4.54265 3
    endloop
  endfacet
  facet normal 0 0 1
    outer loop
      vertex 19.6284 4.51537 3
      vertex 29 0 3
      vertex 20.124 4.50171 3
    endloop
  endfacet
  facet normal 0 0 1
    outer loop
      vertex 19.1373 4.58347 3
      vertex 29 0 3
      vertex 19.6284 4.51537 3
    endloop
  endfacet
  facet normal 0 0 1
    outer loop
      vertex 3 0 3
      vertex 19.1373 4.58347 3
      vertex 18.6567 4.70518 3
    endloop
  endfacet
  facet normal 0 0 1
    outer loop
      vertex 3 0 3
      vertex 18.6567 4.70518 3
      vertex 18.1924 4.87902 3
    endloop
  endfacet
  facet normal 0 0 1
    outer loop
      vertex 3 0 3
      vertex 15.5068 8.7521 3
      vertex 3 18 3
    endloop
  endfacet
  facet normal 0 0 1
    outer loop
      vertex 15.5068 8.7521 3
      vertex 3 0 3
      vertex 15.5614 8.25932 3
    endloop
  endfacet
  facet normal 0 0 1
    outer loop
      vertex 15.5614 8.25932 3
      vertex 3 0 3
      vertex 15.6698 7.77553 3
    endloop
  endfacet
  facet normal 0 0 1
    outer loop
      vertex 15.6698 7.77553 3
      vertex 3 0 3
      vertex 15.8308 7.30661 3
    endloop
  endfacet
  facet normal 0 0 1
    outer loop
      vertex 15.8308 7.30661 3
      vertex 3 0 3
      vertex 16.0424 6.85824 3
    endloop
  endfacet
  facet normal 0 0 1
    outer loop
      vertex 16.0424 6.85824 3
      vertex 3 0 3
      vertex 16.302 6.43586 3
    endloop
  endfacet
  facet normal 0 0 1
    outer loop
      vertex 16.302 6.43586 3
      vertex 3 0 3
      vertex 16.6065 6.04462 3
    endloop
  endfacet
  facet normal 0 0 1
    outer loop
      vertex 19.1373 4.58347 3
      vertex 3 0 3
      vertex 29 0 3
    endloop
  endfacet
  facet normal 0 0 1
    outer loop
      vertex 17.75 5.10289 3
      vertex 3 0 3
      vertex 18.1924 4.87902 3
    endloop
  endfacet
  facet normal 0 0 1
    outer loop
      vertex 17.3349 5.37406 3
      vertex 3 0 3
      vertex 17.75 5.10289 3
    endloop
  endfacet
  facet normal 0 0 1
    outer loop
      vertex 16.9522 5.68924 3
      vertex 3 0 3
      vertex 17.3349 5.37406 3
    endloop
  endfacet
  facet normal 0 0 1
    outer loop
      vertex 16.6065 6.04462 3
      vertex 3 0 3
      vertex 16.9522 5.68924 3
    endloop
  endfacet
  facet normal 0 0 -1
    outer loop
      vertex 29 0 0
      vertex 24.5 9 0
      vertex 29 18 0
    endloop
  endfacet
  facet normal 0 0 -1
    outer loop
      vertex 29 0 0
      vertex 24.4727 8.50496 0
      vertex 24.5 9 0
    endloop
  endfacet
  facet normal 0 0 -1
    outer loop
      vertex 29 0 0
      vertex 24.3911 8.01593 0
      vertex 24.4727 8.50496 0
    endloop
  endfacet
  facet normal 0 0 -1
    outer loop
      vertex 29 0 0
      vertex 24.2562 7.53885 0
      vertex 24.3911 8.01593 0
    endloop
  endfacet
  facet normal 0 0 -1
    outer loop
      vertex 29 0 0
      vertex 24.0696 7.07951 0
      vertex 24.2562 7.53885 0
    endloop
  endfacet
  facet normal 0 0 -1
    outer loop
      vertex 29 0 0
      vertex 23.8336 6.64347 0
      vertex 24.0696 7.07951 0
    endloop
  endfacet
  facet normal 0 0 -1
    outer loop
      vertex 29 0 0
      vertex 23.5511 6.23604 0
      vertex 23.8336 6.64347 0
    endloop
  endfacet
  facet normal 0 0 -1
    outer loop
      vertex 29 0 0
      vertex 23.2255 5.86216 0
      vertex 23.5511 6.23604 0
    endloop
  endfacet
  facet normal 0 0 -1
    outer loop
      vertex 29 0 0
      vertex 22.8608 5.52637 0
      vertex 23.2255 5.86216 0
    endloop
  endfacet
  facet normal 0 0 -1
    outer loop
      vertex 29 0 0
      vertex 22.4613 5.23275 0
      vertex 22.8608 5.52637 0
    endloop
  endfacet
  facet normal 0 0 -1
    outer loop
      vertex 29 0 0
      vertex 22.0319 4.98486 0
      vertex 22.4613 5.23275 0
    endloop
  endfacet
  facet normal 0 0 -1
    outer loop
      vertex 29 0 0
      vertex 21.5779 4.7857 0
      vertex 22.0319 4.98486 0
    endloop
  endfacet
  facet normal 0 0 -1
    outer loop
      vertex 29 0 0
      vertex 21.1047 4.6377 0
      vertex 21.5779 4.7857 0
    endloop
  endfacet
  facet normal 0 0 -1
    outer loop
      vertex 29 0 0
      vertex 20.6181 4.54265 0
      vertex 21.1047 4.6377 0
    endloop
  endfacet
  facet normal 0 0 -1
    outer loop
      vertex 29 0 0
      vertex 20.124 4.50171 0
      vertex 20.6181 4.54265 0
    endloop
  endfacet
  facet normal 0 0 -1
    outer loop
      vertex 29 0 0
      vertex 19.6284 4.51537 0
      vertex 20.124 4.50171 0
    endloop
  endfacet
  facet normal 0 0 -1
    outer loop
      vertex 29 0 0
      vertex 19.1373 4.58347 0
      vertex 19.6284 4.51537 0
    endloop
  endfacet
  facet normal 0 0 -1
    outer loop
      vertex 0 0 0
      vertex 19.1373 4.58347 0
      vertex 29 0 0
    endloop
  endfacet
  facet normal -0 0 -1
    outer loop
      vertex 19.1373 4.58347 0
      vertex 0 0 0
      vertex 18.6567 4.70518 0
    endloop
  endfacet
  facet normal -0 0 -1
    outer loop
      vertex 15.5068 8.7521 0
      vertex 0 0 0
      vertex 15.5068 9.24789 0
    endloop
  endfacet
  facet normal -0 0 -1
    outer loop
      vertex 15.5614 8.25932 0
      vertex 0 0 0
      vertex 15.5068 8.7521 0
    endloop
  endfacet
  facet normal -0 0 -1
    outer loop
      vertex 15.6698 7.77553 0
      vertex 0 0 0
      vertex 15.5614 8.25932 0
    endloop
  endfacet
  facet normal -0 0 -1
    outer loop
      vertex 15.8308 7.30661 0
      vertex 0 0 0
      vertex 15.6698 7.77553 0
    endloop
  endfacet
  facet normal -0 0 -1
    outer loop
      vertex 16.0424 6.85824 0
      vertex 0 0 0
      vertex 15.8308 7.30661 0
    endloop
  endfacet
  facet normal -0 0 -1
    outer loop
      vertex 16.302 6.43586 0
      vertex 0 0 0
      vertex 16.0424 6.85824 0
    endloop
  endfacet
  facet normal -0 0 -1
    outer loop
      vertex 16.6065 6.04462 0
      vertex 0 0 0
      vertex 16.302 6.43586 0
    endloop
  endfacet
  facet normal -0 0 -1
    outer loop
      vertex 16.9522 5.68924 0
      vertex 0 0 0
      vertex 16.6065 6.04462 0
    endloop
  endfacet
  facet normal -0 0 -1
    outer loop
      vertex 17.3349 5.37406 0
      vertex 0 0 0
      vertex 16.9522 5.68924 0
    endloop
  endfacet
  facet normal -0 0 -1
    outer loop
      vertex 17.75 5.10289 0
      vertex 0 0 0
      vertex 17.3349 5.37406 0
    endloop
  endfacet
  facet normal -0 0 -1
    outer loop
      vertex 18.1924 4.87902 0
      vertex 0 0 0
      vertex 17.75 5.10289 0
    endloop
  endfacet
  facet normal -0 0 -1
    outer loop
      vertex 18.6567 4.70518 0
      vertex 0 0 0
      vertex 18.1924 4.87902 0
    endloop
  endfacet
  facet normal 0 0 -1
    outer loop
      vertex 24.4727 9.49504 0
      vertex 29 18 0
      vertex 24.5 9 0
    endloop
  endfacet
  facet normal 0 0 -1
    outer loop
      vertex 24.3911 9.98406 0
      vertex 29 18 0
      vertex 24.4727 9.49504 0
    endloop
  endfacet
  facet normal 0 0 -1
    outer loop
      vertex 24.2562 10.4611 0
      vertex 29 18 0
      vertex 24.3911 9.98406 0
    endloop
  endfacet
  facet normal 0 0 -1
    outer loop
      vertex 24.0696 10.9205 0
      vertex 29 18 0
      vertex 24.2562 10.4611 0
    endloop
  endfacet
  facet normal 0 0 -1
    outer loop
      vertex 23.8336 11.3565 0
      vertex 29 18 0
      vertex 24.0696 10.9205 0
    endloop
  endfacet
  facet normal 0 0 -1
    outer loop
      vertex 23.5511 11.764 0
      vertex 29 18 0
      vertex 23.8336 11.3565 0
    endloop
  endfacet
  facet normal 0 0 -1
    outer loop
      vertex 23.2255 12.1378 0
      vertex 29 18 0
      vertex 23.5511 11.764 0
    endloop
  endfacet
  facet normal 0 0 -1
    outer loop
      vertex 22.8608 12.4736 0
      vertex 29 18 0
      vertex 23.2255 12.1378 0
    endloop
  endfacet
  facet normal 0 0 -1
    outer loop
      vertex 22.4613 12.7672 0
      vertex 29 18 0
      vertex 22.8608 12.4736 0
    endloop
  endfacet
  facet normal 0 0 -1
    outer loop
      vertex 22.0319 13.0151 0
      vertex 29 18 0
      vertex 22.4613 12.7672 0
    endloop
  endfacet
  facet normal 0 0 -1
    outer loop
      vertex 21.5779 13.2143 0
      vertex 29 18 0
      vertex 22.0319 13.0151 0
    endloop
  endfacet
  facet normal 0 0 -1
    outer loop
      vertex 21.1047 13.3623 0
      vertex 29 18 0
      vertex 21.5779 13.2143 0
    endloop
  endfacet
  facet normal 0 0 -1
    outer loop
      vertex 20.6181 13.4573 0
      vertex 29 18 0
      vertex 21.1047 13.3623 0
    endloop
  endfacet
  facet normal 0 0 -1
    outer loop
      vertex 20.124 13.4983 0
      vertex 29 18 0
      vertex 20.6181 13.4573 0
    endloop
  endfacet
  facet normal 0 0 -1
    outer loop
      vertex 19.6284 13.4846 0
      vertex 29 18 0
      vertex 20.124 13.4983 0
    endloop
  endfacet
  facet normal 0 0 -1
    outer loop
      vertex 19.1373 13.4165 0
      vertex 29 18 0
      vertex 19.6284 13.4846 0
    endloop
  endfacet
  facet normal 0 0 -1
    outer loop
      vertex 0 18 0
      vertex 19.1373 13.4165 0
      vertex 18.6567 13.2948 0
    endloop
  endfacet
  facet normal 0 0 -1
    outer loop
      vertex 0 18 0
      vertex 18.6567 13.2948 0
      vertex 18.1924 13.121 0
    endloop
  endfacet
  facet normal 0 0 -1
    outer loop
      vertex 0 18 0
      vertex 15.5068 9.24789 0
      vertex 0 0 0
    endloop
  endfacet
  facet normal 0 0 -1
    outer loop
      vertex 15.5068 9.24789 0
      vertex 0 18 0
      vertex 15.5614 9.74067 0
    endloop
  endfacet
  facet normal 0 0 -1
    outer loop
      vertex 15.5614 9.74067 0
      vertex 0 18 0
      vertex 15.6698 10.2245 0
    endloop
  endfacet
  facet normal 0 0 -1
    outer loop
      vertex 15.6698 10.2245 0
      vertex 0 18 0
      vertex 15.8308 10.6934 0
    endloop
  endfacet
  facet normal 0 0 -1
    outer loop
      vertex 15.8308 10.6934 0
      vertex 0 18 0
      vertex 16.0424 11.1418 0
    endloop
  endfacet
  facet normal 0 0 -1
    outer loop
      vertex 16.0424 11.1418 0
      vertex 0 18 0
      vertex 16.302 11.5641 0
    endloop
  endfacet
  facet normal 0 0 -1
    outer loop
      vertex 16.302 11.5641 0
      vertex 0 18 0
      vertex 16.6065 11.9554 0
    endloop
  endfacet
  facet normal 0 0 -1
    outer loop
      vertex 16.6065 11.9554 0
      vertex 0 18 0
      vertex 16.9522 12.3108 0
    endloop
  endfacet
  facet normal 0 0 -1
    outer loop
      vertex 19.1373 13.4165 0
      vertex 0 18 0
      vertex 29 18 0
    endloop
  endfacet
  facet normal 0 0 -1
    outer loop
      vertex 17.75 12.8971 0
      vertex 0 18 0
      vertex 18.1924 13.121 0
    endloop
  endfacet
  facet normal 0 0 -1
    outer loop
      vertex 17.3349 12.6259 0
      vertex 0 18 0
      vertex 17.75 12.8971 0
    endloop
  endfacet
  facet normal 0 0 -1
    outer loop
      vertex 16.9522 12.3108 0
      vertex 0 18 0
      vertex 17.3349 12.6259 0
    endloop
  endfacet
  facet normal -1 0 0
    outer loop
      vertex 0 0 0
      vertex 0 18 45
      vertex 0 18 0
    endloop
  endfacet
  facet normal -1 -0 0
    outer loop
      vertex 0 18 45
      vertex 0 0 0
      vertex 0 0 45
    endloop
  endfacet
  facet normal 0 1 0
    outer loop
      vertex 29 18 3
      vertex 29 18 0
      vertex 3 18 3
    endloop
  endfacet
  facet normal 0 1 0
    outer loop
      vertex 3 18 48
      vertex 0 18 45
      vertex -9 18 48
    endloop
  endfacet
  facet normal 0 1 -0
    outer loop
      vertex 3 18 3
      vertex 0 18 45
      vertex 3 18 48
    endloop
  endfacet
  facet normal 0 1 0
    outer loop
      vertex 3 18 3
      vertex 0 18 0
      vertex 0 18 45
    endloop
  endfacet
  facet normal 0 1 0
    outer loop
      vertex 0 18 0
      vertex 3 18 3
      vertex 29 18 0
    endloop
  endfacet
  facet normal 0 1 -0
    outer loop
      vertex -6 18 45
      vertex -9 18 48
      vertex 0 18 45
    endloop
  endfacet
  facet normal 0 1 0
    outer loop
      vertex -9 18 28
      vertex -6 18 45
      vertex -6 18 28
    endloop
  endfacet
  facet normal 0 1 0
    outer loop
      vertex -6 18 45
      vertex -9 18 28
      vertex -9 18 48
    endloop
  endfacet
  facet normal 0 -1 0
    outer loop
      vertex -9 0 48
      vertex -6 0 45
      vertex 3 0 48
    endloop
  endfacet
  facet normal 0 -1 0
    outer loop
      vertex -9 0 28
      vertex -6 0 45
      vertex -9 0 48
    endloop
  endfacet
  facet normal 0 -1 -0
    outer loop
      vertex -6 0 45
      vertex -9 0 28
      vertex -6 0 28
    endloop
  endfacet
  facet normal 0 -1 0
    outer loop
      vertex 0 0 45
      vertex 3 0 48
      vertex -6 0 45
    endloop
  endfacet
  facet normal 0 -1 0
    outer loop
      vertex 0 0 45
      vertex 3 0 3
      vertex 3 0 48
    endloop
  endfacet
  facet normal 0 -1 0
    outer loop
      vertex 0 0 0
      vertex 3 0 3
      vertex 0 0 45
    endloop
  endfacet
  facet normal 0 -1 0
    outer loop
      vertex 29 0 0
      vertex 3 0 3
      vertex 0 0 0
    endloop
  endfacet
  facet normal 0 -1 0
    outer loop
      vertex 3 0 3
      vertex 29 0 0
      vertex 29 0 3
    endloop
  endfacet
  facet normal -0.998483 -0.0550634 0
    outer loop
      vertex 24.5 9 0
      vertex 24.4727 9.49504 3
      vertex 24.4727 9.49504 0
    endloop
  endfacet
  facet normal -0.998483 -0.0550634 0
    outer loop
      vertex 24.4727 9.49504 3
      vertex 24.5 9 0
      vertex 24.5 9 3
    endloop
  endfacet
  facet normal 0.0275521 0.99962 -0
    outer loop
      vertex 20.124 4.50171 0
      vertex 19.6284 4.51537 3
      vertex 20.124 4.50171 3
    endloop
  endfacet
  facet normal 0.0275521 0.99962 0
    outer loop
      vertex 19.6284 4.51537 3
      vertex 20.124 4.50171 0
      vertex 19.6284 4.51537 0
    endloop
  endfacet
  facet normal 0.975805 0.218643 0
    outer loop
      vertex 15.6698 7.77553 3
      vertex 15.5614 8.25932 0
      vertex 15.5614 8.25932 3
    endloop
  endfacet
  facet normal 0.975805 0.218643 0
    outer loop
      vertex 15.5614 8.25932 0
      vertex 15.6698 7.77553 3
      vertex 15.6698 7.77553 0
    endloop
  endfacet
  facet normal -0.499963 0.866047 0
    outer loop
      vertex 22.4613 5.23275 0
      vertex 22.0319 4.98486 3
      vertex 22.4613 5.23275 3
    endloop
  endfacet
  facet normal -0.499963 0.866047 0
    outer loop
      vertex 22.0319 4.98486 3
      vertex 22.4613 5.23275 0
      vertex 22.0319 4.98486 0
    endloop
  endfacet
  facet normal -0.986362 -0.164589 0
    outer loop
      vertex 24.4727 9.49504 0
      vertex 24.3911 9.98406 3
      vertex 24.3911 9.98406 0
    endloop
  endfacet
  facet normal -0.986362 -0.164589 0
    outer loop
      vertex 24.3911 9.98406 3
      vertex 24.4727 9.49504 0
      vertex 24.4727 9.49504 3
    endloop
  endfacet
  facet normal -0.592194 -0.805795 0
    outer loop
      vertex 22.4613 12.7672 0
      vertex 22.8608 12.4736 3
      vertex 22.4613 12.7672 3
    endloop
  endfacet
  facet normal -0.592194 -0.805795 -0
    outer loop
      vertex 22.8608 12.4736 3
      vertex 22.4613 12.7672 0
      vertex 22.8608 12.4736 0
    endloop
  endfacet
  facet normal -0.926489 -0.376323 0
    outer loop
      vertex 24.2562 10.4611 0
      vertex 24.0696 10.9205 3
      vertex 24.0696 10.9205 0
    endloop
  endfacet
  facet normal -0.926489 -0.376323 0
    outer loop
      vertex 24.0696 10.9205 3
      vertex 24.2562 10.4611 0
      vertex 24.2562 10.4611 3
    endloop
  endfacet
  facet normal 0.716821 -0.697257 0
    outer loop
      vertex 16.6065 11.9554 3
      vertex 16.9522 12.3108 0
      vertex 16.9522 12.3108 3
    endloop
  endfacet
  facet normal 0.716821 -0.697257 0
    outer loop
      vertex 16.9522 12.3108 0
      vertex 16.6065 11.9554 3
      vertex 16.6065 11.9554 0
    endloop
  endfacet
  facet normal -0.998483 0.0550634 0
    outer loop
      vertex 24.4727 8.50496 0
      vertex 24.5 9 3
      vertex 24.5 9 0
    endloop
  endfacet
  facet normal -0.998483 0.0550634 0
    outer loop
      vertex 24.5 9 3
      vertex 24.4727 8.50496 0
      vertex 24.4727 8.50496 3
    endloop
  endfacet
  facet normal 0.90435 0.426791 0
    outer loop
      vertex 16.0424 6.85824 3
      vertex 15.8308 7.30661 0
      vertex 15.8308 7.30661 3
    endloop
  endfacet
  facet normal 0.90435 0.426791 0
    outer loop
      vertex 15.8308 7.30661 0
      vertex 16.0424 6.85824 3
      vertex 16.0424 6.85824 0
    endloop
  endfacet
  facet normal -0.298505 0.954408 0
    outer loop
      vertex 21.5779 4.7857 0
      vertex 21.1047 4.6377 3
      vertex 21.5779 4.7857 3
    endloop
  endfacet
  facet normal -0.298505 0.954408 0
    outer loop
      vertex 21.1047 4.6377 3
      vertex 21.5779 4.7857 0
      vertex 21.1047 4.6377 0
    endloop
  endfacet
  facet normal 0.137354 0.990522 -0
    outer loop
      vertex 19.6284 4.51537 0
      vertex 19.1373 4.58347 3
      vertex 19.6284 4.51537 3
    endloop
  endfacet
  facet normal 0.137354 0.990522 0
    outer loop
      vertex 19.1373 4.58347 3
      vertex 19.6284 4.51537 0
      vertex 19.1373 4.58347 0
    endloop
  endfacet
  facet normal -0.754119 0.656738 0
    outer loop
      vertex 23.2255 5.86216 0
      vertex 23.5511 6.23604 3
      vertex 23.5511 6.23604 0
    endloop
  endfacet
  facet normal -0.754119 0.656738 0
    outer loop
      vertex 23.5511 6.23604 3
      vertex 23.2255 5.86216 0
      vertex 23.2255 5.86216 3
    endloop
  endfacet
  facet normal 0.0276327 -0.999618 0
    outer loop
      vertex 19.6284 13.4846 0
      vertex 20.124 13.4983 3
      vertex 19.6284 13.4846 3
    endloop
  endfacet
  facet normal 0.0276327 -0.999618 0
    outer loop
      vertex 20.124 13.4983 3
      vertex 19.6284 13.4846 0
      vertex 20.124 13.4983 0
    endloop
  endfacet
  facet normal -0.59222 0.805776 0
    outer loop
      vertex 22.8608 5.52637 0
      vertex 22.4613 5.23275 3
      vertex 22.8608 5.52637 3
    endloop
  endfacet
  facet normal -0.59222 0.805776 0
    outer loop
      vertex 22.4613 5.23275 3
      vertex 22.8608 5.52637 0
      vertex 22.4613 5.23275 0
    endloop
  endfacet
  facet normal 0.904361 -0.426768 0
    outer loop
      vertex 15.8308 10.6934 3
      vertex 16.0424 11.1418 0
      vertex 16.0424 11.1418 3
    endloop
  endfacet
  facet normal 0.904361 -0.426768 0
    outer loop
      vertex 16.0424 11.1418 0
      vertex 15.8308 10.6934 3
      vertex 15.8308 10.6934 0
    endloop
  endfacet
  facet normal 0.245477 -0.969402 0
    outer loop
      vertex 18.6567 13.2948 0
      vertex 19.1373 13.4165 3
      vertex 18.6567 13.2948 3
    endloop
  endfacet
  facet normal 0.245477 -0.969402 0
    outer loop
      vertex 19.1373 13.4165 3
      vertex 18.6567 13.2948 0
      vertex 19.1373 13.4165 0
    endloop
  endfacet
  facet normal 0.945805 0.324735 0
    outer loop
      vertex 15.8308 7.30661 3
      vertex 15.6698 7.77553 0
      vertex 15.6698 7.77553 3
    endloop
  endfacet
  facet normal 0.945805 0.324735 0
    outer loop
      vertex 15.6698 7.77553 0
      vertex 15.8308 7.30661 3
      vertex 15.8308 7.30661 0
    endloop
  endfacet
  facet normal -0.298505 -0.954408 0
    outer loop
      vertex 21.1047 13.3623 0
      vertex 21.5779 13.2143 3
      vertex 21.1047 13.3623 3
    endloop
  endfacet
  facet normal -0.298505 -0.954408 -0
    outer loop
      vertex 21.5779 13.2143 3
      vertex 21.1047 13.3623 0
      vertex 21.5779 13.2143 0
    endloop
  endfacet
  facet normal -0.986363 0.164585 0
    outer loop
      vertex 24.3911 8.01593 0
      vertex 24.4727 8.50496 3
      vertex 24.4727 8.50496 0
    endloop
  endfacet
  facet normal -0.986363 0.164585 0
    outer loop
      vertex 24.4727 8.50496 3
      vertex 24.3911 8.01593 0
      vertex 24.3911 8.01593 3
    endloop
  endfacet
  facet normal 0.635629 -0.771994 0
    outer loop
      vertex 16.9522 12.3108 0
      vertex 17.3349 12.6259 3
      vertex 16.9522 12.3108 3
    endloop
  endfacet
  facet normal 0.635629 -0.771994 0
    outer loop
      vertex 17.3349 12.6259 3
      vertex 16.9522 12.3108 0
      vertex 17.3349 12.6259 0
    endloop
  endfacet
  facet normal 0.137354 -0.990522 0
    outer loop
      vertex 19.1373 13.4165 0
      vertex 19.6284 13.4846 3
      vertex 19.1373 13.4165 3
    endloop
  endfacet
  facet normal 0.137354 -0.990522 0
    outer loop
      vertex 19.6284 13.4846 3
      vertex 19.1373 13.4165 0
      vertex 19.6284 13.4846 0
    endloop
  endfacet
  facet normal -0.677358 -0.735654 0
    outer loop
      vertex 22.8608 12.4736 0
      vertex 23.2255 12.1378 3
      vertex 22.8608 12.4736 3
    endloop
  endfacet
  facet normal -0.677358 -0.735654 -0
    outer loop
      vertex 23.2255 12.1378 3
      vertex 22.8608 12.4736 0
      vertex 23.2255 12.1378 0
    endloop
  endfacet
  facet normal 0.851952 0.52362 0
    outer loop
      vertex 16.302 6.43586 3
      vertex 16.0424 6.85824 0
      vertex 16.0424 6.85824 3
    endloop
  endfacet
  facet normal 0.851952 0.52362 0
    outer loop
      vertex 16.0424 6.85824 0
      vertex 16.302 6.43586 3
      vertex 16.302 6.43586 0
    endloop
  endfacet
  facet normal -0.962265 -0.272115 0
    outer loop
      vertex 24.3911 9.98406 0
      vertex 24.2562 10.4611 3
      vertex 24.2562 10.4611 0
    endloop
  endfacet
  facet normal -0.962265 -0.272115 0
    outer loop
      vertex 24.2562 10.4611 3
      vertex 24.3911 9.98406 0
      vertex 24.3911 9.98406 3
    endloop
  endfacet
  facet normal -0.499979 -0.866038 0
    outer loop
      vertex 22.0319 13.0151 0
      vertex 22.4613 12.7672 3
      vertex 22.0319 13.0151 3
    endloop
  endfacet
  facet normal -0.499979 -0.866038 -0
    outer loop
      vertex 22.4613 12.7672 3
      vertex 22.0319 13.0151 0
      vertex 22.4613 12.7672 0
    endloop
  endfacet
  facet normal 0.851908 -0.523692 0
    outer loop
      vertex 16.0424 11.1418 3
      vertex 16.302 11.5641 0
      vertex 16.302 11.5641 3
    endloop
  endfacet
  facet normal 0.851908 -0.523692 0
    outer loop
      vertex 16.302 11.5641 0
      vertex 16.0424 11.1418 3
      vertex 16.0424 11.1418 0
    endloop
  endfacet
  facet normal 0.54695 -0.837165 0
    outer loop
      vertex 17.3349 12.6259 0
      vertex 17.75 12.8971 3
      vertex 17.3349 12.6259 3
    endloop
  endfacet
  facet normal 0.54695 -0.837165 0
    outer loop
      vertex 17.75 12.8971 3
      vertex 17.3349 12.6259 0
      vertex 17.75 12.8971 0
    endloop
  endfacet
  facet normal -0.821829 -0.569734 0
    outer loop
      vertex 23.8336 11.3565 0
      vertex 23.5511 11.764 3
      vertex 23.5511 11.764 0
    endloop
  endfacet
  facet normal -0.821829 -0.569734 0
    outer loop
      vertex 23.5511 11.764 3
      vertex 23.8336 11.3565 0
      vertex 23.8336 11.3565 3
    endloop
  endfacet
  facet normal 0.245496 0.969398 -0
    outer loop
      vertex 19.1373 4.58347 0
      vertex 18.6567 4.70518 3
      vertex 19.1373 4.58347 3
    endloop
  endfacet
  facet normal 0.245496 0.969398 0
    outer loop
      vertex 18.6567 4.70518 3
      vertex 19.1373 4.58347 0
      vertex 18.6567 4.70518 0
    endloop
  endfacet
  facet normal -0.401792 -0.915731 0
    outer loop
      vertex 21.5779 13.2143 0
      vertex 22.0319 13.0151 3
      vertex 21.5779 13.2143 3
    endloop
  endfacet
  facet normal -0.401792 -0.915731 -0
    outer loop
      vertex 22.0319 13.0151 3
      vertex 21.5779 13.2143 0
      vertex 22.0319 13.0151 0
    endloop
  endfacet
  facet normal 1 -0 0
    outer loop
      vertex 15.5068 8.7521 3
      vertex 15.5068 9.24789 0
      vertex 15.5068 9.24789 3
    endloop
  endfacet
  facet normal 1 0 0
    outer loop
      vertex 15.5068 9.24789 0
      vertex 15.5068 8.7521 3
      vertex 15.5068 8.7521 0
    endloop
  endfacet
  facet normal -0.879451 0.475989 0
    outer loop
      vertex 23.8336 6.64347 0
      vertex 24.0696 7.07951 3
      vertex 24.0696 7.07951 0
    endloop
  endfacet
  facet normal -0.879451 0.475989 0
    outer loop
      vertex 24.0696 7.07951 3
      vertex 23.8336 6.64347 0
      vertex 23.8336 6.64347 3
    endloop
  endfacet
  facet normal 0.350642 0.93651 -0
    outer loop
      vertex 18.6567 4.70518 0
      vertex 18.1924 4.87902 3
      vertex 18.6567 4.70518 3
    endloop
  endfacet
  facet normal 0.350642 0.93651 0
    outer loop
      vertex 18.1924 4.87902 3
      vertex 18.6567 4.70518 0
      vertex 18.1924 4.87902 0
    endloop
  endfacet
  facet normal -0.0825748 0.996585 0
    outer loop
      vertex 20.6181 4.54265 0
      vertex 20.124 4.50171 3
      vertex 20.6181 4.54265 3
    endloop
  endfacet
  facet normal -0.0825748 0.996585 0
    outer loop
      vertex 20.124 4.50171 3
      vertex 20.6181 4.54265 0
      vertex 20.124 4.50171 0
    endloop
  endfacet
  facet normal -0.879433 -0.476023 0
    outer loop
      vertex 24.0696 10.9205 0
      vertex 23.8336 11.3565 3
      vertex 23.8336 11.3565 0
    endloop
  endfacet
  facet normal -0.879433 -0.476023 0
    outer loop
      vertex 23.8336 11.3565 3
      vertex 24.0696 10.9205 0
      vertex 24.0696 10.9205 3
    endloop
  endfacet
  facet normal -0.821783 0.5698 0
    outer loop
      vertex 23.5511 6.23604 0
      vertex 23.8336 6.64347 3
      vertex 23.8336 6.64347 0
    endloop
  endfacet
  facet normal -0.821783 0.5698 0
    outer loop
      vertex 23.8336 6.64347 3
      vertex 23.5511 6.23604 0
      vertex 23.5511 6.23604 3
    endloop
  endfacet
  facet normal 0.716802 0.697277 0
    outer loop
      vertex 16.9522 5.68924 3
      vertex 16.6065 6.04462 0
      vertex 16.6065 6.04462 3
    endloop
  endfacet
  facet normal 0.716802 0.697277 0
    outer loop
      vertex 16.6065 6.04462 0
      vertex 16.9522 5.68924 3
      vertex 16.9522 5.68924 0
    endloop
  endfacet
  facet normal -0.754049 -0.656818 0
    outer loop
      vertex 23.5511 11.764 0
      vertex 23.2255 12.1378 3
      vertex 23.2255 12.1378 0
    endloop
  endfacet
  facet normal -0.754049 -0.656818 0
    outer loop
      vertex 23.2255 12.1378 3
      vertex 23.5511 11.764 0
      vertex 23.5511 11.764 3
    endloop
  endfacet
  facet normal -0.191712 0.981451 0
    outer loop
      vertex 21.1047 4.6377 0
      vertex 20.6181 4.54265 3
      vertex 21.1047 4.6377 3
    endloop
  endfacet
  facet normal -0.191712 0.981451 0
    outer loop
      vertex 20.6181 4.54265 3
      vertex 21.1047 4.6377 0
      vertex 20.6181 4.54265 0
    endloop
  endfacet
  facet normal -0.677347 0.735664 0
    outer loop
      vertex 23.2255 5.86216 0
      vertex 22.8608 5.52637 3
      vertex 23.2255 5.86216 3
    endloop
  endfacet
  facet normal -0.677347 0.735664 0
    outer loop
      vertex 22.8608 5.52637 3
      vertex 23.2255 5.86216 0
      vertex 22.8608 5.52637 0
    endloop
  endfacet
  facet normal -0.191615 -0.98147 0
    outer loop
      vertex 20.6181 13.4573 0
      vertex 21.1047 13.3623 3
      vertex 20.6181 13.4573 3
    endloop
  endfacet
  facet normal -0.191615 -0.98147 -0
    outer loop
      vertex 21.1047 13.3623 3
      vertex 20.6181 13.4573 0
      vertex 21.1047 13.3623 0
    endloop
  endfacet
  facet normal 0.546908 0.837193 -0
    outer loop
      vertex 17.75 5.10289 0
      vertex 17.3349 5.37406 3
      vertex 17.75 5.10289 3
    endloop
  endfacet
  facet normal 0.546908 0.837193 0
    outer loop
      vertex 17.3349 5.37406 3
      vertex 17.75 5.10289 0
      vertex 17.3349 5.37406 0
    endloop
  endfacet
  facet normal 0.451565 -0.892238 0
    outer loop
      vertex 17.75 12.8971 0
      vertex 18.1924 13.121 3
      vertex 17.75 12.8971 3
    endloop
  endfacet
  facet normal 0.451565 -0.892238 0
    outer loop
      vertex 18.1924 13.121 3
      vertex 17.75 12.8971 0
      vertex 18.1924 13.121 0
    endloop
  endfacet
  facet normal 0.975809 -0.218626 0
    outer loop
      vertex 15.5614 9.74067 3
      vertex 15.6698 10.2245 0
      vertex 15.6698 10.2245 3
    endloop
  endfacet
  facet normal 0.975809 -0.218626 0
    outer loop
      vertex 15.6698 10.2245 0
      vertex 15.5614 9.74067 3
      vertex 15.5614 9.74067 0
    endloop
  endfacet
  facet normal 0.993918 -0.110126 0
    outer loop
      vertex 15.5068 9.24789 3
      vertex 15.5614 9.74067 0
      vertex 15.5614 9.74067 3
    endloop
  endfacet
  facet normal 0.993918 -0.110126 0
    outer loop
      vertex 15.5614 9.74067 0
      vertex 15.5068 9.24789 3
      vertex 15.5068 9.24789 0
    endloop
  endfacet
  facet normal 0.350571 -0.936536 0
    outer loop
      vertex 18.1924 13.121 0
      vertex 18.6567 13.2948 3
      vertex 18.1924 13.121 3
    endloop
  endfacet
  facet normal 0.350571 -0.936536 0
    outer loop
      vertex 18.6567 13.2948 3
      vertex 18.1924 13.121 0
      vertex 18.6567 13.2948 0
    endloop
  endfacet
  facet normal 0.789155 0.614195 0
    outer loop
      vertex 16.6065 6.04462 3
      vertex 16.302 6.43586 0
      vertex 16.302 6.43586 3
    endloop
  endfacet
  facet normal 0.789155 0.614195 0
    outer loop
      vertex 16.302 6.43586 0
      vertex 16.6065 6.04462 3
      vertex 16.6065 6.04462 0
    endloop
  endfacet
  facet normal 0.635726 0.771915 -0
    outer loop
      vertex 17.3349 5.37406 0
      vertex 16.9522 5.68924 3
      vertex 17.3349 5.37406 3
    endloop
  endfacet
  facet normal 0.635726 0.771915 0
    outer loop
      vertex 16.9522 5.68924 3
      vertex 17.3349 5.37406 0
      vertex 16.9522 5.68924 0
    endloop
  endfacet
  facet normal 0.993918 0.110126 0
    outer loop
      vertex 15.5614 8.25932 3
      vertex 15.5068 8.7521 0
      vertex 15.5068 8.7521 3
    endloop
  endfacet
  facet normal 0.993918 0.110126 0
    outer loop
      vertex 15.5068 8.7521 0
      vertex 15.5614 8.25932 3
      vertex 15.5614 8.25932 0
    endloop
  endfacet
  facet normal -0.401724 0.915761 0
    outer loop
      vertex 22.0319 4.98486 0
      vertex 21.5779 4.7857 3
      vertex 22.0319 4.98486 3
    endloop
  endfacet
  facet normal -0.401724 0.915761 0
    outer loop
      vertex 21.5779 4.7857 3
      vertex 22.0319 4.98486 0
      vertex 21.5779 4.7857 0
    endloop
  endfacet
  facet normal -0.962271 0.272093 0
    outer loop
      vertex 24.2562 7.53885 0
      vertex 24.3911 8.01593 3
      vertex 24.3911 8.01593 0
    endloop
  endfacet
  facet normal -0.962271 0.272093 0
    outer loop
      vertex 24.3911 8.01593 3
      vertex 24.2562 7.53885 0
      vertex 24.2562 7.53885 3
    endloop
  endfacet
  facet normal -0.926471 0.376365 0
    outer loop
      vertex 24.0696 7.07951 0
      vertex 24.2562 7.53885 3
      vertex 24.2562 7.53885 0
    endloop
  endfacet
  facet normal -0.926471 0.376365 0
    outer loop
      vertex 24.2562 7.53885 3
      vertex 24.0696 7.07951 0
      vertex 24.0696 7.07951 3
    endloop
  endfacet
  facet normal -0.0826949 -0.996575 0
    outer loop
      vertex 20.124 13.4983 0
      vertex 20.6181 13.4573 3
      vertex 20.124 13.4983 3
    endloop
  endfacet
  facet normal -0.0826949 -0.996575 -0
    outer loop
      vertex 20.6181 13.4573 3
      vertex 20.124 13.4983 0
      vertex 20.6181 13.4573 0
    endloop
  endfacet
  facet normal 0.945801 -0.324747 0
    outer loop
      vertex 15.6698 10.2245 3
      vertex 15.8308 10.6934 0
      vertex 15.8308 10.6934 3
    endloop
  endfacet
  facet normal 0.945801 -0.324747 0
    outer loop
      vertex 15.8308 10.6934 0
      vertex 15.6698 10.2245 3
      vertex 15.6698 10.2245 0
    endloop
  endfacet
  facet normal 0.451516 0.892263 -0
    outer loop
      vertex 18.1924 4.87902 0
      vertex 17.75 5.10289 3
      vertex 18.1924 4.87902 3
    endloop
  endfacet
  facet normal 0.451516 0.892263 0
    outer loop
      vertex 17.75 5.10289 3
      vertex 18.1924 4.87902 0
      vertex 17.75 5.10289 0
    endloop
  endfacet
  facet normal 0.7892 -0.614136 0
    outer loop
      vertex 16.302 11.5641 3
      vertex 16.6065 11.9554 0
      vertex 16.6065 11.9554 3
    endloop
  endfacet
  facet normal 0.7892 -0.614136 0
    outer loop
      vertex 16.6065 11.9554 0
      vertex 16.302 11.5641 3
      vertex 16.302 11.5641 0
    endloop
  endfacet
  facet normal 1 -0 0
    outer loop
      vertex 3 0 48
      vertex 3 18 3
      vertex 3 18 48
    endloop
  endfacet
  facet normal 1 0 0
    outer loop
      vertex 3 18 3
      vertex 3 0 48
      vertex 3 0 3
    endloop
  endfacet
  facet normal -0 0 1
    outer loop
      vertex -9 18 48
      vertex 3 0 48
      vertex 3 18 48
    endloop
  endfacet
  facet normal 0 0 1
    outer loop
      vertex 3 0 48
      vertex -9 18 48
      vertex -9 0 48
    endloop
  endfacet
  facet normal 1 -0 0
    outer loop
      vertex -6 0 45
      vertex -6 18 28
      vertex -6 18 45
    endloop
  endfacet
  facet normal 1 0 0
    outer loop
      vertex -6 18 28
      vertex -6 0 45
      vertex -6 0 28
    endloop
  endfacet
  facet normal 0 0 -1
    outer loop
      vertex -9 0 28
      vertex -6 18 28
      vertex -6 0 28
    endloop
  endfacet
  facet normal -0 0 -1
    outer loop
      vertex -6 18 28
      vertex -9 0 28
      vertex -9 18 28
    endloop
  endfacet
  facet normal -1 0 0
    outer loop
      vertex -9 0 28
      vertex -9 18 48
      vertex -9 18 28
    endloop
  endfacet
  facet normal -1 -0 0
    outer loop
      vertex -9 18 48
      vertex -9 0 28
      vertex -9 0 48
    endloop
  endfacet
  facet normal 0 0 -1
    outer loop
      vertex -6 0 45
      vertex 0 18 45
      vertex 0 0 45
    endloop
  endfacet
  facet normal -0 0 -1
    outer loop
      vertex 0 18 45
      vertex -6 0 45
      vertex -6 18 45
    endloop
  endfacet
endsolid OpenSCAD_Model
