M48
; DRILL file {KiCad 8.0.6} date 2024-10-24T02:40:51+0200
; FORMAT={-:-/ absolute / inch / decimal}
; #@! TF.CreationDate,2024-10-24T02:40:51+02:00
; #@! TF.GenerationSoftware,Kicad,Pcbnew,8.0.6
; #@! TF.FileFunction,Plated,1,2,PTH
FMAT,2
INCH
; #@! TA.AperFunction,Plated,PTH,ComponentDrill
T1C0.0315
; #@! TA.AperFunction,Plated,PTH,ComponentDrill
T2C0.0354
; #@! TA.AperFunction,Plated,PTH,ComponentDrill
T3C0.0394
; #@! TA.AperFunction,Plated,PTH,ComponentDrill
T4C0.0402
; #@! TA.AperFunction,Plated,PTH,ComponentDrill
T5C0.0433
; #@! TA.AperFunction,Plated,PTH,ComponentDrill
T6C0.0472
; #@! TA.AperFunction,Plated,PTH,ComponentDrill
T7C0.0512
%
G90
G05
T1
X3.1554Y-3.725
X3.3523Y-3.725
X6.0433Y-4.13
X6.0433Y-4.3269
T2
X4.05Y-3.73
X4.05Y-4.03
X4.6Y-2.15
X4.9Y-2.15
T3
X1.549Y-2.5494
X1.549Y-2.6494
X1.549Y-2.7494
X1.775Y-3.2
X1.775Y-3.3
X1.775Y-3.4
X1.775Y-3.5
X3.5Y-2.65
X3.5Y-2.75
X3.5Y-2.85
X3.5Y-2.95
X4.8Y-2.3
X4.9Y-2.3
X6.8291Y-4.1142
X6.9291Y-4.1142
T4
X6.4717Y-1.0457
X6.4717Y-1.1457
X6.4717Y-1.2457
X6.4717Y-1.3457
X6.4717Y-1.4457
X6.4717Y-1.5457
X6.4717Y-1.6457
X6.4717Y-1.7457
X6.4717Y-1.8457
X6.4717Y-1.9457
X6.4717Y-2.0457
X6.4717Y-2.1457
X6.4717Y-2.2457
X6.4717Y-2.3457
X6.4717Y-2.4457
X6.4717Y-2.5457
X6.4717Y-2.6457
X6.4717Y-2.7457
X6.4717Y-2.8457
X6.4717Y-2.9457
X6.7217Y-2.9366
X6.8217Y-2.9366
X6.9217Y-2.9366
X7.1717Y-1.0457
X7.1717Y-1.1457
X7.1717Y-1.2457
X7.1717Y-1.3457
X7.1717Y-1.4457
X7.1717Y-1.5457
X7.1717Y-1.6457
X7.1717Y-1.7457
X7.1717Y-1.8457
X7.1717Y-1.9457
X7.1717Y-2.0457
X7.1717Y-2.1457
X7.1717Y-2.2457
X7.1717Y-2.3457
X7.1717Y-2.4457
X7.1717Y-2.5457
X7.1717Y-2.6457
X7.1717Y-2.7457
X7.1717Y-2.8457
X7.1717Y-2.9457
T5
X2.0941Y-4.1
X2.0941Y-4.2772
X2.35Y-4.1
X2.35Y-4.2772
X3.372Y-4.1
X3.372Y-4.2772
X3.628Y-4.1
X3.628Y-4.2772
X4.6441Y-4.1
X4.6441Y-4.2772
X4.9Y-4.1
X4.9Y-4.2772
T6
X3.1Y-1.7
X3.2378Y-1.7
X7.4049Y-1.1124
X7.4049Y-1.4923
X7.5427Y-1.1124
X7.5427Y-1.4923
X7.7612Y-1.1124
X7.7612Y-1.4923
X7.899Y-1.1124
X7.899Y-1.4923
X8.1175Y-1.1124
X8.1175Y-1.4923
X8.2553Y-1.1124
X8.2553Y-1.4923
X8.4738Y-1.1124
X8.6116Y-1.1124
T7
X4.5498Y-1.8118
X4.7498Y-1.8118
X5.0498Y-1.8118
X5.2498Y-1.8118
X5.3Y-2.2
X5.3Y-2.4
X6.378Y-3.5827
X6.378Y-3.7827
X7.2047Y-3.5039
X7.4016Y-3.5039
M30
