%TF.GenerationSoftware,KiCad,Pcbnew,8.0.5+1*%
%TF.CreationDate,2024-11-01T08:39:33+01:00*%
%TF.ProjectId,openautolab,6f70656e-6175-4746-9f6c-61622e6b6963,rev?*%
%TF.SameCoordinates,Original*%
%TF.FileFunction,Copper,L1,Top*%
%TF.FilePolarity,Positive*%
%FSLAX46Y46*%
G04 Gerber Fmt 4.6, Leading zero omitted, Abs format (unit mm)*
G04 Created by KiCad (PCBNEW 8.0.5+1) date 2024-11-01 08:39:33*
%MOMM*%
%LPD*%
G01*
G04 APERTURE LIST*
G04 Aperture macros list*
%AMRoundRect*
0 Rectangle with rounded corners*
0 $1 Rounding radius*
0 $2 $3 $4 $5 $6 $7 $8 $9 X,Y pos of 4 corners*
0 Add a 4 corners polygon primitive as box body*
4,1,4,$2,$3,$4,$5,$6,$7,$8,$9,$2,$3,0*
0 Add four circle primitives for the rounded corners*
1,1,$1+$1,$2,$3*
1,1,$1+$1,$4,$5*
1,1,$1+$1,$6,$7*
1,1,$1+$1,$8,$9*
0 Add four rect primitives between the rounded corners*
20,1,$1+$1,$2,$3,$4,$5,0*
20,1,$1+$1,$4,$5,$6,$7,0*
20,1,$1+$1,$6,$7,$8,$9,0*
20,1,$1+$1,$8,$9,$2,$3,0*%
G04 Aperture macros list end*
%TA.AperFunction,EtchedComponent*%
%ADD10C,0.000000*%
%TD*%
%TA.AperFunction,SMDPad,CuDef*%
%ADD11C,0.500000*%
%TD*%
%TA.AperFunction,ComponentPad*%
%ADD12R,2.400000X2.400000*%
%TD*%
%TA.AperFunction,ComponentPad*%
%ADD13C,2.400000*%
%TD*%
%TA.AperFunction,SMDPad,CuDef*%
%ADD14RoundRect,0.150000X-0.587500X-0.150000X0.587500X-0.150000X0.587500X0.150000X-0.587500X0.150000X0*%
%TD*%
%TA.AperFunction,SMDPad,CuDef*%
%ADD15RoundRect,0.200000X-0.200000X-0.275000X0.200000X-0.275000X0.200000X0.275000X-0.200000X0.275000X0*%
%TD*%
%TA.AperFunction,SMDPad,CuDef*%
%ADD16RoundRect,0.112500X-0.187500X-0.112500X0.187500X-0.112500X0.187500X0.112500X-0.187500X0.112500X0*%
%TD*%
%TA.AperFunction,ComponentPad*%
%ADD17R,2.600000X2.600000*%
%TD*%
%TA.AperFunction,ComponentPad*%
%ADD18C,2.600000*%
%TD*%
%TA.AperFunction,SMDPad,CuDef*%
%ADD19R,1.550000X1.300000*%
%TD*%
%TA.AperFunction,SMDPad,CuDef*%
%ADD20RoundRect,0.150000X0.150000X-0.825000X0.150000X0.825000X-0.150000X0.825000X-0.150000X-0.825000X0*%
%TD*%
%TA.AperFunction,HeatsinkPad*%
%ADD21R,3.300000X2.410000*%
%TD*%
%TA.AperFunction,SMDPad,CuDef*%
%ADD22RoundRect,0.250000X1.750000X1.000000X-1.750000X1.000000X-1.750000X-1.000000X1.750000X-1.000000X0*%
%TD*%
%TA.AperFunction,ComponentPad*%
%ADD23R,1.700000X1.700000*%
%TD*%
%TA.AperFunction,ComponentPad*%
%ADD24O,1.700000X1.700000*%
%TD*%
%TA.AperFunction,SMDPad,CuDef*%
%ADD25RoundRect,0.250000X-1.500000X-0.550000X1.500000X-0.550000X1.500000X0.550000X-1.500000X0.550000X0*%
%TD*%
%TA.AperFunction,SMDPad,CuDef*%
%ADD26R,1.700000X3.500000*%
%TD*%
%TA.AperFunction,SMDPad,CuDef*%
%ADD27R,3.500000X1.700000*%
%TD*%
%TA.AperFunction,SMDPad,CuDef*%
%ADD28R,2.350000X1.000000*%
%TD*%
%TA.AperFunction,SMDPad,CuDef*%
%ADD29RoundRect,0.250000X-0.300000X2.050000X-0.300000X-2.050000X0.300000X-2.050000X0.300000X2.050000X0*%
%TD*%
%TA.AperFunction,SMDPad,CuDef*%
%ADD30RoundRect,0.250000X-2.375000X2.025000X-2.375000X-2.025000X2.375000X-2.025000X2.375000X2.025000X0*%
%TD*%
%TA.AperFunction,SMDPad,CuDef*%
%ADD31RoundRect,0.250002X-5.149998X4.449998X-5.149998X-4.449998X5.149998X-4.449998X5.149998X4.449998X0*%
%TD*%
%TA.AperFunction,SMDPad,CuDef*%
%ADD32R,5.400000X2.900000*%
%TD*%
%TA.AperFunction,SMDPad,CuDef*%
%ADD33RoundRect,0.250000X-0.475000X0.250000X-0.475000X-0.250000X0.475000X-0.250000X0.475000X0.250000X0*%
%TD*%
%TA.AperFunction,ViaPad*%
%ADD34C,1.000000*%
%TD*%
%TA.AperFunction,ViaPad*%
%ADD35C,1.400000*%
%TD*%
%TA.AperFunction,Conductor*%
%ADD36C,0.500000*%
%TD*%
%TA.AperFunction,Conductor*%
%ADD37C,1.400000*%
%TD*%
%TA.AperFunction,Conductor*%
%ADD38C,0.601000*%
%TD*%
%TA.AperFunction,Conductor*%
%ADD39C,0.801400*%
%TD*%
G04 APERTURE END LIST*
D10*
%TA.AperFunction,EtchedComponent*%
%TO.C,NT1*%
G36*
X111200000Y-81750000D02*
G01*
X110200000Y-81750000D01*
X110200000Y-81250000D01*
X111200000Y-81250000D01*
X111200000Y-81750000D01*
G37*
%TD.AperFunction*%
%TD*%
D11*
%TO.P,NT1,1,1*%
%TO.N,GNDPWR*%
X111200000Y-81500000D03*
%TO.P,NT1,2,2*%
%TO.N,GND*%
X110200000Y-81500000D03*
%TD*%
D12*
%TO.P,J1,1,Pin_1*%
%TO.N,+12V*%
X96750000Y-39800000D03*
D13*
%TO.P,J1,2,Pin_2*%
%TO.N,Net-(D2-A)*%
X100250000Y-39800000D03*
%TD*%
D14*
%TO.P,Q9,1,G*%
%TO.N,Net-(Q9-G)*%
X131125000Y-51550000D03*
%TO.P,Q9,2,S*%
%TO.N,GNDPWR*%
X131125000Y-53450000D03*
%TO.P,Q9,3,D*%
%TO.N,Net-(D11-A)*%
X133000000Y-52500000D03*
%TD*%
D12*
%TO.P,J8,1,Pin_1*%
%TO.N,+12V*%
X45750000Y-39800000D03*
D13*
%TO.P,J8,2,Pin_2*%
%TO.N,Net-(D9-A)*%
X49250000Y-39800000D03*
%TD*%
D12*
%TO.P,J5,1,Pin_1*%
%TO.N,+12V*%
X62750000Y-39800000D03*
D13*
%TO.P,J5,2,Pin_2*%
%TO.N,Net-(D6-A)*%
X66250000Y-39800000D03*
%TD*%
D15*
%TO.P,R13,1*%
%TO.N,Net-(U3-GPIO1)*%
X53350000Y-51500000D03*
%TO.P,R13,2*%
%TO.N,Net-(Q7-G)*%
X55000000Y-51500000D03*
%TD*%
D16*
%TO.P,D4,1,K*%
%TO.N,+12V*%
X82400000Y-46500000D03*
%TO.P,D4,2,A*%
%TO.N,Net-(D4-A)*%
X84500000Y-46500000D03*
%TD*%
D17*
%TO.P,J11,1,Pin_1*%
%TO.N,Net-(J11-Pin_1)*%
X131000000Y-60000000D03*
D18*
%TO.P,J11,2,Pin_2*%
%TO.N,Net-(J11-Pin_2)*%
X131000000Y-65080000D03*
%TD*%
D17*
%TO.P,J10,1,Pin_1*%
%TO.N,+12V*%
X126420000Y-42500000D03*
D18*
%TO.P,J10,2,Pin_2*%
%TO.N,Net-(D11-A)*%
X131500000Y-42500000D03*
%TD*%
D15*
%TO.P,R3,1*%
%TO.N,Net-(U3-GPIO6)*%
X87350000Y-51500000D03*
%TO.P,R3,2*%
%TO.N,Net-(Q2-G)*%
X89000000Y-51500000D03*
%TD*%
D19*
%TO.P,SW1,1,1*%
%TO.N,Net-(U3-GPIO21)*%
X85025000Y-111750000D03*
X92975000Y-111750000D03*
%TO.P,SW1,2,2*%
%TO.N,GND*%
X85025000Y-116250000D03*
X92975000Y-116250000D03*
%TD*%
D15*
%TO.P,R8,1*%
%TO.N,Net-(Q4-G)*%
X70350000Y-49500000D03*
%TO.P,R8,2*%
%TO.N,GNDPWR*%
X72000000Y-49500000D03*
%TD*%
%TO.P,R10,1*%
%TO.N,Net-(Q5-G)*%
X61850000Y-49500000D03*
%TO.P,R10,2*%
%TO.N,GNDPWR*%
X63500000Y-49500000D03*
%TD*%
D12*
%TO.P,J4,1,Pin_1*%
%TO.N,+12V*%
X71250000Y-39800000D03*
D13*
%TO.P,J4,2,Pin_2*%
%TO.N,Net-(D5-A)*%
X74750000Y-39800000D03*
%TD*%
D12*
%TO.P,J2,1,Pin_1*%
%TO.N,+12V*%
X88250000Y-39800000D03*
D13*
%TO.P,J2,2,Pin_2*%
%TO.N,Net-(D3-A)*%
X91750000Y-39800000D03*
%TD*%
D14*
%TO.P,Q1,1,G*%
%TO.N,Net-(Q1-G)*%
X99625000Y-48550000D03*
%TO.P,Q1,2,S*%
%TO.N,GNDPWR*%
X99625000Y-50450000D03*
%TO.P,Q1,3,D*%
%TO.N,Net-(D2-A)*%
X101500000Y-49500000D03*
%TD*%
D15*
%TO.P,R4,1*%
%TO.N,Net-(Q2-G)*%
X87350000Y-49500000D03*
%TO.P,R4,2*%
%TO.N,GNDPWR*%
X89000000Y-49500000D03*
%TD*%
%TO.P,R15,1*%
%TO.N,Net-(U3-GPIO0)*%
X44850000Y-51500000D03*
%TO.P,R15,2*%
%TO.N,Net-(Q8-G)*%
X46500000Y-51500000D03*
%TD*%
D14*
%TO.P,Q7,1,G*%
%TO.N,Net-(Q7-G)*%
X57125000Y-48550000D03*
%TO.P,Q7,2,S*%
%TO.N,GNDPWR*%
X57125000Y-50450000D03*
%TO.P,Q7,3,D*%
%TO.N,Net-(D8-A)*%
X59000000Y-49500000D03*
%TD*%
D15*
%TO.P,R5,1*%
%TO.N,Net-(U3-GPIO5)*%
X78675000Y-51500000D03*
%TO.P,R5,2*%
%TO.N,Net-(Q3-G)*%
X80325000Y-51500000D03*
%TD*%
D19*
%TO.P,SW2,1,1*%
%TO.N,Net-(U3-GPIO22)*%
X104025000Y-111750000D03*
X111975000Y-111750000D03*
%TO.P,SW2,2,2*%
%TO.N,GND*%
X104025000Y-116250000D03*
X111975000Y-116250000D03*
%TD*%
D12*
%TO.P,J3,1,Pin_1*%
%TO.N,+12V*%
X79750000Y-39800000D03*
D13*
%TO.P,J3,2,Pin_2*%
%TO.N,Net-(D4-A)*%
X83250000Y-39800000D03*
%TD*%
D19*
%TO.P,SW0,1,1*%
%TO.N,Net-(U3-GPIO20)*%
X66025000Y-111750000D03*
X73975000Y-111750000D03*
%TO.P,SW0,2,2*%
%TO.N,GND*%
X66025000Y-116250000D03*
X73975000Y-116250000D03*
%TD*%
D20*
%TO.P,U4,1,GND*%
%TO.N,GNDPWR*%
X114770000Y-55075000D03*
%TO.P,U4,2,IN2*%
%TO.N,Net-(U3-GPIO10)*%
X116040000Y-55075000D03*
%TO.P,U4,3,IN1*%
%TO.N,Net-(U3-GPIO11)*%
X117310000Y-55075000D03*
%TO.P,U4,4,VREF*%
%TO.N,unconnected-(U4-VREF-Pad4)*%
X118580000Y-55075000D03*
%TO.P,U4,5,VBB*%
%TO.N,+12V*%
X118580000Y-50125000D03*
%TO.P,U4,6,OUT1*%
%TO.N,Net-(J9-Pin_2)*%
X117310000Y-50125000D03*
%TO.P,U4,7,LSS*%
%TO.N,unconnected-(U4-LSS-Pad7)*%
X116040000Y-50125000D03*
%TO.P,U4,8,OUT2*%
%TO.N,Net-(J9-Pin_1)*%
X114770000Y-50125000D03*
D21*
%TO.P,U4,9,PAD*%
%TO.N,GNDPWR*%
X116675000Y-52600000D03*
%TD*%
D16*
%TO.P,D3,1,K*%
%TO.N,+12V*%
X90900000Y-46500000D03*
%TO.P,D3,2,A*%
%TO.N,Net-(D3-A)*%
X93000000Y-46500000D03*
%TD*%
%TO.P,D8,1,K*%
%TO.N,+12V*%
X56900000Y-46500000D03*
%TO.P,D8,2,A*%
%TO.N,Net-(D8-A)*%
X59000000Y-46500000D03*
%TD*%
D15*
%TO.P,R7,1*%
%TO.N,Net-(U3-GPIO4)*%
X70350000Y-51500000D03*
%TO.P,R7,2*%
%TO.N,Net-(Q4-G)*%
X72000000Y-51500000D03*
%TD*%
D22*
%TO.P,C1,1*%
%TO.N,+12V*%
X122000000Y-63500000D03*
%TO.P,C1,2*%
%TO.N,GNDPWR*%
X114000000Y-63500000D03*
%TD*%
D14*
%TO.P,Q4,1,G*%
%TO.N,Net-(Q4-G)*%
X74125000Y-48550000D03*
%TO.P,Q4,2,S*%
%TO.N,GNDPWR*%
X74125000Y-50450000D03*
%TO.P,Q4,3,D*%
%TO.N,Net-(D5-A)*%
X76000000Y-49500000D03*
%TD*%
%TO.P,Q8,1,G*%
%TO.N,Net-(Q8-G)*%
X48625000Y-48550000D03*
%TO.P,Q8,2,S*%
%TO.N,GNDPWR*%
X48625000Y-50450000D03*
%TO.P,Q8,3,D*%
%TO.N,Net-(D9-A)*%
X50500000Y-49500000D03*
%TD*%
D16*
%TO.P,D5,1,K*%
%TO.N,+12V*%
X73900000Y-46500000D03*
%TO.P,D5,2,A*%
%TO.N,Net-(D5-A)*%
X76000000Y-46500000D03*
%TD*%
D23*
%TO.P,J14,1,Pin_1*%
%TO.N,GND*%
X43000000Y-111500000D03*
D24*
%TO.P,J14,2,Pin_2*%
%TO.N,+5V*%
X43000000Y-108960000D03*
%TO.P,J14,3,Pin_3*%
%TO.N,Net-(J14-Pin_3)*%
X43000000Y-106420000D03*
%TD*%
D12*
%TO.P,J7,1,Pin_1*%
%TO.N,+12V*%
X54250000Y-39800000D03*
D13*
%TO.P,J7,2,Pin_2*%
%TO.N,Net-(D8-A)*%
X57750000Y-39800000D03*
%TD*%
D16*
%TO.P,D11,1,K*%
%TO.N,+12V*%
X131400000Y-49500000D03*
%TO.P,D11,2,A*%
%TO.N,Net-(D11-A)*%
X133500000Y-49500000D03*
%TD*%
D23*
%TO.P,J13,1,Pin_1*%
%TO.N,GND*%
X47675000Y-97800000D03*
D24*
%TO.P,J13,2,Pin_2*%
%TO.N,Net-(J13-Pin_2)*%
X47675000Y-95260000D03*
%TO.P,J13,3,Pin_3*%
%TO.N,Net-(J13-Pin_3)*%
X47675000Y-92720000D03*
%TO.P,J13,4,Pin_4*%
%TO.N,+5V*%
X47675000Y-90180000D03*
%TD*%
D17*
%TO.P,J12,1,Pin_1*%
%TO.N,GNDPWR*%
X131000000Y-106500000D03*
D18*
%TO.P,J12,2,Pin_2*%
%TO.N,+12V*%
X131000000Y-111580000D03*
%TD*%
D15*
%TO.P,R1,1*%
%TO.N,Net-(U3-GPIO7)*%
X95850000Y-51500000D03*
%TO.P,R1,2*%
%TO.N,Net-(Q1-G)*%
X97500000Y-51500000D03*
%TD*%
D14*
%TO.P,Q6,1,G*%
%TO.N,Net-(Q6-G)*%
X108125000Y-48550000D03*
%TO.P,Q6,2,S*%
%TO.N,GNDPWR*%
X108125000Y-50450000D03*
%TO.P,Q6,3,D*%
%TO.N,Net-(D7-A)*%
X110000000Y-49500000D03*
%TD*%
D15*
%TO.P,R12,1*%
%TO.N,Net-(Q6-G)*%
X104350000Y-49500000D03*
%TO.P,R12,2*%
%TO.N,GNDPWR*%
X106000000Y-49500000D03*
%TD*%
D12*
%TO.P,J6,1,Pin_1*%
%TO.N,+12V*%
X105250000Y-39800000D03*
D13*
%TO.P,J6,2,Pin_2*%
%TO.N,Net-(D7-A)*%
X108750000Y-39800000D03*
%TD*%
D25*
%TO.P,C2,1*%
%TO.N,+5V*%
X102600000Y-59500000D03*
%TO.P,C2,2*%
%TO.N,GND*%
X108000000Y-59500000D03*
%TD*%
D17*
%TO.P,J9,1,Pin_1*%
%TO.N,Net-(J9-Pin_1)*%
X114455000Y-42500000D03*
D18*
%TO.P,J9,2,Pin_2*%
%TO.N,Net-(J9-Pin_2)*%
X119535000Y-42500000D03*
%TD*%
D24*
%TO.P,U3,1,GPIO0*%
%TO.N,Net-(U3-GPIO0)*%
X45180000Y-76280000D03*
D26*
X45180000Y-77180000D03*
D24*
%TO.P,U3,2,GPIO1*%
%TO.N,Net-(U3-GPIO1)*%
X47720000Y-76280000D03*
D26*
X47720000Y-77180000D03*
D23*
%TO.P,U3,3,GND*%
%TO.N,unconnected-(U3-GND-Pad3)*%
X50260000Y-76280000D03*
D26*
X50260000Y-77180000D03*
D24*
%TO.P,U3,4,GPIO2*%
%TO.N,Net-(U3-GPIO2)*%
X52800000Y-76280000D03*
D26*
X52800000Y-77180000D03*
D24*
%TO.P,U3,5,GPIO3*%
%TO.N,Net-(U3-GPIO3)*%
X55340000Y-76280000D03*
D26*
X55340000Y-77180000D03*
D24*
%TO.P,U3,6,GPIO4*%
%TO.N,Net-(U3-GPIO4)*%
X57880000Y-76280000D03*
D26*
X57880000Y-77180000D03*
D24*
%TO.P,U3,7,GPIO5*%
%TO.N,Net-(U3-GPIO5)*%
X60420000Y-76280000D03*
D26*
X60420000Y-77180000D03*
D23*
%TO.P,U3,8,GND*%
%TO.N,unconnected-(U3-GND-Pad8)*%
X62960000Y-76280000D03*
D26*
X62960000Y-77180000D03*
D24*
%TO.P,U3,9,GPIO6*%
%TO.N,Net-(U3-GPIO6)*%
X65500000Y-76280000D03*
D26*
X65500000Y-77180000D03*
D24*
%TO.P,U3,10,GPIO7*%
%TO.N,Net-(U3-GPIO7)*%
X68040000Y-76280000D03*
D26*
X68040000Y-77180000D03*
D24*
%TO.P,U3,11,GPIO8*%
%TO.N,unconnected-(U3-GPIO8-Pad11)*%
X70580000Y-76280000D03*
D26*
X70580000Y-77180000D03*
D24*
%TO.P,U3,12,GPIO9*%
%TO.N,unconnected-(U3-GPIO9-Pad12)*%
X73120000Y-76280000D03*
D26*
X73120000Y-77180000D03*
D23*
%TO.P,U3,13,GND*%
%TO.N,unconnected-(U3-GND-Pad13)*%
X75660000Y-76280000D03*
D26*
X75660000Y-77180000D03*
D24*
%TO.P,U3,14,GPIO10*%
%TO.N,Net-(U3-GPIO10)*%
X78200000Y-76280000D03*
D26*
X78200000Y-77180000D03*
D24*
%TO.P,U3,15,GPIO11*%
%TO.N,Net-(U3-GPIO11)*%
X80740000Y-76280000D03*
D26*
X80740000Y-77180000D03*
D24*
%TO.P,U3,16,GPIO12*%
%TO.N,Net-(J14-Pin_3)*%
X83280000Y-76280000D03*
D26*
X83280000Y-77180000D03*
D24*
%TO.P,U3,17,GPIO13*%
%TO.N,unconnected-(U3-GPIO13-Pad17)*%
X85820000Y-76280000D03*
D26*
X85820000Y-77180000D03*
D23*
%TO.P,U3,18,GND*%
%TO.N,GND*%
X88360000Y-76280000D03*
D26*
X88360000Y-77180000D03*
D24*
%TO.P,U3,19,GPIO14*%
%TO.N,Net-(J15-Pin_4)*%
X90900000Y-76280000D03*
D26*
X90900000Y-77180000D03*
D24*
%TO.P,U3,20,GPIO15*%
%TO.N,Net-(J15-Pin_3)*%
X93440000Y-76280000D03*
D26*
X93440000Y-77180000D03*
D24*
%TO.P,U3,21,GPIO16*%
%TO.N,Net-(J13-Pin_2)*%
X93440000Y-58500000D03*
D26*
X93440000Y-57600000D03*
D24*
%TO.P,U3,22,GPIO17*%
%TO.N,Net-(J13-Pin_3)*%
X90900000Y-58500000D03*
D26*
X90900000Y-57600000D03*
D23*
%TO.P,U3,23,GND*%
%TO.N,unconnected-(U3-GND-Pad23)*%
X88360000Y-58500000D03*
D26*
X88360000Y-57600000D03*
D24*
%TO.P,U3,24,GPIO18*%
%TO.N,unconnected-(U3-GPIO18-Pad24)*%
X85820000Y-58500000D03*
D26*
X85820000Y-57600000D03*
D24*
%TO.P,U3,25,GPIO19*%
%TO.N,unconnected-(U3-GPIO19-Pad25)*%
X83280000Y-58500000D03*
D26*
X83280000Y-57600000D03*
D24*
%TO.P,U3,26,GPIO20*%
%TO.N,Net-(U3-GPIO20)*%
X80740000Y-58500000D03*
D26*
X80740000Y-57600000D03*
D24*
%TO.P,U3,27,GPIO21*%
%TO.N,Net-(U3-GPIO21)*%
X78200000Y-58500000D03*
D26*
X78200000Y-57600000D03*
D23*
%TO.P,U3,28,GND*%
%TO.N,unconnected-(U3-GND-Pad28)*%
X75660000Y-58500000D03*
D26*
X75660000Y-57600000D03*
D24*
%TO.P,U3,29,GPIO22*%
%TO.N,Net-(U3-GPIO22)*%
X73120000Y-58500000D03*
D26*
X73120000Y-57600000D03*
D24*
%TO.P,U3,30,RUN*%
%TO.N,unconnected-(U3-RUN-Pad30)*%
X70580000Y-58500000D03*
D26*
X70580000Y-57600000D03*
D24*
%TO.P,U3,31,GPIO26_ADC0*%
%TO.N,unconnected-(U3-GPIO26_ADC0-Pad31)*%
X68040000Y-58500000D03*
D26*
X68040000Y-57600000D03*
D24*
%TO.P,U3,32,GPIO27_ADC1*%
%TO.N,unconnected-(U3-GPIO27_ADC1-Pad32)*%
X65500000Y-58500000D03*
D26*
X65500000Y-57600000D03*
D23*
%TO.P,U3,33,AGND*%
%TO.N,unconnected-(U3-AGND-Pad33)*%
X62960000Y-58500000D03*
D26*
X62960000Y-57600000D03*
D24*
%TO.P,U3,34,GPIO28_ADC2*%
%TO.N,unconnected-(U3-GPIO28_ADC2-Pad34)*%
X60420000Y-58500000D03*
D26*
X60420000Y-57600000D03*
D24*
%TO.P,U3,35,ADC_VREF*%
%TO.N,unconnected-(U3-ADC_VREF-Pad35)*%
X57880000Y-58500000D03*
D26*
X57880000Y-57600000D03*
D24*
%TO.P,U3,36,3V3*%
%TO.N,unconnected-(U3-3V3-Pad36)*%
X55340000Y-58500000D03*
D26*
X55340000Y-57600000D03*
D24*
%TO.P,U3,37,3V3_EN*%
%TO.N,unconnected-(U3-3V3_EN-Pad37)*%
X52800000Y-58500000D03*
D26*
X52800000Y-57600000D03*
D23*
%TO.P,U3,38,GND*%
%TO.N,unconnected-(U3-GND-Pad38)*%
X50260000Y-58500000D03*
D26*
X50260000Y-57600000D03*
D24*
%TO.P,U3,39,VSYS*%
%TO.N,+5V*%
X47720000Y-58500000D03*
D26*
X47720000Y-57600000D03*
D24*
%TO.P,U3,40,VBUS*%
%TO.N,unconnected-(U3-VBUS-Pad40)*%
X45180000Y-58500000D03*
D26*
X45180000Y-57600000D03*
D24*
%TO.P,U3,41,SWCLK*%
%TO.N,unconnected-(U3-SWCLK-Pad41)*%
X93210000Y-69930000D03*
D27*
X94110000Y-69930000D03*
D23*
%TO.P,U3,42,GND*%
%TO.N,unconnected-(U3-GND-Pad42)*%
X93210000Y-67390000D03*
D27*
X94110000Y-67390000D03*
D24*
%TO.P,U3,43,SWDIO*%
%TO.N,unconnected-(U3-SWDIO-Pad43)*%
X93210000Y-64850000D03*
D27*
X94110000Y-64850000D03*
%TD*%
D15*
%TO.P,R6,1*%
%TO.N,Net-(Q3-G)*%
X78675000Y-49500000D03*
%TO.P,R6,2*%
%TO.N,GNDPWR*%
X80325000Y-49500000D03*
%TD*%
%TO.P,R2,1*%
%TO.N,Net-(Q1-G)*%
X95850000Y-49500000D03*
%TO.P,R2,2*%
%TO.N,GNDPWR*%
X97500000Y-49500000D03*
%TD*%
D28*
%TO.P,SW3,1,A*%
%TO.N,Net-(J11-Pin_1)*%
X127670000Y-72000000D03*
%TO.P,SW3,2,B*%
%TO.N,+5V*%
X127670000Y-74000000D03*
%TO.P,SW3,3*%
%TO.N,N/C*%
X127670000Y-76000000D03*
%TO.P,SW3,4*%
X134330000Y-72000000D03*
%TO.P,SW3,5*%
X134330000Y-74000000D03*
%TO.P,SW3,6*%
X134330000Y-76000000D03*
%TD*%
D15*
%TO.P,R9,1*%
%TO.N,Net-(U3-GPIO3)*%
X61850000Y-51500000D03*
%TO.P,R9,2*%
%TO.N,Net-(Q5-G)*%
X63500000Y-51500000D03*
%TD*%
D16*
%TO.P,D7,1,K*%
%TO.N,+12V*%
X107900000Y-46500000D03*
%TO.P,D7,2,A*%
%TO.N,Net-(D7-A)*%
X110000000Y-46500000D03*
%TD*%
D15*
%TO.P,R14,1*%
%TO.N,Net-(Q7-G)*%
X53350000Y-49500000D03*
%TO.P,R14,2*%
%TO.N,GNDPWR*%
X55000000Y-49500000D03*
%TD*%
D16*
%TO.P,D6,1,K*%
%TO.N,+12V*%
X65400000Y-46500000D03*
%TO.P,D6,2,A*%
%TO.N,Net-(D6-A)*%
X67500000Y-46500000D03*
%TD*%
D15*
%TO.P,R16,1*%
%TO.N,Net-(Q8-G)*%
X44850000Y-49500000D03*
%TO.P,R16,2*%
%TO.N,GNDPWR*%
X46500000Y-49500000D03*
%TD*%
D16*
%TO.P,D2,1,K*%
%TO.N,+12V*%
X99400000Y-46500000D03*
%TO.P,D2,2,A*%
%TO.N,Net-(D2-A)*%
X101500000Y-46500000D03*
%TD*%
D14*
%TO.P,Q2,1,G*%
%TO.N,Net-(Q2-G)*%
X91125000Y-48550000D03*
%TO.P,Q2,2,S*%
%TO.N,GNDPWR*%
X91125000Y-50450000D03*
%TO.P,Q2,3,D*%
%TO.N,Net-(D3-A)*%
X93000000Y-49500000D03*
%TD*%
%TO.P,Q5,1,G*%
%TO.N,Net-(Q5-G)*%
X65625000Y-48550000D03*
%TO.P,Q5,2,S*%
%TO.N,GNDPWR*%
X65625000Y-50450000D03*
%TO.P,Q5,3,D*%
%TO.N,Net-(D6-A)*%
X67500000Y-49500000D03*
%TD*%
D29*
%TO.P,U2,1,VIN*%
%TO.N,+12V*%
X121400000Y-73350000D03*
%TO.P,U2,2,OUT*%
%TO.N,Net-(D1-K)*%
X119700000Y-73350000D03*
%TO.P,U2,3,GND*%
%TO.N,GNDPWR*%
X118000000Y-73350000D03*
D30*
X120775000Y-80075000D03*
X115225000Y-80075000D03*
D31*
X118000000Y-82500000D03*
D30*
X120775000Y-84925000D03*
X115225000Y-84925000D03*
D29*
%TO.P,U2,4,FB*%
%TO.N,+5V*%
X116300000Y-73350000D03*
%TO.P,U2,5,~{ON}/OFF*%
%TO.N,GNDPWR*%
X114600000Y-73350000D03*
%TD*%
D32*
%TO.P,L1,1,1*%
%TO.N,+5V*%
X104500000Y-67550000D03*
%TO.P,L1,2,2*%
%TO.N,Net-(D1-K)*%
X104500000Y-77450000D03*
%TD*%
D16*
%TO.P,D9,1,K*%
%TO.N,+12V*%
X48500000Y-46500000D03*
%TO.P,D9,2,A*%
%TO.N,Net-(D9-A)*%
X50600000Y-46500000D03*
%TD*%
D15*
%TO.P,R17,1*%
%TO.N,Net-(J11-Pin_2)*%
X127350000Y-54500000D03*
%TO.P,R17,2*%
%TO.N,Net-(Q9-G)*%
X129000000Y-54500000D03*
%TD*%
D14*
%TO.P,Q3,1,G*%
%TO.N,Net-(Q3-G)*%
X82625000Y-48550000D03*
%TO.P,Q3,2,S*%
%TO.N,GNDPWR*%
X82625000Y-50450000D03*
%TO.P,Q3,3,D*%
%TO.N,Net-(D4-A)*%
X84500000Y-49500000D03*
%TD*%
D23*
%TO.P,J15,1,Pin_1*%
%TO.N,GND*%
X85200000Y-82975000D03*
D24*
%TO.P,J15,2,Pin_2*%
%TO.N,+5V*%
X87740000Y-82975000D03*
%TO.P,J15,3,Pin_3*%
%TO.N,Net-(J15-Pin_3)*%
X90280000Y-82975000D03*
%TO.P,J15,4,Pin_4*%
%TO.N,Net-(J15-Pin_4)*%
X92820000Y-82975000D03*
%TD*%
D16*
%TO.P,D1,1,K*%
%TO.N,Net-(D1-K)*%
X107150000Y-81500000D03*
%TO.P,D1,2,A*%
%TO.N,GND*%
X109250000Y-81500000D03*
%TD*%
D33*
%TO.P,C3,1*%
%TO.N,+12V*%
X120500000Y-49500000D03*
%TO.P,C3,2*%
%TO.N,GNDPWR*%
X120500000Y-51400000D03*
%TD*%
D15*
%TO.P,R11,1*%
%TO.N,Net-(U3-GPIO2)*%
X104350000Y-51500000D03*
%TO.P,R11,2*%
%TO.N,Net-(Q6-G)*%
X106000000Y-51500000D03*
%TD*%
%TO.P,R18,1*%
%TO.N,Net-(Q9-G)*%
X127350000Y-52500000D03*
%TO.P,R18,2*%
%TO.N,GNDPWR*%
X129000000Y-52500000D03*
%TD*%
D34*
%TO.N,Net-(U3-GPIO6)*%
X95156400Y-58728100D03*
X86177100Y-51535800D03*
%TO.N,Net-(U3-GPIO5)*%
X75755800Y-51386100D03*
%TO.N,Net-(U3-GPIO4)*%
X68029500Y-51572600D03*
%TO.N,Net-(U3-GPIO3)*%
X60494600Y-51403400D03*
%TO.N,Net-(U3-GPIO2)*%
X102757400Y-51438400D03*
%TO.N,Net-(D1-K)*%
X119612900Y-76402000D03*
X107947600Y-78425000D03*
%TO.N,+5V*%
X45657200Y-73677400D03*
X124798400Y-72299900D03*
X109080900Y-67093500D03*
X116002000Y-70309500D03*
%TO.N,Net-(U3-GPIO1)*%
X51968200Y-51500000D03*
%TO.N,Net-(U3-GPIO20)*%
X86170300Y-93909200D03*
%TO.N,Net-(U3-GPIO21)*%
X90062200Y-89244900D03*
%TO.N,Net-(U3-GPIO22)*%
X91429300Y-86544300D03*
D35*
%TO.N,GNDPWR*%
X100037500Y-51950200D03*
X94914400Y-53121300D03*
%TD*%
D36*
%TO.N,Net-(D2-A)*%
X101500000Y-46500000D02*
X101500000Y-49500000D01*
X100250000Y-39800000D02*
X100250000Y-45250000D01*
X100250000Y-45250000D02*
X101500000Y-46500000D01*
D37*
%TO.N,Net-(D3-A)*%
X93000000Y-49500000D02*
X93000000Y-46500000D01*
X93000000Y-46500000D02*
X93000000Y-41050000D01*
X93000000Y-41050000D02*
X91750000Y-39800000D01*
%TO.N,Net-(D4-A)*%
X84500000Y-49500000D02*
X84500000Y-46500000D01*
X84500000Y-41050000D02*
X83250000Y-39800000D01*
X84500000Y-46500000D02*
X84500000Y-41050000D01*
%TO.N,Net-(D5-A)*%
X76000000Y-41050000D02*
X74750000Y-39800000D01*
X76000000Y-49500000D02*
X76000000Y-46500000D01*
X76000000Y-46500000D02*
X76000000Y-41050000D01*
%TO.N,Net-(D6-A)*%
X67500000Y-41050000D02*
X66250000Y-39800000D01*
X67500000Y-49500000D02*
X67500000Y-46500000D01*
X67500000Y-46500000D02*
X67500000Y-41050000D01*
%TO.N,Net-(D7-A)*%
X110000000Y-46500000D02*
X110000000Y-49500000D01*
X110000000Y-41050000D02*
X110000000Y-46500000D01*
X108750000Y-39800000D02*
X110000000Y-41050000D01*
%TO.N,Net-(D8-A)*%
X59000000Y-49500000D02*
X59000000Y-46500000D01*
X59000000Y-46500000D02*
X59000000Y-41050000D01*
X59000000Y-41050000D02*
X57750000Y-39800000D01*
%TO.N,Net-(D9-A)*%
X50500000Y-49500000D02*
X50500000Y-46600000D01*
X50500000Y-46600000D02*
X50600000Y-46500000D01*
X50600000Y-46500000D02*
X50600000Y-41150000D01*
X50600000Y-41150000D02*
X49250000Y-39800000D01*
D36*
%TO.N,Net-(J14-Pin_3)*%
X54741900Y-106420000D02*
X43000000Y-106420000D01*
X83280000Y-76280000D02*
X83280000Y-77881900D01*
X83280000Y-77881900D02*
X54741900Y-106420000D01*
%TO.N,Net-(Q1-G)*%
X96883800Y-48148200D02*
X95850000Y-49182000D01*
X99625000Y-48550000D02*
X99223200Y-48148200D01*
X95850000Y-49500000D02*
X95850000Y-49854200D01*
X97495800Y-51500000D02*
X97500000Y-51500000D01*
X95850000Y-49182000D02*
X95850000Y-49500000D01*
X99223200Y-48148200D02*
X96883800Y-48148200D01*
X95850000Y-49854200D02*
X97495800Y-51500000D01*
%TO.N,Net-(Q2-G)*%
X91125000Y-48550000D02*
X90723300Y-48148300D01*
X87350000Y-49238400D02*
X87350000Y-49500000D01*
X87350000Y-49852100D02*
X88997900Y-51500000D01*
X90723300Y-48148300D02*
X88440100Y-48148300D01*
X88997900Y-51500000D02*
X89000000Y-51500000D01*
X87350000Y-49500000D02*
X87350000Y-49852100D01*
X88440100Y-48148300D02*
X87350000Y-49238400D01*
%TO.N,Net-(Q3-G)*%
X79765100Y-48148300D02*
X78973300Y-48940100D01*
X82625000Y-48550000D02*
X82223300Y-48148300D01*
X78973300Y-50148300D02*
X80325000Y-51500000D01*
X78973300Y-49500000D02*
X78973300Y-50148300D01*
X78675000Y-49500000D02*
X78973300Y-49500000D01*
X82223300Y-48148300D02*
X79765100Y-48148300D01*
X78973300Y-48940100D02*
X78973300Y-49500000D01*
%TO.N,Net-(Q4-G)*%
X71389000Y-48112600D02*
X70350000Y-49151600D01*
X73687600Y-48112600D02*
X71389000Y-48112600D01*
X74125000Y-48550000D02*
X73687600Y-48112600D01*
X71997900Y-51500000D02*
X70350000Y-49852100D01*
X70350000Y-49852100D02*
X70350000Y-49500000D01*
X72000000Y-51500000D02*
X71997900Y-51500000D01*
X70350000Y-49151600D02*
X70350000Y-49500000D01*
%TO.N,Net-(Q5-G)*%
X61850000Y-49852100D02*
X61850000Y-49500000D01*
X63497900Y-51500000D02*
X61850000Y-49852100D01*
X61850000Y-49151600D02*
X61850000Y-49500000D01*
X62889000Y-48112600D02*
X61850000Y-49151600D01*
X65187600Y-48112600D02*
X62889000Y-48112600D01*
X65625000Y-48550000D02*
X65187600Y-48112600D01*
X63500000Y-51500000D02*
X63497900Y-51500000D01*
%TO.N,Net-(Q6-G)*%
X104350000Y-48650000D02*
X104350000Y-49500000D01*
X105000000Y-48000000D02*
X104350000Y-48650000D01*
X104350000Y-49850000D02*
X104350000Y-49500000D01*
X106000000Y-51500000D02*
X104350000Y-49850000D01*
X107575000Y-48000000D02*
X105000000Y-48000000D01*
X108125000Y-48550000D02*
X107575000Y-48000000D01*
%TO.N,Net-(Q7-G)*%
X54463100Y-48112600D02*
X53350000Y-49225700D01*
X53350000Y-49225700D02*
X53350000Y-49500000D01*
X57125000Y-48550000D02*
X56687600Y-48112600D01*
X53350000Y-49852100D02*
X53350000Y-49500000D01*
X55000000Y-51500000D02*
X54997900Y-51500000D01*
X56687600Y-48112600D02*
X54463100Y-48112600D01*
X54997900Y-51500000D02*
X53350000Y-49852100D01*
%TO.N,Net-(Q8-G)*%
X44850000Y-49170100D02*
X44850000Y-49500000D01*
X45884000Y-48136100D02*
X44850000Y-49170100D01*
X44850000Y-49850000D02*
X44850000Y-49500000D01*
X48625000Y-48550000D02*
X48211100Y-48136100D01*
X48211100Y-48136100D02*
X45884000Y-48136100D01*
X46500000Y-51500000D02*
X44850000Y-49850000D01*
%TO.N,Net-(U3-GPIO7)*%
X82856500Y-61463500D02*
X68040000Y-76280000D01*
X96276500Y-51926500D02*
X96276500Y-59046600D01*
X95850000Y-51500000D02*
X96276500Y-51926500D01*
X96276500Y-59046600D02*
X93859600Y-61463500D01*
X93859600Y-61463500D02*
X82856500Y-61463500D01*
%TO.N,Net-(U3-GPIO6)*%
X81719800Y-60060200D02*
X65500000Y-76280000D01*
X95156400Y-58728100D02*
X95156400Y-59170100D01*
X87350000Y-51500000D02*
X87314200Y-51535800D01*
X94266300Y-60060200D02*
X81719800Y-60060200D01*
X87314200Y-51535800D02*
X86177100Y-51535800D01*
X95156400Y-59170100D02*
X94266300Y-60060200D01*
%TO.N,Net-(U3-GPIO5)*%
X78561100Y-51386100D02*
X75755800Y-51386100D01*
X78675000Y-51500000D02*
X78561100Y-51386100D01*
%TO.N,Net-(U3-GPIO4)*%
X68029500Y-51572600D02*
X70277400Y-51572600D01*
X70277400Y-51572600D02*
X70350000Y-51500000D01*
%TO.N,Net-(U3-GPIO3)*%
X60494600Y-51403400D02*
X61753400Y-51403400D01*
X61753400Y-51403400D02*
X61850000Y-51500000D01*
%TO.N,Net-(U3-GPIO2)*%
X102819000Y-51500000D02*
X102757400Y-51438400D01*
X104350000Y-51500000D02*
X102819000Y-51500000D01*
%TO.N,GND*%
X49100000Y-116250000D02*
X66025000Y-116250000D01*
X43000000Y-111500000D02*
X44350000Y-111500000D01*
X104025000Y-116250000D02*
X92975000Y-116250000D01*
X111975000Y-116250000D02*
X104025000Y-116250000D01*
X85200000Y-82975000D02*
X85200000Y-84325000D01*
X110150000Y-81450000D02*
X110083100Y-81383100D01*
X87500000Y-103475481D02*
X87500000Y-86625000D01*
X82000000Y-108975481D02*
X87500000Y-103475481D01*
X85200000Y-84325000D02*
X87167500Y-86292500D01*
X44350000Y-111500000D02*
X49100000Y-116250000D01*
X83767700Y-116250000D02*
X85025000Y-116250000D01*
X66025000Y-116250000D02*
X73975000Y-116250000D01*
X87500000Y-86625000D02*
X87167500Y-86292500D01*
X110150000Y-81500000D02*
X110150000Y-81450000D01*
X87500000Y-86625000D02*
X88721300Y-85403700D01*
X110083100Y-61583100D02*
X108000000Y-59500000D01*
X88721300Y-85403700D02*
X105346300Y-85403700D01*
X73975000Y-116250000D02*
X83767700Y-116250000D01*
X110083100Y-81383100D02*
X110083100Y-61583100D01*
X92975000Y-116250000D02*
X85025000Y-116250000D01*
X105346300Y-85403700D02*
X109250000Y-81500000D01*
X83767700Y-116250000D02*
X82000000Y-116250000D01*
X82000000Y-116250000D02*
X82000000Y-108975481D01*
X109250000Y-81500000D02*
X110150000Y-81500000D01*
%TO.N,Net-(D1-K)*%
X104500000Y-78425000D02*
X107150000Y-78425000D01*
X119700000Y-76314900D02*
X119612900Y-76402000D01*
X104500000Y-77450000D02*
X104500000Y-78425000D01*
X107150000Y-78425000D02*
X107150000Y-81500000D01*
X119700000Y-73350000D02*
X119700000Y-76314900D01*
X107150000Y-78425000D02*
X107947600Y-78425000D01*
%TO.N,+5V*%
X47019700Y-60550300D02*
X47019700Y-72314900D01*
X87740000Y-82975000D02*
X90115400Y-80599600D01*
X47019700Y-72314900D02*
X45657200Y-73677400D01*
X127670000Y-74000000D02*
X126498500Y-74000000D01*
X108156500Y-67093500D02*
X106345200Y-67093500D01*
X116002100Y-73052100D02*
X116002100Y-70309500D01*
X93400400Y-80599600D02*
X104500000Y-69500000D01*
X104500000Y-67550000D02*
X104500000Y-69500000D01*
X90115400Y-80599600D02*
X93400400Y-80599600D01*
X116002100Y-70309500D02*
X116002000Y-70309500D01*
X47720000Y-58500000D02*
X47720000Y-59850000D01*
X47720000Y-59850000D02*
X47019700Y-60550300D01*
X126498500Y-74000000D02*
X124798400Y-72299900D01*
X102600000Y-63348300D02*
X102600000Y-59500000D01*
X106345200Y-67093500D02*
X102600000Y-63348300D01*
X109080900Y-67093500D02*
X108156500Y-67093500D01*
X116300000Y-73350000D02*
X116002100Y-73052100D01*
D37*
%TO.N,Net-(D11-A)*%
X133500000Y-44500000D02*
X131500000Y-42500000D01*
X133500000Y-52000000D02*
X133500000Y-49500000D01*
X133500000Y-49500000D02*
X133500000Y-44500000D01*
X133000000Y-52500000D02*
X133500000Y-52000000D01*
%TO.N,Net-(J9-Pin_1)*%
X114455000Y-49925200D02*
X114455000Y-42500000D01*
X114637500Y-50107700D02*
X114455000Y-49925200D01*
D38*
X114637500Y-50107700D02*
X114752700Y-50107700D01*
X114752700Y-50107700D02*
X114770000Y-50125000D01*
D37*
%TO.N,+12V*%
X122383200Y-63116800D02*
X122383200Y-50631000D01*
X101217700Y-37494000D02*
X99056000Y-37494000D01*
X105250000Y-40560100D02*
X105250000Y-39800000D01*
X121252200Y-49500000D02*
X120500000Y-49500000D01*
X62750000Y-39800000D02*
X60448300Y-39800000D01*
X88373600Y-39800000D02*
X88250000Y-39800000D01*
X48051700Y-37498300D02*
X50222100Y-37498300D01*
X126420000Y-44450800D02*
X126420000Y-46987400D01*
X45750000Y-40500000D02*
X45750000Y-42101700D01*
X82080100Y-37469900D02*
X79750000Y-39800000D01*
X71373600Y-39800000D02*
X71250000Y-39800000D01*
X125219200Y-42500000D02*
X126420000Y-42500000D01*
X77448300Y-39800000D02*
X77448300Y-39224600D01*
X102948300Y-39224600D02*
X101217700Y-37494000D01*
X122000000Y-63500000D02*
X122000000Y-72000000D01*
X119168700Y-49541300D02*
X119210000Y-49500000D01*
X71373600Y-39800000D02*
X71373600Y-43973600D01*
X79750000Y-39800000D02*
X77448300Y-39800000D01*
X105250000Y-39800000D02*
X102948300Y-39800000D01*
X125219200Y-42500000D02*
X124018300Y-42500000D01*
X96750000Y-39800000D02*
X94448300Y-39800000D01*
D38*
X119168700Y-49541300D02*
X118585000Y-50125000D01*
D37*
X58693600Y-37469900D02*
X56580100Y-37469900D01*
D38*
X118585000Y-50125000D02*
X118580000Y-50125000D01*
D37*
X71373600Y-43973600D02*
X73900000Y-46500000D01*
X45750000Y-39800000D02*
X48051700Y-37498300D01*
X118975600Y-37457300D02*
X124018300Y-42500000D01*
X107592700Y-37457300D02*
X118975600Y-37457300D01*
X79750000Y-43850000D02*
X82400000Y-46500000D01*
X48500000Y-44851700D02*
X48500000Y-46500000D01*
X45750000Y-40500000D02*
X45750000Y-39800000D01*
X85948300Y-39800000D02*
X85948300Y-39224600D01*
X119210000Y-49500000D02*
X120500000Y-49500000D01*
X50222100Y-37498300D02*
X51948300Y-39224500D01*
X75693600Y-37469900D02*
X73703700Y-37469900D01*
X65400000Y-46500000D02*
X62750000Y-43850000D01*
X88373600Y-39800000D02*
X88373600Y-43973600D01*
X96750000Y-43850000D02*
X96750000Y-39800000D01*
X94448300Y-39224600D02*
X92693600Y-37469900D01*
X102948300Y-39800000D02*
X102948300Y-39224600D01*
X60448300Y-39224600D02*
X58693600Y-37469900D01*
X88373600Y-43973600D02*
X90900000Y-46500000D01*
X107900000Y-46500000D02*
X107900000Y-44751700D01*
X45750000Y-42101700D02*
X48500000Y-44851700D01*
X54250000Y-39800000D02*
X51948300Y-39800000D01*
X99400000Y-46500000D02*
X96750000Y-43850000D01*
X85948300Y-39224600D02*
X84193600Y-37469900D01*
X122000000Y-63500000D02*
X122383200Y-63116800D01*
X79750000Y-39800000D02*
X79750000Y-43850000D01*
X128887400Y-46987400D02*
X131400000Y-49500000D01*
X62750000Y-43850000D02*
X62750000Y-39800000D01*
X122383200Y-50631000D02*
X126026800Y-46987400D01*
X90703700Y-37469900D02*
X88373600Y-39800000D01*
X54250000Y-43850000D02*
X56900000Y-46500000D01*
X56580100Y-37469900D02*
X54250000Y-39800000D01*
X92693600Y-37469900D02*
X90703700Y-37469900D01*
X51948300Y-39224500D02*
X51948300Y-39800000D01*
X105250000Y-40560100D02*
X105250000Y-42101700D01*
X54250000Y-39800000D02*
X54250000Y-43850000D01*
X105250000Y-39800000D02*
X107592700Y-37457300D01*
X107900000Y-44751700D02*
X105250000Y-42101700D01*
X126026800Y-46987400D02*
X126420000Y-46987400D01*
X77448300Y-39224600D02*
X75693600Y-37469900D01*
X94448300Y-39800000D02*
X94448300Y-39224600D01*
X88250000Y-39800000D02*
X85948300Y-39800000D01*
X122383200Y-50631000D02*
X121252200Y-49500000D01*
X126420000Y-46987400D02*
X128887400Y-46987400D01*
X84193600Y-37469900D02*
X82080100Y-37469900D01*
X73703700Y-37469900D02*
X71373600Y-39800000D01*
X60448300Y-39800000D02*
X60448300Y-39224600D01*
X126420000Y-42500000D02*
X126420000Y-44450800D01*
X99056000Y-37494000D02*
X96750000Y-39800000D01*
%TO.N,Net-(J9-Pin_2)*%
X117310000Y-44725000D02*
X117310000Y-48047500D01*
D38*
X117310000Y-48047500D02*
X117310000Y-50125000D01*
D37*
X119535000Y-42500000D02*
X117310000Y-44725000D01*
D36*
%TO.N,Net-(U3-GPIO1)*%
X53350000Y-51500000D02*
X51968200Y-51500000D01*
%TO.N,Net-(U3-GPIO0)*%
X43830100Y-73580100D02*
X45180000Y-74930000D01*
X43830100Y-52519900D02*
X43830100Y-73580100D01*
X45180000Y-76280000D02*
X45180000Y-74930000D01*
X44850000Y-51500000D02*
X43830100Y-52519900D01*
%TO.N,Net-(U3-GPIO20)*%
X73975000Y-111750000D02*
X66025000Y-111750000D01*
X73975000Y-106104500D02*
X86170300Y-93909200D01*
X73975000Y-111750000D02*
X73975000Y-106104500D01*
%TO.N,Net-(U3-GPIO21)*%
X90062200Y-107687200D02*
X92975000Y-110600000D01*
X92975000Y-111750000D02*
X92975000Y-110600000D01*
X85025000Y-111750000D02*
X85025000Y-110600000D01*
X90062200Y-89244900D02*
X90062200Y-107687200D01*
X90062200Y-107687200D02*
X87937800Y-107687200D01*
X87937800Y-107687200D02*
X85025000Y-110600000D01*
%TO.N,Net-(U3-GPIO22)*%
X91429300Y-98004300D02*
X91429300Y-86544300D01*
X104025000Y-110600000D02*
X91429300Y-98004300D01*
X104025000Y-111750000D02*
X104025000Y-111175000D01*
X110125000Y-111175000D02*
X110700000Y-111750000D01*
X111975000Y-111750000D02*
X110700000Y-111750000D01*
X104025000Y-111175000D02*
X104025000Y-110600000D01*
X104025000Y-111175000D02*
X110125000Y-111175000D01*
%TO.N,Net-(J11-Pin_2)*%
X127350000Y-61430000D02*
X131000000Y-65080000D01*
X127350000Y-54500000D02*
X127350000Y-61430000D01*
%TO.N,Net-(U3-GPIO11)*%
X80740000Y-76280000D02*
X80740000Y-74930000D01*
X117310000Y-56890000D02*
X117310000Y-55075000D01*
X80740000Y-74930000D02*
X92322400Y-63347600D01*
X92322400Y-63347600D02*
X94986800Y-63347600D01*
X94986800Y-63347600D02*
X100441700Y-57892700D01*
X116307300Y-57892700D02*
X117310000Y-56890000D01*
X100441700Y-57892700D02*
X116307300Y-57892700D01*
%TO.N,Net-(U3-GPIO10)*%
X116040000Y-55937300D02*
X116040000Y-55075000D01*
X100108200Y-56702300D02*
X115275000Y-56702300D01*
X115275000Y-56702300D02*
X116040000Y-55937300D01*
X78200000Y-76280000D02*
X91964700Y-62515300D01*
X91964700Y-62515300D02*
X94295200Y-62515300D01*
X94295200Y-62515300D02*
X100108200Y-56702300D01*
%TO.N,Net-(J11-Pin_1)*%
X132769000Y-63569000D02*
X131000000Y-61800000D01*
X131000000Y-60000000D02*
X131000000Y-61800000D01*
X127670000Y-72000000D02*
X129345000Y-72000000D01*
X129345000Y-72000000D02*
X132769000Y-68576000D01*
X132769000Y-68576000D02*
X132769000Y-63569000D01*
%TO.N,Net-(Q9-G)*%
X127350000Y-52852100D02*
X128997900Y-54500000D01*
X127350000Y-52500000D02*
X127350000Y-52852100D01*
X130708800Y-51133800D02*
X131125000Y-51550000D01*
X128435500Y-51133800D02*
X130708800Y-51133800D01*
X128997900Y-54500000D02*
X129000000Y-54500000D01*
X127350000Y-52500000D02*
X127350000Y-52219300D01*
X127350000Y-52219300D02*
X128435500Y-51133800D01*
D37*
%TO.N,GNDPWR*%
X133492300Y-80075000D02*
X136606700Y-76960600D01*
X89286700Y-49877200D02*
X89286700Y-49786700D01*
X118000000Y-81287500D02*
X118000000Y-82500000D01*
X51281000Y-53106000D02*
X48625000Y-50450000D01*
X118000000Y-82500000D02*
X118000000Y-83712500D01*
X119426700Y-52473300D02*
X119426700Y-52600000D01*
X91125000Y-50450000D02*
X91125000Y-53121300D01*
X99625000Y-50450000D02*
X99625000Y-51537700D01*
X101184700Y-53097400D02*
X100037500Y-51950200D01*
X67416500Y-53533900D02*
X72142900Y-53533900D01*
X65625000Y-50450000D02*
X65625000Y-51742400D01*
X75204800Y-53100200D02*
X81091800Y-53100200D01*
X82625000Y-51567000D02*
X84195500Y-53137500D01*
D39*
X55346900Y-49937400D02*
X55286700Y-49877200D01*
X64445800Y-49877200D02*
X63786700Y-49877200D01*
D37*
X116787500Y-84925000D02*
X118000000Y-83712500D01*
X46500000Y-49500000D02*
X46814600Y-49500000D01*
X72000000Y-49590500D02*
X72000000Y-49500000D01*
X74125000Y-50450000D02*
X73518600Y-50450000D01*
D39*
X73477300Y-50408700D02*
X72945800Y-49877200D01*
D37*
X65625000Y-51742400D02*
X67416500Y-53533900D01*
X74125000Y-50651600D02*
X74125000Y-50450000D01*
D39*
X64977300Y-50408700D02*
X64445800Y-49877200D01*
D37*
X131000000Y-106500000D02*
X131000000Y-104098300D01*
X65625000Y-50450000D02*
X65018600Y-50450000D01*
X48625000Y-50450000D02*
X48583700Y-50408700D01*
X115123500Y-52600000D02*
X114639200Y-53084300D01*
X55745500Y-53106000D02*
X51281000Y-53106000D01*
X107269020Y-50450000D02*
X106319020Y-49500000D01*
X129000000Y-52590500D02*
X129000000Y-52500000D01*
X131125000Y-53450000D02*
X130518700Y-53450000D01*
X108125000Y-50450000D02*
X107269020Y-50450000D01*
X91125000Y-53121300D02*
X94914400Y-53121300D01*
D39*
X72945800Y-49877200D02*
X72286700Y-49877200D01*
D37*
X57125000Y-50450000D02*
X56391700Y-50450000D01*
X56391700Y-50450000D02*
X55879100Y-49937400D01*
X80524300Y-49699300D02*
X80839200Y-49699300D01*
D39*
X81090700Y-49950800D02*
X80839200Y-49699300D01*
D37*
X136606700Y-58931700D02*
X131125000Y-53450000D01*
D39*
X98448000Y-49879300D02*
X97786700Y-49879300D01*
D38*
X82125800Y-49950800D02*
X82625000Y-50450000D01*
D39*
X89346900Y-49937400D02*
X89286700Y-49877200D01*
D37*
X129286700Y-52877200D02*
X129000000Y-52590500D01*
X80325000Y-49500000D02*
X80524300Y-49699300D01*
X99625000Y-50450000D02*
X99018700Y-50450000D01*
X57125000Y-51726500D02*
X55745500Y-53106000D01*
X114227400Y-52672500D02*
X108125000Y-52672500D01*
X116787500Y-80075000D02*
X115225000Y-80075000D01*
X81091800Y-53100200D02*
X82625000Y-51567000D01*
D39*
X89879100Y-49937400D02*
X89346900Y-49937400D01*
D37*
X130518700Y-53450000D02*
X130477400Y-53408700D01*
X91108800Y-53137500D02*
X91125000Y-53121300D01*
D39*
X98977400Y-50408700D02*
X98448000Y-49879300D01*
D37*
X116675000Y-52600000D02*
X115123500Y-52600000D01*
X118000000Y-75913000D02*
X118000000Y-82500000D01*
X99625000Y-51537700D02*
X100037500Y-51950200D01*
X65018600Y-50450000D02*
X64977300Y-50408700D01*
X91125000Y-50450000D02*
X90391700Y-50450000D01*
D39*
X82125800Y-49950800D02*
X81090700Y-49950800D01*
D37*
X120775000Y-93873300D02*
X131000000Y-104098300D01*
X136606700Y-76960600D02*
X136606700Y-58931700D01*
X118000000Y-83712500D02*
X119562500Y-83712500D01*
X114000000Y-63500000D02*
X114000000Y-72000000D01*
X99018700Y-50450000D02*
X98977400Y-50408700D01*
X74125000Y-52020400D02*
X75204800Y-53100200D01*
D39*
X129945900Y-52877200D02*
X129286700Y-52877200D01*
X48583700Y-50408700D02*
X47723300Y-50408700D01*
D37*
X64251800Y-53115600D02*
X65625000Y-51742400D01*
X55286700Y-49877200D02*
X55000000Y-49590500D01*
X120775000Y-84925000D02*
X120775000Y-93873300D01*
X108125000Y-52672500D02*
X107700100Y-53097400D01*
X106319020Y-49500000D02*
X106000000Y-49500000D01*
X115225000Y-84925000D02*
X116787500Y-84925000D01*
X82625000Y-51567000D02*
X82625000Y-50450000D01*
X113988630Y-78488630D02*
X113988630Y-72067205D01*
X97500000Y-49592600D02*
X97500000Y-49500000D01*
X55000000Y-49590500D02*
X55000000Y-49500000D01*
X118000000Y-81287500D02*
X119562500Y-81287500D01*
X108125000Y-52672500D02*
X108125000Y-50450000D01*
X90391700Y-50450000D02*
X89879100Y-49937400D01*
X114639200Y-53084300D02*
X114227400Y-52672500D01*
X84195500Y-53137500D02*
X91108800Y-53137500D01*
D39*
X55879100Y-49937400D02*
X55346900Y-49937400D01*
D38*
X73656400Y-52020400D02*
X74125000Y-52020400D01*
D37*
X107700100Y-53097400D02*
X101184700Y-53097400D01*
X120775000Y-80075000D02*
X133492300Y-80075000D01*
X119426700Y-52600000D02*
X120049100Y-53222400D01*
X73518600Y-50450000D02*
X73477300Y-50408700D01*
X63500000Y-49590500D02*
X63500000Y-49500000D01*
X120049100Y-53222400D02*
X120049100Y-57450900D01*
X113800000Y-81500000D02*
X115225000Y-80075000D01*
X120500000Y-51400000D02*
X119426700Y-52473300D01*
D38*
X72142900Y-53533900D02*
X73656400Y-52020400D01*
D37*
X119562500Y-81287500D02*
X120775000Y-80075000D01*
X120049100Y-57450900D02*
X114000000Y-63500000D01*
X116675000Y-52600000D02*
X119426700Y-52600000D01*
D39*
X130477400Y-53408700D02*
X129945900Y-52877200D01*
D37*
X57125000Y-51726500D02*
X57125000Y-50450000D01*
X63786700Y-49877200D02*
X63500000Y-49590500D01*
X118000000Y-82500000D02*
X113988630Y-78488630D01*
X119562500Y-83712500D02*
X120775000Y-84925000D01*
D39*
X47723300Y-50408700D02*
X46814600Y-49500000D01*
D37*
X58514100Y-53115600D02*
X64251800Y-53115600D01*
X72286700Y-49877200D02*
X72000000Y-49590500D01*
X74125000Y-51551800D02*
X74125000Y-52020400D01*
D38*
X114639200Y-53084300D02*
X114639200Y-54944200D01*
D37*
X118000000Y-81287500D02*
X116787500Y-80075000D01*
X97786700Y-49879300D02*
X97500000Y-49592600D01*
X89286700Y-49786700D02*
X89000000Y-49500000D01*
D38*
X74125000Y-51551800D02*
X74125000Y-50651600D01*
D37*
X57125000Y-51726500D02*
X58514100Y-53115600D01*
D38*
X114639200Y-54944200D02*
X114770000Y-55075000D01*
D37*
X111500000Y-81500000D02*
X113800000Y-81500000D01*
%TD*%
%TA.AperFunction,Conductor*%
%TO.N,GNDPWR*%
G36*
X135366646Y-36019685D02*
G01*
X135412401Y-36072489D01*
X135422345Y-36141647D01*
X135393320Y-36205203D01*
X135375513Y-36222052D01*
X135315625Y-36268408D01*
X135309253Y-36273341D01*
X135177121Y-36427256D01*
X135177118Y-36427261D01*
X135078676Y-36604620D01*
X135078669Y-36604635D01*
X135017943Y-36798180D01*
X134997422Y-37000000D01*
X135017943Y-37201819D01*
X135078669Y-37395364D01*
X135078676Y-37395379D01*
X135177118Y-37572738D01*
X135177121Y-37572743D01*
X135309255Y-37726660D01*
X135309256Y-37726662D01*
X135469668Y-37850829D01*
X135469672Y-37850832D01*
X135651799Y-37940170D01*
X135848182Y-37991017D01*
X136050780Y-38001292D01*
X136251299Y-37970573D01*
X136441530Y-37900120D01*
X136613684Y-37792815D01*
X136760715Y-37653052D01*
X136774225Y-37633642D01*
X136828678Y-37589863D01*
X136898156Y-37582473D01*
X136960600Y-37613820D01*
X136996183Y-37673949D01*
X137000000Y-37704478D01*
X137000000Y-116295521D01*
X136980315Y-116362560D01*
X136927511Y-116408315D01*
X136858353Y-116418259D01*
X136794797Y-116389234D01*
X136774226Y-116366359D01*
X136760716Y-116346949D01*
X136710030Y-116298768D01*
X136613684Y-116207185D01*
X136441530Y-116099880D01*
X136333391Y-116059830D01*
X136251300Y-116029427D01*
X136251294Y-116029426D01*
X136050781Y-115998708D01*
X136050780Y-115998708D01*
X135949481Y-116003845D01*
X135848181Y-116008983D01*
X135651798Y-116059830D01*
X135469668Y-116149170D01*
X135309256Y-116273337D01*
X135309255Y-116273339D01*
X135177121Y-116427256D01*
X135177118Y-116427261D01*
X135078676Y-116604620D01*
X135078669Y-116604635D01*
X135017943Y-116798180D01*
X134997422Y-117000000D01*
X135017943Y-117201819D01*
X135078669Y-117395364D01*
X135078676Y-117395379D01*
X135177118Y-117572738D01*
X135177121Y-117572743D01*
X135309253Y-117726658D01*
X135309254Y-117726659D01*
X135309257Y-117726662D01*
X135375509Y-117777945D01*
X135416472Y-117834545D01*
X135420333Y-117904308D01*
X135385864Y-117965083D01*
X135324009Y-117997575D01*
X135299607Y-118000000D01*
X113310291Y-118000000D01*
X113243252Y-117980315D01*
X113197497Y-117927511D01*
X113187553Y-117858353D01*
X113216578Y-117794797D01*
X113252879Y-117766092D01*
X113274360Y-117754870D01*
X113303407Y-117739698D01*
X113461109Y-117611109D01*
X113589698Y-117453407D01*
X113683909Y-117273049D01*
X113739886Y-117077418D01*
X113750500Y-116958037D01*
X113750499Y-115541964D01*
X113739886Y-115422582D01*
X113683909Y-115226951D01*
X113589698Y-115046593D01*
X113535248Y-114979815D01*
X113461109Y-114888890D01*
X113303409Y-114760304D01*
X113303410Y-114760304D01*
X113303407Y-114760302D01*
X113123049Y-114666091D01*
X113123048Y-114666090D01*
X113123045Y-114666089D01*
X113005829Y-114632550D01*
X112927418Y-114610114D01*
X112927415Y-114610113D01*
X112927413Y-114610113D01*
X112861102Y-114604217D01*
X112808037Y-114599500D01*
X112808032Y-114599500D01*
X111141971Y-114599500D01*
X111141965Y-114599500D01*
X111141964Y-114599501D01*
X111130316Y-114600536D01*
X111022584Y-114610113D01*
X110826954Y-114666089D01*
X110736772Y-114713196D01*
X110646593Y-114760302D01*
X110646591Y-114760303D01*
X110646590Y-114760304D01*
X110488890Y-114888890D01*
X110435915Y-114953861D01*
X110378294Y-114993378D01*
X110339813Y-114999500D01*
X105660187Y-114999500D01*
X105593148Y-114979815D01*
X105564085Y-114953861D01*
X105511109Y-114888890D01*
X105353409Y-114760304D01*
X105353410Y-114760304D01*
X105353407Y-114760302D01*
X105173049Y-114666091D01*
X105173048Y-114666090D01*
X105173045Y-114666089D01*
X105055829Y-114632550D01*
X104977418Y-114610114D01*
X104977415Y-114610113D01*
X104977413Y-114610113D01*
X104911102Y-114604217D01*
X104858037Y-114599500D01*
X104858032Y-114599500D01*
X103191971Y-114599500D01*
X103191965Y-114599500D01*
X103191964Y-114599501D01*
X103180316Y-114600536D01*
X103072584Y-114610113D01*
X102876954Y-114666089D01*
X102786772Y-114713196D01*
X102696593Y-114760302D01*
X102696591Y-114760303D01*
X102696590Y-114760304D01*
X102538890Y-114888890D01*
X102485915Y-114953861D01*
X102428294Y-114993378D01*
X102389813Y-114999500D01*
X94610187Y-114999500D01*
X94543148Y-114979815D01*
X94514085Y-114953861D01*
X94461109Y-114888890D01*
X94303409Y-114760304D01*
X94303410Y-114760304D01*
X94303407Y-114760302D01*
X94123049Y-114666091D01*
X94123048Y-114666090D01*
X94123045Y-114666089D01*
X94005829Y-114632550D01*
X93927418Y-114610114D01*
X93927415Y-114610113D01*
X93927413Y-114610113D01*
X93861102Y-114604217D01*
X93808037Y-114599500D01*
X93808032Y-114599500D01*
X92141971Y-114599500D01*
X92141965Y-114599500D01*
X92141964Y-114599501D01*
X92130316Y-114600536D01*
X92022584Y-114610113D01*
X91826954Y-114666089D01*
X91736772Y-114713196D01*
X91646593Y-114760302D01*
X91646591Y-114760303D01*
X91646590Y-114760304D01*
X91488890Y-114888890D01*
X91435915Y-114953861D01*
X91378294Y-114993378D01*
X91339813Y-114999500D01*
X86660187Y-114999500D01*
X86593148Y-114979815D01*
X86564085Y-114953861D01*
X86511109Y-114888890D01*
X86353409Y-114760304D01*
X86353410Y-114760304D01*
X86353407Y-114760302D01*
X86173049Y-114666091D01*
X86173048Y-114666090D01*
X86173045Y-114666089D01*
X86055829Y-114632550D01*
X85977418Y-114610114D01*
X85977415Y-114610113D01*
X85977413Y-114610113D01*
X85911102Y-114604217D01*
X85858037Y-114599500D01*
X85858032Y-114599500D01*
X84191971Y-114599500D01*
X84191965Y-114599500D01*
X84191964Y-114599501D01*
X84180316Y-114600536D01*
X84072584Y-114610113D01*
X83876954Y-114666089D01*
X83786772Y-114713196D01*
X83696593Y-114760302D01*
X83696591Y-114760303D01*
X83696590Y-114760304D01*
X83538890Y-114888890D01*
X83485915Y-114953861D01*
X83428294Y-114993378D01*
X83389813Y-114999500D01*
X83374500Y-114999500D01*
X83307461Y-114979815D01*
X83261706Y-114927011D01*
X83250500Y-114875500D01*
X83250500Y-113105720D01*
X83270185Y-113038681D01*
X83322989Y-112992926D01*
X83392147Y-112982982D01*
X83455703Y-113012007D01*
X83470602Y-113027359D01*
X83538890Y-113111109D01*
X83632803Y-113187684D01*
X83696593Y-113239698D01*
X83876951Y-113333909D01*
X84072582Y-113389886D01*
X84191963Y-113400500D01*
X85858036Y-113400499D01*
X85977418Y-113389886D01*
X86173049Y-113333909D01*
X86353407Y-113239698D01*
X86511109Y-113111109D01*
X86639698Y-112953407D01*
X86733909Y-112773049D01*
X86789886Y-112577418D01*
X86800500Y-112458037D01*
X86800499Y-111041964D01*
X86789886Y-110922582D01*
X86753234Y-110794492D01*
X86738997Y-110744732D01*
X86739480Y-110674864D01*
X86770530Y-110622942D01*
X88419455Y-108974019D01*
X88480778Y-108940534D01*
X88507136Y-108937700D01*
X89492864Y-108937700D01*
X89559903Y-108957385D01*
X89580545Y-108974019D01*
X91229467Y-110622941D01*
X91262952Y-110684264D01*
X91261002Y-110744733D01*
X91210114Y-110922582D01*
X91210113Y-110922586D01*
X91199500Y-111041966D01*
X91199500Y-112458028D01*
X91199500Y-112458033D01*
X91199501Y-112458036D01*
X91199876Y-112462252D01*
X91210113Y-112577415D01*
X91266089Y-112773045D01*
X91266090Y-112773048D01*
X91266091Y-112773049D01*
X91360302Y-112953407D01*
X91394977Y-112995933D01*
X91488890Y-113111109D01*
X91582803Y-113187684D01*
X91646593Y-113239698D01*
X91826951Y-113333909D01*
X92022582Y-113389886D01*
X92141963Y-113400500D01*
X93808036Y-113400499D01*
X93927418Y-113389886D01*
X94123049Y-113333909D01*
X94303407Y-113239698D01*
X94461109Y-113111109D01*
X94589698Y-112953407D01*
X94683909Y-112773049D01*
X94739886Y-112577418D01*
X94750500Y-112458037D01*
X94750499Y-111041964D01*
X94739886Y-110922582D01*
X94683909Y-110726951D01*
X94589698Y-110546593D01*
X94514085Y-110453861D01*
X94461109Y-110388890D01*
X94303404Y-110260299D01*
X94199019Y-110205773D01*
X94148712Y-110157287D01*
X94138500Y-110134182D01*
X94133883Y-110119973D01*
X94123452Y-110099501D01*
X94044524Y-109944595D01*
X93928828Y-109785354D01*
X93789646Y-109646172D01*
X91349019Y-107205545D01*
X91315534Y-107144222D01*
X91312700Y-107117864D01*
X91312700Y-99955536D01*
X91332385Y-99888497D01*
X91385189Y-99842742D01*
X91454347Y-99832798D01*
X91517903Y-99861823D01*
X91524380Y-99867854D01*
X96946376Y-105289851D01*
X102279467Y-110622942D01*
X102312952Y-110684265D01*
X102311002Y-110744734D01*
X102260114Y-110922583D01*
X102260113Y-110922586D01*
X102249500Y-111041966D01*
X102249500Y-112458028D01*
X102249500Y-112458033D01*
X102249501Y-112458036D01*
X102249876Y-112462252D01*
X102260113Y-112577415D01*
X102316089Y-112773045D01*
X102316090Y-112773048D01*
X102316091Y-112773049D01*
X102410302Y-112953407D01*
X102444977Y-112995933D01*
X102538890Y-113111109D01*
X102632803Y-113187684D01*
X102696593Y-113239698D01*
X102876951Y-113333909D01*
X103072582Y-113389886D01*
X103191963Y-113400500D01*
X104858036Y-113400499D01*
X104977418Y-113389886D01*
X105173049Y-113333909D01*
X105353407Y-113239698D01*
X105511109Y-113111109D01*
X105639698Y-112953407D01*
X105733909Y-112773049D01*
X105789886Y-112577418D01*
X105793344Y-112538518D01*
X105818888Y-112473487D01*
X105875536Y-112432587D01*
X105916857Y-112425500D01*
X109555663Y-112425500D01*
X109622702Y-112445185D01*
X109643344Y-112461819D01*
X109885355Y-112703830D01*
X109885360Y-112703834D01*
X109980622Y-112773045D01*
X110044595Y-112819524D01*
X110209225Y-112903407D01*
X110219978Y-112908886D01*
X110326773Y-112943585D01*
X110384449Y-112983022D01*
X110384558Y-112983155D01*
X110488890Y-113111109D01*
X110582803Y-113187684D01*
X110646593Y-113239698D01*
X110826951Y-113333909D01*
X111022582Y-113389886D01*
X111141963Y-113400500D01*
X112808036Y-113400499D01*
X112927418Y-113389886D01*
X113123049Y-113333909D01*
X113303407Y-113239698D01*
X113461109Y-113111109D01*
X113589698Y-112953407D01*
X113683909Y-112773049D01*
X113739886Y-112577418D01*
X113750500Y-112458037D01*
X113750499Y-111580000D01*
X128694564Y-111580000D01*
X128714287Y-111880918D01*
X128714288Y-111880930D01*
X128773118Y-112176683D01*
X128773122Y-112176698D01*
X128870053Y-112462247D01*
X128870062Y-112462268D01*
X129003431Y-112732713D01*
X129003435Y-112732720D01*
X129170973Y-112983459D01*
X129369810Y-113210189D01*
X129596540Y-113409026D01*
X129847279Y-113576564D01*
X129847286Y-113576568D01*
X130117731Y-113709937D01*
X130117736Y-113709939D01*
X130117748Y-113709945D01*
X130403309Y-113806880D01*
X130603251Y-113846651D01*
X130699069Y-113865711D01*
X130699070Y-113865711D01*
X130699080Y-113865713D01*
X131000000Y-113885436D01*
X131300920Y-113865713D01*
X131596691Y-113806880D01*
X131882252Y-113709945D01*
X132152718Y-113576566D01*
X132403461Y-113409025D01*
X132630189Y-113210189D01*
X132829025Y-112983461D01*
X132996566Y-112732718D01*
X133129945Y-112462252D01*
X133226880Y-112176691D01*
X133285713Y-111880920D01*
X133305436Y-111580000D01*
X133285713Y-111279080D01*
X133226880Y-110983309D01*
X133129945Y-110697748D01*
X133123295Y-110684264D01*
X132996568Y-110427286D01*
X132996564Y-110427279D01*
X132829026Y-110176540D01*
X132630189Y-109949810D01*
X132403459Y-109750973D01*
X132152720Y-109583435D01*
X132152713Y-109583431D01*
X131882268Y-109450062D01*
X131882247Y-109450053D01*
X131596698Y-109353122D01*
X131596692Y-109353120D01*
X131596691Y-109353120D01*
X131596689Y-109353119D01*
X131596683Y-109353118D01*
X131300930Y-109294288D01*
X131300921Y-109294287D01*
X131300920Y-109294287D01*
X131000000Y-109274564D01*
X130699080Y-109294287D01*
X130699079Y-109294287D01*
X130699069Y-109294288D01*
X130403316Y-109353118D01*
X130403301Y-109353122D01*
X130117752Y-109450053D01*
X130117731Y-109450062D01*
X129847286Y-109583431D01*
X129847279Y-109583435D01*
X129596540Y-109750973D01*
X129369810Y-109949810D01*
X129170973Y-110176540D01*
X129003435Y-110427279D01*
X129003431Y-110427286D01*
X128870062Y-110697731D01*
X128870053Y-110697752D01*
X128773122Y-110983301D01*
X128773118Y-110983316D01*
X128714288Y-111279069D01*
X128714287Y-111279081D01*
X128694564Y-111580000D01*
X113750499Y-111580000D01*
X113750499Y-111041964D01*
X113739886Y-110922582D01*
X113683909Y-110726951D01*
X113589698Y-110546593D01*
X113514085Y-110453861D01*
X113461109Y-110388890D01*
X113303409Y-110260304D01*
X113303410Y-110260304D01*
X113303407Y-110260302D01*
X113123049Y-110166091D01*
X113123048Y-110166090D01*
X113123045Y-110166089D01*
X113005829Y-110132550D01*
X112927418Y-110110114D01*
X112927415Y-110110113D01*
X112927413Y-110110113D01*
X112861102Y-110104217D01*
X112808037Y-110099500D01*
X112808032Y-110099500D01*
X111141971Y-110099500D01*
X111141965Y-110099500D01*
X111141964Y-110099501D01*
X111131352Y-110100444D01*
X111022583Y-110110113D01*
X111022582Y-110110114D01*
X110911514Y-110141893D01*
X110841646Y-110141409D01*
X110804519Y-110122995D01*
X110780408Y-110105478D01*
X110780407Y-110105477D01*
X110780405Y-110105476D01*
X110725637Y-110077570D01*
X110605030Y-110016117D01*
X110417826Y-109955290D01*
X110223422Y-109924500D01*
X110223417Y-109924500D01*
X105143105Y-109924500D01*
X105076066Y-109904815D01*
X105042786Y-109873384D01*
X104978832Y-109785357D01*
X100345630Y-105152155D01*
X129200000Y-105152155D01*
X129200000Y-106250000D01*
X130399999Y-106250000D01*
X130374979Y-106310402D01*
X130350000Y-106435981D01*
X130350000Y-106564019D01*
X130374979Y-106689598D01*
X130399999Y-106750000D01*
X129200000Y-106750000D01*
X129200000Y-107847844D01*
X129206401Y-107907372D01*
X129206403Y-107907379D01*
X129256645Y-108042086D01*
X129256649Y-108042093D01*
X129342809Y-108157187D01*
X129342812Y-108157190D01*
X129457906Y-108243350D01*
X129457913Y-108243354D01*
X129592620Y-108293596D01*
X129592627Y-108293598D01*
X129652155Y-108299999D01*
X129652172Y-108300000D01*
X130750000Y-108300000D01*
X130750000Y-107100001D01*
X130810402Y-107125021D01*
X130935981Y-107150000D01*
X131064019Y-107150000D01*
X131189598Y-107125021D01*
X131250000Y-107100001D01*
X131250000Y-108300000D01*
X132347828Y-108300000D01*
X132347844Y-108299999D01*
X132407372Y-108293598D01*
X132407379Y-108293596D01*
X132542086Y-108243354D01*
X132542093Y-108243350D01*
X132657187Y-108157190D01*
X132657190Y-108157187D01*
X132743350Y-108042093D01*
X132743354Y-108042086D01*
X132793596Y-107907379D01*
X132793598Y-107907372D01*
X132799999Y-107847844D01*
X132800000Y-107847827D01*
X132800000Y-106750000D01*
X131600001Y-106750000D01*
X131625021Y-106689598D01*
X131650000Y-106564019D01*
X131650000Y-106435981D01*
X131625021Y-106310402D01*
X131600001Y-106250000D01*
X132800000Y-106250000D01*
X132800000Y-105152172D01*
X132799999Y-105152155D01*
X132793598Y-105092627D01*
X132793596Y-105092620D01*
X132743354Y-104957913D01*
X132743350Y-104957906D01*
X132657190Y-104842812D01*
X132657187Y-104842809D01*
X132542093Y-104756649D01*
X132542086Y-104756645D01*
X132407379Y-104706403D01*
X132407372Y-104706401D01*
X132347844Y-104700000D01*
X131250000Y-104700000D01*
X131250000Y-105899998D01*
X131189598Y-105874979D01*
X131064019Y-105850000D01*
X130935981Y-105850000D01*
X130810402Y-105874979D01*
X130750000Y-105899998D01*
X130750000Y-104700000D01*
X129652155Y-104700000D01*
X129592627Y-104706401D01*
X129592620Y-104706403D01*
X129457913Y-104756645D01*
X129457906Y-104756649D01*
X129342812Y-104842809D01*
X129342809Y-104842812D01*
X129256649Y-104957906D01*
X129256645Y-104957913D01*
X129206403Y-105092620D01*
X129206401Y-105092627D01*
X129200000Y-105152155D01*
X100345630Y-105152155D01*
X92716119Y-97522644D01*
X92682634Y-97461321D01*
X92679800Y-97434963D01*
X92679800Y-87410589D01*
X92699485Y-87343550D01*
X92699991Y-87342768D01*
X92721015Y-87310586D01*
X92753473Y-87260907D01*
X92853363Y-87033181D01*
X92861769Y-86999986D01*
X112100001Y-86999986D01*
X112110494Y-87102697D01*
X112165641Y-87269119D01*
X112165643Y-87269124D01*
X112257684Y-87418345D01*
X112381654Y-87542315D01*
X112530875Y-87634356D01*
X112530880Y-87634358D01*
X112697302Y-87689505D01*
X112697310Y-87689506D01*
X112781954Y-87698154D01*
X112789263Y-87699999D01*
X112793695Y-87699999D01*
X112806310Y-87700642D01*
X112813462Y-87701373D01*
X112821420Y-87699999D01*
X114974999Y-87699999D01*
X115475000Y-87699999D01*
X117750000Y-87699999D01*
X118250000Y-87699999D01*
X120524999Y-87699999D01*
X121025000Y-87699999D01*
X123199972Y-87699999D01*
X123199986Y-87699998D01*
X123302697Y-87689505D01*
X123469119Y-87634358D01*
X123469124Y-87634356D01*
X123618345Y-87542315D01*
X123742315Y-87418345D01*
X123834356Y-87269124D01*
X123834358Y-87269119D01*
X123889505Y-87102697D01*
X123889506Y-87102690D01*
X123899999Y-86999986D01*
X123900000Y-86999973D01*
X123900000Y-85175000D01*
X121025000Y-85175000D01*
X121025000Y-87699999D01*
X120524999Y-87699999D01*
X120525000Y-87699998D01*
X120525000Y-85175000D01*
X118250000Y-85175000D01*
X118250000Y-87699999D01*
X117750000Y-87699999D01*
X117750000Y-85175000D01*
X115475000Y-85175000D01*
X115475000Y-87699999D01*
X114974999Y-87699999D01*
X114975000Y-87699998D01*
X114975000Y-85175000D01*
X112100001Y-85175000D01*
X112100001Y-86999986D01*
X92861769Y-86999986D01*
X92914408Y-86792121D01*
X92914850Y-86786783D01*
X92916411Y-86767958D01*
X92941565Y-86702774D01*
X92997968Y-86661536D01*
X93039987Y-86654200D01*
X105444722Y-86654200D01*
X105639126Y-86623409D01*
X105826326Y-86562584D01*
X106001705Y-86473224D01*
X106160946Y-86357528D01*
X107843474Y-84675000D01*
X112100000Y-84675000D01*
X114975000Y-84675000D01*
X115475000Y-84675000D01*
X117750000Y-84675000D01*
X118250000Y-84675000D01*
X120525000Y-84675000D01*
X121025000Y-84675000D01*
X123899999Y-84675000D01*
X123899999Y-82750000D01*
X121025000Y-82750000D01*
X121025000Y-84675000D01*
X120525000Y-84675000D01*
X120525000Y-82750000D01*
X118250000Y-82750000D01*
X118250000Y-84675000D01*
X117750000Y-84675000D01*
X117750000Y-82750000D01*
X115475000Y-82750000D01*
X115475000Y-84675000D01*
X114975000Y-84675000D01*
X114975000Y-82750000D01*
X112100000Y-82750000D01*
X112100000Y-84675000D01*
X107843474Y-84675000D01*
X109731655Y-82786819D01*
X109792978Y-82753334D01*
X109819336Y-82750500D01*
X110051583Y-82750500D01*
X110139985Y-82750500D01*
X110150792Y-82750972D01*
X110199998Y-82755277D01*
X110200000Y-82755277D01*
X110200002Y-82755277D01*
X110228254Y-82752805D01*
X110417977Y-82736207D01*
X110629330Y-82679575D01*
X110827639Y-82587102D01*
X111006877Y-82461598D01*
X111161598Y-82306877D01*
X111165843Y-82300814D01*
X111220416Y-82257188D01*
X111253537Y-82248714D01*
X111367943Y-82235824D01*
X111526713Y-82180267D01*
X111526714Y-82180266D01*
X111407736Y-82061288D01*
X111374251Y-81999965D01*
X111378659Y-81934689D01*
X111378173Y-81934559D01*
X111378834Y-81932089D01*
X111378895Y-81931197D01*
X111379573Y-81929334D01*
X111379572Y-81929334D01*
X111379575Y-81929330D01*
X111436207Y-81717977D01*
X111440007Y-81674536D01*
X111465459Y-81609469D01*
X111522050Y-81568491D01*
X111591812Y-81564612D01*
X111651216Y-81597664D01*
X111880266Y-81826714D01*
X111947080Y-81811464D01*
X111947200Y-81811993D01*
X111964626Y-81805085D01*
X112033189Y-81818537D01*
X112083594Y-81866922D01*
X112100000Y-81928562D01*
X112100000Y-82250000D01*
X114975000Y-82250000D01*
X115475000Y-82250000D01*
X117750000Y-82250000D01*
X118250000Y-82250000D01*
X120525000Y-82250000D01*
X121025000Y-82250000D01*
X123899999Y-82250000D01*
X123899999Y-82156113D01*
X123900000Y-82156092D01*
X123900000Y-80325000D01*
X121025000Y-80325000D01*
X121025000Y-82250000D01*
X120525000Y-82250000D01*
X120525000Y-80325000D01*
X118250000Y-80325000D01*
X118250000Y-82250000D01*
X117750000Y-82250000D01*
X117750000Y-80325000D01*
X115475000Y-80325000D01*
X115475000Y-82250000D01*
X114975000Y-82250000D01*
X114975000Y-80325000D01*
X112100000Y-80325000D01*
X112100000Y-81071436D01*
X112080315Y-81138475D01*
X112027511Y-81184230D01*
X111958353Y-81194174D01*
X111944931Y-81188044D01*
X111880266Y-81173285D01*
X111651216Y-81402336D01*
X111589893Y-81435821D01*
X111520202Y-81430837D01*
X111464268Y-81388966D01*
X111440007Y-81325462D01*
X111436207Y-81282023D01*
X111379575Y-81070670D01*
X111379567Y-81070653D01*
X111378895Y-81068805D01*
X111378839Y-81067927D01*
X111378173Y-81065441D01*
X111378672Y-81065307D01*
X111374462Y-80999076D01*
X111407735Y-80938709D01*
X111526713Y-80819731D01*
X111416646Y-80781218D01*
X111359870Y-80740496D01*
X111334122Y-80675543D01*
X111333600Y-80664176D01*
X111333600Y-78000015D01*
X112100000Y-78000015D01*
X112100000Y-79825000D01*
X114975000Y-79825000D01*
X115475000Y-79825000D01*
X117750000Y-79825000D01*
X117750000Y-77300000D01*
X115475000Y-77300000D01*
X115475000Y-79825000D01*
X114975000Y-79825000D01*
X114975000Y-77300000D01*
X112800028Y-77300000D01*
X112800012Y-77300001D01*
X112697302Y-77310494D01*
X112530880Y-77365641D01*
X112530875Y-77365643D01*
X112381654Y-77457684D01*
X112257684Y-77581654D01*
X112165643Y-77730875D01*
X112165641Y-77730880D01*
X112110494Y-77897301D01*
X112110023Y-77900221D01*
X112109852Y-77903589D01*
X112100000Y-78000015D01*
X111333600Y-78000015D01*
X111333600Y-75449986D01*
X113550001Y-75449986D01*
X113560494Y-75552697D01*
X113615641Y-75719119D01*
X113615643Y-75719124D01*
X113707684Y-75868345D01*
X113831654Y-75992315D01*
X113980875Y-76084356D01*
X113980880Y-76084358D01*
X114147302Y-76139505D01*
X114147309Y-76139506D01*
X114250019Y-76149999D01*
X114350000Y-76149998D01*
X114350000Y-73600000D01*
X113550001Y-73600000D01*
X113550001Y-75449986D01*
X111333600Y-75449986D01*
X111333600Y-71250013D01*
X113550000Y-71250013D01*
X113550000Y-73100000D01*
X114625500Y-73100000D01*
X114692539Y-73119685D01*
X114738294Y-73172489D01*
X114749500Y-73224000D01*
X114749500Y-75464208D01*
X114749501Y-75464223D01*
X114759904Y-75596413D01*
X114759905Y-75596420D01*
X114814901Y-75814677D01*
X114814903Y-75814681D01*
X114814904Y-75814683D01*
X114838899Y-75867511D01*
X114850000Y-75918790D01*
X114850000Y-76149999D01*
X114933373Y-76149999D01*
X115000412Y-76169684D01*
X115032393Y-76200574D01*
X115032619Y-76200386D01*
X115034370Y-76202484D01*
X115035299Y-76203381D01*
X115036181Y-76204654D01*
X115195346Y-76363819D01*
X115195350Y-76363822D01*
X115195354Y-76363825D01*
X115250464Y-76402005D01*
X115380374Y-76492007D01*
X115585317Y-76585096D01*
X115585321Y-76585097D01*
X115803579Y-76640094D01*
X115803581Y-76640094D01*
X115803588Y-76640096D01*
X115935783Y-76650500D01*
X116664216Y-76650499D01*
X116796412Y-76640096D01*
X117014683Y-76585096D01*
X117219626Y-76492007D01*
X117404654Y-76363819D01*
X117563819Y-76204654D01*
X117564689Y-76203397D01*
X117565238Y-76202954D01*
X117567388Y-76200379D01*
X117567898Y-76200805D01*
X117619037Y-76159495D01*
X117666625Y-76149999D01*
X117750000Y-76149998D01*
X117750000Y-75918790D01*
X117761100Y-75867511D01*
X117785096Y-75814683D01*
X117785096Y-75814679D01*
X117785098Y-75814677D01*
X117840094Y-75596420D01*
X117840094Y-75596419D01*
X117840096Y-75596412D01*
X117850500Y-75464217D01*
X117850499Y-71235784D01*
X117840096Y-71103588D01*
X117838487Y-71097201D01*
X117785098Y-70885322D01*
X117763620Y-70838037D01*
X117761099Y-70832487D01*
X117750000Y-70781208D01*
X117750000Y-70549999D01*
X117666629Y-70550000D01*
X117599589Y-70530316D01*
X117567613Y-70499431D01*
X117567388Y-70499620D01*
X117565639Y-70497525D01*
X117564704Y-70496622D01*
X117563822Y-70495349D01*
X117552670Y-70484197D01*
X117538360Y-70469887D01*
X117504876Y-70408567D01*
X117502466Y-70371970D01*
X117507216Y-70314648D01*
X117507643Y-70309502D01*
X117507643Y-70309494D01*
X117487109Y-70061687D01*
X117487107Y-70061675D01*
X117426063Y-69820618D01*
X117326173Y-69592893D01*
X117190166Y-69384717D01*
X117109954Y-69297584D01*
X117021744Y-69201762D01*
X116825509Y-69049026D01*
X116825507Y-69049025D01*
X116825506Y-69049024D01*
X116606811Y-68930672D01*
X116606802Y-68930669D01*
X116371616Y-68849929D01*
X116126335Y-68809000D01*
X115877665Y-68809000D01*
X115632383Y-68849929D01*
X115397197Y-68930669D01*
X115397188Y-68930672D01*
X115178493Y-69049024D01*
X114982257Y-69201761D01*
X114813833Y-69384717D01*
X114677826Y-69592893D01*
X114577936Y-69820618D01*
X114516892Y-70061675D01*
X114516890Y-70061687D01*
X114496357Y-70309494D01*
X114496357Y-70309500D01*
X114498568Y-70336179D01*
X114505162Y-70415761D01*
X114491080Y-70484197D01*
X114442235Y-70534156D01*
X114381586Y-70550000D01*
X114250029Y-70550000D01*
X114250012Y-70550001D01*
X114147302Y-70560494D01*
X113980880Y-70615641D01*
X113980875Y-70615643D01*
X113831654Y-70707684D01*
X113707684Y-70831654D01*
X113615643Y-70980875D01*
X113615641Y-70980880D01*
X113560494Y-71147302D01*
X113560493Y-71147309D01*
X113550000Y-71250013D01*
X111333600Y-71250013D01*
X111333600Y-64880160D01*
X111353285Y-64813121D01*
X111406089Y-64767366D01*
X111475247Y-64757422D01*
X111538803Y-64786447D01*
X111563139Y-64815063D01*
X111657684Y-64968345D01*
X111781654Y-65092315D01*
X111930875Y-65184356D01*
X111930880Y-65184358D01*
X112097302Y-65239505D01*
X112097309Y-65239506D01*
X112200019Y-65249999D01*
X113749999Y-65249999D01*
X114250000Y-65249999D01*
X115799972Y-65249999D01*
X115799986Y-65249998D01*
X115902697Y-65239505D01*
X116069119Y-65184358D01*
X116069124Y-65184356D01*
X116218345Y-65092315D01*
X116342315Y-64968345D01*
X116434356Y-64819124D01*
X116434358Y-64819119D01*
X116489505Y-64652697D01*
X116489506Y-64652690D01*
X116499999Y-64549986D01*
X116500000Y-64549973D01*
X116500000Y-63750000D01*
X114250000Y-63750000D01*
X114250000Y-65249999D01*
X113749999Y-65249999D01*
X113750000Y-65249998D01*
X113750000Y-63250000D01*
X114250000Y-63250000D01*
X116499999Y-63250000D01*
X116499999Y-62450028D01*
X116499998Y-62450013D01*
X116489505Y-62347302D01*
X116434358Y-62180880D01*
X116434356Y-62180875D01*
X116342315Y-62031654D01*
X116218345Y-61907684D01*
X116069124Y-61815643D01*
X116069119Y-61815641D01*
X115902697Y-61760494D01*
X115902690Y-61760493D01*
X115799986Y-61750000D01*
X114250000Y-61750000D01*
X114250000Y-63250000D01*
X113750000Y-63250000D01*
X113750000Y-61750000D01*
X112200028Y-61750000D01*
X112200012Y-61750001D01*
X112097302Y-61760494D01*
X111930880Y-61815641D01*
X111930875Y-61815643D01*
X111781654Y-61907684D01*
X111657683Y-62031655D01*
X111657680Y-62031659D01*
X111563138Y-62184936D01*
X111511190Y-62231661D01*
X111442228Y-62242882D01*
X111378146Y-62215039D01*
X111339290Y-62156970D01*
X111333600Y-62119839D01*
X111333600Y-61484678D01*
X111314658Y-61365084D01*
X111306345Y-61312601D01*
X111302809Y-61290273D01*
X111263948Y-61170674D01*
X111254632Y-61142002D01*
X111241985Y-61103077D01*
X111241983Y-61103074D01*
X111205747Y-61031955D01*
X111152624Y-60927695D01*
X111036928Y-60768454D01*
X110897746Y-60629272D01*
X110744521Y-60476047D01*
X110711036Y-60414724D01*
X110711961Y-60358067D01*
X110713868Y-60350498D01*
X110740096Y-60246412D01*
X110750500Y-60114217D01*
X110750499Y-59267199D01*
X110770183Y-59200161D01*
X110822987Y-59154406D01*
X110874499Y-59143200D01*
X116405722Y-59143200D01*
X116600126Y-59112409D01*
X116787326Y-59051584D01*
X116962705Y-58962224D01*
X117121946Y-58846528D01*
X118263828Y-57704646D01*
X118379524Y-57545405D01*
X118468884Y-57370026D01*
X118529709Y-57182826D01*
X118534100Y-57155103D01*
X118564029Y-57091968D01*
X118623340Y-57055036D01*
X118656573Y-57050500D01*
X118801016Y-57050500D01*
X118836459Y-57048039D01*
X118889630Y-57044349D01*
X118889636Y-57044347D01*
X118889640Y-57044347D01*
X119097176Y-56995534D01*
X119097174Y-56995534D01*
X119097185Y-56995532D01*
X119292237Y-56909409D01*
X119468142Y-56788911D01*
X119618911Y-56638142D01*
X119739409Y-56462237D01*
X119825532Y-56267185D01*
X119874349Y-56059630D01*
X119879411Y-55986706D01*
X119880500Y-55971015D01*
X119880500Y-54178984D01*
X119876245Y-54117686D01*
X119874349Y-54090370D01*
X119874347Y-54090364D01*
X119874347Y-54090359D01*
X119825534Y-53882823D01*
X119825532Y-53882817D01*
X119825532Y-53882815D01*
X119739409Y-53687763D01*
X119618911Y-53511858D01*
X119618906Y-53511852D01*
X119468147Y-53361093D01*
X119468141Y-53361088D01*
X119292238Y-53240592D01*
X119292239Y-53240592D01*
X119292237Y-53240591D01*
X119097185Y-53154468D01*
X119097183Y-53154467D01*
X119097182Y-53154467D01*
X119097176Y-53154465D01*
X118889640Y-53105652D01*
X118889624Y-53105650D01*
X118801016Y-53099500D01*
X118801012Y-53099500D01*
X118358988Y-53099500D01*
X118358984Y-53099500D01*
X118270375Y-53105650D01*
X118270360Y-53105652D01*
X118062824Y-53154465D01*
X118062813Y-53154468D01*
X117995085Y-53184373D01*
X117925806Y-53193444D01*
X117894915Y-53184373D01*
X117827186Y-53154468D01*
X117827175Y-53154465D01*
X117619639Y-53105652D01*
X117619624Y-53105650D01*
X117531016Y-53099500D01*
X117531012Y-53099500D01*
X117088988Y-53099500D01*
X117088984Y-53099500D01*
X117000375Y-53105650D01*
X117000360Y-53105652D01*
X116792824Y-53154465D01*
X116792813Y-53154468D01*
X116725085Y-53184373D01*
X116655806Y-53193444D01*
X116624915Y-53184373D01*
X116557186Y-53154468D01*
X116557175Y-53154465D01*
X116349639Y-53105652D01*
X116349624Y-53105650D01*
X116261016Y-53099500D01*
X116261012Y-53099500D01*
X115818988Y-53099500D01*
X115818984Y-53099500D01*
X115730375Y-53105650D01*
X115730359Y-53105652D01*
X115522823Y-53154465D01*
X115522817Y-53154467D01*
X115327761Y-53240592D01*
X115151858Y-53361088D01*
X115151852Y-53361093D01*
X115001093Y-53511852D01*
X115001088Y-53511858D01*
X114880592Y-53687761D01*
X114794467Y-53882817D01*
X114794465Y-53882823D01*
X114764706Y-54009350D01*
X114730196Y-54070102D01*
X114668318Y-54102552D01*
X114598720Y-54096397D01*
X114543498Y-54053592D01*
X114520185Y-53987726D01*
X114520000Y-53980960D01*
X114520000Y-53602703D01*
X114517503Y-53602900D01*
X114359806Y-53648716D01*
X114359803Y-53648717D01*
X114218447Y-53732314D01*
X114218438Y-53732321D01*
X114102321Y-53848438D01*
X114102314Y-53848447D01*
X114018717Y-53989803D01*
X114018716Y-53989806D01*
X113972900Y-54147504D01*
X113972899Y-54147510D01*
X113970000Y-54184350D01*
X113970000Y-54825000D01*
X114520000Y-54825000D01*
X114527819Y-54817181D01*
X114589142Y-54783696D01*
X114658834Y-54788680D01*
X114714767Y-54830552D01*
X114739184Y-54896016D01*
X114739500Y-54904862D01*
X114739500Y-55201000D01*
X114719815Y-55268039D01*
X114667011Y-55313794D01*
X114615500Y-55325000D01*
X113970000Y-55325000D01*
X113970000Y-55327800D01*
X113950315Y-55394839D01*
X113897511Y-55440594D01*
X113846000Y-55451800D01*
X100009778Y-55451800D01*
X99815372Y-55482591D01*
X99754548Y-55502353D01*
X99754548Y-55502354D01*
X99711303Y-55516405D01*
X99628170Y-55543417D01*
X99452794Y-55632776D01*
X99398007Y-55672582D01*
X99293552Y-55748473D01*
X99293551Y-55748474D01*
X97738681Y-57303345D01*
X97677358Y-57336830D01*
X97607666Y-57331846D01*
X97551733Y-57289974D01*
X97527316Y-57224510D01*
X97527000Y-57215664D01*
X97527000Y-53099500D01*
X97546685Y-53032461D01*
X97599489Y-52986706D01*
X97651000Y-52975500D01*
X97774096Y-52975500D01*
X97811082Y-52972932D01*
X97866567Y-52969081D01*
X97866573Y-52969079D01*
X97866577Y-52969079D01*
X98083135Y-52918145D01*
X98083135Y-52918144D01*
X98083143Y-52918143D01*
X98286671Y-52828277D01*
X98470221Y-52702542D01*
X98627542Y-52545221D01*
X98753277Y-52361671D01*
X98843143Y-52158143D01*
X98844846Y-52150904D01*
X98894079Y-51941577D01*
X98894079Y-51941573D01*
X98894081Y-51941567D01*
X98900500Y-51849092D01*
X98900500Y-51374000D01*
X98920185Y-51306961D01*
X98972989Y-51261206D01*
X99024500Y-51250000D01*
X99375000Y-51250000D01*
X99375000Y-50324000D01*
X99394685Y-50256961D01*
X99447489Y-50211206D01*
X99499000Y-50200000D01*
X99751000Y-50200000D01*
X99818039Y-50219685D01*
X99863794Y-50272489D01*
X99875000Y-50324000D01*
X99875000Y-51250000D01*
X100278134Y-51250000D01*
X100278149Y-51249999D01*
X100314989Y-51247100D01*
X100314995Y-51247099D01*
X100472693Y-51201283D01*
X100472696Y-51201282D01*
X100614052Y-51117685D01*
X100614061Y-51117678D01*
X100730178Y-51001561D01*
X100730184Y-51001553D01*
X100813083Y-50861379D01*
X100864152Y-50813696D01*
X100919815Y-50800500D01*
X101211758Y-50800500D01*
X101278797Y-50820185D01*
X101324552Y-50872989D01*
X101334496Y-50942147D01*
X101331964Y-50954940D01*
X101272292Y-51190575D01*
X101272290Y-51190587D01*
X101251757Y-51438394D01*
X101251757Y-51438405D01*
X101272290Y-51686212D01*
X101272292Y-51686224D01*
X101333336Y-51927281D01*
X101433226Y-52155006D01*
X101569233Y-52363182D01*
X101569236Y-52363185D01*
X101737656Y-52546138D01*
X101933891Y-52698874D01*
X102152590Y-52817228D01*
X102387786Y-52897971D01*
X102633065Y-52938900D01*
X102881735Y-52938900D01*
X103127014Y-52897971D01*
X103362210Y-52817228D01*
X103398943Y-52797348D01*
X103467270Y-52782752D01*
X103528037Y-52804101D01*
X103563329Y-52828277D01*
X103766857Y-52918143D01*
X103766862Y-52918144D01*
X103766864Y-52918145D01*
X103983422Y-52969079D01*
X103983427Y-52969079D01*
X103983433Y-52969081D01*
X104034808Y-52972647D01*
X104075904Y-52975500D01*
X104075908Y-52975500D01*
X104624096Y-52975500D01*
X104661082Y-52972932D01*
X104716567Y-52969081D01*
X104716573Y-52969079D01*
X104716577Y-52969079D01*
X104933135Y-52918145D01*
X104933135Y-52918144D01*
X104933143Y-52918143D01*
X105124914Y-52833467D01*
X105194192Y-52824397D01*
X105225084Y-52833467D01*
X105416857Y-52918143D01*
X105416862Y-52918144D01*
X105416864Y-52918145D01*
X105633422Y-52969079D01*
X105633427Y-52969079D01*
X105633433Y-52969081D01*
X105684808Y-52972647D01*
X105725904Y-52975500D01*
X105725908Y-52975500D01*
X106274096Y-52975500D01*
X106311082Y-52972932D01*
X106366567Y-52969081D01*
X106366573Y-52969079D01*
X106366577Y-52969079D01*
X106583135Y-52918145D01*
X106583135Y-52918144D01*
X106583143Y-52918143D01*
X106786671Y-52828277D01*
X106970221Y-52702542D01*
X107127542Y-52545221D01*
X107253277Y-52361671D01*
X107343143Y-52158143D01*
X107344846Y-52150904D01*
X107394079Y-51941577D01*
X107394079Y-51941573D01*
X107394081Y-51941567D01*
X107400500Y-51849092D01*
X107400500Y-51374000D01*
X107420185Y-51306961D01*
X107472989Y-51261206D01*
X107524500Y-51250000D01*
X107875000Y-51250000D01*
X107875000Y-50324000D01*
X107894685Y-50256961D01*
X107947489Y-50211206D01*
X107999000Y-50200000D01*
X108251000Y-50200000D01*
X108318039Y-50219685D01*
X108363794Y-50272489D01*
X108375000Y-50324000D01*
X108375000Y-51250000D01*
X108778134Y-51250000D01*
X108778149Y-51249999D01*
X108814989Y-51247100D01*
X108814995Y-51247099D01*
X108972693Y-51201283D01*
X108972696Y-51201282D01*
X109114050Y-51117686D01*
X109114058Y-51117680D01*
X109157323Y-51074415D01*
X109218646Y-51040929D01*
X109288337Y-51045913D01*
X109292410Y-51047515D01*
X109452219Y-51113710D01*
X109667537Y-51171404D01*
X109888543Y-51200500D01*
X109888550Y-51200500D01*
X110111450Y-51200500D01*
X110111457Y-51200500D01*
X110332463Y-51171404D01*
X110547781Y-51113710D01*
X110753726Y-51028405D01*
X110946774Y-50916948D01*
X111123624Y-50781247D01*
X111281247Y-50623624D01*
X111409263Y-50456787D01*
X111419944Y-50444607D01*
X111476411Y-50388142D01*
X111596909Y-50212237D01*
X111683032Y-50017185D01*
X111710961Y-49898439D01*
X111731847Y-49809640D01*
X111731847Y-49809636D01*
X111731849Y-49809630D01*
X111738000Y-49721012D01*
X111738000Y-49278988D01*
X111731849Y-49190370D01*
X111703794Y-49071087D01*
X111700500Y-49042697D01*
X111700500Y-41165871D01*
X111700501Y-41165842D01*
X111700501Y-40938550D01*
X111700500Y-40938536D01*
X111691452Y-40869811D01*
X111671404Y-40717537D01*
X111613710Y-40502219D01*
X111528405Y-40296274D01*
X111416948Y-40103226D01*
X111321109Y-39978326D01*
X111281247Y-39926376D01*
X111281244Y-39926373D01*
X111281240Y-39926368D01*
X111121217Y-39766345D01*
X111121178Y-39766308D01*
X110974219Y-39619349D01*
X110940734Y-39558026D01*
X110938166Y-39539786D01*
X110936356Y-39512161D01*
X110895346Y-39305989D01*
X110901573Y-39236400D01*
X110944436Y-39181222D01*
X111010326Y-39157978D01*
X111016963Y-39157800D01*
X118219868Y-39157800D01*
X118286907Y-39177485D01*
X118307549Y-39194119D01*
X119148142Y-40034712D01*
X119181627Y-40096035D01*
X119176643Y-40165727D01*
X119134771Y-40221660D01*
X119084653Y-40244010D01*
X118938313Y-40273119D01*
X118938301Y-40273122D01*
X118652752Y-40370053D01*
X118652731Y-40370062D01*
X118382286Y-40503431D01*
X118382279Y-40503435D01*
X118131540Y-40670973D01*
X117904810Y-40869810D01*
X117705973Y-41096540D01*
X117538435Y-41347279D01*
X117538431Y-41347286D01*
X117405062Y-41617731D01*
X117405053Y-41617752D01*
X117308122Y-41903301D01*
X117308118Y-41903316D01*
X117249288Y-42199069D01*
X117249285Y-42199096D01*
X117239589Y-42347022D01*
X117215562Y-42412630D01*
X117203536Y-42426592D01*
X116967180Y-42662949D01*
X116905857Y-42696434D01*
X116836166Y-42691450D01*
X116780232Y-42649579D01*
X116755815Y-42584114D01*
X116755499Y-42575268D01*
X116755499Y-41141971D01*
X116755499Y-41141964D01*
X116744886Y-41022582D01*
X116688909Y-40826951D01*
X116594698Y-40646593D01*
X116542684Y-40582803D01*
X116466109Y-40488890D01*
X116350933Y-40394977D01*
X116308407Y-40360302D01*
X116128049Y-40266091D01*
X116128048Y-40266090D01*
X116128045Y-40266089D01*
X115972769Y-40221660D01*
X115932418Y-40210114D01*
X115932415Y-40210113D01*
X115932413Y-40210113D01*
X115866102Y-40204217D01*
X115813037Y-40199500D01*
X115813032Y-40199500D01*
X113096971Y-40199500D01*
X113096965Y-40199500D01*
X113096964Y-40199501D01*
X113085316Y-40200536D01*
X112977584Y-40210113D01*
X112781954Y-40266089D01*
X112691772Y-40313196D01*
X112601593Y-40360302D01*
X112601591Y-40360303D01*
X112601590Y-40360304D01*
X112443890Y-40488890D01*
X112315304Y-40646590D01*
X112315302Y-40646593D01*
X112268196Y-40736772D01*
X112221089Y-40826954D01*
X112165114Y-41022583D01*
X112165113Y-41022586D01*
X112154500Y-41141966D01*
X112154500Y-43858028D01*
X112154500Y-43858033D01*
X112154501Y-43858036D01*
X112154866Y-43862144D01*
X112165113Y-43977415D01*
X112221089Y-44173045D01*
X112221090Y-44173048D01*
X112221091Y-44173049D01*
X112315302Y-44353407D01*
X112343957Y-44388550D01*
X112443890Y-44511109D01*
X112557472Y-44603722D01*
X112601593Y-44639698D01*
X112687911Y-44684786D01*
X112738219Y-44733273D01*
X112754500Y-44794695D01*
X112754500Y-49809871D01*
X112754499Y-49809905D01*
X112754499Y-50036663D01*
X112777615Y-50212237D01*
X112781208Y-50239526D01*
X112783596Y-50257663D01*
X112836953Y-50456796D01*
X112841290Y-50472980D01*
X112841293Y-50472990D01*
X112926593Y-50678922D01*
X112926595Y-50678926D01*
X113038052Y-50871974D01*
X113038057Y-50871980D01*
X113038058Y-50871982D01*
X113173751Y-51048822D01*
X113173757Y-51048829D01*
X113334473Y-51209545D01*
X113334501Y-51209571D01*
X113513872Y-51388943D01*
X113513878Y-51388948D01*
X113552670Y-51418714D01*
X113590618Y-51467002D01*
X113610591Y-51512237D01*
X113693941Y-51633912D01*
X113731088Y-51688141D01*
X113731093Y-51688147D01*
X113881852Y-51838906D01*
X113881858Y-51838911D01*
X114057763Y-51959409D01*
X114252815Y-52045532D01*
X114252821Y-52045533D01*
X114252823Y-52045534D01*
X114460359Y-52094347D01*
X114460364Y-52094347D01*
X114460370Y-52094349D01*
X114509602Y-52097766D01*
X114548984Y-52100500D01*
X114548988Y-52100500D01*
X114991016Y-52100500D01*
X115026459Y-52098039D01*
X115079630Y-52094349D01*
X115079636Y-52094347D01*
X115079640Y-52094347D01*
X115287176Y-52045534D01*
X115287172Y-52045534D01*
X115287185Y-52045532D01*
X115354914Y-52015626D01*
X115424192Y-52006555D01*
X115455084Y-52015626D01*
X115475592Y-52024681D01*
X115522812Y-52045531D01*
X115522813Y-52045531D01*
X115522815Y-52045532D01*
X115522819Y-52045533D01*
X115522823Y-52045534D01*
X115730359Y-52094347D01*
X115730364Y-52094347D01*
X115730370Y-52094349D01*
X115779602Y-52097766D01*
X115818984Y-52100500D01*
X115818988Y-52100500D01*
X116261016Y-52100500D01*
X116296459Y-52098039D01*
X116349630Y-52094349D01*
X116349636Y-52094347D01*
X116349640Y-52094347D01*
X116557176Y-52045534D01*
X116557172Y-52045534D01*
X116557185Y-52045532D01*
X116624914Y-52015626D01*
X116694192Y-52006555D01*
X116725084Y-52015626D01*
X116745592Y-52024681D01*
X116792812Y-52045531D01*
X116792813Y-52045531D01*
X116792815Y-52045532D01*
X116792819Y-52045533D01*
X116792823Y-52045534D01*
X117000359Y-52094347D01*
X117000364Y-52094347D01*
X117000370Y-52094349D01*
X117049602Y-52097766D01*
X117088984Y-52100500D01*
X117088988Y-52100500D01*
X117531016Y-52100500D01*
X117566459Y-52098039D01*
X117619630Y-52094349D01*
X117619636Y-52094347D01*
X117619640Y-52094347D01*
X117827176Y-52045534D01*
X117827172Y-52045534D01*
X117827185Y-52045532D01*
X117894914Y-52015626D01*
X117964192Y-52006555D01*
X117995084Y-52015626D01*
X118015592Y-52024681D01*
X118062812Y-52045531D01*
X118062813Y-52045531D01*
X118062815Y-52045532D01*
X118062819Y-52045533D01*
X118062823Y-52045534D01*
X118270359Y-52094347D01*
X118270364Y-52094347D01*
X118270370Y-52094349D01*
X118319602Y-52097766D01*
X118358984Y-52100500D01*
X118358988Y-52100500D01*
X118801016Y-52100500D01*
X118836459Y-52098039D01*
X118889630Y-52094349D01*
X118889636Y-52094347D01*
X118889640Y-52094347D01*
X119097176Y-52045534D01*
X119097174Y-52045534D01*
X119097185Y-52045532D01*
X119226694Y-51988348D01*
X119295970Y-51979278D01*
X119359155Y-52009102D01*
X119382317Y-52036687D01*
X119432684Y-52118345D01*
X119556654Y-52242315D01*
X119705875Y-52334356D01*
X119705880Y-52334358D01*
X119872302Y-52389505D01*
X119872309Y-52389506D01*
X119975019Y-52399999D01*
X120249999Y-52399999D01*
X120250000Y-52399998D01*
X120250000Y-51324500D01*
X120269685Y-51257461D01*
X120322489Y-51211706D01*
X120374000Y-51200500D01*
X120388543Y-51200500D01*
X120496468Y-51200500D01*
X120563507Y-51220185D01*
X120584149Y-51236819D01*
X120646381Y-51299051D01*
X120679866Y-51360374D01*
X120682700Y-51386732D01*
X120682700Y-61125500D01*
X120663015Y-61192539D01*
X120610211Y-61238294D01*
X120558700Y-61249500D01*
X120185791Y-61249500D01*
X120185776Y-61249501D01*
X120053586Y-61259904D01*
X120053579Y-61259905D01*
X119835321Y-61314902D01*
X119835318Y-61314903D01*
X119630377Y-61407991D01*
X119630367Y-61407997D01*
X119445354Y-61536174D01*
X119445342Y-61536184D01*
X119286184Y-61695342D01*
X119286174Y-61695354D01*
X119157997Y-61880367D01*
X119157991Y-61880377D01*
X119064903Y-62085318D01*
X119064902Y-62085321D01*
X119009905Y-62303579D01*
X119009904Y-62303586D01*
X118999500Y-62435777D01*
X118999500Y-64564208D01*
X118999501Y-64564223D01*
X119009904Y-64696413D01*
X119009905Y-64696420D01*
X119064902Y-64914678D01*
X119064903Y-64914681D01*
X119157991Y-65119622D01*
X119157997Y-65119632D01*
X119286174Y-65304645D01*
X119286178Y-65304650D01*
X119286181Y-65304654D01*
X119445346Y-65463819D01*
X119445350Y-65463822D01*
X119445354Y-65463825D01*
X119564823Y-65546593D01*
X119630374Y-65592007D01*
X119835317Y-65685096D01*
X119835321Y-65685097D01*
X120053579Y-65740094D01*
X120053582Y-65740094D01*
X120053588Y-65740096D01*
X120185230Y-65750456D01*
X120250517Y-65775340D01*
X120291988Y-65831571D01*
X120299500Y-65874074D01*
X120299500Y-69933874D01*
X120279815Y-70000913D01*
X120227011Y-70046668D01*
X120165772Y-70057492D01*
X120064217Y-70049500D01*
X119335791Y-70049500D01*
X119335776Y-70049501D01*
X119203586Y-70059904D01*
X119203579Y-70059905D01*
X118985321Y-70114902D01*
X118985318Y-70114903D01*
X118780377Y-70207991D01*
X118780367Y-70207997D01*
X118595354Y-70336174D01*
X118595348Y-70336179D01*
X118436182Y-70495344D01*
X118435303Y-70496614D01*
X118434746Y-70497063D01*
X118432614Y-70499618D01*
X118432107Y-70499194D01*
X118380945Y-70540512D01*
X118333373Y-70550000D01*
X118250000Y-70550000D01*
X118250000Y-70781208D01*
X118238900Y-70832488D01*
X118214901Y-70885322D01*
X118159905Y-71103579D01*
X118159904Y-71103586D01*
X118149500Y-71235777D01*
X118149500Y-75464208D01*
X118149501Y-75464223D01*
X118159904Y-75596413D01*
X118159905Y-75596420D01*
X118210765Y-75798260D01*
X118208058Y-75868077D01*
X118204080Y-75878367D01*
X118188838Y-75913116D01*
X118188836Y-75913120D01*
X118127792Y-76154175D01*
X118127790Y-76154187D01*
X118107257Y-76401994D01*
X118107257Y-76402005D01*
X118127790Y-76649812D01*
X118127792Y-76649824D01*
X118188836Y-76890881D01*
X118288727Y-77118608D01*
X118290031Y-77120604D01*
X118290313Y-77121539D01*
X118291167Y-77123117D01*
X118290842Y-77123292D01*
X118310215Y-77187495D01*
X118291030Y-77254679D01*
X118273900Y-77276100D01*
X118250000Y-77300000D01*
X118250000Y-79825000D01*
X123899999Y-79825000D01*
X123899999Y-78000028D01*
X123899998Y-78000013D01*
X123889505Y-77897302D01*
X123834358Y-77730880D01*
X123834356Y-77730875D01*
X123742315Y-77581654D01*
X123618345Y-77457684D01*
X123469124Y-77365643D01*
X123469119Y-77365641D01*
X123302697Y-77310494D01*
X123302690Y-77310493D01*
X123199986Y-77300000D01*
X121047007Y-77300000D01*
X120979968Y-77280315D01*
X120934213Y-77227511D01*
X120924269Y-77158353D01*
X120935754Y-77123629D01*
X120935013Y-77123304D01*
X120964209Y-77056743D01*
X121036963Y-76890881D01*
X121074143Y-76744057D01*
X121109683Y-76683903D01*
X121172103Y-76652511D01*
X121194349Y-76650499D01*
X121764208Y-76650499D01*
X121764216Y-76650499D01*
X121896412Y-76640096D01*
X122114683Y-76585096D01*
X122319626Y-76492007D01*
X122504654Y-76363819D01*
X122663819Y-76204654D01*
X122792007Y-76019626D01*
X122885096Y-75814683D01*
X122940096Y-75596412D01*
X122950500Y-75464217D01*
X122950499Y-73475238D01*
X122970184Y-73408200D01*
X122999012Y-73376863D01*
X123123624Y-73281247D01*
X123281247Y-73123624D01*
X123316779Y-73077318D01*
X123373206Y-73036115D01*
X123442952Y-73031960D01*
X123503873Y-73066172D01*
X123518964Y-73084983D01*
X123610233Y-73224682D01*
X123610236Y-73224685D01*
X123778656Y-73407638D01*
X123974891Y-73560374D01*
X124193590Y-73678728D01*
X124398395Y-73749038D01*
X124428780Y-73759469D01*
X124428785Y-73759471D01*
X124462473Y-73765092D01*
X124525359Y-73795541D01*
X124529746Y-73799720D01*
X125521559Y-74791533D01*
X125553093Y-74845101D01*
X125561088Y-74873042D01*
X125561090Y-74873048D01*
X125597415Y-74942590D01*
X125611006Y-75011125D01*
X125597415Y-75057410D01*
X125561090Y-75126951D01*
X125561090Y-75126953D01*
X125527550Y-75244169D01*
X125514755Y-75288890D01*
X125505114Y-75322583D01*
X125505113Y-75322586D01*
X125494500Y-75441966D01*
X125494500Y-76558028D01*
X125494501Y-76558034D01*
X125505113Y-76677415D01*
X125561089Y-76873045D01*
X125561090Y-76873048D01*
X125561091Y-76873049D01*
X125655302Y-77053407D01*
X125655304Y-77053409D01*
X125783890Y-77211109D01*
X125804006Y-77227511D01*
X125941593Y-77339698D01*
X126121951Y-77433909D01*
X126317582Y-77489886D01*
X126436963Y-77500500D01*
X128903036Y-77500499D01*
X129022418Y-77489886D01*
X129218049Y-77433909D01*
X129398407Y-77339698D01*
X129556109Y-77211109D01*
X129684698Y-77053407D01*
X129778909Y-76873049D01*
X129834886Y-76677418D01*
X129845500Y-76558037D01*
X129845499Y-75441964D01*
X129834886Y-75322582D01*
X129790012Y-75165756D01*
X129778910Y-75126954D01*
X129778909Y-75126953D01*
X129778909Y-75126951D01*
X129742583Y-75057409D01*
X129728993Y-74988877D01*
X129742583Y-74942590D01*
X129778909Y-74873049D01*
X129834886Y-74677418D01*
X129845500Y-74558037D01*
X129845499Y-73441964D01*
X129834886Y-73322582D01*
X129820855Y-73273546D01*
X129821337Y-73203679D01*
X129859516Y-73145163D01*
X129883773Y-73128950D01*
X130000405Y-73069524D01*
X130159646Y-72953828D01*
X131976470Y-71137003D01*
X132037791Y-71103520D01*
X132107483Y-71108504D01*
X132163416Y-71150376D01*
X132187833Y-71215840D01*
X132183365Y-71258797D01*
X132165114Y-71322582D01*
X132165113Y-71322586D01*
X132154500Y-71441966D01*
X132154500Y-72558028D01*
X132154501Y-72558034D01*
X132165113Y-72677415D01*
X132221090Y-72873046D01*
X132221090Y-72873048D01*
X132257415Y-72942590D01*
X132271006Y-73011125D01*
X132257415Y-73057410D01*
X132221090Y-73126951D01*
X132221090Y-73126953D01*
X132215880Y-73145163D01*
X132165115Y-73322581D01*
X132165114Y-73322583D01*
X132165113Y-73322586D01*
X132154500Y-73441966D01*
X132154500Y-74558028D01*
X132154501Y-74558034D01*
X132165113Y-74677415D01*
X132221090Y-74873046D01*
X132221090Y-74873048D01*
X132257415Y-74942590D01*
X132271006Y-75011125D01*
X132257415Y-75057410D01*
X132221090Y-75126951D01*
X132221090Y-75126953D01*
X132187550Y-75244169D01*
X132174755Y-75288890D01*
X132165114Y-75322583D01*
X132165113Y-75322586D01*
X132154500Y-75441966D01*
X132154500Y-76558028D01*
X132154501Y-76558034D01*
X132165113Y-76677415D01*
X132221089Y-76873045D01*
X132221090Y-76873048D01*
X132221091Y-76873049D01*
X132315302Y-77053407D01*
X132315304Y-77053409D01*
X132443890Y-77211109D01*
X132464006Y-77227511D01*
X132601593Y-77339698D01*
X132781951Y-77433909D01*
X132977582Y-77489886D01*
X133096963Y-77500500D01*
X135563036Y-77500499D01*
X135682418Y-77489886D01*
X135878049Y-77433909D01*
X136058407Y-77339698D01*
X136216109Y-77211109D01*
X136344698Y-77053407D01*
X136438909Y-76873049D01*
X136494886Y-76677418D01*
X136505500Y-76558037D01*
X136505499Y-75441964D01*
X136494886Y-75322582D01*
X136450012Y-75165756D01*
X136438910Y-75126954D01*
X136438909Y-75126953D01*
X136438909Y-75126951D01*
X136402583Y-75057409D01*
X136388993Y-74988877D01*
X136402583Y-74942590D01*
X136438909Y-74873049D01*
X136494886Y-74677418D01*
X136505500Y-74558037D01*
X136505499Y-73441964D01*
X136494886Y-73322582D01*
X136438909Y-73126951D01*
X136402583Y-73057409D01*
X136388993Y-72988877D01*
X136402583Y-72942590D01*
X136438909Y-72873049D01*
X136494886Y-72677418D01*
X136505500Y-72558037D01*
X136505499Y-71441964D01*
X136494886Y-71322582D01*
X136438909Y-71126951D01*
X136344698Y-70946593D01*
X136292684Y-70882803D01*
X136216109Y-70788890D01*
X136058409Y-70660304D01*
X136058410Y-70660304D01*
X136058407Y-70660302D01*
X135878049Y-70566091D01*
X135878048Y-70566090D01*
X135878045Y-70566089D01*
X135744514Y-70527882D01*
X135682418Y-70510114D01*
X135682415Y-70510113D01*
X135682413Y-70510113D01*
X135616102Y-70504217D01*
X135563037Y-70499500D01*
X135563032Y-70499500D01*
X133096971Y-70499500D01*
X133096965Y-70499500D01*
X133096964Y-70499501D01*
X133085316Y-70500536D01*
X132977584Y-70510113D01*
X132913797Y-70528365D01*
X132843929Y-70527882D01*
X132785413Y-70489701D01*
X132756829Y-70425946D01*
X132767251Y-70356858D01*
X132792002Y-70321471D01*
X133722828Y-69390646D01*
X133838524Y-69231405D01*
X133853628Y-69201762D01*
X133866033Y-69177416D01*
X133927881Y-69056032D01*
X133927881Y-69056028D01*
X133927884Y-69056025D01*
X133977741Y-68902582D01*
X133988709Y-68868827D01*
X134002393Y-68782422D01*
X134019500Y-68674422D01*
X134019500Y-63470577D01*
X134000986Y-63353687D01*
X133988709Y-63276174D01*
X133988707Y-63276169D01*
X133988707Y-63276166D01*
X133980526Y-63250987D01*
X133980520Y-63250972D01*
X133927886Y-63088979D01*
X133927884Y-63088973D01*
X133896939Y-63028241D01*
X133838524Y-62913595D01*
X133804413Y-62866645D01*
X133722834Y-62754360D01*
X133722830Y-62754355D01*
X133076166Y-62107691D01*
X133042681Y-62046368D01*
X133047665Y-61976676D01*
X133067746Y-61941649D01*
X133095441Y-61907684D01*
X133139698Y-61853407D01*
X133233909Y-61673049D01*
X133289886Y-61477418D01*
X133300500Y-61358037D01*
X133300499Y-58641964D01*
X133289886Y-58522582D01*
X133233909Y-58326951D01*
X133139698Y-58146593D01*
X133087684Y-58082803D01*
X133011109Y-57988890D01*
X132853409Y-57860304D01*
X132853410Y-57860304D01*
X132853407Y-57860302D01*
X132673049Y-57766091D01*
X132673048Y-57766090D01*
X132673045Y-57766089D01*
X132555829Y-57732550D01*
X132477418Y-57710114D01*
X132477415Y-57710113D01*
X132477413Y-57710113D01*
X132411102Y-57704217D01*
X132358037Y-57699500D01*
X132358032Y-57699500D01*
X129641971Y-57699500D01*
X129641965Y-57699500D01*
X129641964Y-57699501D01*
X129630316Y-57700536D01*
X129522584Y-57710113D01*
X129326954Y-57766089D01*
X129236772Y-57813196D01*
X129146593Y-57860302D01*
X129146591Y-57860303D01*
X129146590Y-57860304D01*
X128988890Y-57988890D01*
X128866695Y-58138752D01*
X128860302Y-58146593D01*
X128834407Y-58196165D01*
X128785922Y-58246471D01*
X128717934Y-58262578D01*
X128652031Y-58239371D01*
X128609136Y-58184219D01*
X128600500Y-58138752D01*
X128600500Y-56099500D01*
X128620185Y-56032461D01*
X128672989Y-55986706D01*
X128724500Y-55975500D01*
X129274096Y-55975500D01*
X129311082Y-55972932D01*
X129366567Y-55969081D01*
X129366573Y-55969079D01*
X129366577Y-55969079D01*
X129583135Y-55918145D01*
X129583135Y-55918144D01*
X129583143Y-55918143D01*
X129786671Y-55828277D01*
X129970221Y-55702542D01*
X130127542Y-55545221D01*
X130253277Y-55361671D01*
X130343143Y-55158143D01*
X130347671Y-55138891D01*
X130394079Y-54941577D01*
X130394079Y-54941573D01*
X130394081Y-54941567D01*
X130400500Y-54849092D01*
X130400500Y-54374000D01*
X130420185Y-54306961D01*
X130472989Y-54261206D01*
X130524500Y-54250000D01*
X130875000Y-54250000D01*
X130875000Y-53324000D01*
X130894685Y-53256961D01*
X130947489Y-53211206D01*
X130999000Y-53200000D01*
X131251000Y-53200000D01*
X131318039Y-53219685D01*
X131363794Y-53272489D01*
X131375000Y-53324000D01*
X131375000Y-54250000D01*
X131778134Y-54250000D01*
X131778149Y-54249999D01*
X131814989Y-54247100D01*
X131814995Y-54247099D01*
X131972693Y-54201283D01*
X131972696Y-54201282D01*
X132114050Y-54117686D01*
X132114058Y-54117680D01*
X132157323Y-54074415D01*
X132218646Y-54040929D01*
X132288337Y-54045913D01*
X132292410Y-54047515D01*
X132452219Y-54113710D01*
X132667537Y-54171404D01*
X132888544Y-54200501D01*
X132888551Y-54200501D01*
X133111449Y-54200501D01*
X133111456Y-54200501D01*
X133332463Y-54171404D01*
X133547781Y-54113710D01*
X133753726Y-54028405D01*
X133946774Y-53916948D01*
X134123623Y-53781247D01*
X134618249Y-53286619D01*
X134618265Y-53286606D01*
X134781242Y-53123629D01*
X134781247Y-53123624D01*
X134916948Y-52946774D01*
X135028405Y-52753726D01*
X135113710Y-52547781D01*
X135171404Y-52332463D01*
X135174245Y-52310885D01*
X135200501Y-52111456D01*
X135200501Y-51888544D01*
X135200501Y-51884705D01*
X135200500Y-51884671D01*
X135200500Y-44615871D01*
X135200501Y-44615842D01*
X135200501Y-44388550D01*
X135200500Y-44388536D01*
X135189905Y-44308062D01*
X135171404Y-44167537D01*
X135113710Y-43952219D01*
X135028405Y-43746274D01*
X134916948Y-43553226D01*
X134788687Y-43386072D01*
X134781248Y-43376377D01*
X134781242Y-43376370D01*
X134621217Y-43216345D01*
X134621178Y-43216308D01*
X133831462Y-42426592D01*
X133797977Y-42365269D01*
X133795409Y-42347030D01*
X133785713Y-42199080D01*
X133726880Y-41903309D01*
X133629945Y-41617748D01*
X133626223Y-41610201D01*
X133496568Y-41347286D01*
X133496564Y-41347279D01*
X133329026Y-41096540D01*
X133130189Y-40869810D01*
X132903459Y-40670973D01*
X132652720Y-40503435D01*
X132652713Y-40503431D01*
X132382268Y-40370062D01*
X132382247Y-40370053D01*
X132096698Y-40273122D01*
X132096692Y-40273120D01*
X132096691Y-40273120D01*
X132096689Y-40273119D01*
X132096683Y-40273118D01*
X131800930Y-40214288D01*
X131800921Y-40214287D01*
X131800920Y-40214287D01*
X131500000Y-40194564D01*
X131199080Y-40214287D01*
X131199079Y-40214287D01*
X131199069Y-40214288D01*
X130903316Y-40273118D01*
X130903301Y-40273122D01*
X130617752Y-40370053D01*
X130617731Y-40370062D01*
X130347286Y-40503431D01*
X130347279Y-40503435D01*
X130096540Y-40670973D01*
X129869810Y-40869810D01*
X129670973Y-41096540D01*
X129503435Y-41347279D01*
X129503431Y-41347286D01*
X129370062Y-41617731D01*
X129370053Y-41617752D01*
X129273122Y-41903301D01*
X129273118Y-41903316D01*
X129214288Y-42199069D01*
X129214287Y-42199081D01*
X129194564Y-42500000D01*
X129214287Y-42800918D01*
X129214288Y-42800930D01*
X129273118Y-43096683D01*
X129273122Y-43096698D01*
X129370053Y-43382247D01*
X129370062Y-43382268D01*
X129503431Y-43652713D01*
X129503435Y-43652720D01*
X129670973Y-43903459D01*
X129869810Y-44130189D01*
X130096540Y-44329026D01*
X130347279Y-44496564D01*
X130347286Y-44496568D01*
X130617731Y-44629937D01*
X130617736Y-44629939D01*
X130617748Y-44629945D01*
X130903309Y-44726880D01*
X131199080Y-44785713D01*
X131347022Y-44795408D01*
X131412629Y-44819435D01*
X131426592Y-44831462D01*
X131763181Y-45168051D01*
X131796666Y-45229374D01*
X131799500Y-45255732D01*
X131799500Y-47195268D01*
X131779815Y-47262307D01*
X131727011Y-47308062D01*
X131657853Y-47318006D01*
X131594297Y-47288981D01*
X131587819Y-47282949D01*
X130171772Y-45866902D01*
X130171744Y-45866872D01*
X130011029Y-45706157D01*
X130011022Y-45706151D01*
X129834182Y-45570458D01*
X129834180Y-45570457D01*
X129834174Y-45570452D01*
X129641126Y-45458995D01*
X129641122Y-45458993D01*
X129435190Y-45373693D01*
X129435183Y-45373691D01*
X129435181Y-45373690D01*
X129219863Y-45315996D01*
X129170750Y-45309530D01*
X128998863Y-45286899D01*
X128998856Y-45286899D01*
X128775944Y-45286899D01*
X128772104Y-45286899D01*
X128772072Y-45286900D01*
X128244500Y-45286900D01*
X128177461Y-45267215D01*
X128131706Y-45214411D01*
X128120500Y-45162900D01*
X128120500Y-44794695D01*
X128140185Y-44727656D01*
X128187089Y-44684786D01*
X128273407Y-44639698D01*
X128431109Y-44511109D01*
X128559698Y-44353407D01*
X128653909Y-44173049D01*
X128709886Y-43977418D01*
X128720500Y-43858037D01*
X128720499Y-41141964D01*
X128709886Y-41022582D01*
X128653909Y-40826951D01*
X128559698Y-40646593D01*
X128507684Y-40582803D01*
X128431109Y-40488890D01*
X128315933Y-40394977D01*
X128273407Y-40360302D01*
X128093049Y-40266091D01*
X128093048Y-40266090D01*
X128093045Y-40266089D01*
X127937769Y-40221660D01*
X127897418Y-40210114D01*
X127897415Y-40210113D01*
X127897413Y-40210113D01*
X127831102Y-40204217D01*
X127778037Y-40199500D01*
X127778032Y-40199500D01*
X125061971Y-40199500D01*
X125061965Y-40199500D01*
X125061964Y-40199501D01*
X125050316Y-40200536D01*
X124942584Y-40210113D01*
X124746954Y-40266089D01*
X124651860Y-40315761D01*
X124566593Y-40360302D01*
X124566591Y-40360303D01*
X124566588Y-40360305D01*
X124497459Y-40416671D01*
X124433063Y-40443779D01*
X124364233Y-40431769D01*
X124331419Y-40408249D01*
X120259972Y-36336802D01*
X120259944Y-36336772D01*
X120134853Y-36211681D01*
X120101368Y-36150358D01*
X120106352Y-36080666D01*
X120148224Y-36024733D01*
X120213688Y-36000316D01*
X120222534Y-36000000D01*
X135299607Y-36000000D01*
X135366646Y-36019685D01*
G37*
%TD.AperFunction*%
%TA.AperFunction,Conductor*%
G36*
X87136006Y-79863531D02*
G01*
X87136939Y-79863903D01*
X87136951Y-79863909D01*
X87332582Y-79919886D01*
X87451963Y-79930500D01*
X88716663Y-79930499D01*
X88783702Y-79950184D01*
X88829457Y-80002987D01*
X88839401Y-80072146D01*
X88810376Y-80135702D01*
X88804344Y-80142180D01*
X87861004Y-81085520D01*
X87799681Y-81119005D01*
X87764480Y-81121523D01*
X87740005Y-81119773D01*
X87739999Y-81119773D01*
X87475972Y-81138657D01*
X87475965Y-81138658D01*
X87217326Y-81194921D01*
X86969309Y-81287426D01*
X86824895Y-81366282D01*
X86756622Y-81381133D01*
X86691158Y-81356716D01*
X86687108Y-81353551D01*
X86624507Y-81302507D01*
X86603407Y-81285302D01*
X86423049Y-81191091D01*
X86423048Y-81191090D01*
X86423045Y-81191089D01*
X86305829Y-81157550D01*
X86227418Y-81135114D01*
X86227415Y-81135113D01*
X86227413Y-81135113D01*
X86161102Y-81129217D01*
X86108037Y-81124500D01*
X86108032Y-81124500D01*
X84291971Y-81124500D01*
X84291965Y-81124500D01*
X84291964Y-81124501D01*
X84280316Y-81125536D01*
X84172584Y-81135113D01*
X83976954Y-81191089D01*
X83886772Y-81238196D01*
X83796593Y-81285302D01*
X83796591Y-81285303D01*
X83796590Y-81285304D01*
X83638890Y-81413890D01*
X83515994Y-81564612D01*
X83510302Y-81571593D01*
X83475913Y-81637428D01*
X83416089Y-81751954D01*
X83371332Y-81908376D01*
X83363841Y-81934559D01*
X83360114Y-81947583D01*
X83360113Y-81947586D01*
X83349500Y-82066966D01*
X83349500Y-83883028D01*
X83349501Y-83883034D01*
X83360113Y-84002415D01*
X83416089Y-84198045D01*
X83416090Y-84198048D01*
X83416091Y-84198049D01*
X83510302Y-84378407D01*
X83510304Y-84378409D01*
X83638890Y-84536109D01*
X83767479Y-84640958D01*
X83796593Y-84664698D01*
X83976951Y-84758909D01*
X83976955Y-84758910D01*
X83976959Y-84758912D01*
X83982795Y-84761244D01*
X83981886Y-84763519D01*
X84031701Y-84795032D01*
X84049053Y-84820604D01*
X84130476Y-84980405D01*
X84246172Y-85139646D01*
X84246174Y-85139648D01*
X86213181Y-87106655D01*
X86246666Y-87167978D01*
X86249500Y-87194336D01*
X86249500Y-92284700D01*
X86229815Y-92351739D01*
X86177011Y-92397494D01*
X86125500Y-92408700D01*
X86045965Y-92408700D01*
X85800683Y-92449629D01*
X85565497Y-92530369D01*
X85565488Y-92530372D01*
X85346793Y-92648724D01*
X85150557Y-92801461D01*
X84982133Y-92984417D01*
X84846126Y-93192593D01*
X84746238Y-93420314D01*
X84746236Y-93420320D01*
X84705626Y-93580682D01*
X84673102Y-93637922D01*
X73021174Y-105289851D01*
X73021172Y-105289854D01*
X72971485Y-105358241D01*
X72905476Y-105449094D01*
X72815669Y-105625351D01*
X72814608Y-105629112D01*
X72755291Y-105811669D01*
X72755291Y-105811672D01*
X72724500Y-106006077D01*
X72724500Y-110144480D01*
X72704815Y-110211519D01*
X72657916Y-110254386D01*
X72646596Y-110260299D01*
X72488890Y-110388890D01*
X72435915Y-110453861D01*
X72378294Y-110493378D01*
X72339813Y-110499500D01*
X67660187Y-110499500D01*
X67593148Y-110479815D01*
X67564085Y-110453861D01*
X67511109Y-110388890D01*
X67353409Y-110260304D01*
X67353410Y-110260304D01*
X67353407Y-110260302D01*
X67173049Y-110166091D01*
X67173048Y-110166090D01*
X67173045Y-110166089D01*
X67055829Y-110132550D01*
X66977418Y-110110114D01*
X66977415Y-110110113D01*
X66977413Y-110110113D01*
X66911102Y-110104217D01*
X66858037Y-110099500D01*
X66858032Y-110099500D01*
X65191971Y-110099500D01*
X65191965Y-110099500D01*
X65191964Y-110099501D01*
X65180316Y-110100536D01*
X65072584Y-110110113D01*
X64876954Y-110166089D01*
X64800744Y-110205898D01*
X64696593Y-110260302D01*
X64696591Y-110260303D01*
X64696590Y-110260304D01*
X64538890Y-110388890D01*
X64410304Y-110546590D01*
X64316089Y-110726954D01*
X64260114Y-110922583D01*
X64260113Y-110922586D01*
X64249500Y-111041966D01*
X64249500Y-112458028D01*
X64249500Y-112458033D01*
X64249501Y-112458036D01*
X64249876Y-112462252D01*
X64260113Y-112577415D01*
X64316089Y-112773045D01*
X64316090Y-112773048D01*
X64316091Y-112773049D01*
X64410302Y-112953407D01*
X64444977Y-112995933D01*
X64538890Y-113111109D01*
X64632803Y-113187684D01*
X64696593Y-113239698D01*
X64876951Y-113333909D01*
X65072582Y-113389886D01*
X65191963Y-113400500D01*
X66858036Y-113400499D01*
X66977418Y-113389886D01*
X67173049Y-113333909D01*
X67353407Y-113239698D01*
X67511109Y-113111109D01*
X67564085Y-113046138D01*
X67621706Y-113006622D01*
X67660187Y-113000500D01*
X72339813Y-113000500D01*
X72406852Y-113020185D01*
X72435915Y-113046139D01*
X72488890Y-113111109D01*
X72582803Y-113187684D01*
X72646593Y-113239698D01*
X72826951Y-113333909D01*
X73022582Y-113389886D01*
X73141963Y-113400500D01*
X74808036Y-113400499D01*
X74927418Y-113389886D01*
X75123049Y-113333909D01*
X75303407Y-113239698D01*
X75461109Y-113111109D01*
X75589698Y-112953407D01*
X75683909Y-112773049D01*
X75739886Y-112577418D01*
X75750500Y-112458037D01*
X75750499Y-111041964D01*
X75739886Y-110922582D01*
X75683909Y-110726951D01*
X75589698Y-110546593D01*
X75514085Y-110453861D01*
X75461109Y-110388890D01*
X75303403Y-110260299D01*
X75292084Y-110254386D01*
X75241779Y-110205898D01*
X75225500Y-110144480D01*
X75225500Y-106673836D01*
X75245185Y-106606797D01*
X75261819Y-106586155D01*
X86037819Y-95810155D01*
X86099142Y-95776670D01*
X86168834Y-95781654D01*
X86224767Y-95823526D01*
X86249184Y-95888990D01*
X86249500Y-95897836D01*
X86249500Y-102906145D01*
X86229815Y-102973184D01*
X86213181Y-102993826D01*
X81046174Y-108160832D01*
X81046174Y-108160833D01*
X81046172Y-108160835D01*
X81025483Y-108189311D01*
X80930476Y-108320075D01*
X80841117Y-108495450D01*
X80780290Y-108682654D01*
X80749500Y-108877058D01*
X80749500Y-114875500D01*
X80729815Y-114942539D01*
X80677011Y-114988294D01*
X80625500Y-114999500D01*
X75610187Y-114999500D01*
X75543148Y-114979815D01*
X75514085Y-114953861D01*
X75461109Y-114888890D01*
X75303409Y-114760304D01*
X75303410Y-114760304D01*
X75303407Y-114760302D01*
X75123049Y-114666091D01*
X75123048Y-114666090D01*
X75123045Y-114666089D01*
X75005829Y-114632550D01*
X74927418Y-114610114D01*
X74927415Y-114610113D01*
X74927413Y-114610113D01*
X74861102Y-114604217D01*
X74808037Y-114599500D01*
X74808032Y-114599500D01*
X73141971Y-114599500D01*
X73141965Y-114599500D01*
X73141964Y-114599501D01*
X73130316Y-114600536D01*
X73022584Y-114610113D01*
X72826954Y-114666089D01*
X72736772Y-114713196D01*
X72646593Y-114760302D01*
X72646591Y-114760303D01*
X72646590Y-114760304D01*
X72488890Y-114888890D01*
X72435915Y-114953861D01*
X72378294Y-114993378D01*
X72339813Y-114999500D01*
X67660187Y-114999500D01*
X67593148Y-114979815D01*
X67564085Y-114953861D01*
X67511109Y-114888890D01*
X67353409Y-114760304D01*
X67353410Y-114760304D01*
X67353407Y-114760302D01*
X67173049Y-114666091D01*
X67173048Y-114666090D01*
X67173045Y-114666089D01*
X67055829Y-114632550D01*
X66977418Y-114610114D01*
X66977415Y-114610113D01*
X66977413Y-114610113D01*
X66911102Y-114604217D01*
X66858037Y-114599500D01*
X66858032Y-114599500D01*
X65191971Y-114599500D01*
X65191965Y-114599500D01*
X65191964Y-114599501D01*
X65180316Y-114600536D01*
X65072584Y-114610113D01*
X64876954Y-114666089D01*
X64786772Y-114713196D01*
X64696593Y-114760302D01*
X64696591Y-114760303D01*
X64696590Y-114760304D01*
X64538890Y-114888890D01*
X64485915Y-114953861D01*
X64428294Y-114993378D01*
X64389813Y-114999500D01*
X49669336Y-114999500D01*
X49602297Y-114979815D01*
X49581655Y-114963181D01*
X45164648Y-110546174D01*
X45164646Y-110546172D01*
X45005405Y-110430476D01*
X44845606Y-110349054D01*
X44794812Y-110301082D01*
X44786895Y-110282534D01*
X44786244Y-110282795D01*
X44783912Y-110276959D01*
X44783910Y-110276955D01*
X44783909Y-110276951D01*
X44689698Y-110096593D01*
X44621447Y-110012890D01*
X44594338Y-109948494D01*
X44606347Y-109879664D01*
X44608706Y-109875122D01*
X44687574Y-109730689D01*
X44780077Y-109482678D01*
X44836343Y-109224026D01*
X44855227Y-108960000D01*
X44836343Y-108695974D01*
X44780077Y-108437322D01*
X44687574Y-108189311D01*
X44560716Y-107956989D01*
X44523579Y-107907379D01*
X44494707Y-107868810D01*
X44470290Y-107803345D01*
X44485142Y-107735073D01*
X44534548Y-107685668D01*
X44593974Y-107670500D01*
X54840322Y-107670500D01*
X55034726Y-107639709D01*
X55049480Y-107634915D01*
X55221926Y-107578884D01*
X55397305Y-107489524D01*
X55556546Y-107373828D01*
X82963555Y-79966817D01*
X83024878Y-79933333D01*
X83051236Y-79930499D01*
X84188028Y-79930499D01*
X84188036Y-79930499D01*
X84307418Y-79919886D01*
X84503049Y-79863909D01*
X84503063Y-79863901D01*
X84503994Y-79863531D01*
X84504557Y-79863477D01*
X84509096Y-79862179D01*
X84509337Y-79863024D01*
X84573552Y-79856938D01*
X84596006Y-79863531D01*
X84596939Y-79863903D01*
X84596951Y-79863909D01*
X84792582Y-79919886D01*
X84911963Y-79930500D01*
X86728036Y-79930499D01*
X86847418Y-79919886D01*
X87043049Y-79863909D01*
X87043063Y-79863901D01*
X87043994Y-79863531D01*
X87044557Y-79863477D01*
X87049096Y-79862179D01*
X87049337Y-79863024D01*
X87113552Y-79856938D01*
X87136006Y-79863531D01*
G37*
%TD.AperFunction*%
%TA.AperFunction,Conductor*%
G36*
X46913156Y-36019685D02*
G01*
X46958911Y-36072489D01*
X46968855Y-36141647D01*
X46939830Y-36205203D01*
X46930925Y-36214160D01*
X46930947Y-36214182D01*
X46928076Y-36217052D01*
X46928076Y-36217053D01*
X46770453Y-36374676D01*
X46770449Y-36374680D01*
X45581947Y-37563181D01*
X45520624Y-37596666D01*
X45494266Y-37599500D01*
X44491971Y-37599500D01*
X44491965Y-37599500D01*
X44491964Y-37599501D01*
X44480316Y-37600536D01*
X44372584Y-37610113D01*
X44176954Y-37666089D01*
X44109679Y-37701231D01*
X43996593Y-37760302D01*
X43996591Y-37760303D01*
X43996590Y-37760304D01*
X43838890Y-37888890D01*
X43710304Y-38046590D01*
X43616089Y-38226954D01*
X43560114Y-38422583D01*
X43560113Y-38422586D01*
X43549500Y-38541966D01*
X43549500Y-41058028D01*
X43549501Y-41058034D01*
X43560113Y-41177415D01*
X43616089Y-41373045D01*
X43616090Y-41373048D01*
X43616091Y-41373049D01*
X43710302Y-41553407D01*
X43744977Y-41595933D01*
X43838890Y-41711109D01*
X43925899Y-41782055D01*
X43993724Y-41837359D01*
X44001467Y-41843672D01*
X44000103Y-41845344D01*
X44038869Y-41891116D01*
X44049500Y-41941351D01*
X44049500Y-41986371D01*
X44049499Y-41986405D01*
X44049499Y-42213163D01*
X44067123Y-42347020D01*
X44070162Y-42370103D01*
X44078596Y-42434163D01*
X44116405Y-42575268D01*
X44136290Y-42649480D01*
X44136293Y-42649490D01*
X44199022Y-42800930D01*
X44221595Y-42855426D01*
X44333052Y-43048474D01*
X44333057Y-43048480D01*
X44333058Y-43048482D01*
X44468751Y-43225322D01*
X44468757Y-43225329D01*
X44629472Y-43386044D01*
X44629502Y-43386072D01*
X46763181Y-45519751D01*
X46796666Y-45581074D01*
X46799500Y-45607432D01*
X46799500Y-46611464D01*
X46817136Y-46745414D01*
X46806371Y-46814450D01*
X46759991Y-46866706D01*
X46694197Y-46885600D01*
X45785578Y-46885600D01*
X45591173Y-46916390D01*
X45403969Y-46977217D01*
X45228594Y-47066576D01*
X45137741Y-47132585D01*
X45069354Y-47182272D01*
X45069352Y-47182274D01*
X45069351Y-47182274D01*
X44109397Y-48142227D01*
X44071809Y-48167977D01*
X44063338Y-48171717D01*
X44063332Y-48171721D01*
X44063329Y-48171722D01*
X44063329Y-48171723D01*
X44057215Y-48175911D01*
X43879779Y-48297457D01*
X43879773Y-48297462D01*
X43722462Y-48454773D01*
X43722457Y-48454779D01*
X43596721Y-48638331D01*
X43506860Y-48841848D01*
X43506854Y-48841864D01*
X43455920Y-49058422D01*
X43455918Y-49058438D01*
X43449500Y-49150904D01*
X43449500Y-49849095D01*
X43455918Y-49941561D01*
X43455920Y-49941577D01*
X43506854Y-50158135D01*
X43506860Y-50158151D01*
X43596722Y-50361671D01*
X43596723Y-50361672D01*
X43643476Y-50429924D01*
X43665122Y-50496356D01*
X43647417Y-50563945D01*
X43643476Y-50570076D01*
X43596723Y-50638327D01*
X43596722Y-50638328D01*
X43506860Y-50841848D01*
X43506854Y-50841864D01*
X43455920Y-51058422D01*
X43455918Y-51058436D01*
X43454120Y-51084335D01*
X43429838Y-51149849D01*
X43418099Y-51163425D01*
X42876275Y-51705250D01*
X42876274Y-51705251D01*
X42876272Y-51705254D01*
X42845352Y-51747812D01*
X42760576Y-51864494D01*
X42671214Y-52039876D01*
X42618108Y-52203320D01*
X42618108Y-52203324D01*
X42613793Y-52216606D01*
X42610390Y-52227078D01*
X42579600Y-52421477D01*
X42579600Y-73678522D01*
X42610390Y-73872926D01*
X42671217Y-74060130D01*
X42750130Y-74215003D01*
X42760576Y-74235505D01*
X42876272Y-74394746D01*
X42876274Y-74394748D01*
X43380561Y-74899035D01*
X43414046Y-74960358D01*
X43409062Y-75030050D01*
X43402791Y-75044124D01*
X43396091Y-75056950D01*
X43340113Y-75252586D01*
X43329500Y-75371966D01*
X43329500Y-76209478D01*
X43329184Y-76218324D01*
X43324773Y-76279998D01*
X43324773Y-76280001D01*
X43329184Y-76341675D01*
X43329500Y-76350521D01*
X43329500Y-78988028D01*
X43329501Y-78988034D01*
X43340113Y-79107415D01*
X43396089Y-79303045D01*
X43396090Y-79303048D01*
X43396091Y-79303049D01*
X43490302Y-79483407D01*
X43490304Y-79483409D01*
X43618890Y-79641109D01*
X43673300Y-79685474D01*
X43776593Y-79769698D01*
X43956951Y-79863909D01*
X44152582Y-79919886D01*
X44271963Y-79930500D01*
X46088036Y-79930499D01*
X46207418Y-79919886D01*
X46403049Y-79863909D01*
X46403063Y-79863901D01*
X46403994Y-79863531D01*
X46404557Y-79863477D01*
X46409096Y-79862179D01*
X46409337Y-79863024D01*
X46473552Y-79856938D01*
X46496006Y-79863531D01*
X46496939Y-79863903D01*
X46496951Y-79863909D01*
X46692582Y-79919886D01*
X46811963Y-79930500D01*
X48628036Y-79930499D01*
X48747418Y-79919886D01*
X48943049Y-79863909D01*
X48943063Y-79863901D01*
X48943994Y-79863531D01*
X48944557Y-79863477D01*
X48949096Y-79862179D01*
X48949337Y-79863024D01*
X49013552Y-79856938D01*
X49036006Y-79863531D01*
X49036939Y-79863903D01*
X49036951Y-79863909D01*
X49232582Y-79919886D01*
X49351963Y-79930500D01*
X51168036Y-79930499D01*
X51287418Y-79919886D01*
X51483049Y-79863909D01*
X51483063Y-79863901D01*
X51483994Y-79863531D01*
X51484557Y-79863477D01*
X51489096Y-79862179D01*
X51489337Y-79863024D01*
X51553552Y-79856938D01*
X51576006Y-79863531D01*
X51576939Y-79863903D01*
X51576951Y-79863909D01*
X51772582Y-79919886D01*
X51891963Y-79930500D01*
X53708036Y-79930499D01*
X53827418Y-79919886D01*
X54023049Y-79863909D01*
X54023063Y-79863901D01*
X54023994Y-79863531D01*
X54024557Y-79863477D01*
X54029096Y-79862179D01*
X54029337Y-79863024D01*
X54093552Y-79856938D01*
X54116006Y-79863531D01*
X54116939Y-79863903D01*
X54116951Y-79863909D01*
X54312582Y-79919886D01*
X54431963Y-79930500D01*
X56248036Y-79930499D01*
X56367418Y-79919886D01*
X56563049Y-79863909D01*
X56563063Y-79863901D01*
X56563994Y-79863531D01*
X56564557Y-79863477D01*
X56569096Y-79862179D01*
X56569337Y-79863024D01*
X56633552Y-79856938D01*
X56656006Y-79863531D01*
X56656939Y-79863903D01*
X56656951Y-79863909D01*
X56852582Y-79919886D01*
X56971963Y-79930500D01*
X58788036Y-79930499D01*
X58907418Y-79919886D01*
X59103049Y-79863909D01*
X59103063Y-79863901D01*
X59103994Y-79863531D01*
X59104557Y-79863477D01*
X59109096Y-79862179D01*
X59109337Y-79863024D01*
X59173552Y-79856938D01*
X59196006Y-79863531D01*
X59196939Y-79863903D01*
X59196951Y-79863909D01*
X59392582Y-79919886D01*
X59511963Y-79930500D01*
X61328036Y-79930499D01*
X61447418Y-79919886D01*
X61643049Y-79863909D01*
X61643063Y-79863901D01*
X61643994Y-79863531D01*
X61644557Y-79863477D01*
X61649096Y-79862179D01*
X61649337Y-79863024D01*
X61713552Y-79856938D01*
X61736006Y-79863531D01*
X61736939Y-79863903D01*
X61736951Y-79863909D01*
X61932582Y-79919886D01*
X62051963Y-79930500D01*
X63868036Y-79930499D01*
X63987418Y-79919886D01*
X64183049Y-79863909D01*
X64183063Y-79863901D01*
X64183994Y-79863531D01*
X64184557Y-79863477D01*
X64189096Y-79862179D01*
X64189337Y-79863024D01*
X64253552Y-79856938D01*
X64276006Y-79863531D01*
X64276939Y-79863903D01*
X64276951Y-79863909D01*
X64472582Y-79919886D01*
X64591963Y-79930500D01*
X66408036Y-79930499D01*
X66527418Y-79919886D01*
X66723049Y-79863909D01*
X66723063Y-79863901D01*
X66723994Y-79863531D01*
X66724557Y-79863477D01*
X66729096Y-79862179D01*
X66729337Y-79863024D01*
X66793552Y-79856938D01*
X66816006Y-79863531D01*
X66816939Y-79863903D01*
X66816951Y-79863909D01*
X67012582Y-79919886D01*
X67131963Y-79930500D01*
X68948036Y-79930499D01*
X69067418Y-79919886D01*
X69263049Y-79863909D01*
X69263063Y-79863901D01*
X69263994Y-79863531D01*
X69264557Y-79863477D01*
X69269096Y-79862179D01*
X69269337Y-79863024D01*
X69333552Y-79856938D01*
X69356006Y-79863531D01*
X69356939Y-79863903D01*
X69356951Y-79863909D01*
X69552582Y-79919886D01*
X69671963Y-79930500D01*
X71488036Y-79930499D01*
X71607418Y-79919886D01*
X71803049Y-79863909D01*
X71803063Y-79863901D01*
X71803994Y-79863531D01*
X71804557Y-79863477D01*
X71809096Y-79862179D01*
X71809337Y-79863024D01*
X71873552Y-79856938D01*
X71896006Y-79863531D01*
X71896939Y-79863903D01*
X71896951Y-79863909D01*
X72092582Y-79919886D01*
X72211963Y-79930500D01*
X74028036Y-79930499D01*
X74147418Y-79919886D01*
X74343049Y-79863909D01*
X74343063Y-79863901D01*
X74343994Y-79863531D01*
X74344557Y-79863477D01*
X74349096Y-79862179D01*
X74349337Y-79863024D01*
X74413552Y-79856938D01*
X74436006Y-79863531D01*
X74436939Y-79863903D01*
X74436951Y-79863909D01*
X74632582Y-79919886D01*
X74751963Y-79930500D01*
X76568036Y-79930499D01*
X76687418Y-79919886D01*
X76883049Y-79863909D01*
X76883063Y-79863901D01*
X76883994Y-79863531D01*
X76884557Y-79863477D01*
X76889096Y-79862179D01*
X76889337Y-79863024D01*
X76953552Y-79856938D01*
X76976006Y-79863531D01*
X76976939Y-79863903D01*
X76976951Y-79863909D01*
X77172582Y-79919886D01*
X77291963Y-79930500D01*
X79108036Y-79930499D01*
X79157467Y-79926104D01*
X79225983Y-79939775D01*
X79276234Y-79988319D01*
X79292263Y-80056325D01*
X79268981Y-80122202D01*
X79256126Y-80137298D01*
X54260245Y-105133181D01*
X54198922Y-105166666D01*
X54172564Y-105169500D01*
X44417864Y-105169500D01*
X44350825Y-105149815D01*
X44330187Y-105133185D01*
X44214915Y-105017913D01*
X44214913Y-105017912D01*
X44214907Y-105017906D01*
X44003013Y-104859285D01*
X44003005Y-104859280D01*
X43770694Y-104732428D01*
X43770690Y-104732426D01*
X43522673Y-104639921D01*
X43264034Y-104583658D01*
X43264027Y-104583657D01*
X43000001Y-104564773D01*
X42999999Y-104564773D01*
X42735972Y-104583657D01*
X42735965Y-104583658D01*
X42477326Y-104639921D01*
X42229309Y-104732426D01*
X42229305Y-104732428D01*
X41996994Y-104859280D01*
X41996986Y-104859285D01*
X41785092Y-105017906D01*
X41785074Y-105017922D01*
X41597922Y-105205074D01*
X41597906Y-105205092D01*
X41439285Y-105416986D01*
X41439280Y-105416994D01*
X41312428Y-105649305D01*
X41312426Y-105649309D01*
X41240182Y-105843006D01*
X41198311Y-105898940D01*
X41132846Y-105923357D01*
X41064573Y-105908505D01*
X41015168Y-105859100D01*
X41000000Y-105799673D01*
X41000000Y-90179998D01*
X45819773Y-90179998D01*
X45819773Y-90180001D01*
X45838657Y-90444027D01*
X45838658Y-90444034D01*
X45894921Y-90702673D01*
X45987426Y-90950690D01*
X45987428Y-90950694D01*
X46114280Y-91183005D01*
X46114285Y-91183013D01*
X46258520Y-91375690D01*
X46282937Y-91441155D01*
X46268085Y-91509427D01*
X46258520Y-91524310D01*
X46114285Y-91716986D01*
X46114280Y-91716994D01*
X45987428Y-91949305D01*
X45987426Y-91949309D01*
X45894921Y-92197326D01*
X45838658Y-92455965D01*
X45838657Y-92455972D01*
X45819773Y-92719998D01*
X45819773Y-92720001D01*
X45838657Y-92984027D01*
X45838658Y-92984034D01*
X45894921Y-93242673D01*
X45987426Y-93490690D01*
X45987428Y-93490694D01*
X46114280Y-93723005D01*
X46114285Y-93723013D01*
X46258520Y-93915690D01*
X46282937Y-93981155D01*
X46268085Y-94049427D01*
X46258520Y-94064310D01*
X46114285Y-94256986D01*
X46114280Y-94256994D01*
X45987428Y-94489305D01*
X45987426Y-94489309D01*
X45894921Y-94737326D01*
X45838658Y-94995965D01*
X45838657Y-94995972D01*
X45819773Y-95259998D01*
X45819773Y-95260001D01*
X45838657Y-95524027D01*
X45838658Y-95524034D01*
X45894921Y-95782673D01*
X45987426Y-96030690D01*
X45987428Y-96030694D01*
X46066282Y-96175102D01*
X46081134Y-96243374D01*
X46056718Y-96308839D01*
X46053552Y-96312889D01*
X45985305Y-96396587D01*
X45891089Y-96576954D01*
X45835114Y-96772583D01*
X45835113Y-96772586D01*
X45824500Y-96891966D01*
X45824500Y-98708028D01*
X45824501Y-98708034D01*
X45835113Y-98827415D01*
X45891089Y-99023045D01*
X45891090Y-99023048D01*
X45891091Y-99023049D01*
X45985302Y-99203407D01*
X45985304Y-99203409D01*
X46113890Y-99361109D01*
X46207803Y-99437684D01*
X46271593Y-99489698D01*
X46451951Y-99583909D01*
X46647582Y-99639886D01*
X46766963Y-99650500D01*
X48583036Y-99650499D01*
X48702418Y-99639886D01*
X48898049Y-99583909D01*
X49078407Y-99489698D01*
X49236109Y-99361109D01*
X49364698Y-99203407D01*
X49458909Y-99023049D01*
X49514886Y-98827418D01*
X49525500Y-98708037D01*
X49525499Y-96891964D01*
X49514886Y-96772582D01*
X49458909Y-96576951D01*
X49364698Y-96396593D01*
X49296447Y-96312890D01*
X49269338Y-96248494D01*
X49281347Y-96179664D01*
X49283706Y-96175122D01*
X49362574Y-96030689D01*
X49455077Y-95782678D01*
X49511343Y-95524026D01*
X49530227Y-95260000D01*
X49511343Y-94995974D01*
X49455077Y-94737322D01*
X49362574Y-94489311D01*
X49235716Y-94256989D01*
X49091479Y-94064310D01*
X49067062Y-93998846D01*
X49081914Y-93930573D01*
X49091479Y-93915690D01*
X49153263Y-93833155D01*
X49235716Y-93723011D01*
X49362574Y-93490689D01*
X49455077Y-93242678D01*
X49511343Y-92984026D01*
X49530227Y-92720000D01*
X49511343Y-92455974D01*
X49455077Y-92197322D01*
X49362574Y-91949311D01*
X49235716Y-91716989D01*
X49091479Y-91524310D01*
X49067062Y-91458846D01*
X49081914Y-91390573D01*
X49091479Y-91375690D01*
X49153263Y-91293155D01*
X49235716Y-91183011D01*
X49362574Y-90950689D01*
X49455077Y-90702678D01*
X49511343Y-90444026D01*
X49530227Y-90180000D01*
X49511343Y-89915974D01*
X49455077Y-89657322D01*
X49362574Y-89409311D01*
X49235716Y-89176989D01*
X49235714Y-89176986D01*
X49077093Y-88965092D01*
X49077077Y-88965074D01*
X48889925Y-88777922D01*
X48889907Y-88777906D01*
X48678013Y-88619285D01*
X48678005Y-88619280D01*
X48445694Y-88492428D01*
X48445690Y-88492426D01*
X48197673Y-88399921D01*
X47939034Y-88343658D01*
X47939027Y-88343657D01*
X47675001Y-88324773D01*
X47674999Y-88324773D01*
X47410972Y-88343657D01*
X47410965Y-88343658D01*
X47152326Y-88399921D01*
X46904309Y-88492426D01*
X46904305Y-88492428D01*
X46671994Y-88619280D01*
X46671986Y-88619285D01*
X46460092Y-88777906D01*
X46460074Y-88777922D01*
X46272922Y-88965074D01*
X46272906Y-88965092D01*
X46114285Y-89176986D01*
X46114280Y-89176994D01*
X45987428Y-89409305D01*
X45987426Y-89409309D01*
X45894921Y-89657326D01*
X45838658Y-89915965D01*
X45838657Y-89915972D01*
X45819773Y-90179998D01*
X41000000Y-90179998D01*
X41000000Y-37701231D01*
X41019685Y-37634192D01*
X41072489Y-37588437D01*
X41141647Y-37578493D01*
X41205203Y-37607518D01*
X41218086Y-37620461D01*
X41309255Y-37726660D01*
X41309256Y-37726662D01*
X41469668Y-37850829D01*
X41469672Y-37850832D01*
X41651799Y-37940170D01*
X41848182Y-37991017D01*
X42050780Y-38001292D01*
X42251299Y-37970573D01*
X42441530Y-37900120D01*
X42613684Y-37792815D01*
X42760715Y-37653052D01*
X42876601Y-37486553D01*
X42956600Y-37300135D01*
X42997435Y-37101429D01*
X43000000Y-37000000D01*
X42997435Y-36898571D01*
X42956600Y-36699865D01*
X42876601Y-36513447D01*
X42760715Y-36346948D01*
X42620719Y-36213873D01*
X42585693Y-36153420D01*
X42588911Y-36083624D01*
X42629351Y-36026647D01*
X42694176Y-36000580D01*
X42706153Y-36000000D01*
X46846117Y-36000000D01*
X46913156Y-36019685D01*
G37*
%TD.AperFunction*%
%TA.AperFunction,Conductor*%
G36*
X108383515Y-68422229D02*
G01*
X108476090Y-68472328D01*
X108603113Y-68515935D01*
X108711285Y-68553071D01*
X108729006Y-68556028D01*
X108791892Y-68586476D01*
X108828334Y-68646090D01*
X108832600Y-68678337D01*
X108832600Y-76989704D01*
X108812915Y-77056743D01*
X108760111Y-77102498D01*
X108690953Y-77112442D01*
X108649583Y-77098759D01*
X108552416Y-77046175D01*
X108552413Y-77046174D01*
X108552410Y-77046172D01*
X108552404Y-77046170D01*
X108552402Y-77046169D01*
X108317215Y-76965428D01*
X108304084Y-76963237D01*
X108241200Y-76932784D01*
X108204763Y-76873167D01*
X108200499Y-76840929D01*
X108200499Y-75941971D01*
X108200499Y-75941964D01*
X108189886Y-75822582D01*
X108133909Y-75626951D01*
X108039698Y-75446593D01*
X107938584Y-75322586D01*
X107911109Y-75288890D01*
X107753409Y-75160304D01*
X107753410Y-75160304D01*
X107753407Y-75160302D01*
X107573049Y-75066091D01*
X107573048Y-75066090D01*
X107573045Y-75066089D01*
X107447091Y-75030050D01*
X107377418Y-75010114D01*
X107377415Y-75010113D01*
X107377413Y-75010113D01*
X107311102Y-75004217D01*
X107258037Y-74999500D01*
X107258032Y-74999500D01*
X101741971Y-74999500D01*
X101741965Y-74999500D01*
X101741964Y-74999501D01*
X101736351Y-75000000D01*
X101622584Y-75010113D01*
X101426954Y-75066089D01*
X101336772Y-75113196D01*
X101246593Y-75160302D01*
X101246591Y-75160303D01*
X101246590Y-75160304D01*
X101088890Y-75288890D01*
X100960304Y-75446590D01*
X100960302Y-75446593D01*
X100951093Y-75464223D01*
X100866089Y-75626954D01*
X100810114Y-75822583D01*
X100810113Y-75822586D01*
X100806069Y-75868077D01*
X100802065Y-75913119D01*
X100799500Y-75941966D01*
X100799500Y-78958028D01*
X100799501Y-78958034D01*
X100810113Y-79077415D01*
X100866089Y-79273045D01*
X100866090Y-79273048D01*
X100866091Y-79273049D01*
X100960302Y-79453407D01*
X100994977Y-79495933D01*
X101088890Y-79611109D01*
X101180092Y-79685474D01*
X101246593Y-79739698D01*
X101426951Y-79833909D01*
X101622582Y-79889886D01*
X101741963Y-79900500D01*
X105775500Y-79900499D01*
X105842539Y-79920184D01*
X105888294Y-79972988D01*
X105899500Y-80024499D01*
X105899500Y-81024658D01*
X105896666Y-81051016D01*
X105852345Y-81254759D01*
X105852344Y-81254765D01*
X105849500Y-81302507D01*
X105849500Y-81302518D01*
X105849500Y-81302519D01*
X105849500Y-81697479D01*
X105849500Y-81697481D01*
X105849501Y-81697492D01*
X105852344Y-81745235D01*
X105852345Y-81745239D01*
X105897523Y-81952925D01*
X105897526Y-81952936D01*
X105981197Y-82148326D01*
X105981199Y-82148329D01*
X105981200Y-82148331D01*
X106040417Y-82235824D01*
X106100338Y-82324357D01*
X106100342Y-82324362D01*
X106250637Y-82474657D01*
X106250644Y-82474663D01*
X106279072Y-82493904D01*
X106323557Y-82547782D01*
X106331851Y-82617158D01*
X106301321Y-82680005D01*
X106297249Y-82684275D01*
X104864645Y-84116881D01*
X104803322Y-84150366D01*
X104776964Y-84153200D01*
X94494047Y-84153200D01*
X94427008Y-84133515D01*
X94381253Y-84080711D01*
X94371309Y-84011553D01*
X94385215Y-83969773D01*
X94507571Y-83745694D01*
X94507573Y-83745690D01*
X94507574Y-83745689D01*
X94600077Y-83497678D01*
X94656343Y-83239026D01*
X94675227Y-82975000D01*
X94656343Y-82710974D01*
X94602095Y-82461598D01*
X94600078Y-82452326D01*
X94552350Y-82324362D01*
X94507574Y-82204311D01*
X94494444Y-82180266D01*
X94380719Y-81971994D01*
X94380714Y-81971986D01*
X94222093Y-81760092D01*
X94222077Y-81760074D01*
X94202091Y-81740088D01*
X94168606Y-81678765D01*
X94173590Y-81609073D01*
X94212159Y-81557550D01*
X94211341Y-81556592D01*
X94215035Y-81553435D01*
X94215046Y-81553428D01*
X105453828Y-70314646D01*
X105569524Y-70155405D01*
X105613955Y-70068204D01*
X105661930Y-70017408D01*
X105724440Y-70000499D01*
X107258028Y-70000499D01*
X107258036Y-70000499D01*
X107377418Y-69989886D01*
X107573049Y-69933909D01*
X107753407Y-69839698D01*
X107911109Y-69711109D01*
X108039698Y-69553407D01*
X108133909Y-69373049D01*
X108189886Y-69177418D01*
X108200500Y-69058037D01*
X108200500Y-68531285D01*
X108220185Y-68464246D01*
X108272989Y-68418491D01*
X108342147Y-68408547D01*
X108383515Y-68422229D01*
G37*
%TD.AperFunction*%
%TA.AperFunction,Conductor*%
G36*
X99835700Y-60369686D02*
G01*
X99891633Y-60411558D01*
X99912607Y-60455569D01*
X99914903Y-60464681D01*
X100007991Y-60669622D01*
X100007997Y-60669632D01*
X100136174Y-60854645D01*
X100136178Y-60854650D01*
X100136181Y-60854654D01*
X100295346Y-61013819D01*
X100295350Y-61013822D01*
X100295354Y-61013825D01*
X100373947Y-61068274D01*
X100480374Y-61142007D01*
X100685317Y-61235096D01*
X100685321Y-61235097D01*
X100903579Y-61290094D01*
X100903581Y-61290094D01*
X100903588Y-61290096D01*
X101035783Y-61300500D01*
X101225500Y-61300499D01*
X101292539Y-61320183D01*
X101338294Y-61372987D01*
X101349500Y-61424499D01*
X101349500Y-63446722D01*
X101380290Y-63641126D01*
X101441117Y-63828330D01*
X101499017Y-63941964D01*
X101530476Y-64003705D01*
X101646172Y-64162946D01*
X101646174Y-64162948D01*
X102371045Y-64887819D01*
X102404530Y-64949142D01*
X102399546Y-65018834D01*
X102357674Y-65074767D01*
X102292210Y-65099184D01*
X102283364Y-65099500D01*
X101741971Y-65099500D01*
X101741965Y-65099500D01*
X101741964Y-65099501D01*
X101730316Y-65100536D01*
X101622584Y-65110113D01*
X101426954Y-65166089D01*
X101336772Y-65213196D01*
X101246593Y-65260302D01*
X101246591Y-65260303D01*
X101246590Y-65260304D01*
X101088890Y-65388890D01*
X100960304Y-65546590D01*
X100960302Y-65546593D01*
X100936580Y-65592007D01*
X100866089Y-65726954D01*
X100810114Y-65922583D01*
X100810113Y-65922586D01*
X100799500Y-66041966D01*
X100799500Y-69058028D01*
X100799501Y-69058034D01*
X100810113Y-69177415D01*
X100866089Y-69373045D01*
X100866090Y-69373048D01*
X100866091Y-69373049D01*
X100960302Y-69553407D01*
X100960304Y-69553409D01*
X101088890Y-69711109D01*
X101182803Y-69787684D01*
X101246593Y-69839698D01*
X101426951Y-69933909D01*
X101622582Y-69989886D01*
X101741963Y-70000500D01*
X101931664Y-70000499D01*
X101998702Y-70020183D01*
X102044457Y-70072987D01*
X102054401Y-70142145D01*
X102025376Y-70205701D01*
X102019344Y-70212180D01*
X95502180Y-76729345D01*
X95440857Y-76762830D01*
X95371165Y-76757846D01*
X95315232Y-76715974D01*
X95290815Y-76650510D01*
X95290499Y-76641664D01*
X95290499Y-76350529D01*
X95290815Y-76341682D01*
X95295227Y-76279999D01*
X95295227Y-76279998D01*
X95290815Y-76218314D01*
X95290499Y-76209468D01*
X95290499Y-75371971D01*
X95290499Y-75371964D01*
X95279886Y-75252582D01*
X95223909Y-75056951D01*
X95129698Y-74876593D01*
X95060341Y-74791533D01*
X95001109Y-74718890D01*
X94843409Y-74590304D01*
X94843410Y-74590304D01*
X94843407Y-74590302D01*
X94663049Y-74496091D01*
X94663048Y-74496090D01*
X94663045Y-74496089D01*
X94545829Y-74462550D01*
X94467418Y-74440114D01*
X94467415Y-74440113D01*
X94467413Y-74440113D01*
X94394631Y-74433642D01*
X94348037Y-74429500D01*
X94348033Y-74429500D01*
X93510524Y-74429500D01*
X93501678Y-74429184D01*
X93440001Y-74424773D01*
X93439998Y-74424773D01*
X93378320Y-74429184D01*
X93369475Y-74429500D01*
X92531971Y-74429500D01*
X92531965Y-74429500D01*
X92531964Y-74429501D01*
X92520316Y-74430536D01*
X92412584Y-74440113D01*
X92216949Y-74496091D01*
X92215991Y-74496474D01*
X92215424Y-74496527D01*
X92210904Y-74497821D01*
X92210662Y-74496978D01*
X92146432Y-74503058D01*
X92124009Y-74496474D01*
X92123050Y-74496091D01*
X92057838Y-74477432D01*
X91927418Y-74440114D01*
X91927415Y-74440113D01*
X91927413Y-74440113D01*
X91854631Y-74433642D01*
X91808037Y-74429500D01*
X91808033Y-74429500D01*
X90970524Y-74429500D01*
X90961678Y-74429184D01*
X90900001Y-74424773D01*
X90899998Y-74424773D01*
X90838320Y-74429184D01*
X90829475Y-74429500D01*
X89991971Y-74429500D01*
X89991965Y-74429500D01*
X89991964Y-74429501D01*
X89980316Y-74430536D01*
X89872584Y-74440113D01*
X89676949Y-74496091D01*
X89675991Y-74496474D01*
X89675424Y-74496527D01*
X89670904Y-74497821D01*
X89670662Y-74496978D01*
X89606432Y-74503058D01*
X89584009Y-74496474D01*
X89583050Y-74496091D01*
X89517838Y-74477432D01*
X89387418Y-74440114D01*
X89387415Y-74440113D01*
X89387413Y-74440113D01*
X89321102Y-74434217D01*
X89268037Y-74429500D01*
X89268032Y-74429500D01*
X87451971Y-74429500D01*
X87451965Y-74429500D01*
X87451964Y-74429501D01*
X87440316Y-74430536D01*
X87332584Y-74440113D01*
X87136949Y-74496091D01*
X87135991Y-74496474D01*
X87135424Y-74496527D01*
X87130904Y-74497821D01*
X87130662Y-74496978D01*
X87066432Y-74503058D01*
X87044009Y-74496474D01*
X87043050Y-74496091D01*
X86977838Y-74477432D01*
X86847418Y-74440114D01*
X86847415Y-74440113D01*
X86847413Y-74440113D01*
X86774631Y-74433642D01*
X86728037Y-74429500D01*
X86728033Y-74429500D01*
X85890524Y-74429500D01*
X85881678Y-74429184D01*
X85820001Y-74424773D01*
X85819998Y-74424773D01*
X85758320Y-74429184D01*
X85749475Y-74429500D01*
X84911971Y-74429500D01*
X84911965Y-74429500D01*
X84911964Y-74429501D01*
X84900316Y-74430536D01*
X84792584Y-74440113D01*
X84596949Y-74496091D01*
X84595991Y-74496474D01*
X84595424Y-74496527D01*
X84590904Y-74497821D01*
X84590662Y-74496978D01*
X84526432Y-74503058D01*
X84504009Y-74496474D01*
X84503050Y-74496091D01*
X84437838Y-74477432D01*
X84307418Y-74440114D01*
X84307415Y-74440113D01*
X84307413Y-74440113D01*
X84234631Y-74433642D01*
X84188037Y-74429500D01*
X84188033Y-74429500D01*
X83350524Y-74429500D01*
X83341678Y-74429184D01*
X83302304Y-74426368D01*
X83236840Y-74401951D01*
X83194968Y-74346018D01*
X83189984Y-74276326D01*
X83223467Y-74215005D01*
X91157396Y-66281076D01*
X91218717Y-66247593D01*
X91288409Y-66252577D01*
X91344342Y-66294449D01*
X91368759Y-66359913D01*
X91368588Y-66379739D01*
X91359500Y-66481964D01*
X91359500Y-68298028D01*
X91359501Y-68298034D01*
X91370113Y-68417415D01*
X91426091Y-68613050D01*
X91426474Y-68614009D01*
X91426527Y-68614575D01*
X91427821Y-68619096D01*
X91426978Y-68619337D01*
X91433058Y-68683568D01*
X91426474Y-68705991D01*
X91426091Y-68706949D01*
X91370113Y-68902584D01*
X91359500Y-69021966D01*
X91359500Y-69859476D01*
X91359184Y-69868322D01*
X91354773Y-69929999D01*
X91354773Y-69930000D01*
X91359184Y-69991677D01*
X91359500Y-70000523D01*
X91359500Y-70838028D01*
X91359501Y-70838034D01*
X91370113Y-70957415D01*
X91426089Y-71153045D01*
X91426090Y-71153048D01*
X91426091Y-71153049D01*
X91520302Y-71333407D01*
X91521790Y-71335232D01*
X91648890Y-71491109D01*
X91692167Y-71526396D01*
X91806593Y-71619698D01*
X91986951Y-71713909D01*
X92182582Y-71769886D01*
X92301963Y-71780500D01*
X93139475Y-71780499D01*
X93148322Y-71780815D01*
X93154520Y-71781258D01*
X93210000Y-71785227D01*
X93271677Y-71780814D01*
X93280524Y-71780499D01*
X95918028Y-71780499D01*
X95918036Y-71780499D01*
X96037418Y-71769886D01*
X96233049Y-71713909D01*
X96413407Y-71619698D01*
X96571109Y-71491109D01*
X96699698Y-71333407D01*
X96793909Y-71153049D01*
X96849886Y-70957418D01*
X96860500Y-70838037D01*
X96860499Y-69021964D01*
X96849886Y-68902582D01*
X96793909Y-68706951D01*
X96793903Y-68706939D01*
X96793531Y-68706006D01*
X96793477Y-68705442D01*
X96792179Y-68700904D01*
X96793024Y-68700662D01*
X96786938Y-68636448D01*
X96793531Y-68613994D01*
X96793901Y-68613063D01*
X96793909Y-68613049D01*
X96849886Y-68417418D01*
X96860500Y-68298037D01*
X96860499Y-66481964D01*
X96849886Y-66362582D01*
X96793909Y-66166951D01*
X96793903Y-66166939D01*
X96793531Y-66166006D01*
X96793477Y-66165442D01*
X96792179Y-66160904D01*
X96793024Y-66160662D01*
X96786938Y-66096448D01*
X96793531Y-66073994D01*
X96793901Y-66073063D01*
X96793909Y-66073049D01*
X96849886Y-65877418D01*
X96860500Y-65758037D01*
X96860499Y-63941964D01*
X96849886Y-63822582D01*
X96793909Y-63626951D01*
X96726956Y-63498776D01*
X96713366Y-63430245D01*
X96738985Y-63365241D01*
X96749177Y-63353695D01*
X99704687Y-60398185D01*
X99766008Y-60364702D01*
X99835700Y-60369686D01*
G37*
%TD.AperFunction*%
%TA.AperFunction,Conductor*%
G36*
X76976006Y-60283531D02*
G01*
X76976939Y-60283903D01*
X76976951Y-60283909D01*
X77172582Y-60339886D01*
X77291963Y-60350500D01*
X78129473Y-60350499D01*
X78138320Y-60350815D01*
X78141263Y-60351025D01*
X78200000Y-60355227D01*
X78261679Y-60350814D01*
X78270526Y-60350499D01*
X79108028Y-60350499D01*
X79108036Y-60350499D01*
X79227418Y-60339886D01*
X79389260Y-60293577D01*
X79459125Y-60294060D01*
X79517641Y-60332240D01*
X79546226Y-60395994D01*
X79535805Y-60465082D01*
X79511050Y-60500474D01*
X65621004Y-74390520D01*
X65559681Y-74424005D01*
X65524480Y-74426523D01*
X65500005Y-74424773D01*
X65499998Y-74424773D01*
X65438320Y-74429184D01*
X65429475Y-74429500D01*
X64591971Y-74429500D01*
X64591965Y-74429500D01*
X64591964Y-74429501D01*
X64580316Y-74430536D01*
X64472584Y-74440113D01*
X64276949Y-74496091D01*
X64275991Y-74496474D01*
X64275424Y-74496527D01*
X64270904Y-74497821D01*
X64270662Y-74496978D01*
X64206432Y-74503058D01*
X64184009Y-74496474D01*
X64183050Y-74496091D01*
X64117838Y-74477432D01*
X63987418Y-74440114D01*
X63987415Y-74440113D01*
X63987413Y-74440113D01*
X63921102Y-74434217D01*
X63868037Y-74429500D01*
X63868032Y-74429500D01*
X62051971Y-74429500D01*
X62051965Y-74429500D01*
X62051964Y-74429501D01*
X62040316Y-74430536D01*
X61932584Y-74440113D01*
X61736949Y-74496091D01*
X61735991Y-74496474D01*
X61735424Y-74496527D01*
X61730904Y-74497821D01*
X61730662Y-74496978D01*
X61666432Y-74503058D01*
X61644009Y-74496474D01*
X61643050Y-74496091D01*
X61577838Y-74477432D01*
X61447418Y-74440114D01*
X61447415Y-74440113D01*
X61447413Y-74440113D01*
X61374631Y-74433642D01*
X61328037Y-74429500D01*
X61328033Y-74429500D01*
X60490524Y-74429500D01*
X60481678Y-74429184D01*
X60420001Y-74424773D01*
X60419998Y-74424773D01*
X60358320Y-74429184D01*
X60349475Y-74429500D01*
X59511971Y-74429500D01*
X59511965Y-74429500D01*
X59511964Y-74429501D01*
X59500316Y-74430536D01*
X59392584Y-74440113D01*
X59196949Y-74496091D01*
X59195991Y-74496474D01*
X59195424Y-74496527D01*
X59190904Y-74497821D01*
X59190662Y-74496978D01*
X59126432Y-74503058D01*
X59104009Y-74496474D01*
X59103050Y-74496091D01*
X59037838Y-74477432D01*
X58907418Y-74440114D01*
X58907415Y-74440113D01*
X58907413Y-74440113D01*
X58834631Y-74433642D01*
X58788037Y-74429500D01*
X58788033Y-74429500D01*
X57950524Y-74429500D01*
X57941678Y-74429184D01*
X57880001Y-74424773D01*
X57879998Y-74424773D01*
X57818320Y-74429184D01*
X57809475Y-74429500D01*
X56971971Y-74429500D01*
X56971965Y-74429500D01*
X56971964Y-74429501D01*
X56960316Y-74430536D01*
X56852584Y-74440113D01*
X56656949Y-74496091D01*
X56655991Y-74496474D01*
X56655424Y-74496527D01*
X56650904Y-74497821D01*
X56650662Y-74496978D01*
X56586432Y-74503058D01*
X56564009Y-74496474D01*
X56563050Y-74496091D01*
X56497838Y-74477432D01*
X56367418Y-74440114D01*
X56367415Y-74440113D01*
X56367413Y-74440113D01*
X56294631Y-74433642D01*
X56248037Y-74429500D01*
X56248033Y-74429500D01*
X55410524Y-74429500D01*
X55401678Y-74429184D01*
X55340001Y-74424773D01*
X55339998Y-74424773D01*
X55278320Y-74429184D01*
X55269475Y-74429500D01*
X54431971Y-74429500D01*
X54431965Y-74429500D01*
X54431964Y-74429501D01*
X54420316Y-74430536D01*
X54312584Y-74440113D01*
X54116949Y-74496091D01*
X54115991Y-74496474D01*
X54115424Y-74496527D01*
X54110904Y-74497821D01*
X54110662Y-74496978D01*
X54046432Y-74503058D01*
X54024009Y-74496474D01*
X54023050Y-74496091D01*
X53957838Y-74477432D01*
X53827418Y-74440114D01*
X53827415Y-74440113D01*
X53827413Y-74440113D01*
X53754631Y-74433642D01*
X53708037Y-74429500D01*
X53708033Y-74429500D01*
X52870524Y-74429500D01*
X52861678Y-74429184D01*
X52800001Y-74424773D01*
X52799998Y-74424773D01*
X52738320Y-74429184D01*
X52729475Y-74429500D01*
X51891971Y-74429500D01*
X51891965Y-74429500D01*
X51891964Y-74429501D01*
X51880316Y-74430536D01*
X51772584Y-74440113D01*
X51576949Y-74496091D01*
X51575991Y-74496474D01*
X51575424Y-74496527D01*
X51570904Y-74497821D01*
X51570662Y-74496978D01*
X51506432Y-74503058D01*
X51484009Y-74496474D01*
X51483050Y-74496091D01*
X51417838Y-74477432D01*
X51287418Y-74440114D01*
X51287415Y-74440113D01*
X51287413Y-74440113D01*
X51221102Y-74434217D01*
X51168037Y-74429500D01*
X51168032Y-74429500D01*
X49351971Y-74429500D01*
X49351965Y-74429500D01*
X49351964Y-74429501D01*
X49340316Y-74430536D01*
X49232584Y-74440113D01*
X49036949Y-74496091D01*
X49035991Y-74496474D01*
X49035424Y-74496527D01*
X49030904Y-74497821D01*
X49030662Y-74496978D01*
X48966432Y-74503058D01*
X48944009Y-74496474D01*
X48943050Y-74496091D01*
X48877838Y-74477432D01*
X48747418Y-74440114D01*
X48747415Y-74440113D01*
X48747413Y-74440113D01*
X48674631Y-74433642D01*
X48628037Y-74429500D01*
X48628033Y-74429500D01*
X47790524Y-74429500D01*
X47781678Y-74429184D01*
X47720001Y-74424773D01*
X47719999Y-74424773D01*
X47697697Y-74426368D01*
X47658319Y-74429184D01*
X47649476Y-74429500D01*
X47155601Y-74429500D01*
X47088562Y-74409815D01*
X47042807Y-74357011D01*
X47032863Y-74287853D01*
X47042045Y-74255690D01*
X47054560Y-74227156D01*
X47081263Y-74166281D01*
X47121873Y-74005913D01*
X47154395Y-73948677D01*
X47973528Y-73129546D01*
X48089224Y-72970305D01*
X48178584Y-72794926D01*
X48239409Y-72607726D01*
X48247279Y-72558036D01*
X48270200Y-72413322D01*
X48270200Y-71689500D01*
X48289885Y-71622461D01*
X48342689Y-71576706D01*
X48394200Y-71565500D01*
X48471182Y-71565500D01*
X48730615Y-71526396D01*
X48981323Y-71449063D01*
X49217704Y-71335228D01*
X49434479Y-71187433D01*
X49626805Y-71008981D01*
X49790386Y-70803857D01*
X49921568Y-70576643D01*
X50017420Y-70332416D01*
X50075802Y-70076630D01*
X50076075Y-70072987D01*
X50095408Y-69815004D01*
X50095408Y-69814995D01*
X50075803Y-69553379D01*
X50075802Y-69553374D01*
X50075802Y-69553370D01*
X50017420Y-69297584D01*
X49921568Y-69053357D01*
X49790386Y-68826143D01*
X49626805Y-68621019D01*
X49626804Y-68621018D01*
X49626801Y-68621014D01*
X49434479Y-68442567D01*
X49304537Y-68353974D01*
X49217704Y-68294772D01*
X49217700Y-68294770D01*
X49217697Y-68294768D01*
X49217696Y-68294767D01*
X48981325Y-68180938D01*
X48981327Y-68180938D01*
X48730623Y-68103606D01*
X48730619Y-68103605D01*
X48730615Y-68103604D01*
X48605823Y-68084794D01*
X48471187Y-68064500D01*
X48471182Y-68064500D01*
X48394200Y-68064500D01*
X48327161Y-68044815D01*
X48281406Y-67992011D01*
X48270200Y-67940500D01*
X48270200Y-66839500D01*
X48289885Y-66772461D01*
X48342689Y-66726706D01*
X48394200Y-66715500D01*
X48471182Y-66715500D01*
X48730615Y-66676396D01*
X48981323Y-66599063D01*
X49217704Y-66485228D01*
X49434479Y-66337433D01*
X49618209Y-66166957D01*
X49626801Y-66158985D01*
X49626801Y-66158983D01*
X49626805Y-66158981D01*
X49790386Y-65953857D01*
X49921568Y-65726643D01*
X50017420Y-65482416D01*
X50075802Y-65226630D01*
X50083821Y-65119622D01*
X50095408Y-64965004D01*
X50095408Y-64964995D01*
X50075803Y-64703379D01*
X50075802Y-64703374D01*
X50075802Y-64703370D01*
X50017420Y-64447584D01*
X49921568Y-64203357D01*
X49790386Y-63976143D01*
X49626805Y-63771019D01*
X49626804Y-63771018D01*
X49626801Y-63771014D01*
X49434479Y-63592567D01*
X49217704Y-63444772D01*
X49217700Y-63444770D01*
X49217697Y-63444768D01*
X49217696Y-63444767D01*
X48981325Y-63330938D01*
X48981327Y-63330938D01*
X48730623Y-63253606D01*
X48730619Y-63253605D01*
X48730615Y-63253604D01*
X48605823Y-63234794D01*
X48471187Y-63214500D01*
X48471182Y-63214500D01*
X48394200Y-63214500D01*
X48327161Y-63194815D01*
X48281406Y-63142011D01*
X48270200Y-63090500D01*
X48270200Y-61119636D01*
X48289885Y-61052597D01*
X48306519Y-61031955D01*
X48426448Y-60912026D01*
X48673829Y-60664646D01*
X48789524Y-60505405D01*
X48870945Y-60345606D01*
X48918918Y-60294812D01*
X48937460Y-60286897D01*
X48937200Y-60286245D01*
X48943041Y-60283911D01*
X48943049Y-60283909D01*
X48943055Y-60283905D01*
X48943993Y-60283531D01*
X48945737Y-60283365D01*
X48947346Y-60282679D01*
X48949123Y-60282171D01*
X48949366Y-60283021D01*
X49013551Y-60276938D01*
X49035999Y-60283529D01*
X49036950Y-60283909D01*
X49070739Y-60293577D01*
X49232582Y-60339886D01*
X49351963Y-60350500D01*
X51168036Y-60350499D01*
X51287418Y-60339886D01*
X51483049Y-60283909D01*
X51483063Y-60283901D01*
X51483994Y-60283531D01*
X51484557Y-60283477D01*
X51489096Y-60282179D01*
X51489337Y-60283024D01*
X51553552Y-60276938D01*
X51576006Y-60283531D01*
X51576939Y-60283903D01*
X51576951Y-60283909D01*
X51772582Y-60339886D01*
X51891963Y-60350500D01*
X52729473Y-60350499D01*
X52738320Y-60350815D01*
X52741263Y-60351025D01*
X52800000Y-60355227D01*
X52861679Y-60350814D01*
X52870526Y-60350499D01*
X53708028Y-60350499D01*
X53708036Y-60350499D01*
X53827418Y-60339886D01*
X54023049Y-60283909D01*
X54023063Y-60283901D01*
X54023994Y-60283531D01*
X54024557Y-60283477D01*
X54029096Y-60282179D01*
X54029337Y-60283024D01*
X54093552Y-60276938D01*
X54116006Y-60283531D01*
X54116939Y-60283903D01*
X54116951Y-60283909D01*
X54312582Y-60339886D01*
X54431963Y-60350500D01*
X55269473Y-60350499D01*
X55278320Y-60350815D01*
X55281263Y-60351025D01*
X55340000Y-60355227D01*
X55401679Y-60350814D01*
X55410526Y-60350499D01*
X56248028Y-60350499D01*
X56248036Y-60350499D01*
X56367418Y-60339886D01*
X56563049Y-60283909D01*
X56563063Y-60283901D01*
X56563994Y-60283531D01*
X56564557Y-60283477D01*
X56569096Y-60282179D01*
X56569337Y-60283024D01*
X56633552Y-60276938D01*
X56656006Y-60283531D01*
X56656939Y-60283903D01*
X56656951Y-60283909D01*
X56852582Y-60339886D01*
X56971963Y-60350500D01*
X57809473Y-60350499D01*
X57818320Y-60350815D01*
X57821263Y-60351025D01*
X57880000Y-60355227D01*
X57941679Y-60350814D01*
X57950526Y-60350499D01*
X58788028Y-60350499D01*
X58788036Y-60350499D01*
X58907418Y-60339886D01*
X59103049Y-60283909D01*
X59103063Y-60283901D01*
X59103994Y-60283531D01*
X59104557Y-60283477D01*
X59109096Y-60282179D01*
X59109337Y-60283024D01*
X59173552Y-60276938D01*
X59196006Y-60283531D01*
X59196939Y-60283903D01*
X59196951Y-60283909D01*
X59392582Y-60339886D01*
X59511963Y-60350500D01*
X60349473Y-60350499D01*
X60358320Y-60350815D01*
X60361263Y-60351025D01*
X60420000Y-60355227D01*
X60481679Y-60350814D01*
X60490526Y-60350499D01*
X61328028Y-60350499D01*
X61328036Y-60350499D01*
X61447418Y-60339886D01*
X61643049Y-60283909D01*
X61643063Y-60283901D01*
X61643994Y-60283531D01*
X61644557Y-60283477D01*
X61649096Y-60282179D01*
X61649337Y-60283024D01*
X61713552Y-60276938D01*
X61736006Y-60283531D01*
X61736939Y-60283903D01*
X61736951Y-60283909D01*
X61932582Y-60339886D01*
X62051963Y-60350500D01*
X63868036Y-60350499D01*
X63987418Y-60339886D01*
X64183049Y-60283909D01*
X64183063Y-60283901D01*
X64183994Y-60283531D01*
X64184557Y-60283477D01*
X64189096Y-60282179D01*
X64189337Y-60283024D01*
X64253552Y-60276938D01*
X64276006Y-60283531D01*
X64276939Y-60283903D01*
X64276951Y-60283909D01*
X64472582Y-60339886D01*
X64591963Y-60350500D01*
X65429473Y-60350499D01*
X65438320Y-60350815D01*
X65441263Y-60351025D01*
X65500000Y-60355227D01*
X65561679Y-60350814D01*
X65570526Y-60350499D01*
X66408028Y-60350499D01*
X66408036Y-60350499D01*
X66527418Y-60339886D01*
X66723049Y-60283909D01*
X66723063Y-60283901D01*
X66723994Y-60283531D01*
X66724557Y-60283477D01*
X66729096Y-60282179D01*
X66729337Y-60283024D01*
X66793552Y-60276938D01*
X66816006Y-60283531D01*
X66816939Y-60283903D01*
X66816951Y-60283909D01*
X67012582Y-60339886D01*
X67131963Y-60350500D01*
X67969473Y-60350499D01*
X67978320Y-60350815D01*
X67981263Y-60351025D01*
X68040000Y-60355227D01*
X68101679Y-60350814D01*
X68110526Y-60350499D01*
X68948028Y-60350499D01*
X68948036Y-60350499D01*
X69067418Y-60339886D01*
X69263049Y-60283909D01*
X69263063Y-60283901D01*
X69263994Y-60283531D01*
X69264557Y-60283477D01*
X69269096Y-60282179D01*
X69269337Y-60283024D01*
X69333552Y-60276938D01*
X69356006Y-60283531D01*
X69356939Y-60283903D01*
X69356951Y-60283909D01*
X69552582Y-60339886D01*
X69671963Y-60350500D01*
X70509473Y-60350499D01*
X70518320Y-60350815D01*
X70521263Y-60351025D01*
X70580000Y-60355227D01*
X70641679Y-60350814D01*
X70650526Y-60350499D01*
X71488028Y-60350499D01*
X71488036Y-60350499D01*
X71607418Y-60339886D01*
X71803049Y-60283909D01*
X71803063Y-60283901D01*
X71803994Y-60283531D01*
X71804557Y-60283477D01*
X71809096Y-60282179D01*
X71809337Y-60283024D01*
X71873552Y-60276938D01*
X71896006Y-60283531D01*
X71896939Y-60283903D01*
X71896951Y-60283909D01*
X72092582Y-60339886D01*
X72211963Y-60350500D01*
X73049473Y-60350499D01*
X73058320Y-60350815D01*
X73061263Y-60351025D01*
X73120000Y-60355227D01*
X73181679Y-60350814D01*
X73190526Y-60350499D01*
X74028028Y-60350499D01*
X74028036Y-60350499D01*
X74147418Y-60339886D01*
X74343049Y-60283909D01*
X74343063Y-60283901D01*
X74343994Y-60283531D01*
X74344557Y-60283477D01*
X74349096Y-60282179D01*
X74349337Y-60283024D01*
X74413552Y-60276938D01*
X74436006Y-60283531D01*
X74436939Y-60283903D01*
X74436951Y-60283909D01*
X74632582Y-60339886D01*
X74751963Y-60350500D01*
X76568036Y-60350499D01*
X76687418Y-60339886D01*
X76883049Y-60283909D01*
X76883063Y-60283901D01*
X76883994Y-60283531D01*
X76884557Y-60283477D01*
X76889096Y-60282179D01*
X76889337Y-60283024D01*
X76953552Y-60276938D01*
X76976006Y-60283531D01*
G37*
%TD.AperFunction*%
%TA.AperFunction,Conductor*%
G36*
X128198707Y-48707585D02*
G01*
X128219349Y-48724219D01*
X129166749Y-49671619D01*
X129200234Y-49732942D01*
X129195250Y-49802634D01*
X129153378Y-49858567D01*
X129087914Y-49882984D01*
X129079068Y-49883300D01*
X128337078Y-49883300D01*
X128213332Y-49902900D01*
X128213331Y-49902900D01*
X128142674Y-49914090D01*
X128142673Y-49914090D01*
X127955469Y-49974917D01*
X127780094Y-50064276D01*
X127716823Y-50110246D01*
X127620854Y-50179972D01*
X127620852Y-50179974D01*
X127620851Y-50179974D01*
X126697496Y-51103328D01*
X126659902Y-51129081D01*
X126563335Y-51171719D01*
X126379779Y-51297457D01*
X126379773Y-51297462D01*
X126222462Y-51454773D01*
X126222457Y-51454779D01*
X126096721Y-51638331D01*
X126006860Y-51841848D01*
X126006854Y-51841864D01*
X125955920Y-52058422D01*
X125955918Y-52058438D01*
X125949500Y-52150904D01*
X125949500Y-52849095D01*
X125955918Y-52941561D01*
X125955920Y-52941577D01*
X126006854Y-53158135D01*
X126006860Y-53158151D01*
X126096722Y-53361671D01*
X126096723Y-53361672D01*
X126143476Y-53429924D01*
X126165122Y-53496356D01*
X126147417Y-53563945D01*
X126143476Y-53570076D01*
X126096723Y-53638327D01*
X126096722Y-53638328D01*
X126006860Y-53841848D01*
X126006854Y-53841864D01*
X125955920Y-54058422D01*
X125955918Y-54058438D01*
X125949500Y-54150904D01*
X125949500Y-54849095D01*
X125955918Y-54941561D01*
X125955920Y-54941577D01*
X126006854Y-55158135D01*
X126006856Y-55158140D01*
X126006857Y-55158143D01*
X126081768Y-55327800D01*
X126088935Y-55344032D01*
X126099500Y-55394118D01*
X126099500Y-61528422D01*
X126130290Y-61722826D01*
X126191117Y-61910030D01*
X126269954Y-62064755D01*
X126280476Y-62085405D01*
X126396172Y-62244646D01*
X126396174Y-62244648D01*
X128703309Y-64551783D01*
X128736794Y-64613106D01*
X128737246Y-64663654D01*
X128729345Y-64703379D01*
X128714287Y-64779080D01*
X128694564Y-65080000D01*
X128704174Y-65226630D01*
X128714287Y-65380918D01*
X128714288Y-65380930D01*
X128773118Y-65676683D01*
X128773122Y-65676698D01*
X128870053Y-65962247D01*
X128870062Y-65962268D01*
X129003431Y-66232713D01*
X129003435Y-66232720D01*
X129170973Y-66483459D01*
X129369810Y-66710189D01*
X129596540Y-66909026D01*
X129847279Y-67076564D01*
X129847286Y-67076568D01*
X130117731Y-67209937D01*
X130117736Y-67209939D01*
X130117748Y-67209945D01*
X130403309Y-67306880D01*
X130603251Y-67346651D01*
X130699069Y-67365711D01*
X130699070Y-67365711D01*
X130699080Y-67365713D01*
X131000000Y-67385436D01*
X131300920Y-67365713D01*
X131370310Y-67351910D01*
X131439899Y-67358137D01*
X131495077Y-67400999D01*
X131518322Y-67466889D01*
X131518500Y-67473527D01*
X131518500Y-68006663D01*
X131498815Y-68073702D01*
X131482181Y-68094344D01*
X129103781Y-70472743D01*
X129042458Y-70506228D01*
X129005120Y-70508575D01*
X128928703Y-70501781D01*
X128903037Y-70499500D01*
X128903033Y-70499500D01*
X126436971Y-70499500D01*
X126436965Y-70499500D01*
X126436964Y-70499501D01*
X126425316Y-70500536D01*
X126317584Y-70510113D01*
X126121954Y-70566089D01*
X126101750Y-70576643D01*
X125941593Y-70660302D01*
X125941591Y-70660303D01*
X125941590Y-70660304D01*
X125783890Y-70788890D01*
X125657415Y-70944000D01*
X125599794Y-70983517D01*
X125529955Y-70985609D01*
X125502296Y-70974694D01*
X125403216Y-70921075D01*
X125403213Y-70921074D01*
X125403210Y-70921072D01*
X125403204Y-70921070D01*
X125403202Y-70921069D01*
X125168016Y-70840329D01*
X124922735Y-70799400D01*
X124674065Y-70799400D01*
X124428783Y-70840329D01*
X124193597Y-70921069D01*
X124193588Y-70921072D01*
X124048950Y-70999347D01*
X123974891Y-71039426D01*
X123900662Y-71097201D01*
X123835668Y-71122843D01*
X123767128Y-71109276D01*
X123716803Y-71060808D01*
X123700500Y-70999347D01*
X123700500Y-65874073D01*
X123720185Y-65807034D01*
X123772989Y-65761279D01*
X123814770Y-65750455D01*
X123946412Y-65740096D01*
X124164683Y-65685096D01*
X124369626Y-65592007D01*
X124554654Y-65463819D01*
X124713819Y-65304654D01*
X124842007Y-65119626D01*
X124935096Y-64914683D01*
X124990096Y-64696412D01*
X125000500Y-64564217D01*
X125000499Y-62435784D01*
X124990096Y-62303588D01*
X124967783Y-62215039D01*
X124935097Y-62085321D01*
X124935096Y-62085318D01*
X124917404Y-62046368D01*
X124842007Y-61880374D01*
X124751684Y-61750001D01*
X124713825Y-61695354D01*
X124713822Y-61695350D01*
X124713819Y-61695346D01*
X124554654Y-61536181D01*
X124554650Y-61536178D01*
X124554645Y-61536174D01*
X124369632Y-61407997D01*
X124369630Y-61407995D01*
X124369626Y-61407993D01*
X124292557Y-61372987D01*
X124159613Y-61312601D01*
X124160328Y-61311026D01*
X124109961Y-61274894D01*
X124084221Y-61209938D01*
X124083700Y-61198584D01*
X124083700Y-51386732D01*
X124103385Y-51319693D01*
X124120019Y-51299051D01*
X126694851Y-48724219D01*
X126756174Y-48690734D01*
X126782532Y-48687900D01*
X128131668Y-48687900D01*
X128198707Y-48707585D01*
G37*
%TD.AperFunction*%
%TA.AperFunction,Conductor*%
G36*
X105375908Y-60632513D02*
G01*
X105404370Y-60665359D01*
X105404821Y-60665048D01*
X105407694Y-60669195D01*
X105407856Y-60669382D01*
X105407988Y-60669616D01*
X105407993Y-60669626D01*
X105407997Y-60669632D01*
X105408002Y-60669640D01*
X105536174Y-60854645D01*
X105536178Y-60854650D01*
X105536181Y-60854654D01*
X105695346Y-61013819D01*
X105695350Y-61013822D01*
X105695354Y-61013825D01*
X105773947Y-61068274D01*
X105880374Y-61142007D01*
X106085317Y-61235096D01*
X106085321Y-61235097D01*
X106303579Y-61290094D01*
X106303581Y-61290094D01*
X106303588Y-61290096D01*
X106435783Y-61300500D01*
X107980663Y-61300499D01*
X108047702Y-61320184D01*
X108068344Y-61336818D01*
X108796281Y-62064755D01*
X108829766Y-62126078D01*
X108832600Y-62152436D01*
X108832600Y-65508662D01*
X108812915Y-65575701D01*
X108760111Y-65621456D01*
X108729011Y-65630971D01*
X108711282Y-65633929D01*
X108476097Y-65714669D01*
X108476083Y-65714675D01*
X108312514Y-65803194D01*
X108244186Y-65817789D01*
X108178814Y-65793126D01*
X108137153Y-65737035D01*
X108134282Y-65728252D01*
X108133911Y-65726956D01*
X108133909Y-65726953D01*
X108133909Y-65726951D01*
X108039698Y-65546593D01*
X107972205Y-65463819D01*
X107911109Y-65388890D01*
X107753409Y-65260304D01*
X107753410Y-65260304D01*
X107753407Y-65260302D01*
X107573049Y-65166091D01*
X107573048Y-65166090D01*
X107573045Y-65166089D01*
X107455829Y-65132550D01*
X107377418Y-65110114D01*
X107377415Y-65110113D01*
X107377413Y-65110113D01*
X107304631Y-65103642D01*
X107258037Y-65099500D01*
X107258033Y-65099500D01*
X106171036Y-65099500D01*
X106103997Y-65079815D01*
X106083355Y-65063181D01*
X103886819Y-62866645D01*
X103853334Y-62805322D01*
X103850500Y-62778964D01*
X103850500Y-61424499D01*
X103870185Y-61357460D01*
X103922989Y-61311705D01*
X103974500Y-61300499D01*
X104164208Y-61300499D01*
X104164216Y-61300499D01*
X104296412Y-61290096D01*
X104514683Y-61235096D01*
X104719626Y-61142007D01*
X104904654Y-61013819D01*
X105063819Y-60854654D01*
X105192007Y-60669626D01*
X105192014Y-60669608D01*
X105192144Y-60669382D01*
X105192242Y-60669286D01*
X105195179Y-60665048D01*
X105196019Y-60665630D01*
X105242343Y-60620784D01*
X105310848Y-60607039D01*
X105375908Y-60632513D01*
G37*
%TD.AperFunction*%
%TA.AperFunction,Conductor*%
G36*
X48818039Y-50219685D02*
G01*
X48863794Y-50272489D01*
X48875000Y-50324000D01*
X48875000Y-51250000D01*
X49278134Y-51250000D01*
X49278149Y-51249999D01*
X49314989Y-51247100D01*
X49314995Y-51247099D01*
X49472693Y-51201283D01*
X49472696Y-51201282D01*
X49614050Y-51117686D01*
X49614058Y-51117680D01*
X49657323Y-51074415D01*
X49718646Y-51040929D01*
X49788337Y-51045913D01*
X49792410Y-51047515D01*
X49952219Y-51113710D01*
X50167537Y-51171404D01*
X50326725Y-51192361D01*
X50369158Y-51197948D01*
X50433055Y-51226214D01*
X50471526Y-51284539D01*
X50476550Y-51331126D01*
X50462557Y-51500004D01*
X50462557Y-51500005D01*
X50483090Y-51747812D01*
X50483092Y-51747824D01*
X50544136Y-51988881D01*
X50644026Y-52216606D01*
X50780033Y-52424782D01*
X50780036Y-52424785D01*
X50948456Y-52607738D01*
X51144691Y-52760474D01*
X51228542Y-52805852D01*
X51343503Y-52868066D01*
X51363390Y-52878828D01*
X51598586Y-52959571D01*
X51843865Y-53000500D01*
X52092535Y-53000500D01*
X52337814Y-52959571D01*
X52573010Y-52878828D01*
X52573016Y-52878824D01*
X52575601Y-52877691D01*
X52576755Y-52877542D01*
X52577861Y-52877163D01*
X52577939Y-52877390D01*
X52644901Y-52868781D01*
X52675504Y-52877806D01*
X52766857Y-52918143D01*
X52766861Y-52918143D01*
X52766864Y-52918145D01*
X52983422Y-52969079D01*
X52983427Y-52969079D01*
X52983433Y-52969081D01*
X53034808Y-52972647D01*
X53075904Y-52975500D01*
X53075908Y-52975500D01*
X53624096Y-52975500D01*
X53661082Y-52972932D01*
X53716567Y-52969081D01*
X53716573Y-52969079D01*
X53716577Y-52969079D01*
X53933135Y-52918145D01*
X53933135Y-52918144D01*
X53933143Y-52918143D01*
X54124914Y-52833467D01*
X54194192Y-52824397D01*
X54225084Y-52833467D01*
X54416857Y-52918143D01*
X54416862Y-52918144D01*
X54416864Y-52918145D01*
X54633422Y-52969079D01*
X54633427Y-52969079D01*
X54633433Y-52969081D01*
X54684808Y-52972647D01*
X54725904Y-52975500D01*
X54725908Y-52975500D01*
X55274096Y-52975500D01*
X55311082Y-52972932D01*
X55366567Y-52969081D01*
X55366573Y-52969079D01*
X55366577Y-52969079D01*
X55583135Y-52918145D01*
X55583135Y-52918144D01*
X55583143Y-52918143D01*
X55786671Y-52828277D01*
X55970221Y-52702542D01*
X56127542Y-52545221D01*
X56253277Y-52361671D01*
X56343143Y-52158143D01*
X56344846Y-52150904D01*
X56394079Y-51941577D01*
X56394079Y-51941573D01*
X56394081Y-51941567D01*
X56400500Y-51849092D01*
X56400500Y-51374000D01*
X56420185Y-51306961D01*
X56472989Y-51261206D01*
X56524500Y-51250000D01*
X56875000Y-51250000D01*
X56875000Y-50324000D01*
X56894685Y-50256961D01*
X56947489Y-50211206D01*
X56999000Y-50200000D01*
X57251000Y-50200000D01*
X57318039Y-50219685D01*
X57363794Y-50272489D01*
X57375000Y-50324000D01*
X57375000Y-51250000D01*
X57778134Y-51250000D01*
X57778149Y-51249999D01*
X57814989Y-51247100D01*
X57814995Y-51247099D01*
X57972693Y-51201283D01*
X57972696Y-51201282D01*
X58114050Y-51117686D01*
X58114058Y-51117680D01*
X58157323Y-51074415D01*
X58218646Y-51040929D01*
X58288337Y-51045913D01*
X58292410Y-51047515D01*
X58452219Y-51113710D01*
X58667537Y-51171404D01*
X58887356Y-51200343D01*
X58951252Y-51228609D01*
X58989723Y-51286934D01*
X58994747Y-51333521D01*
X58988957Y-51403404D01*
X58988957Y-51403405D01*
X59009490Y-51651212D01*
X59009492Y-51651224D01*
X59070536Y-51892281D01*
X59170426Y-52120006D01*
X59306433Y-52328182D01*
X59337259Y-52361668D01*
X59474856Y-52511138D01*
X59671091Y-52663874D01*
X59671093Y-52663875D01*
X59857820Y-52764927D01*
X59889790Y-52782228D01*
X60124986Y-52862971D01*
X60370265Y-52903900D01*
X60618935Y-52903900D01*
X60864214Y-52862971D01*
X60900540Y-52850500D01*
X60974509Y-52825105D01*
X61044307Y-52821956D01*
X61064856Y-52828951D01*
X61266857Y-52918143D01*
X61266862Y-52918144D01*
X61266864Y-52918145D01*
X61483422Y-52969079D01*
X61483427Y-52969079D01*
X61483433Y-52969081D01*
X61534808Y-52972647D01*
X61575904Y-52975500D01*
X61575908Y-52975500D01*
X62124096Y-52975500D01*
X62161082Y-52972932D01*
X62216567Y-52969081D01*
X62216573Y-52969079D01*
X62216577Y-52969079D01*
X62433135Y-52918145D01*
X62433135Y-52918144D01*
X62433143Y-52918143D01*
X62624914Y-52833467D01*
X62694192Y-52824397D01*
X62725084Y-52833467D01*
X62916857Y-52918143D01*
X62916862Y-52918144D01*
X62916864Y-52918145D01*
X63133422Y-52969079D01*
X63133427Y-52969079D01*
X63133433Y-52969081D01*
X63184808Y-52972647D01*
X63225904Y-52975500D01*
X63225908Y-52975500D01*
X63774096Y-52975500D01*
X63811082Y-52972932D01*
X63866567Y-52969081D01*
X63866573Y-52969079D01*
X63866577Y-52969079D01*
X64083135Y-52918145D01*
X64083135Y-52918144D01*
X64083143Y-52918143D01*
X64286671Y-52828277D01*
X64470221Y-52702542D01*
X64627542Y-52545221D01*
X64753277Y-52361671D01*
X64843143Y-52158143D01*
X64844846Y-52150904D01*
X64894079Y-51941577D01*
X64894079Y-51941573D01*
X64894081Y-51941567D01*
X64900500Y-51849092D01*
X64900500Y-51374000D01*
X64920185Y-51306961D01*
X64972989Y-51261206D01*
X65024500Y-51250000D01*
X65375000Y-51250000D01*
X65375000Y-50324000D01*
X65394685Y-50256961D01*
X65447489Y-50211206D01*
X65499000Y-50200000D01*
X65751000Y-50200000D01*
X65818039Y-50219685D01*
X65863794Y-50272489D01*
X65875000Y-50324000D01*
X65875000Y-51250000D01*
X66278134Y-51250000D01*
X66278149Y-51249999D01*
X66314989Y-51247100D01*
X66314992Y-51247099D01*
X66383592Y-51227169D01*
X66453461Y-51227368D01*
X66512132Y-51265309D01*
X66540976Y-51328947D01*
X66541764Y-51356485D01*
X66523857Y-51572593D01*
X66523857Y-51572605D01*
X66544390Y-51820412D01*
X66544392Y-51820424D01*
X66605436Y-52061481D01*
X66705326Y-52289206D01*
X66841333Y-52497382D01*
X66873745Y-52532591D01*
X67009756Y-52680338D01*
X67205991Y-52833074D01*
X67243445Y-52853343D01*
X67424682Y-52951424D01*
X67424690Y-52951428D01*
X67659886Y-53032171D01*
X67905165Y-53073100D01*
X68153835Y-53073100D01*
X68399114Y-53032171D01*
X68634310Y-52951428D01*
X68787028Y-52868781D01*
X68843824Y-52838045D01*
X68902841Y-52823100D01*
X69525446Y-52823100D01*
X69575531Y-52833664D01*
X69766857Y-52918143D01*
X69766862Y-52918144D01*
X69766864Y-52918145D01*
X69983422Y-52969079D01*
X69983427Y-52969079D01*
X69983433Y-52969081D01*
X70034808Y-52972647D01*
X70075904Y-52975500D01*
X70075908Y-52975500D01*
X70624096Y-52975500D01*
X70661082Y-52972932D01*
X70716567Y-52969081D01*
X70716573Y-52969079D01*
X70716577Y-52969079D01*
X70933135Y-52918145D01*
X70933135Y-52918144D01*
X70933143Y-52918143D01*
X71124914Y-52833467D01*
X71194192Y-52824397D01*
X71225084Y-52833467D01*
X71416857Y-52918143D01*
X71416862Y-52918144D01*
X71416864Y-52918145D01*
X71633422Y-52969079D01*
X71633427Y-52969079D01*
X71633433Y-52969081D01*
X71684808Y-52972647D01*
X71725904Y-52975500D01*
X71725908Y-52975500D01*
X72274096Y-52975500D01*
X72311082Y-52972932D01*
X72366567Y-52969081D01*
X72366573Y-52969079D01*
X72366577Y-52969079D01*
X72583135Y-52918145D01*
X72583135Y-52918144D01*
X72583143Y-52918143D01*
X72786671Y-52828277D01*
X72970221Y-52702542D01*
X73127542Y-52545221D01*
X73253277Y-52361671D01*
X73343143Y-52158143D01*
X73344846Y-52150904D01*
X73394079Y-51941577D01*
X73394079Y-51941573D01*
X73394081Y-51941567D01*
X73400500Y-51849092D01*
X73400500Y-51374000D01*
X73420185Y-51306961D01*
X73472989Y-51261206D01*
X73524500Y-51250000D01*
X73875000Y-51250000D01*
X73875000Y-50324000D01*
X73894685Y-50256961D01*
X73947489Y-50211206D01*
X73999000Y-50200000D01*
X74251000Y-50200000D01*
X74318039Y-50219685D01*
X74363794Y-50272489D01*
X74375000Y-50324000D01*
X74375000Y-50772589D01*
X74364556Y-50822399D01*
X74331736Y-50897220D01*
X74270692Y-51138275D01*
X74270690Y-51138287D01*
X74250157Y-51386094D01*
X74250157Y-51386105D01*
X74270690Y-51633912D01*
X74270692Y-51633924D01*
X74331736Y-51874981D01*
X74431626Y-52102706D01*
X74567633Y-52310882D01*
X74589244Y-52334358D01*
X74736056Y-52493838D01*
X74932291Y-52646574D01*
X74980972Y-52672919D01*
X75150982Y-52764924D01*
X75150990Y-52764928D01*
X75386186Y-52845671D01*
X75631465Y-52886600D01*
X75880135Y-52886600D01*
X76125414Y-52845671D01*
X76360610Y-52764928D01*
X76547340Y-52663875D01*
X76570124Y-52651545D01*
X76629141Y-52636600D01*
X77587474Y-52636600D01*
X77654513Y-52656285D01*
X77675155Y-52672919D01*
X77704773Y-52702537D01*
X77704779Y-52702542D01*
X77888329Y-52828277D01*
X77888330Y-52828277D01*
X77888331Y-52828278D01*
X78002814Y-52878827D01*
X78091857Y-52918143D01*
X78091861Y-52918144D01*
X78091864Y-52918145D01*
X78308422Y-52969079D01*
X78308427Y-52969079D01*
X78308433Y-52969081D01*
X78359808Y-52972647D01*
X78400904Y-52975500D01*
X78400908Y-52975500D01*
X78949096Y-52975500D01*
X78986082Y-52972932D01*
X79041567Y-52969081D01*
X79041573Y-52969079D01*
X79041577Y-52969079D01*
X79258135Y-52918145D01*
X79258135Y-52918144D01*
X79258143Y-52918143D01*
X79449914Y-52833467D01*
X79519192Y-52824397D01*
X79550084Y-52833467D01*
X79741857Y-52918143D01*
X79741862Y-52918144D01*
X79741864Y-52918145D01*
X79958422Y-52969079D01*
X79958427Y-52969079D01*
X79958433Y-52969081D01*
X80009808Y-52972647D01*
X80050904Y-52975500D01*
X80050908Y-52975500D01*
X80599096Y-52975500D01*
X80636082Y-52972932D01*
X80691567Y-52969081D01*
X80691573Y-52969079D01*
X80691577Y-52969079D01*
X80908135Y-52918145D01*
X80908135Y-52918144D01*
X80908143Y-52918143D01*
X81111671Y-52828277D01*
X81295221Y-52702542D01*
X81452542Y-52545221D01*
X81578277Y-52361671D01*
X81668143Y-52158143D01*
X81669846Y-52150904D01*
X81719079Y-51941577D01*
X81719079Y-51941573D01*
X81719081Y-51941567D01*
X81725500Y-51849092D01*
X81725500Y-51351384D01*
X81745185Y-51284345D01*
X81797989Y-51238590D01*
X81867147Y-51228646D01*
X81884096Y-51232308D01*
X81935007Y-51247099D01*
X81935010Y-51247100D01*
X81971850Y-51249999D01*
X81971866Y-51250000D01*
X82375000Y-51250000D01*
X82375000Y-50324000D01*
X82394685Y-50256961D01*
X82447489Y-50211206D01*
X82499000Y-50200000D01*
X82751000Y-50200000D01*
X82818039Y-50219685D01*
X82863794Y-50272489D01*
X82875000Y-50324000D01*
X82875000Y-51250000D01*
X83278134Y-51250000D01*
X83278149Y-51249999D01*
X83314989Y-51247100D01*
X83314995Y-51247099D01*
X83472693Y-51201283D01*
X83472696Y-51201282D01*
X83614050Y-51117686D01*
X83614058Y-51117680D01*
X83657323Y-51074415D01*
X83718646Y-51040929D01*
X83788337Y-51045913D01*
X83792410Y-51047515D01*
X83952219Y-51113710D01*
X84167537Y-51171404D01*
X84388543Y-51200500D01*
X84388550Y-51200500D01*
X84564541Y-51200500D01*
X84631580Y-51220185D01*
X84677335Y-51272989D01*
X84688117Y-51334740D01*
X84671457Y-51535794D01*
X84671457Y-51535805D01*
X84691990Y-51783612D01*
X84691992Y-51783624D01*
X84753036Y-52024681D01*
X84852926Y-52252406D01*
X84988933Y-52460582D01*
X84988936Y-52460585D01*
X85157356Y-52643538D01*
X85353591Y-52796274D01*
X85422684Y-52833665D01*
X85541510Y-52897971D01*
X85572290Y-52914628D01*
X85807486Y-52995371D01*
X86052765Y-53036300D01*
X86301435Y-53036300D01*
X86546714Y-52995371D01*
X86546717Y-52995370D01*
X86735883Y-52930427D01*
X86804530Y-52927003D01*
X86983433Y-52969081D01*
X87034808Y-52972647D01*
X87075904Y-52975500D01*
X87075908Y-52975500D01*
X87624096Y-52975500D01*
X87661082Y-52972932D01*
X87716567Y-52969081D01*
X87716573Y-52969079D01*
X87716577Y-52969079D01*
X87933135Y-52918145D01*
X87933135Y-52918144D01*
X87933143Y-52918143D01*
X88124914Y-52833467D01*
X88194192Y-52824397D01*
X88225084Y-52833467D01*
X88416857Y-52918143D01*
X88416862Y-52918144D01*
X88416864Y-52918145D01*
X88633422Y-52969079D01*
X88633427Y-52969079D01*
X88633433Y-52969081D01*
X88684808Y-52972647D01*
X88725904Y-52975500D01*
X88725908Y-52975500D01*
X89274096Y-52975500D01*
X89311082Y-52972932D01*
X89366567Y-52969081D01*
X89366573Y-52969079D01*
X89366577Y-52969079D01*
X89583135Y-52918145D01*
X89583135Y-52918144D01*
X89583143Y-52918143D01*
X89786671Y-52828277D01*
X89970221Y-52702542D01*
X90127542Y-52545221D01*
X90253277Y-52361671D01*
X90343143Y-52158143D01*
X90344846Y-52150904D01*
X90394079Y-51941577D01*
X90394079Y-51941573D01*
X90394081Y-51941567D01*
X90400500Y-51849092D01*
X90400500Y-51374000D01*
X90420185Y-51306961D01*
X90472989Y-51261206D01*
X90524500Y-51250000D01*
X90875000Y-51250000D01*
X90875000Y-50324000D01*
X90894685Y-50256961D01*
X90947489Y-50211206D01*
X90999000Y-50200000D01*
X91251000Y-50200000D01*
X91318039Y-50219685D01*
X91363794Y-50272489D01*
X91375000Y-50324000D01*
X91375000Y-51250000D01*
X91778134Y-51250000D01*
X91778149Y-51249999D01*
X91814989Y-51247100D01*
X91814995Y-51247099D01*
X91972693Y-51201283D01*
X91972696Y-51201282D01*
X92114050Y-51117686D01*
X92114058Y-51117680D01*
X92157323Y-51074415D01*
X92218646Y-51040929D01*
X92288337Y-51045913D01*
X92292410Y-51047515D01*
X92452219Y-51113710D01*
X92667537Y-51171404D01*
X92888543Y-51200500D01*
X92888550Y-51200500D01*
X93111450Y-51200500D01*
X93111457Y-51200500D01*
X93332463Y-51171404D01*
X93547781Y-51113710D01*
X93753726Y-51028405D01*
X93946774Y-50916948D01*
X94123624Y-50781247D01*
X94281247Y-50623624D01*
X94409264Y-50456786D01*
X94419951Y-50444601D01*
X94439611Y-50424941D01*
X94452983Y-50411569D01*
X94514305Y-50378085D01*
X94583997Y-50383069D01*
X94639930Y-50424941D01*
X94642968Y-50429181D01*
X94643481Y-50429930D01*
X94665123Y-50496364D01*
X94647413Y-50563951D01*
X94643476Y-50570076D01*
X94596723Y-50638327D01*
X94596722Y-50638328D01*
X94506860Y-50841848D01*
X94506854Y-50841864D01*
X94455920Y-51058422D01*
X94455918Y-51058438D01*
X94449500Y-51150904D01*
X94449500Y-51849095D01*
X94455918Y-51941561D01*
X94455920Y-51941577D01*
X94506854Y-52158135D01*
X94506860Y-52158151D01*
X94596721Y-52361668D01*
X94699110Y-52511138D01*
X94722458Y-52545221D01*
X94879779Y-52702542D01*
X94972076Y-52765767D01*
X95016259Y-52819892D01*
X95026000Y-52868066D01*
X95026000Y-54901010D01*
X95006315Y-54968049D01*
X94953511Y-55013804D01*
X94884353Y-55023748D01*
X94844589Y-55010919D01*
X94663047Y-54916090D01*
X94579370Y-54892147D01*
X94467418Y-54860114D01*
X94467415Y-54860113D01*
X94467413Y-54860113D01*
X94401102Y-54854217D01*
X94348037Y-54849500D01*
X94348032Y-54849500D01*
X92531971Y-54849500D01*
X92531965Y-54849500D01*
X92531964Y-54849501D01*
X92520316Y-54850536D01*
X92412584Y-54860113D01*
X92216949Y-54916091D01*
X92215991Y-54916474D01*
X92215424Y-54916527D01*
X92210904Y-54917821D01*
X92210662Y-54916978D01*
X92146432Y-54923058D01*
X92124009Y-54916474D01*
X92123050Y-54916091D01*
X92052890Y-54896016D01*
X91927418Y-54860114D01*
X91927415Y-54860113D01*
X91927413Y-54860113D01*
X91861102Y-54854217D01*
X91808037Y-54849500D01*
X91808032Y-54849500D01*
X89991971Y-54849500D01*
X89991965Y-54849500D01*
X89991964Y-54849501D01*
X89980316Y-54850536D01*
X89872584Y-54860113D01*
X89676949Y-54916091D01*
X89675991Y-54916474D01*
X89675424Y-54916527D01*
X89670904Y-54917821D01*
X89670662Y-54916978D01*
X89606432Y-54923058D01*
X89584009Y-54916474D01*
X89583050Y-54916091D01*
X89512890Y-54896016D01*
X89387418Y-54860114D01*
X89387415Y-54860113D01*
X89387413Y-54860113D01*
X89321102Y-54854217D01*
X89268037Y-54849500D01*
X89268032Y-54849500D01*
X87451971Y-54849500D01*
X87451965Y-54849500D01*
X87451964Y-54849501D01*
X87440316Y-54850536D01*
X87332584Y-54860113D01*
X87136949Y-54916091D01*
X87135991Y-54916474D01*
X87135424Y-54916527D01*
X87130904Y-54917821D01*
X87130662Y-54916978D01*
X87066432Y-54923058D01*
X87044009Y-54916474D01*
X87043050Y-54916091D01*
X86972890Y-54896016D01*
X86847418Y-54860114D01*
X86847415Y-54860113D01*
X86847413Y-54860113D01*
X86781102Y-54854217D01*
X86728037Y-54849500D01*
X86728032Y-54849500D01*
X84911971Y-54849500D01*
X84911965Y-54849500D01*
X84911964Y-54849501D01*
X84900316Y-54850536D01*
X84792584Y-54860113D01*
X84596949Y-54916091D01*
X84595991Y-54916474D01*
X84595424Y-54916527D01*
X84590904Y-54917821D01*
X84590662Y-54916978D01*
X84526432Y-54923058D01*
X84504009Y-54916474D01*
X84503050Y-54916091D01*
X84432890Y-54896016D01*
X84307418Y-54860114D01*
X84307415Y-54860113D01*
X84307413Y-54860113D01*
X84241102Y-54854217D01*
X84188037Y-54849500D01*
X84188032Y-54849500D01*
X82371971Y-54849500D01*
X82371965Y-54849500D01*
X82371964Y-54849501D01*
X82360316Y-54850536D01*
X82252584Y-54860113D01*
X82056949Y-54916091D01*
X82055991Y-54916474D01*
X82055424Y-54916527D01*
X82050904Y-54917821D01*
X82050662Y-54916978D01*
X81986432Y-54923058D01*
X81964009Y-54916474D01*
X81963050Y-54916091D01*
X81892890Y-54896016D01*
X81767418Y-54860114D01*
X81767415Y-54860113D01*
X81767413Y-54860113D01*
X81701102Y-54854217D01*
X81648037Y-54849500D01*
X81648032Y-54849500D01*
X79831971Y-54849500D01*
X79831965Y-54849500D01*
X79831964Y-54849501D01*
X79820316Y-54850536D01*
X79712584Y-54860113D01*
X79516949Y-54916091D01*
X79515991Y-54916474D01*
X79515424Y-54916527D01*
X79510904Y-54917821D01*
X79510662Y-54916978D01*
X79446432Y-54923058D01*
X79424009Y-54916474D01*
X79423050Y-54916091D01*
X79352890Y-54896016D01*
X79227418Y-54860114D01*
X79227415Y-54860113D01*
X79227413Y-54860113D01*
X79161102Y-54854217D01*
X79108037Y-54849500D01*
X79108032Y-54849500D01*
X77291971Y-54849500D01*
X77291965Y-54849500D01*
X77291964Y-54849501D01*
X77280316Y-54850536D01*
X77172584Y-54860113D01*
X76976949Y-54916091D01*
X76975991Y-54916474D01*
X76975424Y-54916527D01*
X76970904Y-54917821D01*
X76970662Y-54916978D01*
X76906432Y-54923058D01*
X76884009Y-54916474D01*
X76883050Y-54916091D01*
X76812890Y-54896016D01*
X76687418Y-54860114D01*
X76687415Y-54860113D01*
X76687413Y-54860113D01*
X76621102Y-54854217D01*
X76568037Y-54849500D01*
X76568032Y-54849500D01*
X74751971Y-54849500D01*
X74751965Y-54849500D01*
X74751964Y-54849501D01*
X74740316Y-54850536D01*
X74632584Y-54860113D01*
X74436949Y-54916091D01*
X74435991Y-54916474D01*
X74435424Y-54916527D01*
X74430904Y-54917821D01*
X74430662Y-54916978D01*
X74366432Y-54923058D01*
X74344009Y-54916474D01*
X74343050Y-54916091D01*
X74272890Y-54896016D01*
X74147418Y-54860114D01*
X74147415Y-54860113D01*
X74147413Y-54860113D01*
X74081102Y-54854217D01*
X74028037Y-54849500D01*
X74028032Y-54849500D01*
X72211971Y-54849500D01*
X72211965Y-54849500D01*
X72211964Y-54849501D01*
X72200316Y-54850536D01*
X72092584Y-54860113D01*
X71896949Y-54916091D01*
X71895991Y-54916474D01*
X71895424Y-54916527D01*
X71890904Y-54917821D01*
X71890662Y-54916978D01*
X71826432Y-54923058D01*
X71804009Y-54916474D01*
X71803050Y-54916091D01*
X71732890Y-54896016D01*
X71607418Y-54860114D01*
X71607415Y-54860113D01*
X71607413Y-54860113D01*
X71541102Y-54854217D01*
X71488037Y-54849500D01*
X71488032Y-54849500D01*
X69671971Y-54849500D01*
X69671965Y-54849500D01*
X69671964Y-54849501D01*
X69660316Y-54850536D01*
X69552584Y-54860113D01*
X69356949Y-54916091D01*
X69355991Y-54916474D01*
X69355424Y-54916527D01*
X69350904Y-54917821D01*
X69350662Y-54916978D01*
X69286432Y-54923058D01*
X69264009Y-54916474D01*
X69263050Y-54916091D01*
X69192890Y-54896016D01*
X69067418Y-54860114D01*
X69067415Y-54860113D01*
X69067413Y-54860113D01*
X69001102Y-54854217D01*
X68948037Y-54849500D01*
X68948032Y-54849500D01*
X67131971Y-54849500D01*
X67131965Y-54849500D01*
X67131964Y-54849501D01*
X67120316Y-54850536D01*
X67012584Y-54860113D01*
X66816949Y-54916091D01*
X66815991Y-54916474D01*
X66815424Y-54916527D01*
X66810904Y-54917821D01*
X66810662Y-54916978D01*
X66746432Y-54923058D01*
X66724009Y-54916474D01*
X66723050Y-54916091D01*
X66652890Y-54896016D01*
X66527418Y-54860114D01*
X66527415Y-54860113D01*
X66527413Y-54860113D01*
X66461102Y-54854217D01*
X66408037Y-54849500D01*
X66408032Y-54849500D01*
X64591971Y-54849500D01*
X64591965Y-54849500D01*
X64591964Y-54849501D01*
X64580316Y-54850536D01*
X64472584Y-54860113D01*
X64276949Y-54916091D01*
X64275991Y-54916474D01*
X64275424Y-54916527D01*
X64270904Y-54917821D01*
X64270662Y-54916978D01*
X64206432Y-54923058D01*
X64184009Y-54916474D01*
X64183050Y-54916091D01*
X64112890Y-54896016D01*
X63987418Y-54860114D01*
X63987415Y-54860113D01*
X63987413Y-54860113D01*
X63921102Y-54854217D01*
X63868037Y-54849500D01*
X63868032Y-54849500D01*
X62051971Y-54849500D01*
X62051965Y-54849500D01*
X62051964Y-54849501D01*
X62040316Y-54850536D01*
X61932584Y-54860113D01*
X61736949Y-54916091D01*
X61735991Y-54916474D01*
X61735424Y-54916527D01*
X61730904Y-54917821D01*
X61730662Y-54916978D01*
X61666432Y-54923058D01*
X61644009Y-54916474D01*
X61643050Y-54916091D01*
X61572890Y-54896016D01*
X61447418Y-54860114D01*
X61447415Y-54860113D01*
X61447413Y-54860113D01*
X61381102Y-54854217D01*
X61328037Y-54849500D01*
X61328032Y-54849500D01*
X59511971Y-54849500D01*
X59511965Y-54849500D01*
X59511964Y-54849501D01*
X59500316Y-54850536D01*
X59392584Y-54860113D01*
X59196949Y-54916091D01*
X59195991Y-54916474D01*
X59195424Y-54916527D01*
X59190904Y-54917821D01*
X59190662Y-54916978D01*
X59126432Y-54923058D01*
X59104009Y-54916474D01*
X59103050Y-54916091D01*
X59032890Y-54896016D01*
X58907418Y-54860114D01*
X58907415Y-54860113D01*
X58907413Y-54860113D01*
X58841102Y-54854217D01*
X58788037Y-54849500D01*
X58788032Y-54849500D01*
X56971971Y-54849500D01*
X56971965Y-54849500D01*
X56971964Y-54849501D01*
X56960316Y-54850536D01*
X56852584Y-54860113D01*
X56656949Y-54916091D01*
X56655991Y-54916474D01*
X56655424Y-54916527D01*
X56650904Y-54917821D01*
X56650662Y-54916978D01*
X56586432Y-54923058D01*
X56564009Y-54916474D01*
X56563050Y-54916091D01*
X56492890Y-54896016D01*
X56367418Y-54860114D01*
X56367415Y-54860113D01*
X56367413Y-54860113D01*
X56301102Y-54854217D01*
X56248037Y-54849500D01*
X56248032Y-54849500D01*
X54431971Y-54849500D01*
X54431965Y-54849500D01*
X54431964Y-54849501D01*
X54420316Y-54850536D01*
X54312584Y-54860113D01*
X54116949Y-54916091D01*
X54115991Y-54916474D01*
X54115424Y-54916527D01*
X54110904Y-54917821D01*
X54110662Y-54916978D01*
X54046432Y-54923058D01*
X54024009Y-54916474D01*
X54023050Y-54916091D01*
X53952890Y-54896016D01*
X53827418Y-54860114D01*
X53827415Y-54860113D01*
X53827413Y-54860113D01*
X53761102Y-54854217D01*
X53708037Y-54849500D01*
X53708032Y-54849500D01*
X51891971Y-54849500D01*
X51891965Y-54849500D01*
X51891964Y-54849501D01*
X51880316Y-54850536D01*
X51772584Y-54860113D01*
X51576949Y-54916091D01*
X51575991Y-54916474D01*
X51575424Y-54916527D01*
X51570904Y-54917821D01*
X51570662Y-54916978D01*
X51506432Y-54923058D01*
X51484009Y-54916474D01*
X51483050Y-54916091D01*
X51412890Y-54896016D01*
X51287418Y-54860114D01*
X51287415Y-54860113D01*
X51287413Y-54860113D01*
X51221102Y-54854217D01*
X51168037Y-54849500D01*
X51168032Y-54849500D01*
X49351971Y-54849500D01*
X49351965Y-54849500D01*
X49351964Y-54849501D01*
X49340316Y-54850536D01*
X49232584Y-54860113D01*
X49036949Y-54916091D01*
X49035991Y-54916474D01*
X49035424Y-54916527D01*
X49030904Y-54917821D01*
X49030662Y-54916978D01*
X48966432Y-54923058D01*
X48944009Y-54916474D01*
X48943050Y-54916091D01*
X48872890Y-54896016D01*
X48747418Y-54860114D01*
X48747415Y-54860113D01*
X48747413Y-54860113D01*
X48681102Y-54854217D01*
X48628037Y-54849500D01*
X48628032Y-54849500D01*
X46811971Y-54849500D01*
X46811965Y-54849500D01*
X46811964Y-54849501D01*
X46800316Y-54850536D01*
X46692584Y-54860113D01*
X46496949Y-54916091D01*
X46495991Y-54916474D01*
X46495424Y-54916527D01*
X46490904Y-54917821D01*
X46490662Y-54916978D01*
X46426432Y-54923058D01*
X46404009Y-54916474D01*
X46403050Y-54916091D01*
X46332890Y-54896016D01*
X46207418Y-54860114D01*
X46207415Y-54860113D01*
X46207413Y-54860113D01*
X46134631Y-54853642D01*
X46088037Y-54849500D01*
X46088033Y-54849500D01*
X45204600Y-54849500D01*
X45137561Y-54829815D01*
X45091806Y-54777011D01*
X45080600Y-54725500D01*
X45080600Y-53094209D01*
X45100285Y-53027170D01*
X45153089Y-52981415D01*
X45196011Y-52970507D01*
X45216567Y-52969081D01*
X45216576Y-52969079D01*
X45433135Y-52918145D01*
X45433135Y-52918144D01*
X45433143Y-52918143D01*
X45624914Y-52833467D01*
X45694192Y-52824397D01*
X45725084Y-52833467D01*
X45916857Y-52918143D01*
X45916862Y-52918144D01*
X45916864Y-52918145D01*
X46133422Y-52969079D01*
X46133427Y-52969079D01*
X46133433Y-52969081D01*
X46184808Y-52972647D01*
X46225904Y-52975500D01*
X46225908Y-52975500D01*
X46774096Y-52975500D01*
X46811082Y-52972932D01*
X46866567Y-52969081D01*
X46866573Y-52969079D01*
X46866577Y-52969079D01*
X47083135Y-52918145D01*
X47083135Y-52918144D01*
X47083143Y-52918143D01*
X47286671Y-52828277D01*
X47470221Y-52702542D01*
X47627542Y-52545221D01*
X47753277Y-52361671D01*
X47843143Y-52158143D01*
X47844846Y-52150904D01*
X47894079Y-51941577D01*
X47894079Y-51941573D01*
X47894081Y-51941567D01*
X47900500Y-51849092D01*
X47900500Y-51374000D01*
X47920185Y-51306961D01*
X47972989Y-51261206D01*
X48024500Y-51250000D01*
X48375000Y-51250000D01*
X48375000Y-50324000D01*
X48394685Y-50256961D01*
X48447489Y-50211206D01*
X48499000Y-50200000D01*
X48751000Y-50200000D01*
X48818039Y-50219685D01*
G37*
%TD.AperFunction*%
%TA.AperFunction,Conductor*%
G36*
X102018594Y-41230640D02*
G01*
X102044953Y-41242021D01*
X102194566Y-41328401D01*
X102194571Y-41328403D01*
X102194574Y-41328405D01*
X102400519Y-41413710D01*
X102615837Y-41471404D01*
X102836843Y-41500500D01*
X103059757Y-41500500D01*
X103108648Y-41500500D01*
X103175687Y-41520185D01*
X103205252Y-41549409D01*
X103206328Y-41548533D01*
X103338890Y-41711109D01*
X103425899Y-41782055D01*
X103493724Y-41837359D01*
X103501467Y-41843672D01*
X103500103Y-41845344D01*
X103538869Y-41891116D01*
X103549500Y-41941351D01*
X103549500Y-41986371D01*
X103549499Y-41986405D01*
X103549499Y-42213163D01*
X103567123Y-42347020D01*
X103570162Y-42370103D01*
X103578596Y-42434163D01*
X103616405Y-42575268D01*
X103636290Y-42649480D01*
X103636293Y-42649490D01*
X103699022Y-42800930D01*
X103721595Y-42855426D01*
X103833052Y-43048474D01*
X103833057Y-43048480D01*
X103833058Y-43048482D01*
X103968751Y-43225322D01*
X103968757Y-43225329D01*
X104129472Y-43386044D01*
X104129502Y-43386072D01*
X106163181Y-45419751D01*
X106196666Y-45481074D01*
X106199500Y-45507432D01*
X106199500Y-46611450D01*
X106199766Y-46615509D01*
X106198232Y-46615609D01*
X106188459Y-46678337D01*
X106142085Y-46730598D01*
X106076279Y-46749500D01*
X104901578Y-46749500D01*
X104718261Y-46778535D01*
X104708435Y-46780091D01*
X104707167Y-46780292D01*
X104519969Y-46841117D01*
X104344594Y-46930476D01*
X104280263Y-46977216D01*
X104185354Y-47046172D01*
X104185352Y-47046174D01*
X104185351Y-47046174D01*
X103396174Y-47835351D01*
X103396174Y-47835352D01*
X103396172Y-47835354D01*
X103346485Y-47903741D01*
X103280476Y-47994594D01*
X103191117Y-48169969D01*
X103157153Y-48274502D01*
X103130291Y-48357172D01*
X103112498Y-48469509D01*
X103082568Y-48532643D01*
X103023256Y-48569574D01*
X102953394Y-48568576D01*
X102902345Y-48537792D01*
X102825642Y-48461089D01*
X102816431Y-48454779D01*
X102804422Y-48446552D01*
X102760240Y-48392425D01*
X102750500Y-48344253D01*
X102750500Y-46975339D01*
X102753334Y-46948981D01*
X102797656Y-46745235D01*
X102800500Y-46697493D01*
X102800499Y-46302508D01*
X102797656Y-46254765D01*
X102752474Y-46047065D01*
X102675323Y-45866902D01*
X102668802Y-45851673D01*
X102668801Y-45851671D01*
X102668800Y-45851669D01*
X102549660Y-45675640D01*
X102399360Y-45525340D01*
X102223331Y-45406200D01*
X102223326Y-45406198D01*
X102223325Y-45406197D01*
X102160200Y-45379165D01*
X102121332Y-45352858D01*
X101536819Y-44768345D01*
X101503334Y-44707022D01*
X101500500Y-44680664D01*
X101500500Y-41677240D01*
X101520185Y-41610201D01*
X101555606Y-41574140D01*
X101592454Y-41549520D01*
X101809327Y-41359327D01*
X101889727Y-41267648D01*
X101948725Y-41230226D01*
X102018594Y-41230640D01*
G37*
%TD.AperFunction*%
%TA.AperFunction,Conductor*%
G36*
X72536405Y-36019685D02*
G01*
X72582160Y-36072489D01*
X72592104Y-36141647D01*
X72563079Y-36205203D01*
X72557048Y-36211681D01*
X72422453Y-36346276D01*
X72422449Y-36346280D01*
X71205547Y-37563181D01*
X71144224Y-37596666D01*
X71117866Y-37599500D01*
X69991971Y-37599500D01*
X69991965Y-37599500D01*
X69991964Y-37599501D01*
X69980316Y-37600536D01*
X69872584Y-37610113D01*
X69676954Y-37666089D01*
X69609679Y-37701231D01*
X69496593Y-37760302D01*
X69496591Y-37760303D01*
X69496590Y-37760304D01*
X69338890Y-37888890D01*
X69210304Y-38046590D01*
X69116089Y-38226954D01*
X69060114Y-38422583D01*
X69060113Y-38422586D01*
X69049500Y-38541966D01*
X69049500Y-39910678D01*
X69029815Y-39977717D01*
X68977011Y-40023472D01*
X68907853Y-40033416D01*
X68844297Y-40004391D01*
X68827128Y-39986170D01*
X68826303Y-39985095D01*
X68821109Y-39978326D01*
X68781247Y-39926376D01*
X68781244Y-39926373D01*
X68781240Y-39926368D01*
X68621217Y-39766345D01*
X68621178Y-39766308D01*
X68474219Y-39619349D01*
X68440734Y-39558026D01*
X68438166Y-39539786D01*
X68436356Y-39512161D01*
X68380081Y-39229247D01*
X68287359Y-38956098D01*
X68159778Y-38697389D01*
X67999520Y-38457546D01*
X67968858Y-38422583D01*
X67809327Y-38240672D01*
X67592452Y-38050478D01*
X67352613Y-37890223D01*
X67352606Y-37890219D01*
X67093905Y-37762642D01*
X66820760Y-37669921D01*
X66820754Y-37669919D01*
X66820753Y-37669919D01*
X66820751Y-37669918D01*
X66820745Y-37669917D01*
X66537849Y-37613646D01*
X66537839Y-37613644D01*
X66250000Y-37594778D01*
X65962161Y-37613644D01*
X65962155Y-37613645D01*
X65962150Y-37613646D01*
X65679254Y-37669917D01*
X65679239Y-37669921D01*
X65406094Y-37762642D01*
X65147395Y-37890218D01*
X64927055Y-38037444D01*
X64860378Y-38058321D01*
X64792998Y-38039836D01*
X64762063Y-38012701D01*
X64661111Y-37888892D01*
X64543281Y-37792815D01*
X64503407Y-37760302D01*
X64323049Y-37666091D01*
X64323048Y-37666090D01*
X64323045Y-37666089D01*
X64205829Y-37632550D01*
X64127418Y-37610114D01*
X64127415Y-37610113D01*
X64127413Y-37610113D01*
X64061102Y-37604217D01*
X64008037Y-37599500D01*
X64008032Y-37599500D01*
X61491971Y-37599500D01*
X61491965Y-37599500D01*
X61491964Y-37599501D01*
X61481352Y-37600444D01*
X61372583Y-37610113D01*
X61372582Y-37610114D01*
X61338649Y-37619823D01*
X61268781Y-37619339D01*
X61216858Y-37588288D01*
X59977972Y-36349402D01*
X59977944Y-36349372D01*
X59840253Y-36211681D01*
X59806768Y-36150358D01*
X59811752Y-36080666D01*
X59853624Y-36024733D01*
X59919088Y-36000316D01*
X59927934Y-36000000D01*
X72469366Y-36000000D01*
X72536405Y-36019685D01*
G37*
%TD.AperFunction*%
%TD*%
%TA.AperFunction,NonConductor*%
G36*
X121953858Y-42857601D02*
G01*
X122000287Y-42886857D01*
X122734608Y-43621178D01*
X122734645Y-43621217D01*
X122894670Y-43781242D01*
X122894677Y-43781248D01*
X123000093Y-43862136D01*
X123071526Y-43916948D01*
X123264574Y-44028405D01*
X123264579Y-44028407D01*
X123264583Y-44028409D01*
X123415971Y-44091116D01*
X123415972Y-44091116D01*
X123470519Y-44113710D01*
X123685837Y-44171404D01*
X123906844Y-44200501D01*
X123906851Y-44200501D01*
X124125305Y-44200501D01*
X124192344Y-44220186D01*
X124235212Y-44267086D01*
X124280302Y-44353407D01*
X124308957Y-44388550D01*
X124408890Y-44511109D01*
X124522472Y-44603722D01*
X124566593Y-44639698D01*
X124652911Y-44684786D01*
X124703219Y-44733273D01*
X124719500Y-44794695D01*
X124719500Y-45838467D01*
X124699815Y-45905506D01*
X124683181Y-45926148D01*
X122461065Y-48148263D01*
X122399742Y-48181748D01*
X122330050Y-48176764D01*
X122297898Y-48158958D01*
X122198983Y-48083058D01*
X122198977Y-48083054D01*
X122198974Y-48083052D01*
X122005926Y-47971595D01*
X122005922Y-47971593D01*
X121799990Y-47886293D01*
X121799983Y-47886291D01*
X121799981Y-47886290D01*
X121584663Y-47828596D01*
X121535550Y-47822130D01*
X121363663Y-47799499D01*
X121363656Y-47799499D01*
X121140744Y-47799499D01*
X121136904Y-47799499D01*
X121136872Y-47799500D01*
X119325328Y-47799500D01*
X119325296Y-47799499D01*
X119321456Y-47799499D01*
X119134500Y-47799499D01*
X119067461Y-47779814D01*
X119021706Y-47727010D01*
X119010500Y-47675499D01*
X119010500Y-45480731D01*
X119030185Y-45413692D01*
X119046815Y-45393054D01*
X119608408Y-44831460D01*
X119669729Y-44797977D01*
X119687966Y-44795409D01*
X119835920Y-44785713D01*
X120131691Y-44726880D01*
X120417252Y-44629945D01*
X120687718Y-44496566D01*
X120938461Y-44329025D01*
X121165189Y-44130189D01*
X121364025Y-43903461D01*
X121531566Y-43652718D01*
X121664945Y-43382252D01*
X121761880Y-43096691D01*
X121790990Y-42950344D01*
X121823373Y-42888436D01*
X121884089Y-42853862D01*
X121953858Y-42857601D01*
G37*
%TD.AperFunction*%
%TA.AperFunction,NonConductor*%
G36*
X81419076Y-49670920D02*
G01*
X81424384Y-49674556D01*
X81475263Y-49709409D01*
X81475266Y-49709410D01*
X81475267Y-49709411D01*
X81480268Y-49712197D01*
X81479308Y-49713920D01*
X81525923Y-49753298D01*
X81546448Y-49820085D01*
X81527608Y-49887366D01*
X81520441Y-49897638D01*
X81519819Y-49898439D01*
X81436217Y-50039803D01*
X81436216Y-50039804D01*
X81398184Y-50170712D01*
X81360578Y-50229597D01*
X81297105Y-50258803D01*
X81227918Y-50249057D01*
X81209033Y-50238417D01*
X81202281Y-50233792D01*
X81158097Y-50179667D01*
X81150189Y-50110246D01*
X81166243Y-50067335D01*
X81168019Y-50064396D01*
X81218590Y-49902106D01*
X81224999Y-49831572D01*
X81224999Y-49773222D01*
X81244682Y-49706182D01*
X81297486Y-49660426D01*
X81366644Y-49650482D01*
X81419076Y-49670920D01*
G37*
%TD.AperFunction*%
%TA.AperFunction,NonConductor*%
G36*
X89765203Y-62733685D02*
G01*
X89810958Y-62786489D01*
X89820902Y-62855647D01*
X89791877Y-62919203D01*
X89785845Y-62925681D01*
X78321004Y-74390520D01*
X78259681Y-74424005D01*
X78224480Y-74426523D01*
X78200005Y-74424773D01*
X78199998Y-74424773D01*
X78138320Y-74429184D01*
X78129475Y-74429500D01*
X77291971Y-74429500D01*
X77291965Y-74429500D01*
X77291964Y-74429501D01*
X77280316Y-74430536D01*
X77172584Y-74440113D01*
X76976949Y-74496091D01*
X76975991Y-74496474D01*
X76975424Y-74496527D01*
X76970904Y-74497821D01*
X76970662Y-74496978D01*
X76906432Y-74503058D01*
X76884009Y-74496474D01*
X76883050Y-74496091D01*
X76817838Y-74477432D01*
X76687418Y-74440114D01*
X76687415Y-74440113D01*
X76687413Y-74440113D01*
X76621102Y-74434217D01*
X76568037Y-74429500D01*
X76568032Y-74429500D01*
X74751971Y-74429500D01*
X74751965Y-74429500D01*
X74751964Y-74429501D01*
X74740316Y-74430536D01*
X74632584Y-74440113D01*
X74436949Y-74496091D01*
X74435991Y-74496474D01*
X74435424Y-74496527D01*
X74430904Y-74497821D01*
X74430662Y-74496978D01*
X74366432Y-74503058D01*
X74344009Y-74496474D01*
X74343050Y-74496091D01*
X74277838Y-74477432D01*
X74147418Y-74440114D01*
X74147415Y-74440113D01*
X74147413Y-74440113D01*
X74074631Y-74433642D01*
X74028037Y-74429500D01*
X74028033Y-74429500D01*
X73190524Y-74429500D01*
X73181678Y-74429184D01*
X73120001Y-74424773D01*
X73119998Y-74424773D01*
X73058320Y-74429184D01*
X73049475Y-74429500D01*
X72211971Y-74429500D01*
X72211965Y-74429500D01*
X72211964Y-74429501D01*
X72200316Y-74430536D01*
X72092584Y-74440113D01*
X71930739Y-74486422D01*
X71860871Y-74485939D01*
X71802355Y-74447758D01*
X71773771Y-74384003D01*
X71784193Y-74314915D01*
X71808944Y-74279528D01*
X83338155Y-62750319D01*
X83399478Y-62716834D01*
X83425836Y-62714000D01*
X89698164Y-62714000D01*
X89765203Y-62733685D01*
G37*
%TD.AperFunction*%
%TA.AperFunction,NonConductor*%
G36*
X41205203Y-112720857D02*
G01*
X41233907Y-112757157D01*
X41310302Y-112903407D01*
X41438890Y-113061109D01*
X41493602Y-113105720D01*
X41596593Y-113189698D01*
X41776951Y-113283909D01*
X41972582Y-113339886D01*
X42091963Y-113350500D01*
X43908036Y-113350499D01*
X44027418Y-113339886D01*
X44223049Y-113283909D01*
X44235870Y-113277211D01*
X44304403Y-113263619D01*
X44369407Y-113289236D01*
X44380964Y-113299438D01*
X48146171Y-117064645D01*
X48146172Y-117064646D01*
X48285354Y-117203828D01*
X48444595Y-117319524D01*
X48593470Y-117395379D01*
X48619979Y-117408886D01*
X48704223Y-117436258D01*
X48746346Y-117449944D01*
X48746347Y-117449945D01*
X48746348Y-117449945D01*
X48807173Y-117469709D01*
X48880076Y-117481255D01*
X49001578Y-117500500D01*
X49001583Y-117500500D01*
X49198416Y-117500500D01*
X64389813Y-117500500D01*
X64456852Y-117520185D01*
X64485915Y-117546139D01*
X64538890Y-117611109D01*
X64590330Y-117653052D01*
X64696593Y-117739698D01*
X64696595Y-117739699D01*
X64747121Y-117766092D01*
X64797428Y-117814578D01*
X64813535Y-117882566D01*
X64790328Y-117948469D01*
X64735175Y-117991364D01*
X64689709Y-118000000D01*
X42706153Y-118000000D01*
X42639114Y-117980315D01*
X42593359Y-117927511D01*
X42583415Y-117858353D01*
X42612440Y-117794797D01*
X42620712Y-117786134D01*
X42760715Y-117653052D01*
X42876601Y-117486553D01*
X42956600Y-117300135D01*
X42997435Y-117101429D01*
X43000000Y-117000000D01*
X42997435Y-116898571D01*
X42956600Y-116699865D01*
X42876601Y-116513447D01*
X42803427Y-116408315D01*
X42760715Y-116346948D01*
X42613685Y-116207186D01*
X42613684Y-116207185D01*
X42441530Y-116099880D01*
X42333391Y-116059830D01*
X42251300Y-116029427D01*
X42251294Y-116029426D01*
X42050781Y-115998708D01*
X42050780Y-115998708D01*
X41949481Y-116003845D01*
X41848181Y-116008983D01*
X41651798Y-116059830D01*
X41469668Y-116149170D01*
X41309258Y-116273336D01*
X41218086Y-116379539D01*
X41159482Y-116417583D01*
X41089613Y-116417905D01*
X41030662Y-116380401D01*
X41001345Y-116316980D01*
X41000000Y-116298768D01*
X41000000Y-112814570D01*
X41019685Y-112747531D01*
X41072489Y-112701776D01*
X41141647Y-112691832D01*
X41205203Y-112720857D01*
G37*
%TD.AperFunction*%
M02*
