%TF.GenerationSoftware,KiCad,Pcbnew,8.0.6*%
%TF.CreationDate,2024-10-24T02:40:51+02:00*%
%TF.ProjectId,openautolab,6f70656e-6175-4746-9f6c-61622e6b6963,rev?*%
%TF.SameCoordinates,Original*%
%TF.FileFunction,Soldermask,Top*%
%TF.FilePolarity,Negative*%
%FSLAX46Y46*%
G04 Gerber Fmt 4.6, Leading zero omitted, Abs format (unit mm)*
G04 Created by KiCad (PCBNEW 8.0.6) date 2024-10-24 02:40:51*
%MOMM*%
%LPD*%
G01*
G04 APERTURE LIST*
G04 Aperture macros list*
%AMRoundRect*
0 Rectangle with rounded corners*
0 $1 Rounding radius*
0 $2 $3 $4 $5 $6 $7 $8 $9 X,Y pos of 4 corners*
0 Add a 4 corners polygon primitive as box body*
4,1,4,$2,$3,$4,$5,$6,$7,$8,$9,$2,$3,0*
0 Add four circle primitives for the rounded corners*
1,1,$1+$1,$2,$3*
1,1,$1+$1,$4,$5*
1,1,$1+$1,$6,$7*
1,1,$1+$1,$8,$9*
0 Add four rect primitives between the rounded corners*
20,1,$1+$1,$2,$3,$4,$5,0*
20,1,$1+$1,$4,$5,$6,$7,0*
20,1,$1+$1,$6,$7,$8,$9,0*
20,1,$1+$1,$8,$9,$2,$3,0*%
G04 Aperture macros list end*
%ADD10R,1.700000X1.700000*%
%ADD11O,1.700000X1.700000*%
%ADD12RoundRect,0.112500X-0.187500X-0.112500X0.187500X-0.112500X0.187500X0.112500X-0.187500X0.112500X0*%
%ADD13R,2.400000X2.400000*%
%ADD14C,2.400000*%
%ADD15C,2.600000*%
%ADD16C,2.000000*%
%ADD17RoundRect,0.200000X-0.200000X-0.275000X0.200000X-0.275000X0.200000X0.275000X-0.200000X0.275000X0*%
%ADD18R,2.600000X2.600000*%
%ADD19RoundRect,0.150000X-0.587500X-0.150000X0.587500X-0.150000X0.587500X0.150000X-0.587500X0.150000X0*%
%ADD20RoundRect,0.150000X-0.825000X-0.150000X0.825000X-0.150000X0.825000X0.150000X-0.825000X0.150000X0*%
%ADD21R,2.410000X3.300000*%
%ADD22RoundRect,0.250000X-0.250000X-0.475000X0.250000X-0.475000X0.250000X0.475000X-0.250000X0.475000X0*%
%ADD23R,1.600000X1.600000*%
%ADD24C,1.600000*%
%ADD25O,1.800000X1.800000*%
%ADD26O,1.500000X1.500000*%
%ADD27R,3.500000X1.700000*%
%ADD28R,1.700000X3.500000*%
%ADD29R,1.800000X1.800000*%
%ADD30RoundRect,0.250000X-2.050000X-0.300000X2.050000X-0.300000X2.050000X0.300000X-2.050000X0.300000X0*%
%ADD31RoundRect,0.250002X-4.449998X-5.149998X4.449998X-5.149998X4.449998X5.149998X-4.449998X5.149998X0*%
G04 APERTURE END LIST*
D10*
%TO.C,SW4*%
X173460000Y-104500000D03*
D11*
X176000000Y-104500000D03*
%TD*%
D12*
%TO.C,D5*%
X186430000Y-53755000D03*
X188530000Y-53755000D03*
%TD*%
D13*
%TO.C,J4*%
X206185000Y-28255000D03*
D14*
X209685000Y-28255000D03*
%TD*%
D13*
%TO.C,J1*%
X78740000Y-43180000D03*
D14*
X82240000Y-43180000D03*
%TD*%
D15*
%TO.C,L1*%
X183000000Y-89000000D03*
X188000000Y-89000000D03*
%TD*%
D16*
%TO.C,SW0*%
X53190000Y-104140000D03*
X59690000Y-104140000D03*
X53190000Y-108640000D03*
X59690000Y-108640000D03*
%TD*%
D17*
%TO.C,R11*%
X212490000Y-63975000D03*
X214140000Y-63975000D03*
%TD*%
D12*
%TO.C,D3*%
X186430000Y-47855000D03*
X188530000Y-47855000D03*
%TD*%
%TO.C,D6*%
X186430000Y-56705000D03*
X188530000Y-56705000D03*
%TD*%
D17*
%TO.C,R9*%
X212490000Y-58955000D03*
X214140000Y-58955000D03*
%TD*%
%TO.C,R16*%
X216500000Y-61465000D03*
X218150000Y-61465000D03*
%TD*%
D18*
%TO.C,J9*%
X115565000Y-46020000D03*
D15*
X120645000Y-46020000D03*
%TD*%
D10*
%TO.C,J14*%
X39345000Y-69835000D03*
D11*
X39345000Y-67295000D03*
X39345000Y-64755000D03*
%TD*%
D16*
%TO.C,SW2*%
X117960000Y-104140000D03*
X124460000Y-104140000D03*
X117960000Y-108640000D03*
X124460000Y-108640000D03*
%TD*%
D17*
%TO.C,R8*%
X212490000Y-56445000D03*
X214140000Y-56445000D03*
%TD*%
D16*
%TO.C,SW1*%
X85650000Y-104140000D03*
X92150000Y-104140000D03*
X85650000Y-108640000D03*
X92150000Y-108640000D03*
%TD*%
D19*
%TO.C,Q6*%
X200887500Y-49505000D03*
X200887500Y-51405000D03*
X202762500Y-50455000D03*
%TD*%
D20*
%TO.C,U4*%
X209050000Y-69190000D03*
X209050000Y-70460000D03*
X209050000Y-71730000D03*
X209050000Y-73000000D03*
X214000000Y-73000000D03*
X214000000Y-71730000D03*
X214000000Y-70460000D03*
X214000000Y-69190000D03*
D21*
X211525000Y-71095000D03*
%TD*%
D22*
%TO.C,C3*%
X208575000Y-75825000D03*
X210475000Y-75825000D03*
%TD*%
D19*
%TO.C,Q8*%
X205777500Y-49505000D03*
X205777500Y-51405000D03*
X207652500Y-50455000D03*
%TD*%
D17*
%TO.C,R15*%
X216500000Y-58955000D03*
X218150000Y-58955000D03*
%TD*%
%TO.C,R7*%
X212490000Y-53935000D03*
X214140000Y-53935000D03*
%TD*%
D13*
%TO.C,J7*%
X197135000Y-37905000D03*
D14*
X200635000Y-37905000D03*
%TD*%
D17*
%TO.C,R6*%
X208480000Y-66485000D03*
X210130000Y-66485000D03*
%TD*%
D10*
%TO.C,J15*%
X88900000Y-74930000D03*
D11*
X88900000Y-72390000D03*
X88900000Y-69850000D03*
X88900000Y-67310000D03*
%TD*%
D17*
%TO.C,R5*%
X208480000Y-63975000D03*
X210130000Y-63975000D03*
%TD*%
%TO.C,R13*%
X216500000Y-53935000D03*
X218150000Y-53935000D03*
%TD*%
%TO.C,R3*%
X208480000Y-58955000D03*
X210130000Y-58955000D03*
%TD*%
D19*
%TO.C,Q7*%
X205777500Y-44880000D03*
X205777500Y-46780000D03*
X207652500Y-45830000D03*
%TD*%
D17*
%TO.C,R4*%
X208480000Y-61465000D03*
X210130000Y-61465000D03*
%TD*%
%TO.C,R14*%
X216500000Y-56445000D03*
X218150000Y-56445000D03*
%TD*%
D13*
%TO.C,J6*%
X188085000Y-37905000D03*
D14*
X191585000Y-37905000D03*
%TD*%
D12*
%TO.C,D9*%
X186430000Y-65555000D03*
X188530000Y-65555000D03*
%TD*%
D13*
%TO.C,J5*%
X215235000Y-28255000D03*
D14*
X218735000Y-28255000D03*
%TD*%
D19*
%TO.C,Q4*%
X195997500Y-49505000D03*
X195997500Y-51405000D03*
X197872500Y-50455000D03*
%TD*%
%TO.C,Q1*%
X191107500Y-44880000D03*
X191107500Y-46780000D03*
X192982500Y-45830000D03*
%TD*%
D12*
%TO.C,D7*%
X186430000Y-59655000D03*
X188530000Y-59655000D03*
%TD*%
D13*
%TO.C,J8*%
X206185000Y-37905000D03*
D14*
X209685000Y-37905000D03*
%TD*%
D23*
%TO.C,C1*%
X153500000Y-109902651D03*
D24*
X153500000Y-104902651D03*
%TD*%
D17*
%TO.C,R1*%
X208480000Y-53935000D03*
X210130000Y-53935000D03*
%TD*%
D25*
%TO.C,U3*%
X170545000Y-26690000D03*
D26*
X170845000Y-29720000D03*
X175695000Y-29720000D03*
D25*
X175995000Y-26690000D03*
D11*
X164380000Y-26560000D03*
D27*
X163480000Y-26560000D03*
D11*
X164380000Y-29100000D03*
D27*
X163480000Y-29100000D03*
D10*
X164380000Y-31640000D03*
D27*
X163480000Y-31640000D03*
D11*
X164380000Y-34180000D03*
D27*
X163480000Y-34180000D03*
D11*
X164380000Y-36720000D03*
D27*
X163480000Y-36720000D03*
D11*
X164380000Y-39260000D03*
D27*
X163480000Y-39260000D03*
D11*
X164380000Y-41800000D03*
D27*
X163480000Y-41800000D03*
D10*
X164380000Y-44340000D03*
D27*
X163480000Y-44340000D03*
D11*
X164380000Y-46880000D03*
D27*
X163480000Y-46880000D03*
D11*
X164380000Y-49420000D03*
D27*
X163480000Y-49420000D03*
D11*
X164380000Y-51960000D03*
D27*
X163480000Y-51960000D03*
D11*
X164380000Y-54500000D03*
D27*
X163480000Y-54500000D03*
D10*
X164380000Y-57040000D03*
D27*
X163480000Y-57040000D03*
D11*
X164380000Y-59580000D03*
D27*
X163480000Y-59580000D03*
D11*
X164380000Y-62120000D03*
D27*
X163480000Y-62120000D03*
D11*
X164380000Y-64660000D03*
D27*
X163480000Y-64660000D03*
D11*
X164380000Y-67200000D03*
D27*
X163480000Y-67200000D03*
D10*
X164380000Y-69740000D03*
D27*
X163480000Y-69740000D03*
D11*
X164380000Y-72280000D03*
D27*
X163480000Y-72280000D03*
D11*
X164380000Y-74820000D03*
D27*
X163480000Y-74820000D03*
D11*
X182160000Y-74820000D03*
D27*
X183060000Y-74820000D03*
D11*
X182160000Y-72280000D03*
D27*
X183060000Y-72280000D03*
D10*
X182160000Y-69740000D03*
D27*
X183060000Y-69740000D03*
D11*
X182160000Y-67200000D03*
D27*
X183060000Y-67200000D03*
D11*
X182160000Y-64660000D03*
D27*
X183060000Y-64660000D03*
D11*
X182160000Y-62120000D03*
D27*
X183060000Y-62120000D03*
D11*
X182160000Y-59580000D03*
D27*
X183060000Y-59580000D03*
D10*
X182160000Y-57040000D03*
D27*
X183060000Y-57040000D03*
D11*
X182160000Y-54500000D03*
D27*
X183060000Y-54500000D03*
D11*
X182160000Y-51960000D03*
D27*
X183060000Y-51960000D03*
D11*
X182160000Y-49420000D03*
D27*
X183060000Y-49420000D03*
D11*
X182160000Y-46880000D03*
D27*
X183060000Y-46880000D03*
D10*
X182160000Y-44340000D03*
D27*
X183060000Y-44340000D03*
D11*
X182160000Y-41800000D03*
D27*
X183060000Y-41800000D03*
D11*
X182160000Y-39260000D03*
D27*
X183060000Y-39260000D03*
D11*
X182160000Y-36720000D03*
D27*
X183060000Y-36720000D03*
D11*
X182160000Y-34180000D03*
D27*
X183060000Y-34180000D03*
D10*
X182160000Y-31640000D03*
D27*
X183060000Y-31640000D03*
D11*
X182160000Y-29100000D03*
D27*
X183060000Y-29100000D03*
D11*
X182160000Y-26560000D03*
D27*
X183060000Y-26560000D03*
D11*
X170730000Y-74590000D03*
D28*
X170730000Y-75490000D03*
D10*
X173270000Y-74590000D03*
D28*
X173270000Y-75490000D03*
D11*
X175810000Y-74590000D03*
D28*
X175810000Y-75490000D03*
%TD*%
D17*
%TO.C,R12*%
X212490000Y-66485000D03*
X214140000Y-66485000D03*
%TD*%
D10*
%TO.C,SW3*%
X121920000Y-58420000D03*
D11*
X124460000Y-58420000D03*
%TD*%
D13*
%TO.C,J3*%
X197135000Y-28255000D03*
D14*
X200635000Y-28255000D03*
%TD*%
D23*
%TO.C,C2*%
X80147349Y-94615000D03*
D24*
X85147349Y-94615000D03*
%TD*%
D19*
%TO.C,Q3*%
X195997500Y-44880000D03*
X195997500Y-46780000D03*
X197872500Y-45830000D03*
%TD*%
D29*
%TO.C,D1*%
X102870000Y-94742000D03*
D25*
X102870000Y-102362000D03*
%TD*%
D18*
%TO.C,J12*%
X162000000Y-91000000D03*
D15*
X162000000Y-96080000D03*
%TD*%
D12*
%TO.C,D4*%
X186430000Y-50805000D03*
X188530000Y-50805000D03*
%TD*%
D13*
%TO.C,J2*%
X188085000Y-28255000D03*
D14*
X191585000Y-28255000D03*
%TD*%
D30*
%TO.C,U2*%
X192675000Y-55455000D03*
X192675000Y-57155000D03*
X192675000Y-58855000D03*
D31*
X201825000Y-58855000D03*
D30*
X192675000Y-60555000D03*
X192675000Y-62255000D03*
%TD*%
D12*
%TO.C,D8*%
X186430000Y-62605000D03*
X188530000Y-62605000D03*
%TD*%
D18*
%TO.C,J11*%
X134620000Y-55880000D03*
D15*
X134620000Y-60960000D03*
%TD*%
D19*
%TO.C,Q2*%
X191107500Y-49505000D03*
X191107500Y-51405000D03*
X192982500Y-50455000D03*
%TD*%
D18*
%TO.C,J10*%
X128265000Y-46020000D03*
D15*
X133345000Y-46020000D03*
%TD*%
D10*
%TO.C,J13*%
X45085000Y-88900000D03*
D11*
X45085000Y-86360000D03*
X45085000Y-83820000D03*
X45085000Y-81280000D03*
%TD*%
D17*
%TO.C,R2*%
X208480000Y-56445000D03*
X210130000Y-56445000D03*
%TD*%
D12*
%TO.C,D2*%
X186430000Y-44905000D03*
X188530000Y-44905000D03*
%TD*%
D17*
%TO.C,R10*%
X212490000Y-61465000D03*
X214140000Y-61465000D03*
%TD*%
D29*
%TO.C,D10*%
X116840000Y-54610000D03*
D25*
X124460000Y-54610000D03*
%TD*%
D19*
%TO.C,Q5*%
X200887500Y-44880000D03*
X200887500Y-46780000D03*
X202762500Y-45830000D03*
%TD*%
M02*
