M48
; DRILL file {KiCad 7.0.8} date 2024 January 17, Wednesday 19:39:17
; FORMAT={-:-/ absolute / inch / decimal}
; #@! TF.CreationDate,2024-01-17T19:39:17+01:00
; #@! TF.GenerationSoftware,Kicad,Pcbnew,7.0.8
; #@! TF.FileFunction,Plated,1,2,PTH
FMAT,2
INCH
; #@! TA.AperFunction,Plated,PTH,ViaDrill
T1C0.0118
; #@! TA.AperFunction,Plated,PTH,ComponentDrill
T2C0.0130
; #@! TA.AperFunction,Plated,PTH,ViaDrill
T3C0.0394
; #@! TA.AperFunction,Plated,PTH,ComponentDrill
T4C0.0394
; #@! TA.AperFunction,Plated,PTH,ComponentDrill
T5C0.0472
; #@! TA.AperFunction,Plated,PTH,ComponentDrill
T6C0.0512
%
G90
G05
T1
X2.0723Y-2.2869
X2.4432Y-2.2865
X2.7035Y-2.9182
X2.7938Y-2.2873
X2.9Y-3.3807
X3.507Y-2.891
X3.7074Y-3.9959
X3.75Y-3.2108
X3.8733Y-2.3239
X4.2495Y-2.8554
X4.35Y-2.826
X4.4Y-2.8
X5.0184Y-4.0703
T2
X4.5488Y-2.3488
X4.5488Y-2.4
X4.6Y-2.3488
X4.6Y-2.4
X4.6512Y-2.3488
X4.6512Y-2.4
T3
X3.5472Y-3.1223
X3.5913Y-2.0103
X3.6452Y-3.1223
X3.8433Y-2.7132
X4.0817Y-2.9951
X4.2338Y-1.8755
X4.7322Y-2.4876
T4
X1.499Y-2.5494
X1.499Y-2.6494
X1.499Y-2.7494
X1.9Y-2.5
X1.9Y-2.6
X1.9Y-2.7
X1.9Y-2.8
X2.15Y-3.25
X2.15Y-3.35
X2.15Y-3.45
X2.15Y-3.55
X3.95Y-2.6996
X3.95Y-3.2996
X4.05Y-2.6996
X4.05Y-3.2996
X4.15Y-2.6996
X4.15Y-3.2996
X4.25Y-2.6996
X4.25Y-3.2996
X4.35Y-2.6996
X4.35Y-3.2996
X4.45Y-2.6996
X4.45Y-3.2996
X4.55Y-2.6996
X4.55Y-3.2996
X4.65Y-2.6996
X4.65Y-3.2996
X4.75Y-2.6996
X4.75Y-3.2996
X4.85Y-2.6996
X4.85Y-3.2996
X4.9Y-2.35
X4.9Y-2.45
X4.95Y-2.6996
X4.95Y-3.2996
X5.05Y-2.6996
X5.05Y-3.2996
X5.15Y-2.6996
X5.15Y-3.2996
X5.25Y-2.6996
X5.25Y-3.2996
X5.35Y-2.6996
X5.35Y-3.2996
X5.4Y-4.0
X5.5Y-4.0
T5
X1.7Y-1.7
X1.8378Y-1.7
X2.05Y-1.7
X2.1878Y-1.7
X2.4Y-1.7
X2.5378Y-1.7
X2.75Y-1.7
X2.8878Y-1.7
X3.1Y-1.7
X3.2378Y-1.7
X3.45Y-1.7
X3.5878Y-1.7
X3.8Y-1.7
X3.9378Y-1.7
X4.15Y-1.7
X4.2878Y-1.7
T6
X4.5498Y-1.8118
X4.7498Y-1.8118
X5.0498Y-1.8118
X5.2498Y-1.8118
X5.3Y-2.25
X5.3Y-2.45
X5.3Y-3.5498
X5.3Y-3.7498
T0
M30
