%TF.GenerationSoftware,KiCad,Pcbnew,8.0.5+1*%
%TF.CreationDate,2024-11-01T08:39:33+01:00*%
%TF.ProjectId,openautolab,6f70656e-6175-4746-9f6c-61622e6b6963,rev?*%
%TF.SameCoordinates,Original*%
%TF.FileFunction,Soldermask,Bot*%
%TF.FilePolarity,Negative*%
%FSLAX46Y46*%
G04 Gerber Fmt 4.6, Leading zero omitted, Abs format (unit mm)*
G04 Created by KiCad (PCBNEW 8.0.5+1) date 2024-11-01 08:39:33*
%MOMM*%
%LPD*%
G01*
G04 APERTURE LIST*
%ADD10R,2.400000X2.400000*%
%ADD11C,2.400000*%
%ADD12R,2.600000X2.600000*%
%ADD13C,2.600000*%
%ADD14R,1.700000X1.700000*%
%ADD15O,1.700000X1.700000*%
%ADD16O,1.800000X1.800000*%
%ADD17O,1.500000X1.500000*%
G04 APERTURE END LIST*
D10*
%TO.C,J1*%
X96750000Y-39800000D03*
D11*
X100250000Y-39800000D03*
%TD*%
D10*
%TO.C,J8*%
X45750000Y-39800000D03*
D11*
X49250000Y-39800000D03*
%TD*%
D10*
%TO.C,J5*%
X62750000Y-39800000D03*
D11*
X66250000Y-39800000D03*
%TD*%
D12*
%TO.C,J11*%
X131000000Y-60000000D03*
D13*
X131000000Y-65080000D03*
%TD*%
D12*
%TO.C,J10*%
X126420000Y-42500000D03*
D13*
X131500000Y-42500000D03*
%TD*%
D10*
%TO.C,J4*%
X71250000Y-39800000D03*
D11*
X74750000Y-39800000D03*
%TD*%
D10*
%TO.C,J2*%
X88250000Y-39800000D03*
D11*
X91750000Y-39800000D03*
%TD*%
D10*
%TO.C,J3*%
X79750000Y-39800000D03*
D11*
X83250000Y-39800000D03*
%TD*%
D14*
%TO.C,J14*%
X43000000Y-111500000D03*
D15*
X43000000Y-108960000D03*
X43000000Y-106420000D03*
%TD*%
D10*
%TO.C,J7*%
X54250000Y-39800000D03*
D11*
X57750000Y-39800000D03*
%TD*%
D14*
%TO.C,J13*%
X47675000Y-97800000D03*
D15*
X47675000Y-95260000D03*
X47675000Y-92720000D03*
X47675000Y-90180000D03*
%TD*%
D12*
%TO.C,J12*%
X131000000Y-106500000D03*
D13*
X131000000Y-111580000D03*
%TD*%
D10*
%TO.C,J6*%
X105250000Y-39800000D03*
D11*
X108750000Y-39800000D03*
%TD*%
D12*
%TO.C,J9*%
X114455000Y-42500000D03*
D13*
X119535000Y-42500000D03*
%TD*%
D16*
%TO.C,U3*%
X45310000Y-70115000D03*
D17*
X48340000Y-69815000D03*
X48340000Y-64965000D03*
D16*
X45310000Y-64665000D03*
D15*
X45180000Y-76280000D03*
X47720000Y-76280000D03*
D14*
X50260000Y-76280000D03*
D15*
X52800000Y-76280000D03*
X55340000Y-76280000D03*
X57880000Y-76280000D03*
X60420000Y-76280000D03*
D14*
X62960000Y-76280000D03*
D15*
X65500000Y-76280000D03*
X68040000Y-76280000D03*
X70580000Y-76280000D03*
X73120000Y-76280000D03*
D14*
X75660000Y-76280000D03*
D15*
X78200000Y-76280000D03*
X80740000Y-76280000D03*
X83280000Y-76280000D03*
X85820000Y-76280000D03*
D14*
X88360000Y-76280000D03*
D15*
X90900000Y-76280000D03*
X93440000Y-76280000D03*
X93440000Y-58500000D03*
X90900000Y-58500000D03*
D14*
X88360000Y-58500000D03*
D15*
X85820000Y-58500000D03*
X83280000Y-58500000D03*
X80740000Y-58500000D03*
X78200000Y-58500000D03*
D14*
X75660000Y-58500000D03*
D15*
X73120000Y-58500000D03*
X70580000Y-58500000D03*
X68040000Y-58500000D03*
X65500000Y-58500000D03*
D14*
X62960000Y-58500000D03*
D15*
X60420000Y-58500000D03*
X57880000Y-58500000D03*
X55340000Y-58500000D03*
X52800000Y-58500000D03*
D14*
X50260000Y-58500000D03*
D15*
X47720000Y-58500000D03*
X45180000Y-58500000D03*
X93210000Y-69930000D03*
D14*
X93210000Y-67390000D03*
D15*
X93210000Y-64850000D03*
%TD*%
D14*
%TO.C,J15*%
X85200000Y-82975000D03*
D15*
X87740000Y-82975000D03*
X90280000Y-82975000D03*
X92820000Y-82975000D03*
%TD*%
M02*
