%TF.GenerationSoftware,KiCad,Pcbnew,8.0.5+1*%
%TF.CreationDate,2024-11-01T08:39:33+01:00*%
%TF.ProjectId,openautolab,6f70656e-6175-4746-9f6c-61622e6b6963,rev?*%
%TF.SameCoordinates,Original*%
%TF.FileFunction,Copper,L2,Bot*%
%TF.FilePolarity,Positive*%
%FSLAX46Y46*%
G04 Gerber Fmt 4.6, Leading zero omitted, Abs format (unit mm)*
G04 Created by KiCad (PCBNEW 8.0.5+1) date 2024-11-01 08:39:33*
%MOMM*%
%LPD*%
G01*
G04 APERTURE LIST*
%TA.AperFunction,ComponentPad*%
%ADD10R,2.400000X2.400000*%
%TD*%
%TA.AperFunction,ComponentPad*%
%ADD11C,2.400000*%
%TD*%
%TA.AperFunction,ComponentPad*%
%ADD12R,2.600000X2.600000*%
%TD*%
%TA.AperFunction,ComponentPad*%
%ADD13C,2.600000*%
%TD*%
%TA.AperFunction,ComponentPad*%
%ADD14R,1.700000X1.700000*%
%TD*%
%TA.AperFunction,ComponentPad*%
%ADD15O,1.700000X1.700000*%
%TD*%
%TA.AperFunction,ViaPad*%
%ADD16C,1.000000*%
%TD*%
%TA.AperFunction,ViaPad*%
%ADD17C,1.400000*%
%TD*%
%TA.AperFunction,Conductor*%
%ADD18C,0.500000*%
%TD*%
%TA.AperFunction,Conductor*%
%ADD19C,1.400000*%
%TD*%
G04 APERTURE END LIST*
D10*
%TO.P,J1,1,Pin_1*%
%TO.N,+12V*%
X96750000Y-39800000D03*
D11*
%TO.P,J1,2,Pin_2*%
%TO.N,Net-(D2-A)*%
X100250000Y-39800000D03*
%TD*%
D10*
%TO.P,J8,1,Pin_1*%
%TO.N,+12V*%
X45750000Y-39800000D03*
D11*
%TO.P,J8,2,Pin_2*%
%TO.N,Net-(D9-A)*%
X49250000Y-39800000D03*
%TD*%
D10*
%TO.P,J5,1,Pin_1*%
%TO.N,+12V*%
X62750000Y-39800000D03*
D11*
%TO.P,J5,2,Pin_2*%
%TO.N,Net-(D6-A)*%
X66250000Y-39800000D03*
%TD*%
D12*
%TO.P,J11,1,Pin_1*%
%TO.N,Net-(J11-Pin_1)*%
X131000000Y-60000000D03*
D13*
%TO.P,J11,2,Pin_2*%
%TO.N,Net-(J11-Pin_2)*%
X131000000Y-65080000D03*
%TD*%
D12*
%TO.P,J10,1,Pin_1*%
%TO.N,+12V*%
X126420000Y-42500000D03*
D13*
%TO.P,J10,2,Pin_2*%
%TO.N,Net-(D11-A)*%
X131500000Y-42500000D03*
%TD*%
D10*
%TO.P,J4,1,Pin_1*%
%TO.N,+12V*%
X71250000Y-39800000D03*
D11*
%TO.P,J4,2,Pin_2*%
%TO.N,Net-(D5-A)*%
X74750000Y-39800000D03*
%TD*%
D10*
%TO.P,J2,1,Pin_1*%
%TO.N,+12V*%
X88250000Y-39800000D03*
D11*
%TO.P,J2,2,Pin_2*%
%TO.N,Net-(D3-A)*%
X91750000Y-39800000D03*
%TD*%
D10*
%TO.P,J3,1,Pin_1*%
%TO.N,+12V*%
X79750000Y-39800000D03*
D11*
%TO.P,J3,2,Pin_2*%
%TO.N,Net-(D4-A)*%
X83250000Y-39800000D03*
%TD*%
D14*
%TO.P,J14,1,Pin_1*%
%TO.N,GND*%
X43000000Y-111500000D03*
D15*
%TO.P,J14,2,Pin_2*%
%TO.N,+5V*%
X43000000Y-108960000D03*
%TO.P,J14,3,Pin_3*%
%TO.N,Net-(J14-Pin_3)*%
X43000000Y-106420000D03*
%TD*%
D10*
%TO.P,J7,1,Pin_1*%
%TO.N,+12V*%
X54250000Y-39800000D03*
D11*
%TO.P,J7,2,Pin_2*%
%TO.N,Net-(D8-A)*%
X57750000Y-39800000D03*
%TD*%
D14*
%TO.P,J13,1,Pin_1*%
%TO.N,GND*%
X47675000Y-97800000D03*
D15*
%TO.P,J13,2,Pin_2*%
%TO.N,Net-(J13-Pin_2)*%
X47675000Y-95260000D03*
%TO.P,J13,3,Pin_3*%
%TO.N,Net-(J13-Pin_3)*%
X47675000Y-92720000D03*
%TO.P,J13,4,Pin_4*%
%TO.N,+5V*%
X47675000Y-90180000D03*
%TD*%
D12*
%TO.P,J12,1,Pin_1*%
%TO.N,GNDPWR*%
X131000000Y-106500000D03*
D13*
%TO.P,J12,2,Pin_2*%
%TO.N,+12V*%
X131000000Y-111580000D03*
%TD*%
D10*
%TO.P,J6,1,Pin_1*%
%TO.N,+12V*%
X105250000Y-39800000D03*
D11*
%TO.P,J6,2,Pin_2*%
%TO.N,Net-(D7-A)*%
X108750000Y-39800000D03*
%TD*%
D12*
%TO.P,J9,1,Pin_1*%
%TO.N,Net-(J9-Pin_1)*%
X114455000Y-42500000D03*
D13*
%TO.P,J9,2,Pin_2*%
%TO.N,Net-(J9-Pin_2)*%
X119535000Y-42500000D03*
%TD*%
D15*
%TO.P,U3,1,GPIO0*%
%TO.N,Net-(U3-GPIO0)*%
X45180000Y-76280000D03*
%TO.P,U3,2,GPIO1*%
%TO.N,Net-(U3-GPIO1)*%
X47720000Y-76280000D03*
D14*
%TO.P,U3,3,GND*%
%TO.N,unconnected-(U3-GND-Pad3)*%
X50260000Y-76280000D03*
D15*
%TO.P,U3,4,GPIO2*%
%TO.N,Net-(U3-GPIO2)*%
X52800000Y-76280000D03*
%TO.P,U3,5,GPIO3*%
%TO.N,Net-(U3-GPIO3)*%
X55340000Y-76280000D03*
%TO.P,U3,6,GPIO4*%
%TO.N,Net-(U3-GPIO4)*%
X57880000Y-76280000D03*
%TO.P,U3,7,GPIO5*%
%TO.N,Net-(U3-GPIO5)*%
X60420000Y-76280000D03*
D14*
%TO.P,U3,8,GND*%
%TO.N,unconnected-(U3-GND-Pad8)*%
X62960000Y-76280000D03*
D15*
%TO.P,U3,9,GPIO6*%
%TO.N,Net-(U3-GPIO6)*%
X65500000Y-76280000D03*
%TO.P,U3,10,GPIO7*%
%TO.N,Net-(U3-GPIO7)*%
X68040000Y-76280000D03*
%TO.P,U3,11,GPIO8*%
%TO.N,unconnected-(U3-GPIO8-Pad11)*%
X70580000Y-76280000D03*
%TO.P,U3,12,GPIO9*%
%TO.N,unconnected-(U3-GPIO9-Pad12)*%
X73120000Y-76280000D03*
D14*
%TO.P,U3,13,GND*%
%TO.N,unconnected-(U3-GND-Pad13)*%
X75660000Y-76280000D03*
D15*
%TO.P,U3,14,GPIO10*%
%TO.N,Net-(U3-GPIO10)*%
X78200000Y-76280000D03*
%TO.P,U3,15,GPIO11*%
%TO.N,Net-(U3-GPIO11)*%
X80740000Y-76280000D03*
%TO.P,U3,16,GPIO12*%
%TO.N,Net-(J14-Pin_3)*%
X83280000Y-76280000D03*
%TO.P,U3,17,GPIO13*%
%TO.N,unconnected-(U3-GPIO13-Pad17)*%
X85820000Y-76280000D03*
D14*
%TO.P,U3,18,GND*%
%TO.N,GND*%
X88360000Y-76280000D03*
D15*
%TO.P,U3,19,GPIO14*%
%TO.N,Net-(J15-Pin_4)*%
X90900000Y-76280000D03*
%TO.P,U3,20,GPIO15*%
%TO.N,Net-(J15-Pin_3)*%
X93440000Y-76280000D03*
%TO.P,U3,21,GPIO16*%
%TO.N,Net-(J13-Pin_2)*%
X93440000Y-58500000D03*
%TO.P,U3,22,GPIO17*%
%TO.N,Net-(J13-Pin_3)*%
X90900000Y-58500000D03*
D14*
%TO.P,U3,23,GND*%
%TO.N,unconnected-(U3-GND-Pad23)*%
X88360000Y-58500000D03*
D15*
%TO.P,U3,24,GPIO18*%
%TO.N,unconnected-(U3-GPIO18-Pad24)*%
X85820000Y-58500000D03*
%TO.P,U3,25,GPIO19*%
%TO.N,unconnected-(U3-GPIO19-Pad25)*%
X83280000Y-58500000D03*
%TO.P,U3,26,GPIO20*%
%TO.N,Net-(U3-GPIO20)*%
X80740000Y-58500000D03*
%TO.P,U3,27,GPIO21*%
%TO.N,Net-(U3-GPIO21)*%
X78200000Y-58500000D03*
D14*
%TO.P,U3,28,GND*%
%TO.N,unconnected-(U3-GND-Pad28)*%
X75660000Y-58500000D03*
D15*
%TO.P,U3,29,GPIO22*%
%TO.N,Net-(U3-GPIO22)*%
X73120000Y-58500000D03*
%TO.P,U3,30,RUN*%
%TO.N,unconnected-(U3-RUN-Pad30)*%
X70580000Y-58500000D03*
%TO.P,U3,31,GPIO26_ADC0*%
%TO.N,unconnected-(U3-GPIO26_ADC0-Pad31)*%
X68040000Y-58500000D03*
%TO.P,U3,32,GPIO27_ADC1*%
%TO.N,unconnected-(U3-GPIO27_ADC1-Pad32)*%
X65500000Y-58500000D03*
D14*
%TO.P,U3,33,AGND*%
%TO.N,unconnected-(U3-AGND-Pad33)*%
X62960000Y-58500000D03*
D15*
%TO.P,U3,34,GPIO28_ADC2*%
%TO.N,unconnected-(U3-GPIO28_ADC2-Pad34)*%
X60420000Y-58500000D03*
%TO.P,U3,35,ADC_VREF*%
%TO.N,unconnected-(U3-ADC_VREF-Pad35)*%
X57880000Y-58500000D03*
%TO.P,U3,36,3V3*%
%TO.N,unconnected-(U3-3V3-Pad36)*%
X55340000Y-58500000D03*
%TO.P,U3,37,3V3_EN*%
%TO.N,unconnected-(U3-3V3_EN-Pad37)*%
X52800000Y-58500000D03*
D14*
%TO.P,U3,38,GND*%
%TO.N,unconnected-(U3-GND-Pad38)*%
X50260000Y-58500000D03*
D15*
%TO.P,U3,39,VSYS*%
%TO.N,+5V*%
X47720000Y-58500000D03*
%TO.P,U3,40,VBUS*%
%TO.N,unconnected-(U3-VBUS-Pad40)*%
X45180000Y-58500000D03*
%TO.P,U3,41,SWCLK*%
%TO.N,unconnected-(U3-SWCLK-Pad41)*%
X93210000Y-69930000D03*
D14*
%TO.P,U3,42,GND*%
%TO.N,unconnected-(U3-GND-Pad42)*%
X93210000Y-67390000D03*
D15*
%TO.P,U3,43,SWDIO*%
%TO.N,unconnected-(U3-SWDIO-Pad43)*%
X93210000Y-64850000D03*
%TD*%
D14*
%TO.P,J15,1,Pin_1*%
%TO.N,GND*%
X85200000Y-82975000D03*
D15*
%TO.P,J15,2,Pin_2*%
%TO.N,+5V*%
X87740000Y-82975000D03*
%TO.P,J15,3,Pin_3*%
%TO.N,Net-(J15-Pin_3)*%
X90280000Y-82975000D03*
%TO.P,J15,4,Pin_4*%
%TO.N,Net-(J15-Pin_4)*%
X92820000Y-82975000D03*
%TD*%
D16*
%TO.N,Net-(U3-GPIO6)*%
X95156400Y-58728100D03*
X86177100Y-51535800D03*
%TO.N,Net-(U3-GPIO5)*%
X75755800Y-51386100D03*
%TO.N,Net-(U3-GPIO4)*%
X68029500Y-51572600D03*
%TO.N,Net-(U3-GPIO3)*%
X60494600Y-51403400D03*
%TO.N,Net-(U3-GPIO2)*%
X102757400Y-51438400D03*
%TO.N,Net-(D1-K)*%
X119612900Y-76402000D03*
X107947600Y-78425000D03*
%TO.N,+5V*%
X45657200Y-73677400D03*
X124798400Y-72299900D03*
X109080900Y-67093500D03*
X116002000Y-70309500D03*
%TO.N,Net-(U3-GPIO1)*%
X51968200Y-51500000D03*
%TO.N,Net-(U3-GPIO20)*%
X86170300Y-93909200D03*
%TO.N,Net-(U3-GPIO21)*%
X90062200Y-89244900D03*
%TO.N,Net-(U3-GPIO22)*%
X91429300Y-86544300D03*
D17*
%TO.N,GNDPWR*%
X100037500Y-51950200D03*
X94914400Y-53121300D03*
%TD*%
D18*
%TO.N,Net-(J13-Pin_3)*%
X90900000Y-59850000D02*
X96971200Y-65921200D01*
X51166800Y-94861800D02*
X49025000Y-92720000D01*
X96971200Y-65921200D02*
X96971200Y-84785000D01*
X90900000Y-58500000D02*
X90900000Y-59850000D01*
X86894400Y-94861800D02*
X51166800Y-94861800D01*
X96971200Y-84785000D02*
X86894400Y-94861800D01*
X47675000Y-92720000D02*
X49025000Y-92720000D01*
%TO.N,Net-(J13-Pin_2)*%
X87175300Y-95647400D02*
X49412400Y-95647400D01*
X97691900Y-85130800D02*
X87175300Y-95647400D01*
X93440000Y-58500000D02*
X93440000Y-59850000D01*
X97691900Y-64101900D02*
X97691900Y-85130800D01*
X47675000Y-95260000D02*
X49025000Y-95260000D01*
X93440000Y-59850000D02*
X97691900Y-64101900D01*
X49412400Y-95647400D02*
X49025000Y-95260000D01*
%TO.N,Net-(J15-Pin_3)*%
X93397700Y-84309400D02*
X91614400Y-84309400D01*
X91614400Y-84309400D02*
X90280000Y-82975000D01*
X93440000Y-77630000D02*
X94126900Y-78316900D01*
X93440000Y-76280000D02*
X93440000Y-77630000D01*
X94126900Y-83580200D02*
X93397700Y-84309400D01*
X94126900Y-78316900D02*
X94126900Y-83580200D01*
%TO.N,Net-(J15-Pin_4)*%
X90900000Y-76280000D02*
X90900000Y-77630000D01*
X92820000Y-82975000D02*
X92820000Y-79550000D01*
X92820000Y-79550000D02*
X90900000Y-77630000D01*
%TO.N,Net-(U3-GPIO6)*%
X95156400Y-58728100D02*
X95156400Y-58284100D01*
X88408100Y-51535800D02*
X86177100Y-51535800D01*
X95156400Y-58284100D02*
X88408100Y-51535800D01*
%TO.N,Net-(U3-GPIO5)*%
X70149800Y-56992100D02*
X75755800Y-51386100D01*
X46398900Y-60288700D02*
X45064800Y-60288700D01*
X43851800Y-57975700D02*
X44835400Y-56992100D01*
X45064800Y-60288700D02*
X43851800Y-59075700D01*
X60420000Y-74930000D02*
X60420000Y-74309800D01*
X60420000Y-76280000D02*
X60420000Y-74930000D01*
X44835400Y-56992100D02*
X70149800Y-56992100D01*
X43851800Y-59075700D02*
X43851800Y-57975700D01*
X60420000Y-74309800D02*
X46398900Y-60288700D01*
%TO.N,Net-(U3-GPIO4)*%
X57880000Y-76280000D02*
X57880000Y-74930000D01*
X57880000Y-74930000D02*
X57880000Y-72799800D01*
X43145000Y-57661100D02*
X44516500Y-56289600D01*
X57880000Y-72799800D02*
X46420600Y-61340400D01*
X43145000Y-59389700D02*
X43145000Y-57661100D01*
X46420600Y-61340400D02*
X45095700Y-61340400D01*
X45095700Y-61340400D02*
X43145000Y-59389700D01*
X44516500Y-56289600D02*
X63312500Y-56289600D01*
X63312500Y-56289600D02*
X68029500Y-51572600D01*
%TO.N,Net-(U3-GPIO3)*%
X47019700Y-66609700D02*
X47019700Y-64402300D01*
X42443300Y-59825900D02*
X42443300Y-57370400D01*
X55340000Y-74930000D02*
X47019700Y-66609700D01*
X56310100Y-55587900D02*
X60494600Y-51403400D01*
X47019700Y-64402300D02*
X42443300Y-59825900D01*
X44225800Y-55587900D02*
X56310100Y-55587900D01*
X55340000Y-76280000D02*
X55340000Y-74930000D01*
X42443300Y-57370400D02*
X44225800Y-55587900D01*
%TO.N,Net-(U3-GPIO2)*%
X52800000Y-74930000D02*
X51680500Y-74930000D01*
X52800000Y-76280000D02*
X52800000Y-74930000D01*
X46829000Y-70078500D02*
X46829000Y-68699900D01*
X53805500Y-52856100D02*
X56249700Y-50411900D01*
X41741600Y-57075500D02*
X45961000Y-52856100D01*
X56249700Y-50411900D02*
X101730900Y-50411900D01*
X101730900Y-50411900D02*
X102757400Y-51438400D01*
X51680500Y-74930000D02*
X46829000Y-70078500D01*
X41741600Y-63612500D02*
X41741600Y-57075500D01*
X45961000Y-52856100D02*
X53805500Y-52856100D01*
X46829000Y-68699900D02*
X41741600Y-63612500D01*
%TO.N,GND*%
X47675000Y-106825000D02*
X43000000Y-111500000D01*
X85200000Y-82975000D02*
X85200000Y-80790000D01*
X85200000Y-80790000D02*
X88360000Y-77630000D01*
X88360000Y-76280000D02*
X88360000Y-77630000D01*
X47675000Y-97800000D02*
X47675000Y-106825000D01*
%TO.N,Net-(D1-K)*%
X119612900Y-76402000D02*
X109970600Y-76402000D01*
X109970600Y-76402000D02*
X107947600Y-78425000D01*
%TO.N,+5V*%
X45128500Y-106831500D02*
X45128500Y-92726500D01*
X43831800Y-84986800D02*
X43831800Y-75502800D01*
X47675000Y-88830000D02*
X81885000Y-88830000D01*
X81885000Y-88830000D02*
X87740000Y-82975000D01*
X43831800Y-75502800D02*
X45657200Y-73677400D01*
X122808000Y-70309500D02*
X124798400Y-72299900D01*
X47675000Y-88830000D02*
X43831800Y-84986800D01*
X47675000Y-90180000D02*
X47675000Y-88830000D01*
X43000000Y-108960000D02*
X45128500Y-106831500D01*
X45128500Y-92726500D02*
X47675000Y-90180000D01*
X109080900Y-67093500D02*
X112296900Y-70309500D01*
X116002000Y-70309500D02*
X122808000Y-70309500D01*
X112296900Y-70309500D02*
X116002000Y-70309500D01*
D19*
%TO.N,+12V*%
X131000000Y-111580000D02*
X126420000Y-107000000D01*
X67222100Y-37498300D02*
X68948300Y-39224500D01*
X71250000Y-39800000D02*
X68948300Y-39800000D01*
X126420000Y-107000000D02*
X126420000Y-42500000D01*
X68948300Y-39224500D02*
X68948300Y-39800000D01*
X62750000Y-39800000D02*
X65051700Y-37498300D01*
X65051700Y-37498300D02*
X67222100Y-37498300D01*
D18*
%TO.N,Net-(U3-GPIO1)*%
X41039900Y-56775900D02*
X46315800Y-51500000D01*
X46315800Y-51500000D02*
X51968200Y-51500000D01*
X47720000Y-74930000D02*
X47720000Y-74394200D01*
X46051500Y-72725700D02*
X45916400Y-72725700D01*
X47720000Y-74394200D02*
X46051500Y-72725700D01*
X47720000Y-76280000D02*
X47720000Y-74930000D01*
X45916400Y-72725700D02*
X41039900Y-67849200D01*
X41039900Y-67849200D02*
X41039900Y-56775900D01*
%TO.N,Net-(U3-GPIO20)*%
X96269200Y-84466000D02*
X86826000Y-93909200D01*
X96269200Y-75075200D02*
X96269200Y-84466000D01*
X86826000Y-93909200D02*
X86170300Y-93909200D01*
X80740000Y-58500000D02*
X80740000Y-59546000D01*
X80740000Y-59546000D02*
X96269200Y-75075200D01*
%TO.N,Net-(U3-GPIO21)*%
X78200000Y-58500000D02*
X78636800Y-58500000D01*
X78636800Y-58500000D02*
X95566700Y-75429900D01*
X95566700Y-84138600D02*
X90460400Y-89244900D01*
X95566700Y-75429900D02*
X95566700Y-84138600D01*
X90460400Y-89244900D02*
X90062200Y-89244900D01*
%TO.N,Net-(U3-GPIO22)*%
X76217800Y-61597800D02*
X80679300Y-61597800D01*
X73120000Y-58500000D02*
X76217800Y-61597800D01*
X80679300Y-61597800D02*
X94862700Y-75781200D01*
X94862700Y-75781200D02*
X94862700Y-83848100D01*
X94862700Y-83848100D02*
X92166500Y-86544300D01*
X92166500Y-86544300D02*
X91429300Y-86544300D01*
D19*
%TO.N,GNDPWR*%
X100037500Y-51950200D02*
X98866400Y-53121300D01*
X98866400Y-53121300D02*
X94914400Y-53121300D01*
%TD*%
M02*
