%TF.GenerationSoftware,KiCad,Pcbnew,8.0.6*%
%TF.CreationDate,2024-10-24T02:40:51+02:00*%
%TF.ProjectId,openautolab,6f70656e-6175-4746-9f6c-61622e6b6963,rev?*%
%TF.SameCoordinates,Original*%
%TF.FileFunction,Other,Comment*%
%FSLAX46Y46*%
G04 Gerber Fmt 4.6, Leading zero omitted, Abs format (unit mm)*
G04 Created by KiCad (PCBNEW 8.0.6) date 2024-10-24 02:40:51*
%MOMM*%
%LPD*%
G01*
G04 APERTURE LIST*
%ADD10C,0.150000*%
G04 APERTURE END LIST*
D10*
X159369997Y-20849580D02*
X159322378Y-20897200D01*
X159322378Y-20897200D02*
X159179521Y-20944819D01*
X159179521Y-20944819D02*
X159084283Y-20944819D01*
X159084283Y-20944819D02*
X158941426Y-20897200D01*
X158941426Y-20897200D02*
X158846188Y-20801961D01*
X158846188Y-20801961D02*
X158798569Y-20706723D01*
X158798569Y-20706723D02*
X158750950Y-20516247D01*
X158750950Y-20516247D02*
X158750950Y-20373390D01*
X158750950Y-20373390D02*
X158798569Y-20182914D01*
X158798569Y-20182914D02*
X158846188Y-20087676D01*
X158846188Y-20087676D02*
X158941426Y-19992438D01*
X158941426Y-19992438D02*
X159084283Y-19944819D01*
X159084283Y-19944819D02*
X159179521Y-19944819D01*
X159179521Y-19944819D02*
X159322378Y-19992438D01*
X159322378Y-19992438D02*
X159369997Y-20040057D01*
X159941426Y-20944819D02*
X159846188Y-20897200D01*
X159846188Y-20897200D02*
X159798569Y-20849580D01*
X159798569Y-20849580D02*
X159750950Y-20754342D01*
X159750950Y-20754342D02*
X159750950Y-20468628D01*
X159750950Y-20468628D02*
X159798569Y-20373390D01*
X159798569Y-20373390D02*
X159846188Y-20325771D01*
X159846188Y-20325771D02*
X159941426Y-20278152D01*
X159941426Y-20278152D02*
X160084283Y-20278152D01*
X160084283Y-20278152D02*
X160179521Y-20325771D01*
X160179521Y-20325771D02*
X160227140Y-20373390D01*
X160227140Y-20373390D02*
X160274759Y-20468628D01*
X160274759Y-20468628D02*
X160274759Y-20754342D01*
X160274759Y-20754342D02*
X160227140Y-20849580D01*
X160227140Y-20849580D02*
X160179521Y-20897200D01*
X160179521Y-20897200D02*
X160084283Y-20944819D01*
X160084283Y-20944819D02*
X159941426Y-20944819D01*
X160703331Y-20278152D02*
X160703331Y-21278152D01*
X160703331Y-20325771D02*
X160798569Y-20278152D01*
X160798569Y-20278152D02*
X160989045Y-20278152D01*
X160989045Y-20278152D02*
X161084283Y-20325771D01*
X161084283Y-20325771D02*
X161131902Y-20373390D01*
X161131902Y-20373390D02*
X161179521Y-20468628D01*
X161179521Y-20468628D02*
X161179521Y-20754342D01*
X161179521Y-20754342D02*
X161131902Y-20849580D01*
X161131902Y-20849580D02*
X161084283Y-20897200D01*
X161084283Y-20897200D02*
X160989045Y-20944819D01*
X160989045Y-20944819D02*
X160798569Y-20944819D01*
X160798569Y-20944819D02*
X160703331Y-20897200D01*
X161608093Y-20278152D02*
X161608093Y-21278152D01*
X161608093Y-20325771D02*
X161703331Y-20278152D01*
X161703331Y-20278152D02*
X161893807Y-20278152D01*
X161893807Y-20278152D02*
X161989045Y-20325771D01*
X161989045Y-20325771D02*
X162036664Y-20373390D01*
X162036664Y-20373390D02*
X162084283Y-20468628D01*
X162084283Y-20468628D02*
X162084283Y-20754342D01*
X162084283Y-20754342D02*
X162036664Y-20849580D01*
X162036664Y-20849580D02*
X161989045Y-20897200D01*
X161989045Y-20897200D02*
X161893807Y-20944819D01*
X161893807Y-20944819D02*
X161703331Y-20944819D01*
X161703331Y-20944819D02*
X161608093Y-20897200D01*
X162893807Y-20897200D02*
X162798569Y-20944819D01*
X162798569Y-20944819D02*
X162608093Y-20944819D01*
X162608093Y-20944819D02*
X162512855Y-20897200D01*
X162512855Y-20897200D02*
X162465236Y-20801961D01*
X162465236Y-20801961D02*
X162465236Y-20421009D01*
X162465236Y-20421009D02*
X162512855Y-20325771D01*
X162512855Y-20325771D02*
X162608093Y-20278152D01*
X162608093Y-20278152D02*
X162798569Y-20278152D01*
X162798569Y-20278152D02*
X162893807Y-20325771D01*
X162893807Y-20325771D02*
X162941426Y-20421009D01*
X162941426Y-20421009D02*
X162941426Y-20516247D01*
X162941426Y-20516247D02*
X162465236Y-20611485D01*
X163369998Y-20944819D02*
X163369998Y-20278152D01*
X163369998Y-20468628D02*
X163417617Y-20373390D01*
X163417617Y-20373390D02*
X163465236Y-20325771D01*
X163465236Y-20325771D02*
X163560474Y-20278152D01*
X163560474Y-20278152D02*
X163655712Y-20278152D01*
X164750951Y-20944819D02*
X164750951Y-19944819D01*
X165322379Y-20944819D02*
X164893808Y-20373390D01*
X165322379Y-19944819D02*
X164750951Y-20516247D01*
X166131903Y-20897200D02*
X166036665Y-20944819D01*
X166036665Y-20944819D02*
X165846189Y-20944819D01*
X165846189Y-20944819D02*
X165750951Y-20897200D01*
X165750951Y-20897200D02*
X165703332Y-20801961D01*
X165703332Y-20801961D02*
X165703332Y-20421009D01*
X165703332Y-20421009D02*
X165750951Y-20325771D01*
X165750951Y-20325771D02*
X165846189Y-20278152D01*
X165846189Y-20278152D02*
X166036665Y-20278152D01*
X166036665Y-20278152D02*
X166131903Y-20325771D01*
X166131903Y-20325771D02*
X166179522Y-20421009D01*
X166179522Y-20421009D02*
X166179522Y-20516247D01*
X166179522Y-20516247D02*
X165703332Y-20611485D01*
X166989046Y-20897200D02*
X166893808Y-20944819D01*
X166893808Y-20944819D02*
X166703332Y-20944819D01*
X166703332Y-20944819D02*
X166608094Y-20897200D01*
X166608094Y-20897200D02*
X166560475Y-20801961D01*
X166560475Y-20801961D02*
X166560475Y-20421009D01*
X166560475Y-20421009D02*
X166608094Y-20325771D01*
X166608094Y-20325771D02*
X166703332Y-20278152D01*
X166703332Y-20278152D02*
X166893808Y-20278152D01*
X166893808Y-20278152D02*
X166989046Y-20325771D01*
X166989046Y-20325771D02*
X167036665Y-20421009D01*
X167036665Y-20421009D02*
X167036665Y-20516247D01*
X167036665Y-20516247D02*
X166560475Y-20611485D01*
X167465237Y-20278152D02*
X167465237Y-21278152D01*
X167465237Y-20325771D02*
X167560475Y-20278152D01*
X167560475Y-20278152D02*
X167750951Y-20278152D01*
X167750951Y-20278152D02*
X167846189Y-20325771D01*
X167846189Y-20325771D02*
X167893808Y-20373390D01*
X167893808Y-20373390D02*
X167941427Y-20468628D01*
X167941427Y-20468628D02*
X167941427Y-20754342D01*
X167941427Y-20754342D02*
X167893808Y-20849580D01*
X167893808Y-20849580D02*
X167846189Y-20897200D01*
X167846189Y-20897200D02*
X167750951Y-20944819D01*
X167750951Y-20944819D02*
X167560475Y-20944819D01*
X167560475Y-20944819D02*
X167465237Y-20897200D01*
X168512856Y-20944819D02*
X168417618Y-20897200D01*
X168417618Y-20897200D02*
X168369999Y-20849580D01*
X168369999Y-20849580D02*
X168322380Y-20754342D01*
X168322380Y-20754342D02*
X168322380Y-20468628D01*
X168322380Y-20468628D02*
X168369999Y-20373390D01*
X168369999Y-20373390D02*
X168417618Y-20325771D01*
X168417618Y-20325771D02*
X168512856Y-20278152D01*
X168512856Y-20278152D02*
X168655713Y-20278152D01*
X168655713Y-20278152D02*
X168750951Y-20325771D01*
X168750951Y-20325771D02*
X168798570Y-20373390D01*
X168798570Y-20373390D02*
X168846189Y-20468628D01*
X168846189Y-20468628D02*
X168846189Y-20754342D01*
X168846189Y-20754342D02*
X168798570Y-20849580D01*
X168798570Y-20849580D02*
X168750951Y-20897200D01*
X168750951Y-20897200D02*
X168655713Y-20944819D01*
X168655713Y-20944819D02*
X168512856Y-20944819D01*
X169703332Y-20278152D02*
X169703332Y-20944819D01*
X169274761Y-20278152D02*
X169274761Y-20801961D01*
X169274761Y-20801961D02*
X169322380Y-20897200D01*
X169322380Y-20897200D02*
X169417618Y-20944819D01*
X169417618Y-20944819D02*
X169560475Y-20944819D01*
X169560475Y-20944819D02*
X169655713Y-20897200D01*
X169655713Y-20897200D02*
X169703332Y-20849580D01*
X170036666Y-20278152D02*
X170417618Y-20278152D01*
X170179523Y-19944819D02*
X170179523Y-20801961D01*
X170179523Y-20801961D02*
X170227142Y-20897200D01*
X170227142Y-20897200D02*
X170322380Y-20944819D01*
X170322380Y-20944819D02*
X170417618Y-20944819D01*
X170703333Y-20897200D02*
X170798571Y-20944819D01*
X170798571Y-20944819D02*
X170989047Y-20944819D01*
X170989047Y-20944819D02*
X171084285Y-20897200D01*
X171084285Y-20897200D02*
X171131904Y-20801961D01*
X171131904Y-20801961D02*
X171131904Y-20754342D01*
X171131904Y-20754342D02*
X171084285Y-20659104D01*
X171084285Y-20659104D02*
X170989047Y-20611485D01*
X170989047Y-20611485D02*
X170846190Y-20611485D01*
X170846190Y-20611485D02*
X170750952Y-20563866D01*
X170750952Y-20563866D02*
X170703333Y-20468628D01*
X170703333Y-20468628D02*
X170703333Y-20421009D01*
X170703333Y-20421009D02*
X170750952Y-20325771D01*
X170750952Y-20325771D02*
X170846190Y-20278152D01*
X170846190Y-20278152D02*
X170989047Y-20278152D01*
X170989047Y-20278152D02*
X171084285Y-20325771D01*
X172274762Y-20897200D02*
X172370000Y-20944819D01*
X172370000Y-20944819D02*
X172560476Y-20944819D01*
X172560476Y-20944819D02*
X172655714Y-20897200D01*
X172655714Y-20897200D02*
X172703333Y-20801961D01*
X172703333Y-20801961D02*
X172703333Y-20754342D01*
X172703333Y-20754342D02*
X172655714Y-20659104D01*
X172655714Y-20659104D02*
X172560476Y-20611485D01*
X172560476Y-20611485D02*
X172417619Y-20611485D01*
X172417619Y-20611485D02*
X172322381Y-20563866D01*
X172322381Y-20563866D02*
X172274762Y-20468628D01*
X172274762Y-20468628D02*
X172274762Y-20421009D01*
X172274762Y-20421009D02*
X172322381Y-20325771D01*
X172322381Y-20325771D02*
X172417619Y-20278152D01*
X172417619Y-20278152D02*
X172560476Y-20278152D01*
X172560476Y-20278152D02*
X172655714Y-20325771D01*
X173131905Y-20944819D02*
X173131905Y-19944819D01*
X173560476Y-20944819D02*
X173560476Y-20421009D01*
X173560476Y-20421009D02*
X173512857Y-20325771D01*
X173512857Y-20325771D02*
X173417619Y-20278152D01*
X173417619Y-20278152D02*
X173274762Y-20278152D01*
X173274762Y-20278152D02*
X173179524Y-20325771D01*
X173179524Y-20325771D02*
X173131905Y-20373390D01*
X174179524Y-20944819D02*
X174084286Y-20897200D01*
X174084286Y-20897200D02*
X174036667Y-20849580D01*
X174036667Y-20849580D02*
X173989048Y-20754342D01*
X173989048Y-20754342D02*
X173989048Y-20468628D01*
X173989048Y-20468628D02*
X174036667Y-20373390D01*
X174036667Y-20373390D02*
X174084286Y-20325771D01*
X174084286Y-20325771D02*
X174179524Y-20278152D01*
X174179524Y-20278152D02*
X174322381Y-20278152D01*
X174322381Y-20278152D02*
X174417619Y-20325771D01*
X174417619Y-20325771D02*
X174465238Y-20373390D01*
X174465238Y-20373390D02*
X174512857Y-20468628D01*
X174512857Y-20468628D02*
X174512857Y-20754342D01*
X174512857Y-20754342D02*
X174465238Y-20849580D01*
X174465238Y-20849580D02*
X174417619Y-20897200D01*
X174417619Y-20897200D02*
X174322381Y-20944819D01*
X174322381Y-20944819D02*
X174179524Y-20944819D01*
X174846191Y-20278152D02*
X175036667Y-20944819D01*
X175036667Y-20944819D02*
X175227143Y-20468628D01*
X175227143Y-20468628D02*
X175417619Y-20944819D01*
X175417619Y-20944819D02*
X175608095Y-20278152D01*
X175989048Y-20278152D02*
X175989048Y-20944819D01*
X175989048Y-20373390D02*
X176036667Y-20325771D01*
X176036667Y-20325771D02*
X176131905Y-20278152D01*
X176131905Y-20278152D02*
X176274762Y-20278152D01*
X176274762Y-20278152D02*
X176370000Y-20325771D01*
X176370000Y-20325771D02*
X176417619Y-20421009D01*
X176417619Y-20421009D02*
X176417619Y-20944819D01*
X177798572Y-20944819D02*
X177703334Y-20897200D01*
X177703334Y-20897200D02*
X177655715Y-20849580D01*
X177655715Y-20849580D02*
X177608096Y-20754342D01*
X177608096Y-20754342D02*
X177608096Y-20468628D01*
X177608096Y-20468628D02*
X177655715Y-20373390D01*
X177655715Y-20373390D02*
X177703334Y-20325771D01*
X177703334Y-20325771D02*
X177798572Y-20278152D01*
X177798572Y-20278152D02*
X177941429Y-20278152D01*
X177941429Y-20278152D02*
X178036667Y-20325771D01*
X178036667Y-20325771D02*
X178084286Y-20373390D01*
X178084286Y-20373390D02*
X178131905Y-20468628D01*
X178131905Y-20468628D02*
X178131905Y-20754342D01*
X178131905Y-20754342D02*
X178084286Y-20849580D01*
X178084286Y-20849580D02*
X178036667Y-20897200D01*
X178036667Y-20897200D02*
X177941429Y-20944819D01*
X177941429Y-20944819D02*
X177798572Y-20944819D01*
X178560477Y-20278152D02*
X178560477Y-20944819D01*
X178560477Y-20373390D02*
X178608096Y-20325771D01*
X178608096Y-20325771D02*
X178703334Y-20278152D01*
X178703334Y-20278152D02*
X178846191Y-20278152D01*
X178846191Y-20278152D02*
X178941429Y-20325771D01*
X178941429Y-20325771D02*
X178989048Y-20421009D01*
X178989048Y-20421009D02*
X178989048Y-20944819D01*
X180227144Y-20944819D02*
X180227144Y-19944819D01*
X180227144Y-19944819D02*
X180465239Y-19944819D01*
X180465239Y-19944819D02*
X180608096Y-19992438D01*
X180608096Y-19992438D02*
X180703334Y-20087676D01*
X180703334Y-20087676D02*
X180750953Y-20182914D01*
X180750953Y-20182914D02*
X180798572Y-20373390D01*
X180798572Y-20373390D02*
X180798572Y-20516247D01*
X180798572Y-20516247D02*
X180750953Y-20706723D01*
X180750953Y-20706723D02*
X180703334Y-20801961D01*
X180703334Y-20801961D02*
X180608096Y-20897200D01*
X180608096Y-20897200D02*
X180465239Y-20944819D01*
X180465239Y-20944819D02*
X180227144Y-20944819D01*
X181131906Y-20278152D02*
X181322382Y-20944819D01*
X181322382Y-20944819D02*
X181512858Y-20468628D01*
X181512858Y-20468628D02*
X181703334Y-20944819D01*
X181703334Y-20944819D02*
X181893810Y-20278152D01*
X182703334Y-20278152D02*
X182703334Y-21087676D01*
X182703334Y-21087676D02*
X182655715Y-21182914D01*
X182655715Y-21182914D02*
X182608096Y-21230533D01*
X182608096Y-21230533D02*
X182512858Y-21278152D01*
X182512858Y-21278152D02*
X182370001Y-21278152D01*
X182370001Y-21278152D02*
X182274763Y-21230533D01*
X182703334Y-20897200D02*
X182608096Y-20944819D01*
X182608096Y-20944819D02*
X182417620Y-20944819D01*
X182417620Y-20944819D02*
X182322382Y-20897200D01*
X182322382Y-20897200D02*
X182274763Y-20849580D01*
X182274763Y-20849580D02*
X182227144Y-20754342D01*
X182227144Y-20754342D02*
X182227144Y-20468628D01*
X182227144Y-20468628D02*
X182274763Y-20373390D01*
X182274763Y-20373390D02*
X182322382Y-20325771D01*
X182322382Y-20325771D02*
X182417620Y-20278152D01*
X182417620Y-20278152D02*
X182608096Y-20278152D01*
X182608096Y-20278152D02*
X182703334Y-20325771D01*
X183131906Y-20897200D02*
X183227144Y-20944819D01*
X183227144Y-20944819D02*
X183417620Y-20944819D01*
X183417620Y-20944819D02*
X183512858Y-20897200D01*
X183512858Y-20897200D02*
X183560477Y-20801961D01*
X183560477Y-20801961D02*
X183560477Y-20754342D01*
X183560477Y-20754342D02*
X183512858Y-20659104D01*
X183512858Y-20659104D02*
X183417620Y-20611485D01*
X183417620Y-20611485D02*
X183274763Y-20611485D01*
X183274763Y-20611485D02*
X183179525Y-20563866D01*
X183179525Y-20563866D02*
X183131906Y-20468628D01*
X183131906Y-20468628D02*
X183131906Y-20421009D01*
X183131906Y-20421009D02*
X183179525Y-20325771D01*
X183179525Y-20325771D02*
X183274763Y-20278152D01*
X183274763Y-20278152D02*
X183417620Y-20278152D01*
X183417620Y-20278152D02*
X183512858Y-20325771D01*
X184893811Y-20944819D02*
X184798573Y-20897200D01*
X184798573Y-20897200D02*
X184750954Y-20801961D01*
X184750954Y-20801961D02*
X184750954Y-19944819D01*
X185703335Y-20944819D02*
X185703335Y-20421009D01*
X185703335Y-20421009D02*
X185655716Y-20325771D01*
X185655716Y-20325771D02*
X185560478Y-20278152D01*
X185560478Y-20278152D02*
X185370002Y-20278152D01*
X185370002Y-20278152D02*
X185274764Y-20325771D01*
X185703335Y-20897200D02*
X185608097Y-20944819D01*
X185608097Y-20944819D02*
X185370002Y-20944819D01*
X185370002Y-20944819D02*
X185274764Y-20897200D01*
X185274764Y-20897200D02*
X185227145Y-20801961D01*
X185227145Y-20801961D02*
X185227145Y-20706723D01*
X185227145Y-20706723D02*
X185274764Y-20611485D01*
X185274764Y-20611485D02*
X185370002Y-20563866D01*
X185370002Y-20563866D02*
X185608097Y-20563866D01*
X185608097Y-20563866D02*
X185703335Y-20516247D01*
X186084288Y-20278152D02*
X186322383Y-20944819D01*
X186560478Y-20278152D02*
X186322383Y-20944819D01*
X186322383Y-20944819D02*
X186227145Y-21182914D01*
X186227145Y-21182914D02*
X186179526Y-21230533D01*
X186179526Y-21230533D02*
X186084288Y-21278152D01*
X187322383Y-20897200D02*
X187227145Y-20944819D01*
X187227145Y-20944819D02*
X187036669Y-20944819D01*
X187036669Y-20944819D02*
X186941431Y-20897200D01*
X186941431Y-20897200D02*
X186893812Y-20801961D01*
X186893812Y-20801961D02*
X186893812Y-20421009D01*
X186893812Y-20421009D02*
X186941431Y-20325771D01*
X186941431Y-20325771D02*
X187036669Y-20278152D01*
X187036669Y-20278152D02*
X187227145Y-20278152D01*
X187227145Y-20278152D02*
X187322383Y-20325771D01*
X187322383Y-20325771D02*
X187370002Y-20421009D01*
X187370002Y-20421009D02*
X187370002Y-20516247D01*
X187370002Y-20516247D02*
X186893812Y-20611485D01*
X187798574Y-20944819D02*
X187798574Y-20278152D01*
X187798574Y-20468628D02*
X187846193Y-20373390D01*
X187846193Y-20373390D02*
X187893812Y-20325771D01*
X187893812Y-20325771D02*
X187989050Y-20278152D01*
X187989050Y-20278152D02*
X188084288Y-20278152D01*
M02*
