%TF.GenerationSoftware,KiCad,Pcbnew,8.0.6*%
%TF.CreationDate,2024-10-24T02:40:51+02:00*%
%TF.ProjectId,openautolab,6f70656e-6175-4746-9f6c-61622e6b6963,rev?*%
%TF.SameCoordinates,Original*%
%TF.FileFunction,Soldermask,Bot*%
%TF.FilePolarity,Negative*%
%FSLAX46Y46*%
G04 Gerber Fmt 4.6, Leading zero omitted, Abs format (unit mm)*
G04 Created by KiCad (PCBNEW 8.0.6) date 2024-10-24 02:40:51*
%MOMM*%
%LPD*%
G01*
G04 APERTURE LIST*
%ADD10R,1.700000X1.700000*%
%ADD11O,1.700000X1.700000*%
%ADD12R,2.400000X2.400000*%
%ADD13C,2.400000*%
%ADD14C,2.600000*%
%ADD15C,2.000000*%
%ADD16R,2.600000X2.600000*%
%ADD17R,1.600000X1.600000*%
%ADD18C,1.600000*%
%ADD19O,1.800000X1.800000*%
%ADD20O,1.500000X1.500000*%
%ADD21R,1.800000X1.800000*%
G04 APERTURE END LIST*
D10*
%TO.C,SW4*%
X173460000Y-104500000D03*
D11*
X176000000Y-104500000D03*
%TD*%
D12*
%TO.C,J4*%
X206185000Y-28255000D03*
D13*
X209685000Y-28255000D03*
%TD*%
D12*
%TO.C,J1*%
X78740000Y-43180000D03*
D13*
X82240000Y-43180000D03*
%TD*%
D14*
%TO.C,L1*%
X183000000Y-89000000D03*
X188000000Y-89000000D03*
%TD*%
D15*
%TO.C,SW0*%
X53190000Y-104140000D03*
X59690000Y-104140000D03*
X53190000Y-108640000D03*
X59690000Y-108640000D03*
%TD*%
D16*
%TO.C,J9*%
X115565000Y-46020000D03*
D14*
X120645000Y-46020000D03*
%TD*%
D10*
%TO.C,J14*%
X39345000Y-69835000D03*
D11*
X39345000Y-67295000D03*
X39345000Y-64755000D03*
%TD*%
D15*
%TO.C,SW2*%
X117960000Y-104140000D03*
X124460000Y-104140000D03*
X117960000Y-108640000D03*
X124460000Y-108640000D03*
%TD*%
%TO.C,SW1*%
X85650000Y-104140000D03*
X92150000Y-104140000D03*
X85650000Y-108640000D03*
X92150000Y-108640000D03*
%TD*%
D12*
%TO.C,J7*%
X197135000Y-37905000D03*
D13*
X200635000Y-37905000D03*
%TD*%
D10*
%TO.C,J15*%
X88900000Y-74930000D03*
D11*
X88900000Y-72390000D03*
X88900000Y-69850000D03*
X88900000Y-67310000D03*
%TD*%
D12*
%TO.C,J6*%
X188085000Y-37905000D03*
D13*
X191585000Y-37905000D03*
%TD*%
D12*
%TO.C,J5*%
X215235000Y-28255000D03*
D13*
X218735000Y-28255000D03*
%TD*%
D12*
%TO.C,J8*%
X206185000Y-37905000D03*
D13*
X209685000Y-37905000D03*
%TD*%
D17*
%TO.C,C1*%
X153500000Y-109902651D03*
D18*
X153500000Y-104902651D03*
%TD*%
D19*
%TO.C,U3*%
X170545000Y-26690000D03*
D20*
X170845000Y-29720000D03*
X175695000Y-29720000D03*
D19*
X175995000Y-26690000D03*
D11*
X164380000Y-26560000D03*
X164380000Y-29100000D03*
D10*
X164380000Y-31640000D03*
D11*
X164380000Y-34180000D03*
X164380000Y-36720000D03*
X164380000Y-39260000D03*
X164380000Y-41800000D03*
D10*
X164380000Y-44340000D03*
D11*
X164380000Y-46880000D03*
X164380000Y-49420000D03*
X164380000Y-51960000D03*
X164380000Y-54500000D03*
D10*
X164380000Y-57040000D03*
D11*
X164380000Y-59580000D03*
X164380000Y-62120000D03*
X164380000Y-64660000D03*
X164380000Y-67200000D03*
D10*
X164380000Y-69740000D03*
D11*
X164380000Y-72280000D03*
X164380000Y-74820000D03*
X182160000Y-74820000D03*
X182160000Y-72280000D03*
D10*
X182160000Y-69740000D03*
D11*
X182160000Y-67200000D03*
X182160000Y-64660000D03*
X182160000Y-62120000D03*
X182160000Y-59580000D03*
D10*
X182160000Y-57040000D03*
D11*
X182160000Y-54500000D03*
X182160000Y-51960000D03*
X182160000Y-49420000D03*
X182160000Y-46880000D03*
D10*
X182160000Y-44340000D03*
D11*
X182160000Y-41800000D03*
X182160000Y-39260000D03*
X182160000Y-36720000D03*
X182160000Y-34180000D03*
D10*
X182160000Y-31640000D03*
D11*
X182160000Y-29100000D03*
X182160000Y-26560000D03*
X170730000Y-74590000D03*
D10*
X173270000Y-74590000D03*
D11*
X175810000Y-74590000D03*
%TD*%
D10*
%TO.C,SW3*%
X121920000Y-58420000D03*
D11*
X124460000Y-58420000D03*
%TD*%
D12*
%TO.C,J3*%
X197135000Y-28255000D03*
D13*
X200635000Y-28255000D03*
%TD*%
D17*
%TO.C,C2*%
X80147349Y-94615000D03*
D18*
X85147349Y-94615000D03*
%TD*%
D21*
%TO.C,D1*%
X102870000Y-94742000D03*
D19*
X102870000Y-102362000D03*
%TD*%
D16*
%TO.C,J12*%
X162000000Y-91000000D03*
D14*
X162000000Y-96080000D03*
%TD*%
D12*
%TO.C,J2*%
X188085000Y-28255000D03*
D13*
X191585000Y-28255000D03*
%TD*%
D16*
%TO.C,J11*%
X134620000Y-55880000D03*
D14*
X134620000Y-60960000D03*
%TD*%
D16*
%TO.C,J10*%
X128265000Y-46020000D03*
D14*
X133345000Y-46020000D03*
%TD*%
D10*
%TO.C,J13*%
X45085000Y-88900000D03*
D11*
X45085000Y-86360000D03*
X45085000Y-83820000D03*
X45085000Y-81280000D03*
%TD*%
D21*
%TO.C,D10*%
X116840000Y-54610000D03*
D19*
X124460000Y-54610000D03*
%TD*%
M02*
