%TF.GenerationSoftware,KiCad,Pcbnew,8.0.5+1*%
%TF.CreationDate,2024-11-01T08:39:33+01:00*%
%TF.ProjectId,openautolab,6f70656e-6175-4746-9f6c-61622e6b6963,rev?*%
%TF.SameCoordinates,Original*%
%TF.FileFunction,Soldermask,Top*%
%TF.FilePolarity,Negative*%
%FSLAX46Y46*%
G04 Gerber Fmt 4.6, Leading zero omitted, Abs format (unit mm)*
G04 Created by KiCad (PCBNEW 8.0.5+1) date 2024-11-01 08:39:33*
%MOMM*%
%LPD*%
G01*
G04 APERTURE LIST*
G04 Aperture macros list*
%AMRoundRect*
0 Rectangle with rounded corners*
0 $1 Rounding radius*
0 $2 $3 $4 $5 $6 $7 $8 $9 X,Y pos of 4 corners*
0 Add a 4 corners polygon primitive as box body*
4,1,4,$2,$3,$4,$5,$6,$7,$8,$9,$2,$3,0*
0 Add four circle primitives for the rounded corners*
1,1,$1+$1,$2,$3*
1,1,$1+$1,$4,$5*
1,1,$1+$1,$6,$7*
1,1,$1+$1,$8,$9*
0 Add four rect primitives between the rounded corners*
20,1,$1+$1,$2,$3,$4,$5,0*
20,1,$1+$1,$4,$5,$6,$7,0*
20,1,$1+$1,$6,$7,$8,$9,0*
20,1,$1+$1,$8,$9,$2,$3,0*%
G04 Aperture macros list end*
%ADD10R,2.400000X2.400000*%
%ADD11C,2.400000*%
%ADD12RoundRect,0.150000X-0.587500X-0.150000X0.587500X-0.150000X0.587500X0.150000X-0.587500X0.150000X0*%
%ADD13RoundRect,0.200000X-0.200000X-0.275000X0.200000X-0.275000X0.200000X0.275000X-0.200000X0.275000X0*%
%ADD14RoundRect,0.112500X-0.187500X-0.112500X0.187500X-0.112500X0.187500X0.112500X-0.187500X0.112500X0*%
%ADD15R,2.600000X2.600000*%
%ADD16C,2.600000*%
%ADD17R,1.550000X1.300000*%
%ADD18RoundRect,0.150000X0.150000X-0.825000X0.150000X0.825000X-0.150000X0.825000X-0.150000X-0.825000X0*%
%ADD19R,3.300000X2.410000*%
%ADD20RoundRect,0.250000X1.750000X1.000000X-1.750000X1.000000X-1.750000X-1.000000X1.750000X-1.000000X0*%
%ADD21R,1.700000X1.700000*%
%ADD22O,1.700000X1.700000*%
%ADD23RoundRect,0.250000X-1.500000X-0.550000X1.500000X-0.550000X1.500000X0.550000X-1.500000X0.550000X0*%
%ADD24O,1.800000X1.800000*%
%ADD25O,1.500000X1.500000*%
%ADD26R,1.700000X3.500000*%
%ADD27R,3.500000X1.700000*%
%ADD28R,2.350000X1.000000*%
%ADD29RoundRect,0.250000X-0.300000X2.050000X-0.300000X-2.050000X0.300000X-2.050000X0.300000X2.050000X0*%
%ADD30RoundRect,0.250002X-5.149998X4.449998X-5.149998X-4.449998X5.149998X-4.449998X5.149998X4.449998X0*%
%ADD31R,5.400000X2.900000*%
%ADD32RoundRect,0.250000X-0.475000X0.250000X-0.475000X-0.250000X0.475000X-0.250000X0.475000X0.250000X0*%
G04 APERTURE END LIST*
D10*
%TO.C,J1*%
X96750000Y-39800000D03*
D11*
X100250000Y-39800000D03*
%TD*%
D12*
%TO.C,Q9*%
X131125000Y-51550000D03*
X131125000Y-53450000D03*
X133000000Y-52500000D03*
%TD*%
D10*
%TO.C,J8*%
X45750000Y-39800000D03*
D11*
X49250000Y-39800000D03*
%TD*%
D10*
%TO.C,J5*%
X62750000Y-39800000D03*
D11*
X66250000Y-39800000D03*
%TD*%
D13*
%TO.C,R13*%
X53350000Y-51500000D03*
X55000000Y-51500000D03*
%TD*%
D14*
%TO.C,D4*%
X82400000Y-46500000D03*
X84500000Y-46500000D03*
%TD*%
D15*
%TO.C,J11*%
X131000000Y-60000000D03*
D16*
X131000000Y-65080000D03*
%TD*%
D15*
%TO.C,J10*%
X126420000Y-42500000D03*
D16*
X131500000Y-42500000D03*
%TD*%
D13*
%TO.C,R3*%
X87350000Y-51500000D03*
X89000000Y-51500000D03*
%TD*%
D17*
%TO.C,SW1*%
X85025000Y-111750000D03*
X92975000Y-111750000D03*
X85025000Y-116250000D03*
X92975000Y-116250000D03*
%TD*%
D13*
%TO.C,R8*%
X70350000Y-49500000D03*
X72000000Y-49500000D03*
%TD*%
%TO.C,R10*%
X61850000Y-49500000D03*
X63500000Y-49500000D03*
%TD*%
D10*
%TO.C,J4*%
X71250000Y-39800000D03*
D11*
X74750000Y-39800000D03*
%TD*%
D10*
%TO.C,J2*%
X88250000Y-39800000D03*
D11*
X91750000Y-39800000D03*
%TD*%
D12*
%TO.C,Q1*%
X99625000Y-48550000D03*
X99625000Y-50450000D03*
X101500000Y-49500000D03*
%TD*%
D13*
%TO.C,R4*%
X87350000Y-49500000D03*
X89000000Y-49500000D03*
%TD*%
%TO.C,R15*%
X44850000Y-51500000D03*
X46500000Y-51500000D03*
%TD*%
D12*
%TO.C,Q7*%
X57125000Y-48550000D03*
X57125000Y-50450000D03*
X59000000Y-49500000D03*
%TD*%
D13*
%TO.C,R5*%
X78675000Y-51500000D03*
X80325000Y-51500000D03*
%TD*%
D17*
%TO.C,SW2*%
X104025000Y-111750000D03*
X111975000Y-111750000D03*
X104025000Y-116250000D03*
X111975000Y-116250000D03*
%TD*%
D10*
%TO.C,J3*%
X79750000Y-39800000D03*
D11*
X83250000Y-39800000D03*
%TD*%
D17*
%TO.C,SW0*%
X66025000Y-111750000D03*
X73975000Y-111750000D03*
X66025000Y-116250000D03*
X73975000Y-116250000D03*
%TD*%
D18*
%TO.C,U4*%
X114770000Y-55075000D03*
X116040000Y-55075000D03*
X117310000Y-55075000D03*
X118580000Y-55075000D03*
X118580000Y-50125000D03*
X117310000Y-50125000D03*
X116040000Y-50125000D03*
X114770000Y-50125000D03*
D19*
X116675000Y-52600000D03*
%TD*%
D14*
%TO.C,D3*%
X90900000Y-46500000D03*
X93000000Y-46500000D03*
%TD*%
%TO.C,D8*%
X56900000Y-46500000D03*
X59000000Y-46500000D03*
%TD*%
D13*
%TO.C,R7*%
X70350000Y-51500000D03*
X72000000Y-51500000D03*
%TD*%
D20*
%TO.C,C1*%
X122000000Y-63500000D03*
X114000000Y-63500000D03*
%TD*%
D12*
%TO.C,Q4*%
X74125000Y-48550000D03*
X74125000Y-50450000D03*
X76000000Y-49500000D03*
%TD*%
%TO.C,Q8*%
X48625000Y-48550000D03*
X48625000Y-50450000D03*
X50500000Y-49500000D03*
%TD*%
D14*
%TO.C,D5*%
X73900000Y-46500000D03*
X76000000Y-46500000D03*
%TD*%
D21*
%TO.C,J14*%
X43000000Y-111500000D03*
D22*
X43000000Y-108960000D03*
X43000000Y-106420000D03*
%TD*%
D10*
%TO.C,J7*%
X54250000Y-39800000D03*
D11*
X57750000Y-39800000D03*
%TD*%
D14*
%TO.C,D11*%
X131400000Y-49500000D03*
X133500000Y-49500000D03*
%TD*%
D21*
%TO.C,J13*%
X47675000Y-97800000D03*
D22*
X47675000Y-95260000D03*
X47675000Y-92720000D03*
X47675000Y-90180000D03*
%TD*%
D15*
%TO.C,J12*%
X131000000Y-106500000D03*
D16*
X131000000Y-111580000D03*
%TD*%
D13*
%TO.C,R1*%
X95850000Y-51500000D03*
X97500000Y-51500000D03*
%TD*%
D12*
%TO.C,Q6*%
X108125000Y-48550000D03*
X108125000Y-50450000D03*
X110000000Y-49500000D03*
%TD*%
D13*
%TO.C,R12*%
X104350000Y-49500000D03*
X106000000Y-49500000D03*
%TD*%
D10*
%TO.C,J6*%
X105250000Y-39800000D03*
D11*
X108750000Y-39800000D03*
%TD*%
D23*
%TO.C,C2*%
X102600000Y-59500000D03*
X108000000Y-59500000D03*
%TD*%
D15*
%TO.C,J9*%
X114455000Y-42500000D03*
D16*
X119535000Y-42500000D03*
%TD*%
D24*
%TO.C,U3*%
X45310000Y-70115000D03*
D25*
X48340000Y-69815000D03*
X48340000Y-64965000D03*
D24*
X45310000Y-64665000D03*
D22*
X45180000Y-76280000D03*
D26*
X45180000Y-77180000D03*
D22*
X47720000Y-76280000D03*
D26*
X47720000Y-77180000D03*
D21*
X50260000Y-76280000D03*
D26*
X50260000Y-77180000D03*
D22*
X52800000Y-76280000D03*
D26*
X52800000Y-77180000D03*
D22*
X55340000Y-76280000D03*
D26*
X55340000Y-77180000D03*
D22*
X57880000Y-76280000D03*
D26*
X57880000Y-77180000D03*
D22*
X60420000Y-76280000D03*
D26*
X60420000Y-77180000D03*
D21*
X62960000Y-76280000D03*
D26*
X62960000Y-77180000D03*
D22*
X65500000Y-76280000D03*
D26*
X65500000Y-77180000D03*
D22*
X68040000Y-76280000D03*
D26*
X68040000Y-77180000D03*
D22*
X70580000Y-76280000D03*
D26*
X70580000Y-77180000D03*
D22*
X73120000Y-76280000D03*
D26*
X73120000Y-77180000D03*
D21*
X75660000Y-76280000D03*
D26*
X75660000Y-77180000D03*
D22*
X78200000Y-76280000D03*
D26*
X78200000Y-77180000D03*
D22*
X80740000Y-76280000D03*
D26*
X80740000Y-77180000D03*
D22*
X83280000Y-76280000D03*
D26*
X83280000Y-77180000D03*
D22*
X85820000Y-76280000D03*
D26*
X85820000Y-77180000D03*
D21*
X88360000Y-76280000D03*
D26*
X88360000Y-77180000D03*
D22*
X90900000Y-76280000D03*
D26*
X90900000Y-77180000D03*
D22*
X93440000Y-76280000D03*
D26*
X93440000Y-77180000D03*
D22*
X93440000Y-58500000D03*
D26*
X93440000Y-57600000D03*
D22*
X90900000Y-58500000D03*
D26*
X90900000Y-57600000D03*
D21*
X88360000Y-58500000D03*
D26*
X88360000Y-57600000D03*
D22*
X85820000Y-58500000D03*
D26*
X85820000Y-57600000D03*
D22*
X83280000Y-58500000D03*
D26*
X83280000Y-57600000D03*
D22*
X80740000Y-58500000D03*
D26*
X80740000Y-57600000D03*
D22*
X78200000Y-58500000D03*
D26*
X78200000Y-57600000D03*
D21*
X75660000Y-58500000D03*
D26*
X75660000Y-57600000D03*
D22*
X73120000Y-58500000D03*
D26*
X73120000Y-57600000D03*
D22*
X70580000Y-58500000D03*
D26*
X70580000Y-57600000D03*
D22*
X68040000Y-58500000D03*
D26*
X68040000Y-57600000D03*
D22*
X65500000Y-58500000D03*
D26*
X65500000Y-57600000D03*
D21*
X62960000Y-58500000D03*
D26*
X62960000Y-57600000D03*
D22*
X60420000Y-58500000D03*
D26*
X60420000Y-57600000D03*
D22*
X57880000Y-58500000D03*
D26*
X57880000Y-57600000D03*
D22*
X55340000Y-58500000D03*
D26*
X55340000Y-57600000D03*
D22*
X52800000Y-58500000D03*
D26*
X52800000Y-57600000D03*
D21*
X50260000Y-58500000D03*
D26*
X50260000Y-57600000D03*
D22*
X47720000Y-58500000D03*
D26*
X47720000Y-57600000D03*
D22*
X45180000Y-58500000D03*
D26*
X45180000Y-57600000D03*
D22*
X93210000Y-69930000D03*
D27*
X94110000Y-69930000D03*
D21*
X93210000Y-67390000D03*
D27*
X94110000Y-67390000D03*
D22*
X93210000Y-64850000D03*
D27*
X94110000Y-64850000D03*
%TD*%
D13*
%TO.C,R6*%
X78675000Y-49500000D03*
X80325000Y-49500000D03*
%TD*%
%TO.C,R2*%
X95850000Y-49500000D03*
X97500000Y-49500000D03*
%TD*%
D28*
%TO.C,SW3*%
X127670000Y-72000000D03*
X127670000Y-74000000D03*
X127670000Y-76000000D03*
X134330000Y-72000000D03*
X134330000Y-74000000D03*
X134330000Y-76000000D03*
%TD*%
D13*
%TO.C,R9*%
X61850000Y-51500000D03*
X63500000Y-51500000D03*
%TD*%
D14*
%TO.C,D7*%
X107900000Y-46500000D03*
X110000000Y-46500000D03*
%TD*%
D13*
%TO.C,R14*%
X53350000Y-49500000D03*
X55000000Y-49500000D03*
%TD*%
D14*
%TO.C,D6*%
X65400000Y-46500000D03*
X67500000Y-46500000D03*
%TD*%
D13*
%TO.C,R16*%
X44850000Y-49500000D03*
X46500000Y-49500000D03*
%TD*%
D14*
%TO.C,D2*%
X99400000Y-46500000D03*
X101500000Y-46500000D03*
%TD*%
D12*
%TO.C,Q2*%
X91125000Y-48550000D03*
X91125000Y-50450000D03*
X93000000Y-49500000D03*
%TD*%
%TO.C,Q5*%
X65625000Y-48550000D03*
X65625000Y-50450000D03*
X67500000Y-49500000D03*
%TD*%
D29*
%TO.C,U2*%
X121400000Y-73350000D03*
X119700000Y-73350000D03*
X118000000Y-73350000D03*
D30*
X118000000Y-82500000D03*
D29*
X116300000Y-73350000D03*
X114600000Y-73350000D03*
%TD*%
D31*
%TO.C,L1*%
X104500000Y-67550000D03*
X104500000Y-77450000D03*
%TD*%
D14*
%TO.C,D9*%
X48500000Y-46500000D03*
X50600000Y-46500000D03*
%TD*%
D13*
%TO.C,R17*%
X127350000Y-54500000D03*
X129000000Y-54500000D03*
%TD*%
D12*
%TO.C,Q3*%
X82625000Y-48550000D03*
X82625000Y-50450000D03*
X84500000Y-49500000D03*
%TD*%
D21*
%TO.C,J15*%
X85200000Y-82975000D03*
D22*
X87740000Y-82975000D03*
X90280000Y-82975000D03*
X92820000Y-82975000D03*
%TD*%
D14*
%TO.C,D1*%
X107150000Y-81500000D03*
X109250000Y-81500000D03*
%TD*%
D32*
%TO.C,C3*%
X120500000Y-49500000D03*
X120500000Y-51400000D03*
%TD*%
D13*
%TO.C,R11*%
X104350000Y-51500000D03*
X106000000Y-51500000D03*
%TD*%
%TO.C,R18*%
X127350000Y-52500000D03*
X129000000Y-52500000D03*
%TD*%
M02*
