%TF.GenerationSoftware,KiCad,Pcbnew,7.0.8*%
%TF.CreationDate,2024-01-17T19:39:17+01:00*%
%TF.ProjectId,openautolab,6f70656e-6175-4746-9f6c-61622e6b6963,rev?*%
%TF.SameCoordinates,Original*%
%TF.FileFunction,Copper,L1,Top*%
%TF.FilePolarity,Positive*%
%FSLAX46Y46*%
G04 Gerber Fmt 4.6, Leading zero omitted, Abs format (unit mm)*
G04 Created by KiCad (PCBNEW 7.0.8) date 2024-01-17 19:39:17*
%MOMM*%
%LPD*%
G01*
G04 APERTURE LIST*
G04 Aperture macros list*
%AMRoundRect*
0 Rectangle with rounded corners*
0 $1 Rounding radius*
0 $2 $3 $4 $5 $6 $7 $8 $9 X,Y pos of 4 corners*
0 Add a 4 corners polygon primitive as box body*
4,1,4,$2,$3,$4,$5,$6,$7,$8,$9,$2,$3,0*
0 Add four circle primitives for the rounded corners*
1,1,$1+$1,$2,$3*
1,1,$1+$1,$4,$5*
1,1,$1+$1,$6,$7*
1,1,$1+$1,$8,$9*
0 Add four rect primitives between the rounded corners*
20,1,$1+$1,$2,$3,$4,$5,0*
20,1,$1+$1,$4,$5,$6,$7,0*
20,1,$1+$1,$6,$7,$8,$9,0*
20,1,$1+$1,$8,$9,$2,$3,0*%
G04 Aperture macros list end*
%TA.AperFunction,ComponentPad*%
%ADD10O,1.700000X1.700000*%
%TD*%
%TA.AperFunction,ComponentPad*%
%ADD11R,1.700000X1.700000*%
%TD*%
%TA.AperFunction,ComponentPad*%
%ADD12R,2.400000X2.400000*%
%TD*%
%TA.AperFunction,ComponentPad*%
%ADD13C,2.400000*%
%TD*%
%TA.AperFunction,SMDPad,CuDef*%
%ADD14RoundRect,0.200000X0.200000X0.275000X-0.200000X0.275000X-0.200000X-0.275000X0.200000X-0.275000X0*%
%TD*%
%TA.AperFunction,SMDPad,CuDef*%
%ADD15R,1.550000X1.300000*%
%TD*%
%TA.AperFunction,SMDPad,CuDef*%
%ADD16RoundRect,0.150000X0.150000X-0.587500X0.150000X0.587500X-0.150000X0.587500X-0.150000X-0.587500X0*%
%TD*%
%TA.AperFunction,SMDPad,CuDef*%
%ADD17RoundRect,0.200000X-0.200000X-0.275000X0.200000X-0.275000X0.200000X0.275000X-0.200000X0.275000X0*%
%TD*%
%TA.AperFunction,ComponentPad*%
%ADD18R,2.600000X2.600000*%
%TD*%
%TA.AperFunction,ComponentPad*%
%ADD19C,2.600000*%
%TD*%
%TA.AperFunction,SMDPad,CuDef*%
%ADD20R,4.600000X1.100000*%
%TD*%
%TA.AperFunction,SMDPad,CuDef*%
%ADD21R,9.400000X10.800000*%
%TD*%
%TA.AperFunction,SMDPad,CuDef*%
%ADD22RoundRect,0.112500X0.187500X0.112500X-0.187500X0.112500X-0.187500X-0.112500X0.187500X-0.112500X0*%
%TD*%
%TA.AperFunction,SMDPad,CuDef*%
%ADD23RoundRect,0.250000X-1.500000X-0.550000X1.500000X-0.550000X1.500000X0.550000X-1.500000X0.550000X0*%
%TD*%
%TA.AperFunction,SMDPad,CuDef*%
%ADD24RoundRect,0.250000X-1.000000X1.500000X-1.000000X-1.500000X1.000000X-1.500000X1.000000X1.500000X0*%
%TD*%
%TA.AperFunction,SMDPad,CuDef*%
%ADD25RoundRect,0.112500X0.112500X-0.187500X0.112500X0.187500X-0.112500X0.187500X-0.112500X-0.187500X0*%
%TD*%
%TA.AperFunction,SMDPad,CuDef*%
%ADD26R,2.900000X5.400000*%
%TD*%
%TA.AperFunction,ComponentPad*%
%ADD27C,0.630000*%
%TD*%
%TA.AperFunction,SMDPad,CuDef*%
%ADD28R,4.900000X2.950000*%
%TD*%
%TA.AperFunction,SMDPad,CuDef*%
%ADD29R,0.500000X2.200000*%
%TD*%
%TA.AperFunction,ComponentPad*%
%ADD30O,1.600000X1.600000*%
%TD*%
%TA.AperFunction,ComponentPad*%
%ADD31R,1.600000X1.600000*%
%TD*%
%TA.AperFunction,SMDPad,CuDef*%
%ADD32RoundRect,0.112500X-0.112500X0.187500X-0.112500X-0.187500X0.112500X-0.187500X0.112500X0.187500X0*%
%TD*%
%TA.AperFunction,ViaPad*%
%ADD33C,2.000000*%
%TD*%
%TA.AperFunction,ViaPad*%
%ADD34C,0.600000*%
%TD*%
%TA.AperFunction,Conductor*%
%ADD35C,1.000000*%
%TD*%
%TA.AperFunction,Conductor*%
%ADD36C,0.250000*%
%TD*%
%TA.AperFunction,Conductor*%
%ADD37C,0.629800*%
%TD*%
%TA.AperFunction,Conductor*%
%ADD38C,2.000000*%
%TD*%
G04 APERTURE END LIST*
D10*
%TO.P,SW4,2,B*%
%TO.N,+12V*%
X139700000Y-101600000D03*
D11*
%TO.P,SW4,1,A*%
%TO.N,Net-(J12-Pin_2)*%
X137160000Y-101600000D03*
%TD*%
D12*
%TO.P,J3,1,Pin_1*%
%TO.N,Net-(D3-A)*%
X60960000Y-43180000D03*
D13*
%TO.P,J3,2,Pin_2*%
%TO.N,+12V*%
X64460000Y-43180000D03*
%TD*%
D14*
%TO.P,R9,2*%
%TO.N,Net-(Q5-G)*%
X78077500Y-59027500D03*
%TO.P,R9,1*%
%TO.N,Net-(A1-D8)*%
X79727500Y-59027500D03*
%TD*%
D12*
%TO.P,J5,1,Pin_1*%
%TO.N,Net-(D5-A)*%
X78740000Y-43180000D03*
D13*
%TO.P,J5,2,Pin_2*%
%TO.N,+12V*%
X82240000Y-43180000D03*
%TD*%
D15*
%TO.P,SW0,1,1*%
%TO.N,Net-(A1-A3)*%
X48095000Y-103160000D03*
X56045000Y-103160000D03*
%TO.P,SW0,2,2*%
%TO.N,GND*%
X48095000Y-107660000D03*
X56045000Y-107660000D03*
%TD*%
D14*
%TO.P,R15,2*%
%TO.N,Net-(Q8-G)*%
X104747500Y-59027500D03*
%TO.P,R15,1*%
%TO.N,Net-(A1-D11)*%
X106397500Y-59027500D03*
%TD*%
D16*
%TO.P,Q2,1,G*%
%TO.N,Net-(Q2-G)*%
X51120000Y-53945000D03*
%TO.P,Q2,2,S*%
%TO.N,GND*%
X53020000Y-53945000D03*
%TO.P,Q2,3,D*%
%TO.N,Net-(D2-A)*%
X52070000Y-52070000D03*
%TD*%
D17*
%TO.P,R14,1*%
%TO.N,Net-(Q7-G)*%
X95857500Y-56487500D03*
%TO.P,R14,2*%
%TO.N,GND*%
X97507500Y-56487500D03*
%TD*%
D16*
%TO.P,Q7,1,G*%
%TO.N,Net-(Q7-G)*%
X95857500Y-53947500D03*
%TO.P,Q7,2,S*%
%TO.N,GND*%
X97757500Y-53947500D03*
%TO.P,Q7,3,D*%
%TO.N,Net-(D7-A)*%
X96807500Y-52072500D03*
%TD*%
D18*
%TO.P,J9,1,Pin_1*%
%TO.N,Net-(J9-Pin_1)*%
X115565000Y-46020000D03*
D19*
%TO.P,J9,2,Pin_2*%
%TO.N,Net-(J9-Pin_2)*%
X120645000Y-46020000D03*
%TD*%
D11*
%TO.P,J14,1,Pin_1*%
%TO.N,GND*%
X38075000Y-69835000D03*
D10*
%TO.P,J14,2,Pin_2*%
%TO.N,+5V*%
X38075000Y-67295000D03*
%TO.P,J14,3,Pin_3*%
%TO.N,Net-(A1-D4)*%
X38075000Y-64755000D03*
%TD*%
D20*
%TO.P,U2,1,VIN*%
%TO.N,+5V*%
X110865000Y-97615000D03*
%TO.P,U2,2,OUT*%
%TO.N,GND*%
X110865000Y-95915000D03*
%TO.P,U2,3,GND*%
X110865000Y-94215000D03*
D21*
X101715000Y-94215000D03*
D20*
%TO.P,U2,4,FB*%
%TO.N,+12V*%
X110865000Y-92515000D03*
%TO.P,U2,5,~{ON}/OFF*%
%TO.N,Net-(D9-K)*%
X110865000Y-90815000D03*
%TD*%
D16*
%TO.P,Q5,1,G*%
%TO.N,Net-(Q5-G)*%
X78077500Y-53947500D03*
%TO.P,Q5,2,S*%
%TO.N,GND*%
X79977500Y-53947500D03*
%TO.P,Q5,3,D*%
%TO.N,Net-(D5-A)*%
X79027500Y-52072500D03*
%TD*%
%TO.P,Q3,1,G*%
%TO.N,Net-(Q3-G)*%
X60297500Y-53947500D03*
%TO.P,Q3,2,S*%
%TO.N,GND*%
X62197500Y-53947500D03*
%TO.P,Q3,3,D*%
%TO.N,Net-(D3-A)*%
X61247500Y-52072500D03*
%TD*%
D12*
%TO.P,J2,1,Pin_1*%
%TO.N,Net-(D2-A)*%
X52070000Y-43180000D03*
D13*
%TO.P,J2,2,Pin_2*%
%TO.N,+12V*%
X55570000Y-43180000D03*
%TD*%
D14*
%TO.P,R11,1*%
%TO.N,Net-(A1-D9)*%
X88617500Y-58582500D03*
%TO.P,R11,2*%
%TO.N,Net-(Q6-G)*%
X86967500Y-58582500D03*
%TD*%
D17*
%TO.P,R16,1*%
%TO.N,Net-(Q8-G)*%
X104747500Y-56487500D03*
%TO.P,R16,2*%
%TO.N,GND*%
X106397500Y-56487500D03*
%TD*%
%TO.P,R6,2*%
%TO.N,GND*%
X61947500Y-56487500D03*
%TO.P,R6,1*%
%TO.N,Net-(Q3-G)*%
X60297500Y-56487500D03*
%TD*%
D12*
%TO.P,J8,1,Pin_1*%
%TO.N,Net-(D8-A)*%
X105410000Y-43180000D03*
D13*
%TO.P,J8,2,Pin_2*%
%TO.N,+12V*%
X108910000Y-43180000D03*
%TD*%
D22*
%TO.P,D2,2,A*%
%TO.N,Net-(D2-A)*%
X52290000Y-49530000D03*
%TO.P,D2,1,K*%
%TO.N,+12V*%
X54390000Y-49530000D03*
%TD*%
D23*
%TO.P,C1,1*%
%TO.N,+5V*%
X79750000Y-80010000D03*
%TO.P,C1,2*%
%TO.N,GND*%
X85350000Y-80010000D03*
%TD*%
D24*
%TO.P,C2,1*%
%TO.N,+12V*%
X120650000Y-91440000D03*
%TO.P,C2,2*%
%TO.N,GND*%
X120650000Y-97940000D03*
%TD*%
D11*
%TO.P,J15,1,Pin_1*%
%TO.N,GND*%
X48260000Y-71120000D03*
D10*
%TO.P,J15,2,Pin_2*%
%TO.N,+5V*%
X48260000Y-68580000D03*
%TO.P,J15,3,Pin_3*%
%TO.N,Net-(A1-A4)*%
X48260000Y-66040000D03*
%TO.P,J15,4,Pin_4*%
%TO.N,Net-(A1-A5)*%
X48260000Y-63500000D03*
%TD*%
D12*
%TO.P,J4,1,Pin_1*%
%TO.N,Net-(D4-A)*%
X69850000Y-43180000D03*
D13*
%TO.P,J4,2,Pin_2*%
%TO.N,+12V*%
X73350000Y-43180000D03*
%TD*%
D14*
%TO.P,R5,2*%
%TO.N,Net-(Q3-G)*%
X60297500Y-59027500D03*
%TO.P,R5,1*%
%TO.N,Net-(A1-D6)*%
X61947500Y-59027500D03*
%TD*%
D22*
%TO.P,D5,2,A*%
%TO.N,Net-(D5-A)*%
X80010000Y-49530000D03*
%TO.P,D5,1,K*%
%TO.N,+12V*%
X82110000Y-49530000D03*
%TD*%
D14*
%TO.P,R7,1*%
%TO.N,Net-(A1-D7)*%
X70837500Y-59027500D03*
%TO.P,R7,2*%
%TO.N,Net-(Q4-G)*%
X69187500Y-59027500D03*
%TD*%
D17*
%TO.P,R10,1*%
%TO.N,Net-(Q5-G)*%
X78077500Y-56487500D03*
%TO.P,R10,2*%
%TO.N,GND*%
X79727500Y-56487500D03*
%TD*%
D14*
%TO.P,R13,2*%
%TO.N,Net-(Q7-G)*%
X95857500Y-59027500D03*
%TO.P,R13,1*%
%TO.N,Net-(A1-D10)*%
X97507500Y-59027500D03*
%TD*%
D22*
%TO.P,D7,1,K*%
%TO.N,+12V*%
X100110000Y-49530000D03*
%TO.P,D7,2,A*%
%TO.N,Net-(D7-A)*%
X98010000Y-49530000D03*
%TD*%
%TO.P,D9,2,A*%
%TO.N,GND*%
X89120000Y-49530000D03*
%TO.P,D9,1,K*%
%TO.N,Net-(D9-K)*%
X91220000Y-49530000D03*
%TD*%
D17*
%TO.P,R8,1*%
%TO.N,Net-(Q4-G)*%
X69187500Y-56487500D03*
%TO.P,R8,2*%
%TO.N,GND*%
X70837500Y-56487500D03*
%TD*%
D16*
%TO.P,Q1,3,D*%
%TO.N,Net-(D1-A)*%
X44450000Y-52070000D03*
%TO.P,Q1,2,S*%
%TO.N,GND*%
X45400000Y-53945000D03*
%TO.P,Q1,1,G*%
%TO.N,Net-(Q1-G)*%
X43500000Y-53945000D03*
%TD*%
D22*
%TO.P,D3,2,A*%
%TO.N,Net-(D3-A)*%
X61180000Y-49530000D03*
%TO.P,D3,1,K*%
%TO.N,+12V*%
X63280000Y-49530000D03*
%TD*%
D16*
%TO.P,Q6,1,G*%
%TO.N,Net-(Q6-G)*%
X86967500Y-53947500D03*
%TO.P,Q6,2,S*%
%TO.N,GND*%
X88867500Y-53947500D03*
%TO.P,Q6,3,D*%
%TO.N,Net-(D6-A)*%
X87917500Y-52072500D03*
%TD*%
D15*
%TO.P,SW2,1,1*%
%TO.N,Net-(A1-A1)*%
X121755000Y-103160000D03*
X129705000Y-103160000D03*
%TO.P,SW2,2,2*%
%TO.N,GND*%
X121755000Y-107660000D03*
X129705000Y-107660000D03*
%TD*%
D11*
%TO.P,SW3,1,A*%
%TO.N,Net-(D10-A)*%
X124460000Y-59690000D03*
D10*
%TO.P,SW3,2,B*%
%TO.N,Net-(J11-Pin_2)*%
X124460000Y-62230000D03*
%TD*%
D15*
%TO.P,SW1,1,1*%
%TO.N,Net-(A1-A2)*%
X84925000Y-103160000D03*
X92875000Y-103160000D03*
%TO.P,SW1,2,2*%
%TO.N,GND*%
X84925000Y-107660000D03*
X92875000Y-107660000D03*
%TD*%
D16*
%TO.P,Q8,1,G*%
%TO.N,Net-(Q8-G)*%
X104747500Y-53947500D03*
%TO.P,Q8,2,S*%
%TO.N,GND*%
X106647500Y-53947500D03*
%TO.P,Q8,3,D*%
%TO.N,Net-(D8-A)*%
X105697500Y-52072500D03*
%TD*%
%TO.P,Q4,1,G*%
%TO.N,Net-(Q4-G)*%
X69187500Y-53947500D03*
%TO.P,Q4,2,S*%
%TO.N,GND*%
X71087500Y-53947500D03*
%TO.P,Q4,3,D*%
%TO.N,Net-(D4-A)*%
X70137500Y-52072500D03*
%TD*%
D25*
%TO.P,D8,2,A*%
%TO.N,Net-(D8-A)*%
X91440000Y-80450000D03*
%TO.P,D8,1,K*%
%TO.N,+12V*%
X91440000Y-82550000D03*
%TD*%
D12*
%TO.P,J6,1,Pin_1*%
%TO.N,Net-(D6-A)*%
X87630000Y-43180000D03*
D13*
%TO.P,J6,2,Pin_2*%
%TO.N,+12V*%
X91130000Y-43180000D03*
%TD*%
D26*
%TO.P,L1,1,1*%
%TO.N,Net-(D9-K)*%
X80140000Y-92710000D03*
%TO.P,L1,2,2*%
%TO.N,+5V*%
X90040000Y-92710000D03*
%TD*%
D27*
%TO.P,U1,9,GND*%
%TO.N,GND*%
X118140000Y-59660000D03*
X116840000Y-59660000D03*
X115540000Y-59660000D03*
D28*
X116840000Y-60310000D03*
D27*
X118140000Y-60960000D03*
X116840000Y-60960000D03*
X115540000Y-60960000D03*
D29*
%TO.P,U1,8,OUT2*%
%TO.N,Net-(J9-Pin_1)*%
X114935000Y-57435000D03*
%TO.P,U1,7,ISEN*%
%TO.N,GND*%
X116205000Y-57435000D03*
%TO.P,U1,6,OUT1*%
%TO.N,Net-(J9-Pin_2)*%
X117475000Y-57435000D03*
%TO.P,U1,5,VM*%
%TO.N,+12V*%
X118745000Y-57435000D03*
%TO.P,U1,4,VREF*%
%TO.N,+5V*%
X118745000Y-63185000D03*
%TO.P,U1,3,IN1*%
%TO.N,Net-(A1-D13)*%
X117475000Y-63185000D03*
%TO.P,U1,2,IN2*%
%TO.N,Net-(A1-D12)*%
X116205000Y-63185000D03*
%TO.P,U1,1,GND*%
%TO.N,GND*%
X114935000Y-63185000D03*
%TD*%
D14*
%TO.P,R3,2*%
%TO.N,Net-(Q2-G)*%
X51120000Y-59025000D03*
%TO.P,R3,1*%
%TO.N,Net-(A1-D5)*%
X52770000Y-59025000D03*
%TD*%
D12*
%TO.P,J7,1,Pin_1*%
%TO.N,Net-(D7-A)*%
X96520000Y-43180000D03*
D13*
%TO.P,J7,2,Pin_2*%
%TO.N,+12V*%
X100020000Y-43180000D03*
%TD*%
D22*
%TO.P,D4,2,A*%
%TO.N,Net-(D4-A)*%
X71120000Y-49530000D03*
%TO.P,D4,1,K*%
%TO.N,+12V*%
X73220000Y-49530000D03*
%TD*%
D19*
%TO.P,J12,2,Pin_2*%
%TO.N,Net-(J12-Pin_2)*%
X134620000Y-95245000D03*
D18*
%TO.P,J12,1,Pin_1*%
%TO.N,GND*%
X134620000Y-90165000D03*
%TD*%
D12*
%TO.P,J1,1,Pin_1*%
%TO.N,Net-(D1-A)*%
X43180000Y-43180000D03*
D13*
%TO.P,J1,2,Pin_2*%
%TO.N,+12V*%
X46680000Y-43180000D03*
%TD*%
D14*
%TO.P,R2,1*%
%TO.N,Net-(A1-A0)*%
X45150000Y-59025000D03*
%TO.P,R2,2*%
%TO.N,Net-(Q1-G)*%
X43500000Y-59025000D03*
%TD*%
D22*
%TO.P,D6,2,A*%
%TO.N,Net-(D6-A)*%
X106680000Y-49530000D03*
%TO.P,D6,1,K*%
%TO.N,+12V*%
X108780000Y-49530000D03*
%TD*%
D30*
%TO.P,A1,30,VIN*%
%TO.N,unconnected-(A1-VIN-Pad30)*%
X100330000Y-68570000D03*
%TO.P,A1,29,GND*%
%TO.N,GND*%
X102870000Y-68570000D03*
%TO.P,A1,28,~{RESET}*%
%TO.N,unconnected-(A1-~{RESET}-Pad28)*%
X105410000Y-68570000D03*
%TO.P,A1,27,+5V*%
%TO.N,+5V*%
X107950000Y-68570000D03*
%TO.P,A1,26,A7*%
%TO.N,unconnected-(A1-A7-Pad26)*%
X110490000Y-68570000D03*
%TO.P,A1,25,A6*%
%TO.N,unconnected-(A1-A6-Pad25)*%
X113030000Y-68570000D03*
%TO.P,A1,24,A5*%
%TO.N,Net-(A1-A5)*%
X115570000Y-68570000D03*
%TO.P,A1,23,A4*%
%TO.N,Net-(A1-A4)*%
X118110000Y-68570000D03*
%TO.P,A1,22,A3*%
%TO.N,Net-(A1-A3)*%
X120650000Y-68570000D03*
%TO.P,A1,21,A2*%
%TO.N,Net-(A1-A2)*%
X123190000Y-68570000D03*
%TO.P,A1,20,A1*%
%TO.N,Net-(A1-A1)*%
X125730000Y-68570000D03*
%TO.P,A1,19,A0*%
%TO.N,Net-(A1-A0)*%
X128270000Y-68570000D03*
%TO.P,A1,18,AREF*%
%TO.N,unconnected-(A1-AREF-Pad18)*%
X130810000Y-68570000D03*
%TO.P,A1,17,3V3*%
%TO.N,unconnected-(A1-3V3-Pad17)*%
X133350000Y-68570000D03*
%TO.P,A1,16,D13*%
%TO.N,Net-(A1-D13)*%
X135890000Y-68570000D03*
%TO.P,A1,15,D12*%
%TO.N,Net-(A1-D12)*%
X135890000Y-83810000D03*
%TO.P,A1,14,D11*%
%TO.N,Net-(A1-D11)*%
X133350000Y-83810000D03*
%TO.P,A1,13,D10*%
%TO.N,Net-(A1-D10)*%
X130810000Y-83810000D03*
%TO.P,A1,12,D9*%
%TO.N,Net-(A1-D9)*%
X128270000Y-83810000D03*
%TO.P,A1,11,D8*%
%TO.N,Net-(A1-D8)*%
X125730000Y-83810000D03*
%TO.P,A1,10,D7*%
%TO.N,Net-(A1-D7)*%
X123190000Y-83810000D03*
%TO.P,A1,9,D6*%
%TO.N,Net-(A1-D6)*%
X120650000Y-83810000D03*
%TO.P,A1,8,D5*%
%TO.N,Net-(A1-D5)*%
X118110000Y-83810000D03*
%TO.P,A1,7,D4*%
%TO.N,Net-(A1-D4)*%
X115570000Y-83810000D03*
%TO.P,A1,6,D3*%
%TO.N,Net-(A1-D3)*%
X113030000Y-83810000D03*
%TO.P,A1,5,D2*%
%TO.N,Net-(A1-D2)*%
X110490000Y-83810000D03*
%TO.P,A1,4,GND*%
%TO.N,GND*%
X107950000Y-83810000D03*
%TO.P,A1,3,~{RESET}*%
%TO.N,unconnected-(A1-~{RESET}-Pad3)*%
X105410000Y-83810000D03*
%TO.P,A1,2,D0/RX*%
%TO.N,unconnected-(A1-D0{slash}RX-Pad2)*%
X102870000Y-83810000D03*
D31*
%TO.P,A1,1,D1/TX*%
%TO.N,unconnected-(A1-D1{slash}TX-Pad1)*%
X100330000Y-83810000D03*
%TD*%
D19*
%TO.P,J11,2,Pin_2*%
%TO.N,Net-(J11-Pin_2)*%
X134620000Y-62230000D03*
D18*
%TO.P,J11,1,Pin_1*%
%TO.N,GND*%
X134620000Y-57150000D03*
%TD*%
%TO.P,J10,1,Pin_1*%
%TO.N,Net-(D10-A)*%
X128265000Y-46020000D03*
D19*
%TO.P,J10,2,Pin_2*%
%TO.N,+12V*%
X133345000Y-46020000D03*
%TD*%
D17*
%TO.P,R12,2*%
%TO.N,GND*%
X88617500Y-56487500D03*
%TO.P,R12,1*%
%TO.N,Net-(Q6-G)*%
X86967500Y-56487500D03*
%TD*%
D11*
%TO.P,J13,1,Pin_1*%
%TO.N,GND*%
X54610000Y-90170000D03*
D10*
%TO.P,J13,2,Pin_2*%
%TO.N,Net-(A1-D3)*%
X54610000Y-87630000D03*
%TO.P,J13,3,Pin_3*%
%TO.N,Net-(A1-D2)*%
X54610000Y-85090000D03*
%TO.P,J13,4,Pin_4*%
%TO.N,+5V*%
X54610000Y-82550000D03*
%TD*%
D17*
%TO.P,R1,2*%
%TO.N,GND*%
X45150000Y-56485000D03*
%TO.P,R1,1*%
%TO.N,Net-(Q1-G)*%
X43500000Y-56485000D03*
%TD*%
%TO.P,R4,1*%
%TO.N,Net-(Q2-G)*%
X51120000Y-56485000D03*
%TO.P,R4,2*%
%TO.N,GND*%
X52770000Y-56485000D03*
%TD*%
D32*
%TO.P,D10,2,A*%
%TO.N,Net-(D10-A)*%
X138650000Y-50580000D03*
%TO.P,D10,1,K*%
%TO.N,+12V*%
X138650000Y-48480000D03*
%TD*%
D22*
%TO.P,D1,2,A*%
%TO.N,Net-(D1-A)*%
X43620000Y-49530000D03*
%TO.P,D1,1,K*%
%TO.N,+12V*%
X45720000Y-49530000D03*
%TD*%
D33*
%TO.N,Net-(D9-K)*%
X90099000Y-79307200D03*
X91220000Y-51060500D03*
%TO.N,Net-(D6-A)*%
X107539500Y-47636600D03*
%TO.N,+5V*%
X120197200Y-63185000D03*
X103675100Y-76075700D03*
%TO.N,Net-(D8-A)*%
X92587800Y-79305400D03*
%TO.N,GND*%
X97618700Y-68914900D03*
D34*
%TO.N,Net-(A1-A5)*%
X111760000Y-71120000D03*
%TO.N,Net-(A1-A4)*%
X110490000Y-71779800D03*
%TO.N,Net-(A1-A3)*%
X73660000Y-85870700D03*
%TO.N,Net-(A1-A2)*%
X94167300Y-101495600D03*
%TO.N,Net-(A1-A1)*%
X127467500Y-103386300D03*
%TO.N,Net-(A1-A0)*%
X107936900Y-72526400D03*
%TO.N,Net-(A1-D10)*%
X98382700Y-59027500D03*
%TO.N,Net-(A1-D7)*%
X89077950Y-73430850D03*
X70962000Y-58097200D03*
%TO.N,Net-(A1-D6)*%
X95250000Y-81553400D03*
X62057100Y-58077800D03*
%TO.N,Net-(A1-D5)*%
X68668800Y-74121100D03*
X52635300Y-58087600D03*
%TD*%
D35*
%TO.N,GND*%
X120650000Y-97940000D02*
X126845000Y-97940000D01*
X126845000Y-97940000D02*
X134620000Y-90165000D01*
X63066600Y-59734900D02*
X63587200Y-60255500D01*
X63587200Y-60255500D02*
X71357292Y-60255500D01*
X71962000Y-58511414D02*
X71962000Y-57612000D01*
X71937500Y-58535914D02*
X71962000Y-58511414D01*
X71357292Y-60255500D02*
X71937500Y-59675292D01*
X71962000Y-57612000D02*
X70837500Y-56487500D01*
X71937500Y-59675292D02*
X71937500Y-58535914D01*
D36*
%TO.N,Net-(A1-D7)*%
X112988800Y-73608800D02*
X123190000Y-83810000D01*
X89077950Y-73430850D02*
X89255900Y-73608800D01*
X89255900Y-73608800D02*
X112988800Y-73608800D01*
D35*
%TO.N,GND*%
X63066600Y-59734900D02*
X63500000Y-59301500D01*
X63500000Y-59301500D02*
X63500000Y-58040000D01*
X63500000Y-58040000D02*
X61947500Y-56487500D01*
D36*
%TO.N,Net-(A1-D4)*%
X103126267Y-74750700D02*
X102946967Y-74930000D01*
X102946967Y-74930000D02*
X49266600Y-74930000D01*
X106510700Y-74750700D02*
X103126267Y-74750700D01*
X49266600Y-74930000D02*
X39550000Y-65213400D01*
X115570000Y-83810000D02*
X106510700Y-74750700D01*
X39550000Y-65213400D02*
X39550000Y-64755000D01*
X39550000Y-64755000D02*
X38075000Y-64755000D01*
%TO.N,Net-(A1-A4)*%
X55474800Y-71779800D02*
X49735000Y-66040000D01*
X110490000Y-71779800D02*
X55474800Y-71779800D01*
X49735000Y-66040000D02*
X48260000Y-66040000D01*
D35*
%TO.N,Net-(Q7-G)*%
X95857500Y-53947500D02*
X95250000Y-54555000D01*
X95250000Y-54555000D02*
X95250000Y-55880000D01*
X95250000Y-55880000D02*
X95857500Y-56487500D01*
%TO.N,GND*%
X99060000Y-57150000D02*
X100330000Y-58420000D01*
X100330000Y-59295100D02*
X99346300Y-60278800D01*
X100330000Y-58420000D02*
X100330000Y-59295100D01*
X99060000Y-57150000D02*
X98170000Y-57150000D01*
X98170000Y-57150000D02*
X97507500Y-56487500D01*
D36*
%TO.N,Net-(A1-A5)*%
X111760000Y-71120000D02*
X111354600Y-70714600D01*
X111354600Y-70714600D02*
X56949600Y-70714600D01*
X56949600Y-70714600D02*
X49735000Y-63500000D01*
X49735000Y-63500000D02*
X48260000Y-63500000D01*
D35*
%TO.N,GND*%
X106647500Y-56487500D02*
X111235000Y-56487500D01*
X111235000Y-56487500D02*
X115057500Y-60310000D01*
X115057500Y-60310000D02*
X116840000Y-60310000D01*
D37*
X115115400Y-59235400D02*
X115540000Y-59660000D01*
D38*
X116840000Y-60310000D02*
X120108528Y-60310000D01*
X120108528Y-60310000D02*
X123268528Y-57150000D01*
X123268528Y-57150000D02*
X134620000Y-57150000D01*
D35*
%TO.N,+12V*%
X118745000Y-57435000D02*
X118745000Y-56515000D01*
X118745000Y-56515000D02*
X122705200Y-52554800D01*
X122705200Y-52554800D02*
X122705200Y-44018100D01*
%TO.N,Net-(J9-Pin_2)*%
X117475000Y-57435000D02*
X117475000Y-54904900D01*
X117475000Y-54904900D02*
X120645000Y-51734900D01*
X120645000Y-51734900D02*
X120645000Y-46020000D01*
%TO.N,+12V*%
X91440000Y-82550000D02*
X95250000Y-86360000D01*
X95250000Y-86360000D02*
X115729800Y-86360000D01*
X115729800Y-86360000D02*
X117466300Y-88096500D01*
D36*
%TO.N,Net-(A1-D6)*%
X99149100Y-84936900D02*
X119523100Y-84936900D01*
X95250000Y-81553400D02*
X95765600Y-81553400D01*
X95765600Y-81553400D02*
X99149100Y-84936900D01*
X119523100Y-84936900D02*
X120650000Y-83810000D01*
D35*
%TO.N,+5V*%
X94560803Y-99650803D02*
X96510000Y-101600000D01*
X96510000Y-101600000D02*
X106880000Y-101600000D01*
X106880000Y-101600000D02*
X110865000Y-97615000D01*
X90040000Y-92710000D02*
X90040000Y-95130000D01*
X90040000Y-95130000D02*
X94560803Y-99650803D01*
%TO.N,Net-(D9-K)*%
X90099000Y-88096300D02*
X90565300Y-87630000D01*
X90565300Y-87630000D02*
X106465250Y-87630000D01*
X106465250Y-87630000D02*
X107565000Y-88729750D01*
X107565000Y-88729750D02*
X107565000Y-90815000D01*
X107565000Y-90815000D02*
X110865000Y-90815000D01*
%TO.N,+5V*%
X77209800Y-82550200D02*
X76200000Y-83560000D01*
X76200000Y-83560000D02*
X76200000Y-96520000D01*
X76200000Y-96520000D02*
X77470000Y-97790000D01*
X77470000Y-97790000D02*
X82510000Y-97790000D01*
X82510000Y-97790000D02*
X87590000Y-92710000D01*
X87590000Y-92710000D02*
X90040000Y-92710000D01*
D36*
%TO.N,Net-(A1-A3)*%
X56045000Y-101885000D02*
X56045000Y-102522500D01*
X73660000Y-85870700D02*
X72059300Y-85870700D01*
X72059300Y-85870700D02*
X56045000Y-101885000D01*
D35*
%TO.N,+12V*%
X120650000Y-88096500D02*
X117466300Y-88096500D01*
X140970000Y-88096500D02*
X120650000Y-88096500D01*
X120650000Y-88096500D02*
X120650000Y-91440000D01*
X110865000Y-92515000D02*
X113047800Y-92515000D01*
X113047800Y-92515000D02*
X117466300Y-88096500D01*
%TO.N,GND*%
X120650000Y-97940000D02*
X116925000Y-94215000D01*
X116925000Y-94215000D02*
X114165000Y-94215000D01*
%TO.N,+12V*%
X138650000Y-48480000D02*
X135805000Y-48480000D01*
X135805000Y-48480000D02*
X133345000Y-46020000D01*
D38*
X139700000Y-101600000D02*
X140970000Y-100330000D01*
X140970000Y-100330000D02*
X140970000Y-46990000D01*
X140970000Y-46990000D02*
X140000000Y-46020000D01*
X140000000Y-46020000D02*
X133345000Y-46020000D01*
D35*
%TO.N,Net-(Q8-G)*%
X104747500Y-53947500D02*
X104747500Y-56487500D01*
X104747500Y-56487500D02*
X104747500Y-59027500D01*
%TO.N,Net-(Q7-G)*%
X95857500Y-56487500D02*
X95857500Y-59027500D01*
%TO.N,Net-(Q6-G)*%
X86967500Y-58582500D02*
X86967500Y-56487500D01*
X86967500Y-53947500D02*
X86967500Y-56487500D01*
%TO.N,Net-(Q5-G)*%
X78077500Y-53947500D02*
X78077500Y-56487500D01*
X78077500Y-56487500D02*
X78077500Y-59027500D01*
%TO.N,Net-(Q3-G)*%
X60297500Y-53947500D02*
X60297500Y-56487500D01*
X60297500Y-56487500D02*
X60297500Y-59027500D01*
%TO.N,Net-(Q2-G)*%
X51120000Y-53945000D02*
X51120000Y-56485000D01*
X51120000Y-59025000D02*
X51120000Y-56485000D01*
%TO.N,Net-(Q1-G)*%
X43500000Y-53945000D02*
X43500000Y-56485000D01*
X43500000Y-59025000D02*
X43500000Y-56485000D01*
D38*
%TO.N,Net-(J11-Pin_2)*%
X134620000Y-62230000D02*
X124460000Y-62230000D01*
D35*
%TO.N,Net-(D9-K)*%
X80140000Y-92710000D02*
X82590000Y-92710000D01*
X87203700Y-88096300D02*
X90099000Y-88096300D01*
X82590000Y-92710000D02*
X87203700Y-88096300D01*
X90099000Y-88096300D02*
X90099000Y-79307200D01*
X91220000Y-49530000D02*
X91220000Y-51060500D01*
%TO.N,+12V*%
X82110000Y-43310000D02*
X82240000Y-43180000D01*
X82110000Y-49530000D02*
X82110000Y-43310000D01*
X46680000Y-48570000D02*
X45720000Y-49530000D01*
X46680000Y-43180000D02*
X46680000Y-48570000D01*
X101943800Y-41256200D02*
X100020000Y-43180000D01*
X106986200Y-41256200D02*
X101943800Y-41256200D01*
X108910000Y-43180000D02*
X106986200Y-41256200D01*
X48581900Y-41278100D02*
X46680000Y-43180000D01*
X53668100Y-41278100D02*
X48581900Y-41278100D01*
X55570000Y-43180000D02*
X53668100Y-41278100D01*
X73350000Y-49400000D02*
X73220000Y-49530000D01*
X73350000Y-43180000D02*
X73350000Y-49400000D01*
X75251900Y-41278100D02*
X73350000Y-43180000D01*
X80338100Y-41278100D02*
X75251900Y-41278100D01*
X82240000Y-43180000D02*
X80338100Y-41278100D01*
X84141900Y-41278100D02*
X82240000Y-43180000D01*
X89228100Y-41278100D02*
X84141900Y-41278100D01*
X91130000Y-43180000D02*
X89228100Y-41278100D01*
X93031900Y-41278100D02*
X91130000Y-43180000D01*
X98118100Y-41278100D02*
X93031900Y-41278100D01*
X100020000Y-43180000D02*
X98118100Y-41278100D01*
X100110000Y-43270000D02*
X100020000Y-43180000D01*
X100110000Y-49530000D02*
X100110000Y-43270000D01*
X131343100Y-44018100D02*
X122705200Y-44018100D01*
X133345000Y-46020000D02*
X131343100Y-44018100D01*
X109748100Y-48561900D02*
X108780000Y-49530000D01*
X109748100Y-44018100D02*
X109748100Y-48561900D01*
X122705200Y-44018100D02*
X109748100Y-44018100D01*
X109748100Y-44018100D02*
X108910000Y-43180000D01*
X57729400Y-46190600D02*
X57729400Y-45339400D01*
X54390000Y-49530000D02*
X57729400Y-46190600D01*
X57729400Y-45339400D02*
X55570000Y-43180000D01*
X62730300Y-45339400D02*
X57729400Y-45339400D01*
X62730300Y-44909700D02*
X62730300Y-45339400D01*
X64460000Y-43180000D02*
X62730300Y-44909700D01*
X62730300Y-48980300D02*
X63280000Y-49530000D01*
X62730300Y-45339400D02*
X62730300Y-48980300D01*
%TO.N,Net-(J9-Pin_1)*%
X114935000Y-48950000D02*
X115565000Y-48320000D01*
X114935000Y-57435000D02*
X114935000Y-48950000D01*
X115565000Y-46020000D02*
X115565000Y-48320000D01*
%TO.N,Net-(D10-A)*%
X130565000Y-46091900D02*
X130565000Y-46020000D01*
X135053100Y-50580000D02*
X130565000Y-46091900D01*
X138650000Y-50580000D02*
X135053100Y-50580000D01*
X128265000Y-46020000D02*
X130565000Y-46020000D01*
%TO.N,Net-(D6-A)*%
X87917500Y-45667500D02*
X87917500Y-52072500D01*
X87630000Y-45380000D02*
X87917500Y-45667500D01*
X87630000Y-43180000D02*
X87630000Y-45380000D01*
X107539500Y-48670500D02*
X107539500Y-47636600D01*
X106680000Y-49530000D02*
X107539500Y-48670500D01*
%TO.N,+5V*%
X118745000Y-63185000D02*
X120197200Y-63185000D01*
X54610000Y-82550000D02*
X56460000Y-82550000D01*
X79750000Y-80010000D02*
X77209800Y-82550200D01*
X77209500Y-82550000D02*
X77209800Y-82550200D01*
X56460000Y-82550000D02*
X77209500Y-82550000D01*
X83684300Y-76075700D02*
X103675100Y-76075700D01*
X79750000Y-80010000D02*
X83684300Y-76075700D01*
%TO.N,Net-(D8-A)*%
X105410000Y-51785000D02*
X105697500Y-52072500D01*
X105410000Y-45380000D02*
X105410000Y-51785000D01*
X105410000Y-43180000D02*
X105410000Y-45380000D01*
X92584600Y-79305400D02*
X92587800Y-79305400D01*
X91440000Y-80450000D02*
X92584600Y-79305400D01*
%TO.N,Net-(D7-A)*%
X98010000Y-50870000D02*
X98010000Y-49530000D01*
X96807500Y-52072500D02*
X98010000Y-50870000D01*
X96520000Y-48040000D02*
X96520000Y-43180000D01*
X98010000Y-49530000D02*
X96520000Y-48040000D01*
%TO.N,Net-(Q4-G)*%
X69187500Y-53947500D02*
X69187500Y-56487500D01*
X69187500Y-56487500D02*
X69187500Y-59027500D01*
%TO.N,Net-(D4-A)*%
X70137500Y-50512500D02*
X70137500Y-52072500D01*
X71120000Y-49530000D02*
X70137500Y-50512500D01*
X69850000Y-48260000D02*
X69850000Y-43180000D01*
X71120000Y-49530000D02*
X69850000Y-48260000D01*
%TO.N,Net-(D3-A)*%
X61247500Y-52072500D02*
X61247500Y-50767500D01*
X61180000Y-50700000D02*
X61247500Y-50767500D01*
X61180000Y-49530000D02*
X61180000Y-50700000D01*
X62907300Y-41232700D02*
X60960000Y-43180000D01*
X65246600Y-41232700D02*
X62907300Y-41232700D01*
X66374700Y-42360800D02*
X65246600Y-41232700D01*
X66374700Y-48135000D02*
X66374700Y-42360800D01*
X63742200Y-50767500D02*
X66374700Y-48135000D01*
X61247500Y-50767500D02*
X63742200Y-50767500D01*
%TO.N,Net-(D5-A)*%
X78740000Y-48260000D02*
X78740000Y-43180000D01*
X80010000Y-49530000D02*
X78740000Y-48260000D01*
X79027500Y-50512500D02*
X79027500Y-52072500D01*
X80010000Y-49530000D02*
X79027500Y-50512500D01*
%TO.N,GND*%
X116840000Y-60310000D02*
X116840000Y-60960000D01*
X116840000Y-60960000D02*
X118140000Y-60960000D01*
X116205000Y-57435000D02*
X116205000Y-59535000D01*
X116205000Y-59660000D02*
X116205000Y-59535000D01*
X115540000Y-59660000D02*
X116205000Y-59660000D01*
X116205000Y-59660000D02*
X116840000Y-59660000D01*
X110865000Y-95915000D02*
X114165000Y-95915000D01*
X53020000Y-56235000D02*
X52770000Y-56485000D01*
X53020000Y-53945000D02*
X53020000Y-56235000D01*
X45150000Y-54195000D02*
X45400000Y-53945000D01*
X45150000Y-56485000D02*
X45150000Y-54195000D01*
X45150000Y-56485000D02*
X48990800Y-60325700D01*
X84925000Y-107660000D02*
X56045000Y-107660000D01*
X106647500Y-56487500D02*
X106647500Y-53947500D01*
X106397500Y-56487500D02*
X106647500Y-56487500D01*
X114165000Y-94215000D02*
X110865000Y-94215000D01*
X110865000Y-94215000D02*
X101715000Y-94215000D01*
X121755000Y-107660000D02*
X121755000Y-106835000D01*
X127105000Y-106835000D02*
X127930000Y-107660000D01*
X121755000Y-106835000D02*
X127105000Y-106835000D01*
X129705000Y-107660000D02*
X127930000Y-107660000D01*
X88867500Y-56487500D02*
X88617500Y-56487500D01*
X97507500Y-54197500D02*
X97507500Y-56487500D01*
X97757500Y-53947500D02*
X97507500Y-54197500D01*
X46699100Y-62617400D02*
X48990800Y-60325700D01*
X46699100Y-69559100D02*
X46699100Y-62617400D01*
X48260000Y-71120000D02*
X46699100Y-69559100D01*
X56045000Y-107660000D02*
X48095000Y-107660000D01*
X46618100Y-100011900D02*
X54610000Y-92020000D01*
X46618100Y-104533100D02*
X46618100Y-100011900D01*
X48095000Y-106010000D02*
X46618100Y-104533100D01*
X48095000Y-107660000D02*
X48095000Y-106010000D01*
X54610000Y-90170000D02*
X54610000Y-92020000D01*
X61947500Y-54197500D02*
X61947500Y-56487500D01*
X62197500Y-53947500D02*
X61947500Y-54197500D01*
X92658800Y-60278800D02*
X99346300Y-60278800D01*
X88867500Y-56487500D02*
X92658800Y-60278800D01*
X102870000Y-63802500D02*
X99346300Y-60278800D01*
X102870000Y-68570000D02*
X102870000Y-63802500D01*
X88867500Y-56487500D02*
X88867500Y-53947500D01*
X89120000Y-53695000D02*
X89120000Y-49530000D01*
X88867500Y-53947500D02*
X89120000Y-53695000D01*
X79977500Y-53947500D02*
X79977500Y-56237500D01*
X79977500Y-56237500D02*
X79727500Y-56487500D01*
X114165000Y-94215000D02*
X114165000Y-95915000D01*
X84925000Y-107660000D02*
X92875000Y-107660000D01*
X105750000Y-107660000D02*
X114165000Y-99245000D01*
X92875000Y-107660000D02*
X105750000Y-107660000D01*
X114165000Y-95915000D02*
X114165000Y-99245000D01*
X114165000Y-99245000D02*
X121755000Y-106835000D01*
X116840000Y-60960000D02*
X115540000Y-60960000D01*
X115415000Y-61085000D02*
X114935000Y-61085000D01*
X115540000Y-60960000D02*
X115415000Y-61085000D01*
X114935000Y-63185000D02*
X114935000Y-61085000D01*
X92654900Y-68914900D02*
X97618700Y-68914900D01*
X79977500Y-56237500D02*
X92654900Y-68914900D01*
X53922400Y-57637400D02*
X53922400Y-59634500D01*
X52770000Y-56485000D02*
X53922400Y-57637400D01*
X49078300Y-60238200D02*
X48990800Y-60325700D01*
X53318700Y-60238200D02*
X49078300Y-60238200D01*
X53922400Y-59634500D02*
X53318700Y-60238200D01*
X62536300Y-60265200D02*
X63066600Y-59734900D01*
X54553100Y-60265200D02*
X62536300Y-60265200D01*
X53922400Y-59634500D02*
X54553100Y-60265200D01*
X71087500Y-56237500D02*
X70837500Y-56487500D01*
X71087500Y-53947500D02*
X71087500Y-56237500D01*
X87759700Y-77600300D02*
X85350000Y-80010000D01*
X101740300Y-77600300D02*
X87759700Y-77600300D01*
X107950000Y-83810000D02*
X101740300Y-77600300D01*
%TO.N,Net-(D2-A)*%
X52290000Y-45600000D02*
X52070000Y-45380000D01*
X52290000Y-49530000D02*
X52290000Y-45600000D01*
X52070000Y-43180000D02*
X52070000Y-45380000D01*
X52290000Y-51850000D02*
X52290000Y-49530000D01*
X52070000Y-52070000D02*
X52290000Y-51850000D01*
%TO.N,Net-(D1-A)*%
X43620000Y-51240000D02*
X43620000Y-49530000D01*
X44450000Y-52070000D02*
X43620000Y-51240000D01*
X43180000Y-49090000D02*
X43180000Y-43180000D01*
X43620000Y-49530000D02*
X43180000Y-49090000D01*
D36*
%TO.N,Net-(A1-A3)*%
X56045000Y-103160000D02*
X56045000Y-102522500D01*
X50132500Y-102522500D02*
X49495000Y-103160000D01*
X56045000Y-102522500D02*
X50132500Y-102522500D01*
X48095000Y-103160000D02*
X49495000Y-103160000D01*
%TO.N,Net-(A1-A2)*%
X92875000Y-103160000D02*
X92875000Y-102522500D01*
X86962500Y-102522500D02*
X86325000Y-103160000D01*
X92875000Y-102522500D02*
X86962500Y-102522500D01*
X84925000Y-103160000D02*
X86325000Y-103160000D01*
X93140400Y-102522500D02*
X92875000Y-102522500D01*
X94167300Y-101495600D02*
X93140400Y-102522500D01*
%TO.N,Net-(A1-A1)*%
X129705000Y-103160000D02*
X128305000Y-103160000D01*
X128078700Y-103386300D02*
X127467500Y-103386300D01*
X128305000Y-103160000D02*
X128078700Y-103386300D01*
X123381300Y-103386300D02*
X123155000Y-103160000D01*
X127467500Y-103386300D02*
X123381300Y-103386300D01*
X121755000Y-103160000D02*
X123155000Y-103160000D01*
%TO.N,Net-(A1-A0)*%
X45150000Y-70172400D02*
X45150000Y-59025000D01*
X47504000Y-72526400D02*
X45150000Y-70172400D01*
X107936900Y-72526400D02*
X47504000Y-72526400D01*
%TO.N,Net-(A1-D13)*%
X132230000Y-64910000D02*
X117475000Y-64910000D01*
X135890000Y-68570000D02*
X132230000Y-64910000D01*
X117475000Y-63185000D02*
X117475000Y-64910000D01*
%TO.N,Net-(A1-D12)*%
X116205000Y-65066500D02*
X116205000Y-63185000D01*
X119380000Y-68241500D02*
X116205000Y-65066500D01*
X119380000Y-68956700D02*
X119380000Y-68241500D01*
X120491600Y-70068300D02*
X119380000Y-68956700D01*
X122148300Y-70068300D02*
X120491600Y-70068300D01*
X135890000Y-83810000D02*
X122148300Y-70068300D01*
%TO.N,Net-(A1-D11)*%
X107660400Y-59027500D02*
X106397500Y-59027500D01*
X116840000Y-68207100D02*
X107660400Y-59027500D01*
X116840000Y-68898000D02*
X116840000Y-68207100D01*
X122104400Y-74162400D02*
X116840000Y-68898000D01*
X123702400Y-74162400D02*
X122104400Y-74162400D01*
X133350000Y-83810000D02*
X123702400Y-74162400D01*
%TO.N,Net-(A1-D10)*%
X97507500Y-59027500D02*
X98382700Y-59027500D01*
%TO.N,Net-(A1-D9)*%
X93273900Y-63238900D02*
X88617500Y-58582500D01*
X96655000Y-63238900D02*
X93273900Y-63238900D01*
X101600000Y-68183900D02*
X96655000Y-63238900D01*
X101600000Y-68923100D02*
X101600000Y-68183900D01*
X102391200Y-69714300D02*
X101600000Y-68923100D01*
X110974000Y-69714300D02*
X102391200Y-69714300D01*
X111087600Y-69600700D02*
X110974000Y-69714300D01*
X112166900Y-69600700D02*
X111087600Y-69600700D01*
X112357700Y-69791500D02*
X112166900Y-69600700D01*
X114251500Y-69791500D02*
X112357700Y-69791500D01*
X128270000Y-83810000D02*
X114251500Y-69791500D01*
%TO.N,Net-(A1-D8)*%
X125730000Y-83810000D02*
X125730000Y-82385000D01*
X90943400Y-70243400D02*
X79727500Y-59027500D01*
X111084000Y-70243400D02*
X90943400Y-70243400D01*
X111236200Y-70091200D02*
X111084000Y-70243400D01*
X112018300Y-70091200D02*
X111236200Y-70091200D01*
X112170500Y-70243400D02*
X112018300Y-70091200D01*
X113604300Y-70243400D02*
X112170500Y-70243400D01*
X125730000Y-82369100D02*
X113604300Y-70243400D01*
X125730000Y-82385000D02*
X125730000Y-82369100D01*
%TO.N,Net-(A1-D7)*%
X70837500Y-58221700D02*
X70962000Y-58097200D01*
X70837500Y-59027500D02*
X70837500Y-58221700D01*
%TO.N,Net-(A1-D6)*%
X61947500Y-58187400D02*
X62057100Y-58077800D01*
X61947500Y-59027500D02*
X61947500Y-58187400D01*
%TO.N,Net-(A1-D5)*%
X52770000Y-58222300D02*
X52770000Y-59025000D01*
X52635300Y-58087600D02*
X52770000Y-58222300D01*
X68767400Y-74219700D02*
X68668800Y-74121100D01*
X108519700Y-74219700D02*
X68767400Y-74219700D01*
X118110000Y-83810000D02*
X108519700Y-74219700D01*
%TD*%
M02*
