M48
; DRILL file {KiCad 8.0.5+1} date 2024-11-01T08:39:33+0100
; FORMAT={-:-/ absolute / inch / decimal}
; #@! TF.CreationDate,2024-11-01T08:39:33+01:00
; #@! TF.GenerationSoftware,Kicad,Pcbnew,8.0.5+1
; #@! TF.FileFunction,Plated,1,2,PTH
FMAT,2
INCH
; #@! TA.AperFunction,Plated,PTH,ViaDrill
T1C0.0197
; #@! TA.AperFunction,Plated,PTH,ViaDrill
T2C0.0276
; #@! TA.AperFunction,Plated,PTH,ComponentDrill
T3C0.0394
; #@! TA.AperFunction,Plated,PTH,ComponentDrill
T4C0.0402
; #@! TA.AperFunction,Plated,PTH,ComponentDrill
T5C0.0472
; #@! TA.AperFunction,Plated,PTH,ComponentDrill
T6C0.0512
%
G90
G05
T1
X1.7975Y-2.9007
X2.046Y-2.0276
X2.3817Y-2.0238
X2.6783Y-2.0304
X2.9825Y-2.0231
X3.3925Y-3.6972
X3.3928Y-2.029
X3.5458Y-3.5136
X3.5996Y-3.4073
X3.7463Y-2.3121
X4.0456Y-2.0251
X4.2499Y-3.0876
X4.2945Y-2.6415
X4.567Y-2.7681
X4.7092Y-3.008
X4.9133Y-2.8465
T2
X3.7368Y-2.0914
X3.9385Y-2.0453
T3
X1.6929Y-4.1898
X1.6929Y-4.2898
X1.6929Y-4.3898
X1.877Y-3.5504
X1.877Y-3.6504
X1.877Y-3.7504
X1.877Y-3.8504
X3.3543Y-3.2667
X3.4543Y-3.2667
X3.5543Y-3.2667
X3.6543Y-3.2667
T4
X1.7787Y-2.3031
X1.7787Y-3.0031
X1.8787Y-2.3031
X1.8787Y-3.0031
X1.9787Y-2.3031
X1.9787Y-3.0031
X2.0787Y-2.3031
X2.0787Y-3.0031
X2.1787Y-2.3031
X2.1787Y-3.0031
X2.2787Y-2.3031
X2.2787Y-3.0031
X2.3787Y-2.3031
X2.3787Y-3.0031
X2.4787Y-2.3031
X2.4787Y-3.0031
X2.5787Y-2.3031
X2.5787Y-3.0031
X2.6787Y-2.3031
X2.6787Y-3.0031
X2.7787Y-2.3031
X2.7787Y-3.0031
X2.8787Y-2.3031
X2.8787Y-3.0031
X2.9787Y-2.3031
X2.9787Y-3.0031
X3.0787Y-2.3031
X3.0787Y-3.0031
X3.1787Y-2.3031
X3.1787Y-3.0031
X3.2787Y-2.3031
X3.2787Y-3.0031
X3.3787Y-2.3031
X3.3787Y-3.0031
X3.4787Y-2.3031
X3.4787Y-3.0031
X3.5787Y-2.3031
X3.5787Y-3.0031
X3.6697Y-2.5531
X3.6697Y-2.6531
X3.6697Y-2.7531
X3.6787Y-2.3031
X3.6787Y-3.0031
T5
X1.8012Y-1.5669
X1.939Y-1.5669
X2.1358Y-1.5669
X2.2736Y-1.5669
X2.4705Y-1.5669
X2.6083Y-1.5669
X2.8051Y-1.5669
X2.9429Y-1.5669
X3.1398Y-1.5669
X3.2776Y-1.5669
X3.4744Y-1.5669
X3.6122Y-1.5669
X3.8091Y-1.5669
X3.9469Y-1.5669
X4.1437Y-1.5669
X4.2815Y-1.5669
T6
X4.5061Y-1.6732
X4.7061Y-1.6732
X4.9772Y-1.6732
X5.1575Y-2.3622
X5.1575Y-2.5622
X5.1575Y-4.1929
X5.1575Y-4.3929
X5.1772Y-1.6732
M30
