%TF.GenerationSoftware,KiCad,Pcbnew,7.0.8*%
%TF.CreationDate,2024-01-17T19:39:17+01:00*%
%TF.ProjectId,openautolab,6f70656e-6175-4746-9f6c-61622e6b6963,rev?*%
%TF.SameCoordinates,Original*%
%TF.FileFunction,Copper,L2,Bot*%
%TF.FilePolarity,Positive*%
%FSLAX46Y46*%
G04 Gerber Fmt 4.6, Leading zero omitted, Abs format (unit mm)*
G04 Created by KiCad (PCBNEW 7.0.8) date 2024-01-17 19:39:17*
%MOMM*%
%LPD*%
G01*
G04 APERTURE LIST*
%TA.AperFunction,ComponentPad*%
%ADD10O,1.700000X1.700000*%
%TD*%
%TA.AperFunction,ComponentPad*%
%ADD11R,1.700000X1.700000*%
%TD*%
%TA.AperFunction,ComponentPad*%
%ADD12R,2.400000X2.400000*%
%TD*%
%TA.AperFunction,ComponentPad*%
%ADD13C,2.400000*%
%TD*%
%TA.AperFunction,ComponentPad*%
%ADD14R,2.600000X2.600000*%
%TD*%
%TA.AperFunction,ComponentPad*%
%ADD15C,2.600000*%
%TD*%
%TA.AperFunction,ComponentPad*%
%ADD16C,0.630000*%
%TD*%
%TA.AperFunction,SMDPad,CuDef*%
%ADD17R,3.300000X2.600000*%
%TD*%
%TA.AperFunction,ComponentPad*%
%ADD18O,1.600000X1.600000*%
%TD*%
%TA.AperFunction,ComponentPad*%
%ADD19R,1.600000X1.600000*%
%TD*%
%TA.AperFunction,ViaPad*%
%ADD20C,2.000000*%
%TD*%
%TA.AperFunction,ViaPad*%
%ADD21C,0.600000*%
%TD*%
%TA.AperFunction,Conductor*%
%ADD22C,0.250000*%
%TD*%
%TA.AperFunction,Conductor*%
%ADD23C,2.000000*%
%TD*%
%TA.AperFunction,Conductor*%
%ADD24C,1.000000*%
%TD*%
G04 APERTURE END LIST*
D10*
%TO.P,SW4,2,B*%
%TO.N,+12V*%
X139700000Y-101600000D03*
D11*
%TO.P,SW4,1,A*%
%TO.N,Net-(J12-Pin_2)*%
X137160000Y-101600000D03*
%TD*%
D12*
%TO.P,J3,1,Pin_1*%
%TO.N,Net-(D3-A)*%
X60960000Y-43180000D03*
D13*
%TO.P,J3,2,Pin_2*%
%TO.N,+12V*%
X64460000Y-43180000D03*
%TD*%
D12*
%TO.P,J5,1,Pin_1*%
%TO.N,Net-(D5-A)*%
X78740000Y-43180000D03*
D13*
%TO.P,J5,2,Pin_2*%
%TO.N,+12V*%
X82240000Y-43180000D03*
%TD*%
D14*
%TO.P,J9,1,Pin_1*%
%TO.N,Net-(J9-Pin_1)*%
X115565000Y-46020000D03*
D15*
%TO.P,J9,2,Pin_2*%
%TO.N,Net-(J9-Pin_2)*%
X120645000Y-46020000D03*
%TD*%
D11*
%TO.P,J14,1,Pin_1*%
%TO.N,GND*%
X38075000Y-69835000D03*
D10*
%TO.P,J14,2,Pin_2*%
%TO.N,+5V*%
X38075000Y-67295000D03*
%TO.P,J14,3,Pin_3*%
%TO.N,Net-(A1-D4)*%
X38075000Y-64755000D03*
%TD*%
D12*
%TO.P,J2,1,Pin_1*%
%TO.N,Net-(D2-A)*%
X52070000Y-43180000D03*
D13*
%TO.P,J2,2,Pin_2*%
%TO.N,+12V*%
X55570000Y-43180000D03*
%TD*%
D12*
%TO.P,J8,1,Pin_1*%
%TO.N,Net-(D8-A)*%
X105410000Y-43180000D03*
D13*
%TO.P,J8,2,Pin_2*%
%TO.N,+12V*%
X108910000Y-43180000D03*
%TD*%
D11*
%TO.P,J15,1,Pin_1*%
%TO.N,GND*%
X48260000Y-71120000D03*
D10*
%TO.P,J15,2,Pin_2*%
%TO.N,+5V*%
X48260000Y-68580000D03*
%TO.P,J15,3,Pin_3*%
%TO.N,Net-(A1-A4)*%
X48260000Y-66040000D03*
%TO.P,J15,4,Pin_4*%
%TO.N,Net-(A1-A5)*%
X48260000Y-63500000D03*
%TD*%
D12*
%TO.P,J4,1,Pin_1*%
%TO.N,Net-(D4-A)*%
X69850000Y-43180000D03*
D13*
%TO.P,J4,2,Pin_2*%
%TO.N,+12V*%
X73350000Y-43180000D03*
%TD*%
D11*
%TO.P,SW3,1,A*%
%TO.N,Net-(D10-A)*%
X124460000Y-59690000D03*
D10*
%TO.P,SW3,2,B*%
%TO.N,Net-(J11-Pin_2)*%
X124460000Y-62230000D03*
%TD*%
D12*
%TO.P,J6,1,Pin_1*%
%TO.N,Net-(D6-A)*%
X87630000Y-43180000D03*
D13*
%TO.P,J6,2,Pin_2*%
%TO.N,+12V*%
X91130000Y-43180000D03*
%TD*%
D16*
%TO.P,U1,9,GND*%
%TO.N,GND*%
X118140000Y-59660000D03*
X116840000Y-59660000D03*
X115540000Y-59660000D03*
D17*
X116840000Y-60310000D03*
D16*
X118140000Y-60960000D03*
X116840000Y-60960000D03*
X115540000Y-60960000D03*
%TD*%
D12*
%TO.P,J7,1,Pin_1*%
%TO.N,Net-(D7-A)*%
X96520000Y-43180000D03*
D13*
%TO.P,J7,2,Pin_2*%
%TO.N,+12V*%
X100020000Y-43180000D03*
%TD*%
D15*
%TO.P,J12,2,Pin_2*%
%TO.N,Net-(J12-Pin_2)*%
X134620000Y-95245000D03*
D14*
%TO.P,J12,1,Pin_1*%
%TO.N,GND*%
X134620000Y-90165000D03*
%TD*%
D12*
%TO.P,J1,1,Pin_1*%
%TO.N,Net-(D1-A)*%
X43180000Y-43180000D03*
D13*
%TO.P,J1,2,Pin_2*%
%TO.N,+12V*%
X46680000Y-43180000D03*
%TD*%
D18*
%TO.P,A1,30,VIN*%
%TO.N,unconnected-(A1-VIN-Pad30)*%
X100330000Y-68570000D03*
%TO.P,A1,29,GND*%
%TO.N,GND*%
X102870000Y-68570000D03*
%TO.P,A1,28,~{RESET}*%
%TO.N,unconnected-(A1-~{RESET}-Pad28)*%
X105410000Y-68570000D03*
%TO.P,A1,27,+5V*%
%TO.N,+5V*%
X107950000Y-68570000D03*
%TO.P,A1,26,A7*%
%TO.N,unconnected-(A1-A7-Pad26)*%
X110490000Y-68570000D03*
%TO.P,A1,25,A6*%
%TO.N,unconnected-(A1-A6-Pad25)*%
X113030000Y-68570000D03*
%TO.P,A1,24,A5*%
%TO.N,Net-(A1-A5)*%
X115570000Y-68570000D03*
%TO.P,A1,23,A4*%
%TO.N,Net-(A1-A4)*%
X118110000Y-68570000D03*
%TO.P,A1,22,A3*%
%TO.N,Net-(A1-A3)*%
X120650000Y-68570000D03*
%TO.P,A1,21,A2*%
%TO.N,Net-(A1-A2)*%
X123190000Y-68570000D03*
%TO.P,A1,20,A1*%
%TO.N,Net-(A1-A1)*%
X125730000Y-68570000D03*
%TO.P,A1,19,A0*%
%TO.N,Net-(A1-A0)*%
X128270000Y-68570000D03*
%TO.P,A1,18,AREF*%
%TO.N,unconnected-(A1-AREF-Pad18)*%
X130810000Y-68570000D03*
%TO.P,A1,17,3V3*%
%TO.N,unconnected-(A1-3V3-Pad17)*%
X133350000Y-68570000D03*
%TO.P,A1,16,D13*%
%TO.N,Net-(A1-D13)*%
X135890000Y-68570000D03*
%TO.P,A1,15,D12*%
%TO.N,Net-(A1-D12)*%
X135890000Y-83810000D03*
%TO.P,A1,14,D11*%
%TO.N,Net-(A1-D11)*%
X133350000Y-83810000D03*
%TO.P,A1,13,D10*%
%TO.N,Net-(A1-D10)*%
X130810000Y-83810000D03*
%TO.P,A1,12,D9*%
%TO.N,Net-(A1-D9)*%
X128270000Y-83810000D03*
%TO.P,A1,11,D8*%
%TO.N,Net-(A1-D8)*%
X125730000Y-83810000D03*
%TO.P,A1,10,D7*%
%TO.N,Net-(A1-D7)*%
X123190000Y-83810000D03*
%TO.P,A1,9,D6*%
%TO.N,Net-(A1-D6)*%
X120650000Y-83810000D03*
%TO.P,A1,8,D5*%
%TO.N,Net-(A1-D5)*%
X118110000Y-83810000D03*
%TO.P,A1,7,D4*%
%TO.N,Net-(A1-D4)*%
X115570000Y-83810000D03*
%TO.P,A1,6,D3*%
%TO.N,Net-(A1-D3)*%
X113030000Y-83810000D03*
%TO.P,A1,5,D2*%
%TO.N,Net-(A1-D2)*%
X110490000Y-83810000D03*
%TO.P,A1,4,GND*%
%TO.N,GND*%
X107950000Y-83810000D03*
%TO.P,A1,3,~{RESET}*%
%TO.N,unconnected-(A1-~{RESET}-Pad3)*%
X105410000Y-83810000D03*
%TO.P,A1,2,D0/RX*%
%TO.N,unconnected-(A1-D0{slash}RX-Pad2)*%
X102870000Y-83810000D03*
D19*
%TO.P,A1,1,D1/TX*%
%TO.N,unconnected-(A1-D1{slash}TX-Pad1)*%
X100330000Y-83810000D03*
%TD*%
D15*
%TO.P,J11,2,Pin_2*%
%TO.N,Net-(J11-Pin_2)*%
X134620000Y-62230000D03*
D14*
%TO.P,J11,1,Pin_1*%
%TO.N,GND*%
X134620000Y-57150000D03*
%TD*%
%TO.P,J10,1,Pin_1*%
%TO.N,Net-(D10-A)*%
X128265000Y-46020000D03*
D15*
%TO.P,J10,2,Pin_2*%
%TO.N,+12V*%
X133345000Y-46020000D03*
%TD*%
D11*
%TO.P,J13,1,Pin_1*%
%TO.N,GND*%
X54610000Y-90170000D03*
D10*
%TO.P,J13,2,Pin_2*%
%TO.N,Net-(A1-D3)*%
X54610000Y-87630000D03*
%TO.P,J13,3,Pin_3*%
%TO.N,Net-(A1-D2)*%
X54610000Y-85090000D03*
%TO.P,J13,4,Pin_4*%
%TO.N,+5V*%
X54610000Y-82550000D03*
%TD*%
D20*
%TO.N,Net-(D9-K)*%
X90099000Y-79307200D03*
X91220000Y-51060500D03*
%TO.N,Net-(D6-A)*%
X107539500Y-47636600D03*
%TO.N,+5V*%
X120197200Y-63185000D03*
X103675100Y-76075700D03*
%TO.N,Net-(D8-A)*%
X92587800Y-79305400D03*
%TO.N,GND*%
X97618700Y-68914900D03*
D21*
%TO.N,Net-(A1-A5)*%
X111760000Y-71120000D03*
%TO.N,Net-(A1-A4)*%
X110490000Y-71779800D03*
%TO.N,Net-(A1-A3)*%
X73660000Y-85870700D03*
%TO.N,Net-(A1-A2)*%
X94167300Y-101495600D03*
%TO.N,Net-(A1-A1)*%
X127467500Y-103386300D03*
%TO.N,Net-(A1-A0)*%
X107936900Y-72526400D03*
%TO.N,Net-(A1-D10)*%
X98382700Y-59027500D03*
%TO.N,Net-(A1-D7)*%
X89077950Y-73430850D03*
X70962000Y-58097200D03*
%TO.N,Net-(A1-D6)*%
X95250000Y-81553400D03*
X62057100Y-58077800D03*
%TO.N,Net-(A1-D5)*%
X68668800Y-74121100D03*
X52635300Y-58087600D03*
%TD*%
D22*
%TO.N,Net-(A1-D7)*%
X73744300Y-58097200D02*
X70962000Y-58097200D01*
X89077950Y-73430850D02*
X73744300Y-58097200D01*
%TO.N,Net-(A1-A4)*%
X110490000Y-71779800D02*
X114900200Y-71779800D01*
X114900200Y-71779800D02*
X118110000Y-68570000D01*
%TO.N,Net-(A1-A5)*%
X111760000Y-71120000D02*
X113020000Y-71120000D01*
X113020000Y-71120000D02*
X115570000Y-68570000D01*
%TO.N,Net-(A1-D2)*%
X110490000Y-83810000D02*
X106670000Y-87630000D01*
X106670000Y-87630000D02*
X58625000Y-87630000D01*
X58625000Y-87630000D02*
X56085000Y-85090000D01*
X56085000Y-85090000D02*
X54610000Y-85090000D01*
%TO.N,Net-(A1-D3)*%
X113030000Y-83810000D02*
X107940000Y-88900000D01*
X107940000Y-88900000D02*
X57355000Y-88900000D01*
X57355000Y-88900000D02*
X56085000Y-87630000D01*
X56085000Y-87630000D02*
X54610000Y-87630000D01*
D23*
%TO.N,GND*%
X102870000Y-68570000D02*
X102870000Y-66040000D01*
X102870000Y-66040000D02*
X107950000Y-60960000D01*
X107950000Y-60960000D02*
X115540000Y-60960000D01*
X134620000Y-90165000D02*
X134625000Y-90165000D01*
X134625000Y-90165000D02*
X138430000Y-86360000D01*
X138430000Y-86360000D02*
X138430000Y-60960000D01*
X138430000Y-60960000D02*
X134620000Y-57150000D01*
D22*
%TO.N,Net-(A1-D6)*%
X95250000Y-81553400D02*
X85532700Y-81553400D01*
X85532700Y-81553400D02*
X62057100Y-58077800D01*
%TO.N,Net-(A1-A3)*%
X73660000Y-85870700D02*
X107502700Y-85870700D01*
X109076900Y-81568100D02*
X120650000Y-69995000D01*
X109076900Y-84296500D02*
X109076900Y-81568100D01*
X107502700Y-85870700D02*
X109076900Y-84296500D01*
X120650000Y-69995000D02*
X120650000Y-68570000D01*
D23*
%TO.N,Net-(J12-Pin_2)*%
X137160000Y-97785000D02*
X137160000Y-101600000D01*
X134620000Y-95245000D02*
X137160000Y-97785000D01*
D24*
%TO.N,Net-(D9-K)*%
X91220000Y-78186200D02*
X91220000Y-51060500D01*
X90099000Y-79307200D02*
X91220000Y-78186200D01*
%TO.N,+12V*%
X66361900Y-41278100D02*
X64460000Y-43180000D01*
X71448100Y-41278100D02*
X66361900Y-41278100D01*
X73350000Y-43180000D02*
X71448100Y-41278100D01*
D23*
%TO.N,Net-(D10-A)*%
X128265000Y-54035000D02*
X128265000Y-46020000D01*
X124460000Y-57840000D02*
X128265000Y-54035000D01*
X124460000Y-59690000D02*
X124460000Y-57840000D01*
D24*
%TO.N,Net-(D6-A)*%
X89531900Y-41278100D02*
X87630000Y-43180000D01*
X109721900Y-41278100D02*
X89531900Y-41278100D01*
X110852900Y-42409100D02*
X109721900Y-41278100D01*
X110852900Y-44323200D02*
X110852900Y-42409100D01*
X107539500Y-47636600D02*
X110852900Y-44323200D01*
%TO.N,+5V*%
X107950000Y-68570000D02*
X107950000Y-70370000D01*
X45125000Y-67295000D02*
X38075000Y-67295000D01*
X46410000Y-68580000D02*
X45125000Y-67295000D01*
X48260000Y-68580000D02*
X46410000Y-68580000D01*
X54610000Y-73080000D02*
X50110000Y-68580000D01*
X54610000Y-82550000D02*
X54610000Y-73080000D01*
X48260000Y-68580000D02*
X50110000Y-68580000D01*
X113335000Y-63185000D02*
X120197200Y-63185000D01*
X107950000Y-68570000D02*
X113335000Y-63185000D01*
X103675100Y-74644900D02*
X103675100Y-76075700D01*
X107950000Y-70370000D02*
X103675100Y-74644900D01*
%TO.N,Net-(D8-A)*%
X105410000Y-43180000D02*
X105410000Y-45380000D01*
X92587800Y-58202200D02*
X92587800Y-79305400D01*
X105410000Y-45380000D02*
X92587800Y-58202200D01*
%TO.N,GND*%
X118140000Y-60960000D02*
X118140000Y-59660000D01*
X116840000Y-60960000D02*
X116840000Y-60310000D01*
X116840000Y-60310000D02*
X116840000Y-59660000D01*
X48260000Y-83820000D02*
X48260000Y-71120000D01*
X54610000Y-90170000D02*
X48260000Y-83820000D01*
X38075000Y-69835000D02*
X39925000Y-69835000D01*
X41210000Y-71120000D02*
X39925000Y-69835000D01*
X48260000Y-71120000D02*
X41210000Y-71120000D01*
X107950000Y-83810000D02*
X107950000Y-82010000D01*
D23*
X102870000Y-68570000D02*
X102870000Y-70370000D01*
D24*
X101960300Y-76807800D02*
X101960300Y-71279700D01*
X107162500Y-82010000D02*
X101960300Y-76807800D01*
X107950000Y-82010000D02*
X107162500Y-82010000D01*
D23*
X101960300Y-71279700D02*
X102870000Y-70370000D01*
X99983500Y-71279700D02*
X97618700Y-68914900D01*
X101960300Y-71279700D02*
X99983500Y-71279700D01*
D22*
%TO.N,Net-(A1-A2)*%
X96956900Y-101495600D02*
X94167300Y-101495600D01*
X114300000Y-84152500D02*
X96956900Y-101495600D01*
X114300000Y-78885000D02*
X114300000Y-84152500D01*
X123190000Y-69995000D02*
X114300000Y-78885000D01*
X123190000Y-68570000D02*
X123190000Y-69995000D01*
%TO.N,Net-(A1-A1)*%
X126871800Y-102790600D02*
X127467500Y-103386300D01*
X126871800Y-71136800D02*
X126871800Y-102790600D01*
X125730000Y-69995000D02*
X126871800Y-71136800D01*
X125730000Y-68570000D02*
X125730000Y-69995000D01*
%TO.N,Net-(A1-A0)*%
X110346400Y-70116900D02*
X107936900Y-72526400D01*
X113127100Y-70116900D02*
X110346400Y-70116900D01*
X114156900Y-69087100D02*
X113127100Y-70116900D01*
X114156900Y-68363200D02*
X114156900Y-69087100D01*
X115089700Y-67430400D02*
X114156900Y-68363200D01*
X127130400Y-67430400D02*
X115089700Y-67430400D01*
X128270000Y-68570000D02*
X127130400Y-67430400D01*
%TO.N,Net-(A1-D10)*%
X130810000Y-83810000D02*
X130810000Y-82385000D01*
X98729700Y-58680500D02*
X98382700Y-59027500D01*
X118961800Y-58680500D02*
X98729700Y-58680500D01*
X124341100Y-64059800D02*
X118961800Y-58680500D01*
X125421700Y-64059800D02*
X124341100Y-64059800D01*
X129520000Y-68158100D02*
X125421700Y-64059800D01*
X129520000Y-81095000D02*
X129520000Y-68158100D01*
X130810000Y-82385000D02*
X129520000Y-81095000D01*
%TO.N,Net-(A1-D5)*%
X52635300Y-58087600D02*
X68668800Y-74121100D01*
%TD*%
M02*
